<svg width="111" height="120" viewBox="0 0 111 120" fill="none" xmlns="http://www.w3.org/2000/svg">
<path d="M110.905 60.6512H110.876C110.876 47.7532 111.198 34.8552 110.788 21.9719C110.348 8.11789 103.01 0.89677 89.5779 0.0731801C75.311 -0.779824 66.6836 5.83831 64.1056 19.1922C63.3293 23.2955 62.7287 27.3399 62.9924 31.4726C63.2267 35.1934 61.7619 36.5612 57.9536 36.6494C49.663 36.8553 48.3301 35.6346 48.2275 26.3398C48.0371 7.73551 44.1994 1.91155 28.9805 0.367319C11.9013 -1.38281 0.930236 4.35291 0.461511 21.8689C-0.226929 47.1502 -0.0804524 72.4756 0.476159 97.7569C0.666578 106.758 4.2699 114.876 14.0838 118.185C24.8206 121.817 37.1392 119.641 43.0276 112.64C48.4326 106.199 48.3008 98.2569 48.1396 90.5063C48.0371 85.653 48.5937 82.8293 54.6578 83.0058C60.3558 83.1528 63.549 84.4618 62.9777 90.7711C62.4797 96.1685 63.5783 101.478 65.1895 106.522C68.5731 117.082 78.7093 121.553 93.562 119.523C103.845 118.126 110.553 110.346 110.846 98.5952C111.154 85.9472 110.905 73.2992 110.905 60.6512ZM90.2809 107.905C77.4496 108.375 74.6812 105.919 74.5054 93.2859C74.271 76.8583 69.7742 71.9608 53.6911 71.5491C49.6776 71.4461 47.9492 69.9166 47.3047 66.3428C46.792 63.4896 46.8799 60.4747 45.1662 57.9451C41.3724 52.3859 36.5094 48.1208 29.4199 50.0328C22.9457 51.7976 18.566 56.4009 17.7311 63.4749C16.7204 72.1226 19.7232 77.8289 26.4025 81.0203C29.6396 82.5646 34.8982 81.6086 36.0407 84.8883C37.4761 89.0209 36.817 94.0066 36.5387 98.5952C36.1432 105.287 32.5838 107.816 24.3372 107.861C16.2077 107.919 12.0625 105.287 12.0039 98.7422C11.7695 72.9609 11.7695 47.1796 12.0039 21.413C12.0771 14.1183 17.1452 11.074 26.1242 11.9564C34.9567 12.8094 36.5387 14.6331 36.6852 24.0014C36.7584 27.6193 36.6266 31.2078 37.7398 34.811C41.0209 45.3854 44.4338 48.4885 55.4195 48.1061C61.3518 47.9002 63.505 50.1063 64.3253 55.6214C65.6582 64.6221 71.9567 70.196 79.7639 70.0636C86.3554 69.9607 92.2437 64.4015 93.4009 57.2098C94.9535 47.7238 91.2623 41.1792 83.0303 37.9289C80.2473 36.8259 75.56 37.9877 74.9741 34.4287C74.066 29.0459 73.4361 23.2514 75.7944 17.9274C78.1966 12.5006 89.6218 10.2504 95.8031 13.7948C99.0256 15.6332 99.3771 18.6775 99.3625 21.9866C99.3185 34.8699 99.3625 47.7532 99.3625 60.6512C99.3625 73.5492 99.1574 85.9472 99.4504 98.5805C99.5968 105.272 96.4769 107.669 90.2956 107.905H90.2809ZM36.6412 67.1958C36.5973 69.7695 36.1578 71.6079 33.8728 71.1078C31.0898 70.4902 27.8966 69.6519 28.2921 65.8133C28.5264 63.5926 30.1523 61.4748 32.6131 61.916C35.5866 62.4454 36.5533 65.0633 36.6412 67.1958ZM74.5201 51.7241C74.4468 49.3415 75.4429 48.9886 77.64 49.3121C80.8478 49.7974 83.3965 50.6652 83.0889 54.5625C82.9132 56.7833 81.5363 57.9745 79.2805 58.1804C76.0288 57.2245 74.6372 55.0037 74.5201 51.7241Z" fill="#A3EAD5"/>
</svg>
