<svg width="156" height="48" viewBox="0 0 156 48" fill="none" xmlns="http://www.w3.org/2000/svg">
<rect width="156" height="48" rx="8" fill="#8E64FF"/>
<path d="M34.1932 22C34.0838 21.6652 33.9396 21.3653 33.7607 21.1001C33.585 20.8317 33.3745 20.603 33.1293 20.4141C32.8873 20.2251 32.6122 20.081 32.304 19.9815C31.9957 19.8821 31.6577 19.8324 31.2898 19.8324C30.6866 19.8324 30.138 19.9882 29.6442 20.2997C29.1503 20.6113 28.7576 21.0703 28.4659 21.6768C28.1742 22.2834 28.0284 23.0275 28.0284 23.9091C28.0284 24.7907 28.1759 25.5348 28.4709 26.1413C28.7659 26.7479 29.1652 27.2069 29.669 27.5185C30.1728 27.83 30.7396 27.9858 31.3693 27.9858C31.9527 27.9858 32.4664 27.8615 32.9105 27.6129C33.358 27.361 33.706 27.0064 33.9545 26.549C34.2064 26.0883 34.3324 25.5464 34.3324 24.9233L34.7102 25.0028H31.6477V23.9091H35.5256V25.0028C35.5256 25.8414 35.3466 26.5705 34.9886 27.1903C34.634 27.8101 34.1435 28.2907 33.517 28.6321C32.8939 28.9702 32.178 29.1392 31.3693 29.1392C30.4678 29.1392 29.6757 28.9271 28.9929 28.5028C28.3134 28.0786 27.7831 27.4754 27.402 26.6932C27.0241 25.911 26.8352 24.983 26.8352 23.9091C26.8352 23.1037 26.9429 22.3795 27.1584 21.7365C27.3771 21.0902 27.6854 20.54 28.0831 20.0859C28.4808 19.6319 28.9515 19.2839 29.495 19.0419C30.0386 18.8 30.6368 18.679 31.2898 18.679C31.8267 18.679 32.3272 18.7602 32.7912 18.9226C33.2585 19.0817 33.6745 19.3087 34.0391 19.6037C34.407 19.8954 34.7135 20.245 34.9588 20.6527C35.2041 21.0571 35.3731 21.5062 35.4659 22H34.1932ZM40.6799 29.1591C39.9441 29.1591 39.3094 28.9967 38.7757 28.6719C38.2454 28.3438 37.8361 27.8864 37.5478 27.2997C37.2627 26.7098 37.1202 26.0237 37.1202 25.2415C37.1202 24.4593 37.2627 23.7699 37.5478 23.1733C37.8361 22.5734 38.2372 22.1061 38.7509 21.7713C39.2679 21.4332 39.8712 21.2642 40.5605 21.2642C40.9583 21.2642 41.351 21.3305 41.7388 21.4631C42.1266 21.5956 42.4796 21.8111 42.7978 22.1094C43.1159 22.4044 43.3695 22.7955 43.5584 23.2827C43.7473 23.7699 43.8418 24.3698 43.8418 25.0824V25.5795H37.9554V24.5653H42.6486C42.6486 24.1345 42.5624 23.75 42.3901 23.4119C42.2211 23.0739 41.9791 22.8071 41.6642 22.6115C41.3527 22.416 40.9848 22.3182 40.5605 22.3182C40.0932 22.3182 39.6889 22.4342 39.3475 22.6662C39.0094 22.8949 38.7492 23.1932 38.5669 23.5611C38.3846 23.929 38.2935 24.3234 38.2935 24.7443V25.4205C38.2935 25.9972 38.3929 26.486 38.5918 26.8871C38.794 27.2848 39.074 27.5881 39.432 27.7969C39.79 28.0024 40.2059 28.1051 40.6799 28.1051C40.9881 28.1051 41.2665 28.062 41.5151 27.9759C41.767 27.8864 41.9841 27.7538 42.1664 27.5781C42.3487 27.3991 42.4895 27.1771 42.589 26.9119L43.7225 27.2301C43.6032 27.6146 43.4026 27.9527 43.1209 28.2443C42.8392 28.5327 42.4912 28.758 42.0769 28.9205C41.6626 29.0795 41.1969 29.1591 40.6799 29.1591ZM48.9476 21.3636V22.358H44.9902V21.3636H48.9476ZM46.1436 19.5341H47.3169V26.8125C47.3169 27.1439 47.365 27.3925 47.4611 27.5582C47.5605 27.7206 47.6865 27.83 47.839 27.8864C47.9947 27.9394 48.1588 27.9659 48.3311 27.9659C48.4604 27.9659 48.5665 27.9593 48.6493 27.946C48.7322 27.9295 48.7985 27.9162 48.8482 27.9062L49.0868 28.9602C49.0073 28.9901 48.8962 29.0199 48.7537 29.0497C48.6112 29.0829 48.4306 29.0994 48.2118 29.0994C47.8804 29.0994 47.5556 29.0282 47.2374 28.8857C46.9225 28.7431 46.6607 28.526 46.4519 28.2344C46.2464 27.9427 46.1436 27.5748 46.1436 27.1307V19.5341ZM56.8972 29.179C56.4133 29.179 55.9741 29.0878 55.5797 28.9055C55.1853 28.7199 54.8721 28.4531 54.6401 28.1051C54.4081 27.7538 54.2921 27.3295 54.2921 26.8324C54.2921 26.3949 54.3783 26.0402 54.5506 25.7685C54.723 25.4934 54.9533 25.2779 55.2417 25.1222C55.53 24.9664 55.8482 24.8504 56.1962 24.7741C56.5475 24.6946 56.9005 24.6316 57.2551 24.5852C57.7192 24.5256 58.0953 24.4808 58.3837 24.451C58.6754 24.4179 58.8875 24.3632 59.0201 24.2869C59.156 24.2107 59.2239 24.0781 59.2239 23.8892V23.8494C59.2239 23.3589 59.0897 22.9777 58.8212 22.706C58.556 22.4342 58.1534 22.2983 57.6131 22.2983C57.053 22.2983 56.6138 22.4209 56.2956 22.6662C55.9775 22.9115 55.7537 23.1733 55.6245 23.4517L54.5108 23.054C54.7097 22.59 54.9748 22.2287 55.3063 21.9702C55.641 21.7083 56.0056 21.526 56.4 21.4233C56.7978 21.3172 57.1889 21.2642 57.5733 21.2642C57.8186 21.2642 58.1003 21.294 58.4185 21.3537C58.74 21.41 59.0499 21.5277 59.3482 21.7067C59.6498 21.8857 59.9 22.1558 60.0989 22.517C60.2978 22.8783 60.3972 23.3622 60.3972 23.9688V29H59.2239V27.9659H59.1642C59.0847 28.1316 58.9521 28.3089 58.7665 28.4979C58.5809 28.6868 58.334 28.8475 58.0257 28.9801C57.7175 29.1127 57.3413 29.179 56.8972 29.179ZM57.0762 28.125C57.5402 28.125 57.9313 28.0339 58.2495 27.8516C58.571 27.6693 58.8129 27.4339 58.9753 27.1456C59.141 26.8572 59.2239 26.554 59.2239 26.2358V25.1619C59.1742 25.2216 59.0648 25.2763 58.8958 25.326C58.7301 25.3724 58.5378 25.4138 58.3191 25.4503C58.1036 25.4834 57.8932 25.5133 57.6877 25.5398C57.4855 25.563 57.3214 25.5829 57.1955 25.5994C56.8906 25.6392 56.6055 25.7038 56.3404 25.7933C56.0785 25.8795 55.8664 26.0104 55.704 26.1861C55.5449 26.3584 55.4654 26.5937 55.4654 26.892C55.4654 27.2997 55.6162 27.608 55.9178 27.8168C56.2227 28.0223 56.6088 28.125 57.0762 28.125ZM70.3342 25.8182H71.6864L72.82 27.3097L73.1183 27.7074L74.8086 29.9545H73.4563L72.3427 28.4631L72.0643 28.0852L70.3342 25.8182ZM75.2262 23.9091C75.2262 24.983 75.0323 25.911 74.6445 26.6932C74.2567 27.4754 73.7248 28.0786 73.0487 28.5028C72.3725 28.9271 71.6003 29.1392 70.7319 29.1392C69.8635 29.1392 69.0913 28.9271 68.4151 28.5028C67.739 28.0786 67.207 27.4754 66.8192 26.6932C66.4315 25.911 66.2376 24.983 66.2376 23.9091C66.2376 22.8352 66.4315 21.9072 66.8192 21.125C67.207 20.3428 67.739 19.7396 68.4151 19.3153C69.0913 18.8911 69.8635 18.679 70.7319 18.679C71.6003 18.679 72.3725 18.8911 73.0487 19.3153C73.7248 19.7396 74.2567 20.3428 74.6445 21.125C75.0323 21.9072 75.2262 22.8352 75.2262 23.9091ZM74.033 23.9091C74.033 23.0275 73.8855 22.2834 73.5906 21.6768C73.2989 21.0703 72.9028 20.6113 72.4023 20.2997C71.9052 19.9882 71.3484 19.8324 70.7319 19.8324C70.1154 19.8324 69.5569 19.9882 69.0565 20.2997C68.5593 20.6113 68.1632 21.0703 67.8683 21.6768C67.5766 22.2834 67.4308 23.0275 67.4308 23.9091C67.4308 24.7907 67.5766 25.5348 67.8683 26.1413C68.1632 26.7479 68.5593 27.2069 69.0565 27.5185C69.5569 27.83 70.1154 27.9858 70.7319 27.9858C71.3484 27.9858 71.9052 27.83 72.4023 27.5185C72.9028 27.2069 73.2989 26.7479 73.5906 26.1413C73.8855 25.5348 74.033 24.7907 74.033 23.9091ZM81.9528 25.8778V21.3636H83.1261V29H81.9528V27.7074H81.8732C81.6942 28.0952 81.4158 28.425 81.038 28.6967C80.6602 28.9652 80.1829 29.0994 79.6062 29.0994C79.1289 29.0994 78.7047 28.995 78.3335 28.7862C77.9622 28.5741 77.6706 28.2559 77.4585 27.8317C77.2463 27.4041 77.1403 26.8655 77.1403 26.2159V21.3636H78.3136V26.1364C78.3136 26.6932 78.4693 27.1373 78.7809 27.4688C79.0958 27.8002 79.4968 27.9659 79.984 27.9659C80.2757 27.9659 80.5723 27.8913 80.8739 27.7422C81.1789 27.593 81.4341 27.3643 81.6396 27.0561C81.8484 26.7479 81.9528 26.3551 81.9528 25.8778ZM88.3773 29.1591C87.6879 29.1591 87.083 28.995 86.5627 28.6669C86.0456 28.3388 85.6413 27.8797 85.3496 27.2898C85.0613 26.6998 84.9171 26.0104 84.9171 25.2216C84.9171 24.4261 85.0613 23.7318 85.3496 23.1385C85.6413 22.5452 86.0456 22.0845 86.5627 21.7564C87.083 21.4283 87.6879 21.2642 88.3773 21.2642C89.0667 21.2642 89.6699 21.4283 90.187 21.7564C90.7073 22.0845 91.1117 22.5452 91.4 23.1385C91.6917 23.7318 91.8375 24.4261 91.8375 25.2216C91.8375 26.0104 91.6917 26.6998 91.4 27.2898C91.1117 27.8797 90.7073 28.3388 90.187 28.6669C89.6699 28.995 89.0667 29.1591 88.3773 29.1591ZM88.3773 28.1051C88.901 28.1051 89.3319 27.9709 89.6699 27.7024C90.008 27.4339 90.2582 27.081 90.4206 26.6435C90.583 26.206 90.6642 25.732 90.6642 25.2216C90.6642 24.7112 90.583 24.2356 90.4206 23.7947C90.2582 23.3539 90.008 22.9976 89.6699 22.7259C89.3319 22.4541 88.901 22.3182 88.3773 22.3182C87.8536 22.3182 87.4228 22.4541 87.0847 22.7259C86.7466 22.9976 86.4964 23.3539 86.334 23.7947C86.1716 24.2356 86.0904 24.7112 86.0904 25.2216C86.0904 25.732 86.1716 26.206 86.334 26.6435C86.4964 27.081 86.7466 27.4339 87.0847 27.7024C87.4228 27.9709 87.8536 28.1051 88.3773 28.1051ZM96.9496 21.3636V22.358H92.9922V21.3636H96.9496ZM94.1456 19.5341H95.3189V26.8125C95.3189 27.1439 95.367 27.3925 95.4631 27.5582C95.5625 27.7206 95.6884 27.83 95.8409 27.8864C95.9967 27.9394 96.1607 27.9659 96.3331 27.9659C96.4624 27.9659 96.5684 27.9593 96.6513 27.946C96.7341 27.9295 96.8004 27.9162 96.8501 27.9062L97.0888 28.9602C97.0092 28.9901 96.8982 29.0199 96.7557 29.0497C96.6132 29.0829 96.4325 29.0994 96.2138 29.0994C95.8823 29.0994 95.5575 29.0282 95.2393 28.8857C94.9245 28.7431 94.6626 28.526 94.4538 28.2344C94.2483 27.9427 94.1456 27.5748 94.1456 27.1307V19.5341ZM101.834 29.1591C101.098 29.1591 100.464 28.9967 99.93 28.6719C99.3997 28.3438 98.9904 27.8864 98.7021 27.2997C98.417 26.7098 98.2745 26.0237 98.2745 25.2415C98.2745 24.4593 98.417 23.7699 98.7021 23.1733C98.9904 22.5734 99.3915 22.1061 99.9052 21.7713C100.422 21.4332 101.025 21.2642 101.715 21.2642C102.113 21.2642 102.505 21.3305 102.893 21.4631C103.281 21.5956 103.634 21.8111 103.952 22.1094C104.27 22.4044 104.524 22.7955 104.713 23.2827C104.902 23.7699 104.996 24.3698 104.996 25.0824V25.5795H99.1097V24.5653H103.803C103.803 24.1345 103.717 23.75 103.544 23.4119C103.375 23.0739 103.133 22.8071 102.819 22.6115C102.507 22.416 102.139 22.3182 101.715 22.3182C101.248 22.3182 100.843 22.4342 100.502 22.6662C100.164 22.8949 99.9035 23.1932 99.7212 23.5611C99.5389 23.929 99.4478 24.3234 99.4478 24.7443V25.4205C99.4478 25.9972 99.5472 26.486 99.7461 26.8871C99.9483 27.2848 100.228 27.5881 100.586 27.7969C100.944 28.0024 101.36 28.1051 101.834 28.1051C102.142 28.1051 102.421 28.062 102.669 27.9759C102.921 27.8864 103.138 27.7538 103.321 27.5781C103.503 27.3991 103.644 27.1771 103.743 26.9119L104.877 27.2301C104.757 27.6146 104.557 27.9527 104.275 28.2443C103.993 28.5327 103.645 28.758 103.231 28.9205C102.817 29.0795 102.351 29.1591 101.834 29.1591Z" fill="white"/>
<path d="M115.833 28.1667L124.167 19.8334" stroke="white" strokeLinecap="round" strokeLinejoin="round"/>
<path d="M115.833 19.8334H124.167V28.1667" stroke="white" strokeLinecap="round" strokeLinejoin="round"/>
</svg>
