<svg width="189" height="151" viewBox="0 0 189 151" fill="none" xmlns="http://www.w3.org/2000/svg">
<g clip-path="url(#clip0_416_15768)">
<path d="M9.14222 141.844V66.3372L68.9172 6.47364L62.4532 0L0 62.5457V141.844V151H9.14222H188.874L189 141.844H9.14222Z" fill="#D90866"/>
<path d="M84.1169 95.0122L77.7931 84.1713H71.1187V95.0122H67.3608V66.7024H78.6624C81.0882 66.7024 83.1634 67.559 84.8741 69.2722C86.5988 70.9854 87.4541 73.0496 87.4541 75.479C87.4541 77.3186 86.9072 78.9896 85.8135 80.4922C84.7198 82.0088 83.3177 83.062 81.593 83.6799L88.2533 94.9982H84.0889L84.1169 95.0122ZM71.1187 70.2271V80.7871H78.6764C80.0786 80.7871 81.2705 80.2675 82.252 79.2284C83.2335 78.1892 83.7243 76.9394 83.7243 75.493C83.7243 74.0466 83.2335 72.7968 82.252 71.7717C81.2705 70.7466 80.0786 70.2411 78.6764 70.2411H71.1187V70.2271Z" fill="white"/>
<path d="M107.688 92.4564C105.612 94.5067 103.102 95.5318 100.144 95.5318C97.1852 95.5318 94.6753 94.5067 92.6141 92.4564C90.5529 90.4062 89.5293 87.8926 89.5293 84.8875C89.5293 81.8824 90.5529 79.3687 92.6141 77.3185C94.6753 75.2683 97.1852 74.2432 100.144 74.2432C103.102 74.2432 105.626 75.2683 107.688 77.3185C109.763 79.3687 110.8 81.8824 110.8 84.8875C110.8 87.8926 109.763 90.4062 107.688 92.4564ZM100.144 92.0913C102.163 92.0913 103.86 91.4032 105.234 90.0271C106.608 88.6509 107.295 86.9377 107.295 84.8875C107.295 82.8373 106.608 81.1241 105.234 79.7479C103.86 78.3717 102.163 77.6836 100.144 77.6836C98.1247 77.6836 96.4701 78.3717 95.096 79.7479C93.7218 81.1241 93.0347 82.8373 93.0347 84.8875C93.0347 86.9377 93.7218 88.6509 95.096 90.0271C96.4701 91.4032 98.1527 92.0913 100.144 92.0913Z" fill="white"/>
<path d="M132.002 92.4564C129.926 94.5067 127.416 95.5318 124.458 95.5318C121.499 95.5318 118.989 94.5067 116.928 92.4564C114.867 90.4062 113.843 87.8926 113.843 84.8875C113.843 81.8824 114.867 79.3687 116.928 77.3185C118.989 75.2683 121.499 74.2432 124.458 74.2432C127.416 74.2432 129.94 75.2683 132.002 77.3185C134.077 79.3687 135.114 81.8824 135.114 84.8875C135.114 87.8926 134.077 90.4062 132.002 92.4564ZM124.458 92.0913C126.477 92.0913 128.174 91.4032 129.548 90.0271C130.922 88.6509 131.609 86.9377 131.609 84.8875C131.609 82.8373 130.922 81.1241 129.548 79.7479C128.174 78.3717 126.477 77.6836 124.458 77.6836C122.439 77.6836 120.784 78.3717 119.41 79.7479C118.036 81.1241 117.349 82.8373 117.349 84.8875C117.349 86.9377 118.036 88.6509 119.41 90.0271C120.784 91.4032 122.467 92.0913 124.458 92.0913Z" fill="white"/>
<path d="M161.069 74.2572C163.326 74.2572 165.163 74.9874 166.565 76.4619C167.967 77.9364 168.668 79.9164 168.668 82.43V95.0122H165.163V82.5564C165.163 80.9977 164.756 79.776 163.957 78.9194C163.144 78.0628 162.078 77.6275 160.732 77.6275C159.218 77.6275 158.026 78.133 157.114 79.1441C156.217 80.1551 155.768 81.6998 155.768 83.7781V95.0262H152.249V82.5704C152.249 81.0117 151.87 79.79 151.099 78.9334C150.328 78.0768 149.29 77.6415 147.972 77.6415C146.486 77.6415 145.266 78.147 144.284 79.1721C143.303 80.1972 142.812 81.7279 142.812 83.7781V95.0262H139.307V74.8049H142.812V77.5151C144.186 75.3526 146.191 74.2853 148.827 74.2853C151.464 74.2853 153.525 75.4368 154.759 77.7257C156.161 75.4368 158.278 74.2853 161.097 74.2853L161.069 74.2572Z" fill="white"/>
<path d="M104.336 103.634V125.723H101.434V108.465L94.2267 120.485H93.8621L86.6268 108.451V125.723H83.6963V103.634H87.0054L94.0584 115.36L101.055 103.634H104.322H104.336Z" fill="white"/>
<path d="M121.822 109.954H124.556V125.723H121.822V123.013C120.461 125.091 118.47 126.131 115.862 126.131C113.661 126.131 111.782 125.33 110.226 123.715C108.669 122.1 107.898 120.148 107.898 117.831C107.898 115.514 108.669 113.562 110.226 111.948C111.782 110.333 113.661 109.532 115.862 109.532C118.47 109.532 120.447 110.571 121.822 112.65V109.939V109.954ZM116.213 123.491C117.811 123.491 119.143 122.957 120.209 121.862C121.275 120.766 121.822 119.432 121.822 117.845C121.822 116.259 121.289 114.911 120.209 113.829C119.143 112.748 117.811 112.2 116.213 112.2C114.614 112.2 113.31 112.748 112.245 113.829C111.179 114.911 110.632 116.259 110.632 117.845C110.632 119.432 111.165 120.78 112.245 121.862C113.31 122.943 114.642 123.491 116.213 123.491Z" fill="white"/>
<path d="M137.288 112.594H133.095V121.145C133.095 121.918 133.249 122.479 133.558 122.802C133.866 123.125 134.329 123.294 134.96 123.308C135.591 123.308 136.362 123.308 137.288 123.266V125.723C134.89 126.032 133.137 125.85 132.029 125.134C130.922 124.417 130.361 123.097 130.361 121.145V112.594H127.248V109.939H130.361V106.345L133.095 105.53V109.954H137.288V112.608V112.594Z" fill="white"/>
<path d="M141.662 119.095C141.929 120.5 142.574 121.595 143.597 122.381C144.621 123.154 145.869 123.547 147.355 123.547C149.43 123.547 150.945 122.774 151.898 121.244L154.226 122.564C152.697 124.937 150.384 126.131 147.299 126.131C144.803 126.131 142.77 125.344 141.2 123.786C139.629 122.213 138.858 120.233 138.858 117.845C138.858 115.458 139.629 113.492 141.157 111.92C142.686 110.347 144.677 109.546 147.117 109.546C149.43 109.546 151.309 110.361 152.768 111.99C154.226 113.619 154.955 115.585 154.955 117.874C154.955 118.267 154.927 118.688 154.857 119.109H141.662V119.095ZM147.117 112.116C145.644 112.116 144.425 112.537 143.457 113.366C142.49 114.194 141.887 115.304 141.662 116.694H152.179C151.94 115.205 151.365 114.068 150.412 113.282C149.472 112.509 148.365 112.116 147.103 112.116H147.117Z" fill="white"/>
<path d="M159.849 114.166C159.849 114.77 160.157 115.234 160.774 115.599C161.391 115.964 162.134 116.259 162.99 116.511C163.845 116.764 164.7 117.017 165.57 117.27C166.439 117.522 167.168 118 167.771 118.702C168.374 119.404 168.669 120.303 168.669 121.398C168.669 122.831 168.122 123.982 167.014 124.839C165.906 125.695 164.504 126.131 162.779 126.131C161.251 126.131 159.933 125.794 158.839 125.12C157.746 124.445 156.974 123.547 156.512 122.437L158.881 121.075C159.134 121.834 159.611 122.437 160.298 122.873C160.985 123.308 161.826 123.533 162.779 123.533C163.677 123.533 164.434 123.364 165.023 123.013C165.612 122.662 165.906 122.128 165.906 121.384C165.906 120.78 165.598 120.289 164.995 119.924C164.392 119.559 163.649 119.25 162.793 118.983C161.938 118.73 161.083 118.463 160.213 118.211C159.344 117.958 158.615 117.48 157.998 116.806C157.395 116.132 157.087 115.276 157.087 114.222C157.087 112.86 157.619 111.737 158.671 110.852C159.723 109.968 161.055 109.532 162.653 109.532C163.929 109.532 165.079 109.827 166.075 110.403C167.07 110.979 167.827 111.793 168.332 112.818L166.033 114.11C165.472 112.762 164.336 112.088 162.667 112.088C161.896 112.088 161.223 112.271 160.676 112.622C160.129 112.987 159.863 113.492 159.863 114.152L159.849 114.166Z" fill="white"/>
<path d="M65.5661 111.077L67.5993 107.721L70.9786 101.935H60.7987L59.1161 104.702L44.0987 89.7463C41.9815 87.4573 40.4951 85.5896 39.6538 84.1433C38.8125 82.7109 38.3919 81.2505 38.3919 79.776C38.3919 78.3015 38.9387 76.9535 40.0605 75.9003C41.1682 74.833 42.6265 74.2994 44.4212 74.2994C46.216 74.2994 47.6322 74.8611 48.6699 75.9705C49.7075 77.0939 50.1842 78.6667 50.1421 80.6747H59.4386C59.663 78.0628 59.2143 75.6896 58.0925 73.5692C56.9848 71.4347 55.2882 69.7636 53.0306 68.5419C50.7731 67.3202 48.0389 66.7024 44.8279 66.7024C41.6169 66.7024 38.8967 67.2781 36.5129 68.4156C34.1152 69.5671 32.2784 71.1117 31.0024 73.0777C29.7264 75.0437 29.0814 77.2764 29.0814 79.776C29.0814 81.7982 29.4039 83.6377 30.0629 85.2948C30.7219 86.9518 31.8297 88.7352 33.4141 90.645C28.9973 92.4424 25.6881 94.8858 23.4586 97.9612C21.2151 101.037 20.1074 104.533 20.1074 108.465C20.1074 111.948 20.9487 115.009 22.6313 117.663C24.328 120.303 26.7117 122.325 29.8245 123.743C32.9234 125.162 36.4849 125.864 40.5092 125.864C44.5334 125.864 48.0669 125.204 51.2779 123.87C54.4889 122.536 57.4475 120.5 60.1677 117.775L67.1927 124.811H79.3496L65.5661 111.077ZM40.5092 117.944C37.2421 117.944 34.5779 117.003 32.5167 115.121C30.4415 113.24 29.4039 110.908 29.4039 108.142C29.4039 102.96 32.6149 99.0986 39.0369 96.5288L54.0542 111.653C50.1421 115.851 45.6271 117.944 40.5092 117.944Z" fill="#D90866"/>
</g>
<defs>
<clipPath id="clip0_416_15768">
<rect width="189" height="151" fill="white"/>
</clipPath>
</defs>
</svg>
