<svg width="209" height="133" viewBox="0 0 209 133" fill="none" xmlns="http://www.w3.org/2000/svg">
<g clip-path="url(#clip0_297_578)">
<path d="M0 97.9836L48.122 30.0081H65.1331L17.0111 97.9836H0ZM0 108.052V97.9836L12.4672 94.8352H64.1141V108.052H0ZM2.90104 33.1565V19.9396H65.1331V30.0081L52.5307 33.1565H2.90104Z" fill="white"/>
<path d="M99.3946 109.32C93.9356 109.32 88.9966 107.938 84.5878 105.164C80.1791 102.389 76.6957 98.6382 74.1274 93.9001C71.5695 89.162 70.2802 83.8523 70.2802 77.9712C70.2802 72.0902 71.5591 66.6662 74.1274 61.9177C76.6853 57.1796 80.1791 53.3974 84.5878 50.5919C88.9966 47.7761 93.9252 46.3734 99.3946 46.3734C104.011 46.3734 108.108 47.3605 111.675 49.3347C115.241 51.3089 118.08 54.0105 120.18 57.4498C122.281 60.8891 123.331 64.7959 123.331 69.16V86.5331C123.331 90.8972 122.301 94.8041 120.243 98.2434C118.184 101.683 115.345 104.395 111.737 106.358C108.129 108.333 104.011 109.32 99.3946 109.32ZM101.661 96.2276C106.788 96.2276 110.916 94.5131 114.066 91.0634C117.217 87.6241 118.787 83.2185 118.787 77.8466C118.787 74.241 118.069 71.0511 116.645 68.2768C115.22 65.5025 113.224 63.3516 110.666 61.793C108.108 60.2448 105.103 59.4655 101.661 59.4655C98.2196 59.4655 95.3394 60.2448 92.7815 61.793C90.2235 63.3516 88.2063 65.5025 86.7298 68.2768C85.2637 71.0511 84.5254 74.241 84.5254 77.8466C84.5254 81.4521 85.2637 84.642 86.7298 87.4163C88.1959 90.1906 90.2131 92.3519 92.7815 93.9001C95.3394 95.4587 98.3028 96.2276 101.661 96.2276ZM117.913 108.062V91.822L120.305 77.0984L117.913 62.4996V47.641H131.774V108.062H117.913Z" fill="white"/>
<path d="M147.142 133.239V47.6306H161.003V63.8712L158.611 78.6051L161.003 93.2039V133.239H147.142ZM179.522 109.32C174.905 109.32 170.787 108.333 167.179 106.358C163.571 104.384 160.732 101.683 158.674 98.2434C156.615 94.8041 155.585 90.8972 155.585 86.5331V69.16C155.585 64.7959 156.636 60.8994 158.736 57.4498C160.836 54.0105 163.685 51.2985 167.304 49.3347C170.912 47.3605 174.988 46.3734 179.522 46.3734C184.981 46.3734 189.92 47.7761 194.328 50.5919C198.737 53.4078 202.22 57.1796 204.789 61.9177C207.347 66.6559 208.636 72.007 208.636 77.9712C208.636 83.9355 207.357 89.1516 204.789 93.9001C202.231 98.6382 198.737 102.4 194.328 105.164C189.92 107.938 184.981 109.32 179.522 109.32ZM177.255 96.2276C180.613 96.2276 183.577 95.4483 186.135 93.9001C188.693 92.3519 190.71 90.1906 192.186 87.4163C193.653 84.642 194.391 81.4625 194.391 77.8466C194.391 74.2306 193.653 71.0511 192.186 68.2768C190.72 65.5025 188.703 63.3516 186.135 61.793C183.577 60.2448 180.613 59.4655 177.255 59.4655C173.896 59.4655 170.912 60.2448 168.313 61.793C165.713 63.3516 163.696 65.5025 162.261 68.2768C160.836 71.0511 160.119 74.241 160.119 77.8466C160.119 81.4521 160.836 84.642 162.261 87.4163C163.685 90.1906 165.703 92.3519 168.313 93.9001C170.912 95.4587 173.896 96.2276 177.255 96.2276Z" fill="white"/>
<path d="M46.4908 9.01059C46.4908 9.01059 54.0076 18.0826 42.232 16.6121C41.8131 19.7794 41.592 22.1774 41.592 22.1774C41.592 22.1774 52.8905 22.4715 44.2567 30.5594C46.165 32.8783 47.6195 34.8466 47.6195 34.8466C47.6195 34.8466 55.9973 28.0256 55.6017 38.8622L61.3615 39.4844C61.3615 39.4844 61.3033 29.1681 69.5765 36.9732C72.3691 34.9031 73.8352 33.8285 73.8352 33.8285L67.7845 26.261C67.7845 26.261 67.0399 24.9827 68.2384 24.9941C69.3089 25.1524 78.3849 26.1705 78.3849 26.1705L79.0249 20.6051L69.5532 19.5757C69.5532 19.5757 67.5984 19.4513 68.9481 18.2183C70.2979 16.9854 76.2672 12.4154 76.2672 12.4154L72.9858 8.3432L65.3526 13.7502C65.3526 13.7502 63.9796 14.9719 64.0611 13.2525C64.2589 11.4879 65.1781 3.71671 65.1781 3.71671L59.6278 3.11719L58.3013 13.4561C58.3013 13.4561 58.2198 14.1235 57.638 13.7276C57.0795 13.0489 50.9124 5.6397 50.9124 5.6397L46.5257 9.02191L46.4908 9.01059Z" fill="#ED6325"/>
</g>
<defs>
<clipPath id="clip0_297_578">
<rect width="209" height="133" fill="white"/>
</clipPath>
</defs>
</svg>
