<svg width="239" height="79" viewBox="0 0 239 79" fill="none" xmlns="http://www.w3.org/2000/svg">
<path d="M28.1246 78.8949C22.7561 78.8949 17.9484 77.6057 13.7017 75.0274C9.45498 72.3685 6.08965 68.8233 3.60571 64.3918C1.2019 59.9603 0 54.9647 0 49.4052C0 43.7651 1.2019 38.7293 3.60571 34.2978C6.08965 29.7857 9.45498 26.2405 13.7017 23.6622C17.9484 21.0033 22.716 19.6738 28.0044 19.6738C32.3312 19.6738 36.1773 20.5601 39.5426 22.3327C42.9881 24.0247 45.7525 26.4419 47.8358 29.5843C49.9992 32.646 51.3213 36.2315 51.8021 40.3408V58.1071C51.3213 62.2163 49.9992 65.8421 47.8358 68.9844C45.7525 72.1268 42.9881 74.5842 39.5426 76.3568C36.1773 78.0489 32.3713 78.8949 28.1246 78.8949ZM29.4467 70.7973C35.2959 70.7973 39.9833 68.8233 43.5089 64.8752C47.1146 60.9271 48.9175 55.7302 48.9175 49.2843C48.9175 45.014 48.0762 41.2673 46.3935 38.0444C44.791 34.7409 42.5073 32.2029 39.5426 30.4303C36.6581 28.5771 33.2527 27.6505 29.3265 27.6505C25.3201 27.6505 21.7545 28.5771 18.6295 30.4303C15.5847 32.2835 13.1408 34.8618 11.2979 38.1653C9.53511 41.3882 8.65371 45.0946 8.65371 49.2843C8.65371 53.4741 9.53511 57.1805 11.2979 60.4034C13.1408 63.6263 15.6248 66.1644 18.7497 68.0175C21.8747 69.8707 25.4403 70.7973 29.4467 70.7973ZM48.4367 79V62.458L50.1194 48.4383L48.4367 34.7812V20.8824H56.8501V79H48.4367Z" fill="white"/>
<path d="M72.5903 79V20.8824H81.1238V79H72.5903ZM76.797 12.4958C75.1944 12.4958 73.8323 11.9318 72.7105 10.8038C71.5887 9.59518 71.0278 8.18515 71.0278 6.57369C71.0278 4.88166 71.5887 3.47164 72.7105 2.34362C73.8323 1.2156 75.1944 0.651588 76.797 0.651588C78.5598 0.651588 79.962 1.2156 81.0036 2.34362C82.1254 3.47164 82.6863 4.88166 82.6863 6.57369C82.6863 8.18515 82.1254 9.59518 81.0036 10.8038C79.962 11.9318 78.5598 12.4958 76.797 12.4958Z" fill="white"/>
<path d="M120.894 78.8949C115.685 78.8949 110.998 77.6057 106.831 75.0274C102.665 72.4491 99.3396 68.9441 96.8556 64.5126C94.4518 60.0005 93.2499 54.9647 93.2499 49.4052C93.2499 43.7651 94.4518 38.7293 96.8556 34.2978C99.3396 29.7857 102.665 26.2405 106.831 23.6622C110.998 21.0033 115.685 19.6738 120.894 19.6738C125.14 19.6738 128.987 20.5198 132.432 22.2118C135.877 23.9039 138.722 26.3211 140.966 29.4634C143.289 32.5252 144.651 36.151 145.052 40.3408V58.1071C144.571 62.2163 143.209 65.8421 140.966 68.9844C138.802 72.0462 135.998 74.4634 132.552 76.236C129.107 78.0086 125.221 78.8949 120.894 78.8949ZM122.336 70.7973C126.262 70.7973 129.708 69.911 132.672 68.1384C135.637 66.2852 137.961 63.7472 139.643 60.5243C141.326 57.2208 142.167 53.4741 142.167 49.2843C142.167 45.014 141.286 41.2673 139.523 38.0444C137.841 34.8215 135.517 32.2835 132.552 30.4303C129.587 28.5771 126.142 27.6505 122.216 27.6505C118.29 27.6505 114.804 28.5771 111.759 30.4303C108.714 32.2835 106.311 34.8618 104.548 38.1653C102.865 41.3882 102.024 45.0946 102.024 49.2843C102.024 53.4741 102.865 57.2208 104.548 60.5243C106.311 63.7472 108.714 66.2852 111.759 68.1384C114.884 69.911 118.41 70.7973 122.336 70.7973ZM150.1 79H141.687V62.458L143.369 48.4383L141.687 34.7812V0H150.1V79Z" fill="white"/>
<path d="M210.667 27.6499L238.317 27.6499L238.317 39.4999L198.817 39.4999L210.667 27.6499Z" fill="#0044D3"/>
<path d="M210.667 27.65L210.667 0L198.817 -1.03596e-06L198.817 39.5L210.667 27.65Z" fill="white"/>
<path d="M186.967 51.3499L159.317 51.3499L159.317 39.4999L198.817 39.4999L186.967 51.3499Z" fill="#9AC9C2"/>
<path d="M186.967 51.3501L186.967 79.0001L198.817 79.0001L198.817 39.5001L186.967 51.3501Z" fill="white"/>
</svg>
