<svg width="240" height="58" viewBox="0 0 240 58" fill="none" xmlns="http://www.w3.org/2000/svg">
<g clip-path="url(#clip0_416_21159)">
<path d="M9.78229 7.98537L7.91129 35.181C7.47984 41.521 8.98992 42.7239 13.8105 44.0548V44.3729H0V44.0548C3.95772 42.596 4.82062 40.7605 5.1774 35.181L7.04839 6.78245C7.26412 3.99269 5.89925 1.64899 2.7339 0.318099V0H22.4395L33.5867 24.4058L44.8085 0H63.365V0.318099C60.4154 1.39671 58.7601 3.67825 58.9759 7.29068L60.9174 37.4625C61.1331 40.7605 62.8589 42.9762 65.8085 44.0548V44.3729H40.4899V44.0548C43.9415 42.6618 45.9577 39.9342 45.6673 34.9909L44.1572 7.98537L27.1813 45.0055H26.7499L9.78229 7.98537Z" fill="white"/>
<path d="M107.667 36.4497C106.443 42.4717 101.842 45.3236 96.2291 45.3236C91.1928 45.3236 88.2473 43.1042 87.5255 39.6198L87.3097 39.5576C86.1606 42.8519 82.85 45.3273 77.7431 45.3273C71.7734 45.3273 68.3218 41.3967 68.3218 37.1481C68.3218 31.3784 73.7896 27.4479 82.3481 25.8647L87.094 24.9762V23.8976C87.094 19.9049 85.5134 16.4168 79.5436 16.4168C75.0839 16.4168 72.0638 17.9379 70.1928 22.7569L69.6908 22.6289C70.9146 14.8958 76.6687 10.1426 85.8743 10.1426C96.449 10.1426 100.764 16.1645 100.764 24.6581V35.8135C100.764 38.0329 102.058 38.9836 103.497 38.9836C104.647 38.9836 106.302 38.4753 106.949 36.3839L107.667 36.4461V36.4497ZM87.0982 38.2889V26.8775L86.0901 27.0677C81.9913 27.766 80.6223 30.4278 80.6223 33.7879C80.6223 37.1481 82.4186 38.9872 85.082 38.9872C86.0154 38.9872 86.6626 38.7971 87.094 38.2889H87.0982Z" fill="white"/>
<path d="M146.505 45.0055C146.505 50.2669 142.191 58 126.223 58C113.491 58 108.745 55.3382 108.745 50.7093C108.745 48.4278 110.757 46.0183 114.138 45.1298C111.765 43.7367 110.396 41.4552 110.396 38.3474C110.396 34.5448 113.346 31.0567 116.797 30.0439C112.985 28.1426 110.757 25.0347 110.757 21.1042C110.757 14.4497 117.304 10.1389 127.227 10.1389C130.031 10.1389 132.479 10.457 134.707 11.0896H145.999V12.6728H138.519C141.9 14.574 143.842 17.4918 143.842 21.1042C143.842 27.8867 137.225 32.1353 127.227 32.1353C123.775 32.1353 120.755 31.6271 118.308 30.6764C117.084 31.1188 116.511 31.8793 116.511 32.7057C116.511 34.2267 117.951 35.053 120.253 35.1773L136.146 36.2559C142.261 36.6984 146.505 39.3638 146.505 45.0018V45.0055ZM140.249 50.5192C140.249 49.1261 139.386 48.1719 134.927 47.7916L118.959 46.4607C117.951 46.3985 117.017 46.2084 116.154 45.9525C116.009 46.4607 115.939 46.9653 115.939 47.5357C115.939 52.1645 120.975 55.3967 129.749 55.3967C136.221 55.3967 140.249 53.6234 140.249 50.5155V50.5192ZM123.85 21.5503C123.85 27.9525 124.929 30.6764 127.302 30.6764C129.675 30.6764 130.753 27.9488 130.753 21.5503C130.753 14.5777 129.675 11.5357 127.302 11.5357C124.929 11.5357 123.85 14.5777 123.85 21.5503Z" fill="white"/>
<path d="M148.662 44.1206L167.289 12.8044H166.571C159.809 12.8044 153.483 18.0658 150.894 25.9269H150.533L152.69 11.0932H183.186V11.3455L164.559 42.6618H164.92C172.184 42.6618 178.656 37.2102 181.68 28.5265H182.041L180.963 44.3729H148.67V44.1206H148.662Z" fill="#2C786C"/>
<path d="M186.778 44.1206L205.405 12.8044H204.688C197.925 12.8044 191.599 18.0658 189.01 25.9269H188.649L190.807 11.0932H221.303V11.3455L202.676 42.6618H203.037C210.301 42.6618 216.772 37.2102 219.797 28.5265H220.158L219.079 44.3729H186.787V44.1206H186.778Z" fill="#004445"/>
<path d="M225.974 39.1115C225.974 35.7514 229.139 32.9616 233.022 32.9616C236.905 32.9616 240 35.7514 240 39.1115C240 42.4717 236.835 45.3236 233.022 45.3236C229.21 45.3236 225.974 42.5338 225.974 39.1115Z" fill="#F8B400"/>
</g>
<defs>
<clipPath id="clip0_416_21159">
<rect width="240" height="58" fill="white"/>
</clipPath>
</defs>
</svg>
