<svg width="164" height="147" viewBox="0 0 164 147" fill="none" xmlns="http://www.w3.org/2000/svg">
<g clip-path="url(#clip0_520_4302)">
<path d="M105.26 21.94C96.63 21.94 88.48 25.89 83.08 32.49C77.68 25.9 69.53 21.94 60.9 21.94C45.1 21.94 32.24 34.8 32.24 50.6C32.24 59.26 36.1 67.37 42.76 72.77L78.11 103.57C80.05 105.26 83.08 103.88 83.08 101.31C83.08 100.44 82.7 99.62 82.05 99.05L46.63 68.18C41.31 63.85 38.25 57.44 38.25 50.6C38.25 38.11 48.41 27.94 60.91 27.94C68.93 27.94 76.44 32.27 80.49 39.24L83.08 43.7L85.67 39.24C89.72 32.27 97.23 27.94 105.25 27.94C117.74 27.94 127.91 38.1 127.91 50.6C127.91 57.44 124.86 63.85 119.45 68.25L108.35 77.93C107.7 78.5 107.32 79.32 107.32 80.19C107.32 82.77 110.35 84.14 112.29 82.45L123.32 72.84C130.06 67.36 133.92 59.26 133.92 50.6C133.92 34.8 121.06 21.94 105.26 21.94Z" fill="#F98948"/>
<path d="M153.93 1.87C149.92 -2.14 144.39 0.640002 139.89 6.84C134.39 14.42 118.68 33.06 115.71 36.17C112.73 39.28 110.1 38.07 110.1 38.07V38.09C105.05 36.31 98.67 37.91 92.59 43.99C90.79 45.79 87.89 49.11 84.51 53.25C83.59 54.38 83.09 55.79 83.09 57.24V87.93C83.09 89.45 84.32 90.68 85.84 90.68C87.36 90.68 88.59 89.45 88.59 87.93V76.1C88.59 74.5 90.39 73.41 91.71 74.32C92.26 74.7 92.58 75.31 92.58 75.96V103.61C92.58 105.76 94.15 107.68 96.29 107.89C98.75 108.12 100.81 106.2 100.81 103.79V75.72C100.81 73.83 101.66 72.03 103.12 70.83C106.99 67.65 110.09 64.93 111.81 63.22C117.89 57.14 119.49 50.76 117.71 45.71H117.73C117.73 45.71 116.51 43.07 119.63 40.1C122.74 37.12 141.38 21.42 148.96 15.92C155.16 11.42 157.94 5.89 153.93 1.88V1.87ZM87.04 58.96C86.47 58.39 86.44 57.47 86.99 56.87L94.53 48.5C95.65 47.26 97.36 46.98 98.27 47.89C98.81 48.43 98.69 49.43 98.01 50.14L89.41 59.13C88.82 59.74 87.84 59.76 87.24 59.15L87.04 58.95V58.96ZM91.95 63.86C91.36 63.27 91.36 62.32 91.95 61.72L100.67 52.88C101.38 52.16 102.42 52.02 102.97 52.57L103.1 52.7L103.23 52.83C103.78 53.38 103.65 54.42 102.92 55.13L94.08 63.85C93.49 64.44 92.53 64.43 91.94 63.85L91.95 63.86ZM107.31 61.28L98.94 68.82C98.34 69.36 97.42 69.34 96.85 68.77L96.65 68.57C96.05 67.97 96.06 66.99 96.67 66.4L105.66 57.8C106.38 57.12 107.37 57 107.91 57.54C108.82 58.45 108.54 60.17 107.3 61.28H107.31Z" fill="#F9EBD2"/>
<path d="M20.44 125C23.3 125 25.67 126.02 27.55 128.06C29.45 130.08 30.4 132.56 30.4 135.5C30.4 138.44 29.45 140.93 27.55 142.97C25.67 144.99 23.3 146 20.44 146H12.25V125H20.44ZM20.44 143.36C22.58 143.36 24.33 142.61 25.69 141.11C27.05 139.61 27.73 137.74 27.73 135.5C27.73 133.26 27.05 131.39 25.69 129.89C24.33 128.39 22.58 127.64 20.44 127.64H15.04V143.36H20.44ZM46.8515 146L45.1415 141.29H35.6915L33.9815 146H31.0115L38.8415 125H41.9915L49.8215 146H46.8515ZM36.6515 138.68H44.1815L40.4015 128.33L36.6515 138.68ZM58.5222 146.39C56.5622 146.39 54.8822 145.93 53.4822 145.01C52.1022 144.09 51.1322 142.83 50.5722 141.23L52.9722 139.85C53.7922 142.39 55.6622 143.66 58.5822 143.66C60.0222 143.66 61.1222 143.37 61.8822 142.79C62.6422 142.19 63.0222 141.4 63.0222 140.42C63.0222 139.42 62.6422 138.67 61.8822 138.17C61.1222 137.67 59.8522 137.14 58.0722 136.58C57.1922 136.3 56.5222 136.08 56.0622 135.92C55.6022 135.74 55.0222 135.48 54.3222 135.14C53.6422 134.78 53.1322 134.42 52.7922 134.06C52.4522 133.68 52.1422 133.19 51.8622 132.59C51.6022 131.99 51.4722 131.31 51.4722 130.55C51.4722 128.73 52.1122 127.29 53.3922 126.23C54.6722 125.15 56.2322 124.61 58.0722 124.61C59.7322 124.61 61.1722 125.03 62.3922 125.87C63.6322 126.71 64.5622 127.82 65.1822 129.2L62.8422 130.55C61.9422 128.39 60.3522 127.31 58.0722 127.31C56.9322 127.31 56.0122 127.59 55.3122 128.15C54.6122 128.71 54.2622 129.47 54.2622 130.43C54.2622 131.35 54.5922 132.05 55.2522 132.53C55.9122 133.01 57.0522 133.51 58.6722 134.03C59.2522 134.21 59.6622 134.34 59.9022 134.42C60.1422 134.5 60.5122 134.64 61.0122 134.84C61.5322 135.04 61.9122 135.2 62.1522 135.32C62.3922 135.44 62.7122 135.61 63.1122 135.83C63.5322 136.05 63.8422 136.26 64.0422 136.46C64.2422 136.66 64.4722 136.91 64.7322 137.21C65.0122 137.49 65.2122 137.78 65.3322 138.08C65.4522 138.38 65.5522 138.73 65.6322 139.13C65.7322 139.51 65.7822 139.92 65.7822 140.36C65.7822 142.2 65.1122 143.67 63.7722 144.77C62.4322 145.85 60.6822 146.39 58.5222 146.39ZM81.9295 125H84.6895V146H81.9295V136.55H71.7295V146H68.9395V125H71.7295V133.91H81.9295V125Z" fill="white"/>
<path d="M92.04 143.36H101.79V146H89.25V125H101.64V127.64H92.04V134.09H100.89V136.7H92.04V143.36ZM119.31 146L117.6 141.29H108.15L106.44 146H103.47L111.3 125H114.45L122.28 146H119.31ZM109.11 138.68H116.64L112.86 128.33L109.11 138.68ZM136.674 125V127.64H130.464V146H127.704V127.64H121.524V125H136.674ZM145.63 146.39C143.67 146.39 141.99 145.93 140.59 145.01C139.21 144.09 138.24 142.83 137.68 141.23L140.08 139.85C140.9 142.39 142.77 143.66 145.69 143.66C147.13 143.66 148.23 143.37 148.99 142.79C149.75 142.19 150.13 141.4 150.13 140.42C150.13 139.42 149.75 138.67 148.99 138.17C148.23 137.67 146.96 137.14 145.18 136.58C144.3 136.3 143.63 136.08 143.17 135.92C142.71 135.74 142.13 135.48 141.43 135.14C140.75 134.78 140.24 134.42 139.9 134.06C139.56 133.68 139.25 133.19 138.97 132.59C138.71 131.99 138.58 131.31 138.58 130.55C138.58 128.73 139.22 127.29 140.5 126.23C141.78 125.15 143.34 124.61 145.18 124.61C146.84 124.61 148.28 125.03 149.5 125.87C150.74 126.71 151.67 127.82 152.29 129.2L149.95 130.55C149.05 128.39 147.46 127.31 145.18 127.31C144.04 127.31 143.12 127.59 142.42 128.15C141.72 128.71 141.37 129.47 141.37 130.43C141.37 131.35 141.7 132.05 142.36 132.53C143.02 133.01 144.16 133.51 145.78 134.03C146.36 134.21 146.77 134.34 147.01 134.42C147.25 134.5 147.62 134.64 148.12 134.84C148.64 135.04 149.02 135.2 149.26 135.32C149.5 135.44 149.82 135.61 150.22 135.83C150.64 136.05 150.95 136.26 151.15 136.46C151.35 136.66 151.58 136.91 151.84 137.21C152.12 137.49 152.32 137.78 152.44 138.08C152.56 138.38 152.66 138.73 152.74 139.13C152.84 139.51 152.89 139.92 152.89 140.36C152.89 142.2 152.22 143.67 150.88 144.77C149.54 145.85 147.79 146.39 145.63 146.39Z" fill="#F98948"/>
</g>
<defs>
<clipPath id="clip0_520_4302">
<rect width="163.48" height="146.66" fill="white"/>
</clipPath>
</defs>
</svg>
