<svg width="241" height="57" viewBox="0 0 241 57" fill="none" xmlns="http://www.w3.org/2000/svg">
<g clip-path="url(#clip0_416_7723)">
<path fill-rule="evenodd" clip-rule="evenodd" d="M18.4211 33.9125L7.81233 10.3456C7.75 10.2091 7.63077 10.1314 7.47903 10.1314H0.368555C0.235775 10.1314 0.132804 10.1877 0.0623493 10.2948C-0.00810506 10.4045 -0.0189442 10.5197 0.0352515 10.6375L15.4349 44.6195C15.4973 44.7561 15.6165 44.8337 15.7683 44.8337H21.8219C21.9709 44.8337 22.0929 44.7588 22.1525 44.6222L37.7446 10.6428C37.7988 10.525 37.7907 10.4072 37.7202 10.3001C37.6498 10.1903 37.5468 10.1341 37.414 10.1341H30.2954C30.1464 10.1341 30.0244 10.2118 29.9621 10.3456L19.1934 33.9151C19.123 34.0704 18.9766 34.1615 18.8059 34.1615C18.6352 34.1615 18.4889 34.0677 18.4184 33.9125H18.4211Z" fill="white"/>
<path fill-rule="evenodd" clip-rule="evenodd" d="M137.272 9.7057C128.203 10.8142 121.387 18.4556 121.387 27.4812C121.387 36.5069 128.2 44.1483 137.272 45.2567C138.017 45.3478 138.768 45.3933 139.519 45.3933C140.269 45.3933 141.02 45.3478 141.765 45.2567C150.835 44.1483 157.65 36.5069 157.65 27.4812C157.65 18.4556 150.837 10.8115 141.765 9.7057C141.02 9.61467 140.269 9.56915 139.519 9.56915C138.768 9.56915 138.017 9.61467 137.272 9.7057ZM141.464 16.8464C146.667 17.7648 150.453 22.2656 150.453 27.4812C150.453 32.6969 146.588 37.2753 141.321 38.1401C140.724 38.2365 140.12 38.2874 139.516 38.2874C138.912 38.2874 138.307 38.2392 137.711 38.1401L137.559 38.116C132.362 37.195 128.579 32.6942 128.579 27.4839C128.579 22.2736 132.443 17.6898 137.711 16.825C138.307 16.7286 138.912 16.6778 139.516 16.6778C140.12 16.6778 140.724 16.7259 141.321 16.825L141.464 16.8491V16.8464Z" fill="white"/>
<path fill-rule="evenodd" clip-rule="evenodd" d="M178.949 9.70572C169.879 10.8142 163.064 18.4556 163.064 27.4812C163.064 36.5069 169.876 44.1483 178.949 45.2568C179.694 45.3478 180.445 45.3933 181.195 45.3933C181.946 45.3933 182.696 45.3478 183.442 45.2568C192.511 44.1483 199.326 36.5069 199.326 27.4812V0.361454C199.326 0.163324 199.161 0 198.96 0H192.498C192.297 0 192.132 0.163324 192.132 0.361454V27.4839C192.132 32.7558 188.268 37.278 183 38.1428C182.404 38.2392 181.799 38.2901 181.195 38.2901C180.591 38.2901 179.987 38.2419 179.39 38.1428L179.239 38.1187C174.041 37.1977 170.258 32.6969 170.258 27.4866C170.258 22.2763 174.123 17.6925 179.39 16.8277C179.987 16.7313 180.591 16.6804 181.195 16.6804C181.799 16.6804 182.404 16.7286 183 16.8277L183.143 16.8518C184.837 17.1517 186.433 17.8451 187.802 18.8733C187.918 18.9616 188.054 18.9723 188.184 18.9081C188.314 18.8438 188.387 18.7287 188.387 18.5868V11.2774C188.387 11.1248 188.306 11.0043 188.162 10.9454C186.653 10.3242 185.062 9.91188 183.442 9.71375C182.696 9.62272 181.946 9.5772 181.195 9.5772C180.445 9.5772 179.694 9.62272 178.949 9.71375V9.70572Z" fill="white"/>
<path fill-rule="evenodd" clip-rule="evenodd" d="M53.9165 9.7057C44.8468 10.8142 38.0317 18.4556 38.0317 27.4812C38.0317 36.5069 44.8441 44.1483 53.9165 45.2567C54.6617 45.3478 55.4123 45.3933 56.1629 45.3933C56.9135 45.3933 57.6641 45.3478 58.4093 45.2567C60.0298 45.0586 61.6204 44.6463 63.1297 44.0251C63.2707 43.9662 63.3547 43.8457 63.3547 43.6931V36.3837C63.3547 36.2391 63.2815 36.124 63.1514 36.0597C63.0214 35.9955 62.8859 36.0089 62.7693 36.0945C61.3603 37.1521 59.7154 37.8536 57.9703 38.1374C57.3742 38.2338 56.7699 38.2847 56.1656 38.2847C55.5613 38.2847 54.957 38.2365 54.3609 38.1374L54.2091 38.1133C49.0118 37.1923 45.2289 32.6915 45.2289 27.4812C45.2289 22.2709 49.0931 17.6871 54.3609 16.8223C54.957 16.7259 55.5613 16.6751 56.1656 16.6751C56.7699 16.6751 57.3742 16.7233 57.9703 16.8223L58.1139 16.8464C63.3167 17.7648 67.1023 22.2656 67.1023 27.4812V44.4722C67.1023 44.6704 67.2676 44.8337 67.4681 44.8337H73.9309C74.1315 44.8337 74.2968 44.6704 74.2968 44.4722V27.4812C74.2968 18.4556 67.4844 10.8115 58.412 9.7057C57.6668 9.61467 56.9162 9.56915 56.1656 9.56915C55.415 9.56915 54.6644 9.61467 53.9192 9.7057H53.9165Z" fill="white"/>
<path fill-rule="evenodd" clip-rule="evenodd" d="M95.5957 9.70572C86.526 10.8142 79.7109 18.4556 79.7109 27.4812C79.7109 36.5069 86.5233 44.1483 95.5957 45.2568C96.3409 45.3478 97.0915 45.3933 97.8421 45.3933C98.5927 45.3933 99.3433 45.3478 100.089 45.2568C109.158 44.1483 115.973 36.5069 115.973 27.4812C115.973 18.4556 109.161 10.8115 100.089 9.70572C99.3433 9.61469 98.5927 9.56917 97.8421 9.56917C97.0915 9.56917 96.3409 9.61469 95.5957 9.70572ZM85.266 45.8886C84.9571 45.6691 84.6563 45.4415 84.3609 45.2059C84.2065 45.0827 83.9734 45.1068 83.8488 45.2594L79.7949 50.2341C79.6703 50.3867 79.6947 50.617 79.8491 50.7402C84.0087 54.0521 88.9974 56.1352 94.2977 56.7831C95.4737 56.9277 96.6579 57 97.8421 57C99.0263 57 100.21 56.9277 101.386 56.7831C106.687 56.1352 111.676 54.0521 115.835 50.7402C115.99 50.617 116.017 50.3867 115.889 50.2341L111.835 45.2594C111.711 45.1068 111.478 45.08 111.323 45.2059C111.028 45.4415 110.724 45.6691 110.418 45.8886C107.489 47.977 104.088 49.2917 100.503 49.7308C99.6197 49.8379 98.7309 49.8941 97.8421 49.8941C96.9533 49.8941 96.0645 49.8405 95.1811 49.7308C91.596 49.2943 88.1953 47.977 85.266 45.8886ZM99.7877 16.8465C104.991 17.7648 108.776 22.2656 108.776 27.4812C108.776 32.6969 104.912 37.2753 99.6441 38.1401C99.048 38.2365 98.4437 38.2874 97.8394 38.2874C97.2351 38.2874 96.6308 38.2392 96.0347 38.1401L95.8829 38.116C90.6856 37.195 86.9027 32.6942 86.9027 27.4839C86.9027 22.2736 90.7669 17.6898 96.0347 16.825C96.6308 16.7286 97.2351 16.6778 97.8394 16.6778C98.4437 16.6778 99.048 16.726 99.6441 16.825L99.7877 16.8491V16.8465Z" fill="#5F54CF"/>
<path d="M108.744 8.59458C108.744 6.1474 110.752 4.16342 113.228 4.16342C115.705 4.16342 117.713 6.1474 117.713 8.59458C117.713 11.0418 115.705 13.0257 113.228 13.0257C110.752 13.0257 108.744 11.0418 108.744 8.59458Z" fill="white"/>
<path fill-rule="evenodd" clip-rule="evenodd" d="M220.625 9.7057C211.556 10.8142 204.74 18.4556 204.74 27.4812C204.74 36.5069 211.553 44.1483 220.625 45.2567C221.37 45.3478 222.121 45.3933 222.872 45.3933C223.622 45.3933 224.373 45.3478 225.118 45.2567C226.739 45.0586 228.329 44.6463 229.838 44.0251C229.979 43.9662 230.063 43.8457 230.063 43.6931V36.3837C230.063 36.2391 229.993 36.124 229.86 36.0597C229.73 35.9955 229.595 36.0089 229.478 36.0945C228.069 37.1521 226.424 37.8536 224.679 38.1374C224.083 38.2338 223.479 38.2847 222.874 38.2847C222.27 38.2847 221.666 38.2365 221.07 38.1374L220.918 38.1133C215.721 37.1923 211.938 32.6915 211.938 27.4812C211.938 22.2709 215.802 17.6871 221.07 16.8223C221.666 16.7259 222.27 16.6751 222.874 16.6751C223.479 16.6751 224.083 16.7233 224.679 16.8223L224.823 16.8464C230.025 17.7648 233.811 22.2656 233.811 27.4812V44.4722C233.811 44.6704 233.976 44.8337 234.177 44.8337H240.64C240.84 44.8337 241.006 44.6704 241.006 44.4722V27.4812C241.006 18.4556 234.193 10.8115 225.121 9.7057C224.376 9.61467 223.625 9.56915 222.874 9.56915C222.124 9.56915 221.373 9.61467 220.628 9.7057H220.625Z" fill="white"/>
</g>
<defs>
<clipPath id="clip0_416_7723">
<rect width="241" height="57" fill="white"/>
</clipPath>
</defs>
</svg>
