<svg width="207" height="182" viewBox="0 0 207 182" fill="none" xmlns="http://www.w3.org/2000/svg">
<path d="M158.905 60.6512H158.876C158.876 47.7532 159.198 34.8552 158.788 21.9719C158.348 8.11789 151.01 0.89677 137.578 0.0731801C123.311 -0.779824 114.684 5.83831 112.106 19.1922C111.329 23.2955 110.729 27.3399 110.992 31.4726C111.227 35.1934 109.762 36.5612 105.954 36.6494C97.663 36.8553 96.3301 35.6346 96.2275 26.3398C96.0371 7.73551 92.1994 1.91155 76.9805 0.367319C59.9013 -1.38281 48.9302 4.35291 48.4615 21.8689C47.7731 47.1502 47.9195 72.4756 48.4762 97.7569C48.6666 106.758 52.2699 114.876 62.0838 118.185C72.8206 121.817 85.1392 119.641 91.0276 112.64C96.4326 106.199 96.3008 98.2569 96.1396 90.5063C96.0371 85.653 96.5937 82.8293 102.658 83.0058C108.356 83.1528 111.549 84.4618 110.978 90.7711C110.48 96.1685 111.578 101.478 113.189 106.522C116.573 117.082 126.709 121.553 141.562 119.523C151.845 118.126 158.553 110.346 158.846 98.5952C159.154 85.9472 158.905 73.2992 158.905 60.6512ZM138.281 107.905C125.45 108.375 122.681 105.919 122.505 93.2859C122.271 76.8583 117.774 71.9608 101.691 71.5491C97.6776 71.4461 95.9492 69.9166 95.3047 66.3428C94.792 63.4896 94.8799 60.4747 93.1662 57.9451C89.3724 52.3859 84.5094 48.1208 77.4199 50.0328C70.9457 51.7976 66.566 56.4009 65.7311 63.4749C64.7204 72.1226 67.7232 77.8289 74.4025 81.0203C77.6396 82.5646 82.8982 81.6086 84.0407 84.8883C85.4761 89.0209 84.817 94.0066 84.5387 98.5952C84.1432 105.287 80.5838 107.816 72.3372 107.861C64.2077 107.919 60.0625 105.287 60.0039 98.7422C59.7695 72.9609 59.7695 47.1796 60.0039 21.413C60.0771 14.1183 65.1452 11.074 74.1242 11.9564C82.9567 12.8094 84.5387 14.6331 84.6852 24.0014C84.7584 27.6193 84.6266 31.2078 85.7398 34.811C89.0209 45.3854 92.4338 48.4885 103.42 48.1061C109.352 47.9002 111.505 50.1063 112.325 55.6214C113.658 64.6221 119.957 70.196 127.764 70.0636C134.355 69.9607 140.244 64.4015 141.401 57.2098C142.954 47.7238 139.262 41.1792 131.03 37.9289C128.247 36.8259 123.56 37.9877 122.974 34.4287C122.066 29.0459 121.436 23.2514 123.794 17.9274C126.197 12.5006 137.622 10.2504 143.803 13.7948C147.026 15.6332 147.377 18.6775 147.362 21.9866C147.319 34.8699 147.362 47.7532 147.362 60.6512C147.362 73.5492 147.157 85.9472 147.45 98.5805C147.597 105.272 144.477 107.669 138.296 107.905H138.281ZM84.6412 67.1958C84.5973 69.7695 84.1578 71.6079 81.8728 71.1078C79.0898 70.4902 75.8966 69.6519 76.2921 65.8133C76.5264 63.5926 78.1523 61.4748 80.6131 61.916C83.5866 62.4454 84.5533 65.0633 84.6412 67.1958ZM122.52 51.7241C122.447 49.3415 123.443 48.9886 125.64 49.3121C128.848 49.7974 131.397 50.6652 131.089 54.5625C130.913 56.7833 129.536 57.9745 127.281 58.1804C124.029 57.2245 122.637 55.0037 122.52 51.7241Z" fill="#A3EAD5"/>
<path d="M17.238 151.54V170H14.3V161.862H4.992V170H2.08V151.54H4.992V159.262H14.3V151.54H17.238ZM29.0723 170.13C27.7376 170.13 26.5329 169.87 25.4583 169.35C24.3836 168.83 23.4563 168.128 22.6763 167.244C21.8963 166.343 21.2896 165.337 20.8563 164.228C20.4403 163.101 20.2323 161.949 20.2323 160.77C20.2323 159.539 20.4576 158.369 20.9083 157.26C21.3589 156.133 21.9829 155.137 22.7803 154.27C23.5776 153.386 24.5136 152.693 25.5883 152.19C26.6803 151.67 27.8589 151.41 29.1243 151.41C30.4416 151.41 31.6376 151.679 32.7123 152.216C33.8043 152.753 34.7316 153.473 35.4943 154.374C36.2743 155.275 36.8723 156.281 37.2883 157.39C37.7216 158.499 37.9383 159.635 37.9383 160.796C37.9383 162.027 37.7129 163.205 37.2623 164.332C36.8289 165.441 36.2136 166.438 35.4163 167.322C34.6189 168.189 33.6743 168.873 32.5823 169.376C31.5076 169.879 30.3376 170.13 29.0723 170.13ZM23.1963 160.77C23.1963 161.637 23.3349 162.477 23.6123 163.292C23.8896 164.107 24.2796 164.835 24.7823 165.476C25.3023 166.1 25.9263 166.594 26.6543 166.958C27.3823 167.322 28.1969 167.504 29.0983 167.504C30.0343 167.504 30.8663 167.313 31.5943 166.932C32.3223 166.551 32.9289 166.039 33.4143 165.398C33.9169 164.739 34.2983 164.011 34.5583 163.214C34.8183 162.399 34.9483 161.585 34.9483 160.77C34.9483 159.903 34.8096 159.071 34.5323 158.274C34.2723 157.459 33.8823 156.74 33.3623 156.116C32.8423 155.475 32.2183 154.972 31.4903 154.608C30.7796 154.244 29.9823 154.062 29.0983 154.062C28.1623 154.062 27.3303 154.253 26.6023 154.634C25.8743 155.015 25.2589 155.527 24.7563 156.168C24.2536 156.809 23.8636 157.529 23.5863 158.326C23.3263 159.123 23.1963 159.938 23.1963 160.77ZM55.461 165.242C55.461 166.23 55.201 167.079 54.681 167.79C54.1784 168.501 53.4937 169.047 52.627 169.428C51.7604 169.809 50.807 170 49.767 170H40.953V151.54H50.469C51.3357 151.54 52.081 151.774 52.705 152.242C53.3464 152.693 53.8317 153.282 54.161 154.01C54.5077 154.721 54.681 155.466 54.681 156.246C54.681 157.147 54.447 157.997 53.979 158.794C53.5284 159.574 52.8784 160.155 52.029 160.536C53.0864 160.848 53.9184 161.42 54.525 162.252C55.149 163.067 55.461 164.063 55.461 165.242ZM52.471 164.696C52.471 164.176 52.3584 163.708 52.133 163.292C51.925 162.859 51.6304 162.512 51.249 162.252C50.885 161.975 50.4517 161.836 49.949 161.836H43.865V167.478H49.767C50.287 167.478 50.7464 167.357 51.145 167.114C51.561 166.854 51.8817 166.516 52.107 166.1C52.3497 165.667 52.471 165.199 52.471 164.696ZM43.865 154.062V159.496H49.221C49.7064 159.496 50.1397 159.383 50.521 159.158C50.9024 158.915 51.2057 158.595 51.431 158.196C51.6564 157.78 51.769 157.312 51.769 156.792C51.769 156.255 51.665 155.787 51.457 155.388C51.249 154.972 50.963 154.651 50.599 154.426C50.2524 154.183 49.845 154.062 49.377 154.062H43.865ZM73.006 165.242C73.006 166.23 72.746 167.079 72.226 167.79C71.7233 168.501 71.0386 169.047 70.172 169.428C69.3053 169.809 68.352 170 67.312 170H58.498V151.54H68.014C68.8806 151.54 69.626 151.774 70.25 152.242C70.8913 152.693 71.3766 153.282 71.706 154.01C72.0526 154.721 72.226 155.466 72.226 156.246C72.226 157.147 71.992 157.997 71.524 158.794C71.0733 159.574 70.4233 160.155 69.574 160.536C70.6313 160.848 71.4633 161.42 72.07 162.252C72.694 163.067 73.006 164.063 73.006 165.242ZM70.016 164.696C70.016 164.176 69.9033 163.708 69.678 163.292C69.47 162.859 69.1753 162.512 68.794 162.252C68.43 161.975 67.9966 161.836 67.494 161.836H61.41V167.478H67.312C67.832 167.478 68.2913 167.357 68.69 167.114C69.106 166.854 69.4266 166.516 69.652 166.1C69.8946 165.667 70.016 165.199 70.016 164.696ZM61.41 154.062V159.496H66.766C67.2513 159.496 67.6846 159.383 68.066 159.158C68.4473 158.915 68.7506 158.595 68.976 158.196C69.2013 157.78 69.314 157.312 69.314 156.792C69.314 156.255 69.21 155.787 69.002 155.388C68.794 154.972 68.508 154.651 68.144 154.426C67.7973 154.183 67.39 154.062 66.922 154.062H61.41ZM76.5824 151.54L81.6784 160.718L86.8264 151.54H90.0244L83.1344 163.396V170H80.2224V163.344L73.3844 151.54H76.5824ZM113.299 170V156.844L107.865 166.828H106.149L100.689 156.844V170H97.7773V151.54H100.897L107.007 162.824L113.117 151.54H116.237V170H113.299ZM133.062 167.426V170H120.4V151.54H132.828V154.114H123.312V159.366H131.554V161.784H123.312V167.426H133.062ZM138.978 156.948V170H136.066V151.54H138.458L148.91 164.878V151.566H151.848V170H149.3L138.978 156.948ZM169.544 154.114H163.408V170H160.47V154.114H154.308V151.54H169.544V154.114ZM179.207 170.13C177.872 170.13 176.668 169.87 175.593 169.35C174.518 168.83 173.591 168.128 172.811 167.244C172.031 166.343 171.424 165.337 170.991 164.228C170.575 163.101 170.367 161.949 170.367 160.77C170.367 159.539 170.592 158.369 171.043 157.26C171.494 156.133 172.118 155.137 172.915 154.27C173.712 153.386 174.648 152.693 175.723 152.19C176.815 151.67 177.994 151.41 179.259 151.41C180.576 151.41 181.772 151.679 182.847 152.216C183.939 152.753 184.866 153.473 185.629 154.374C186.409 155.275 187.007 156.281 187.423 157.39C187.856 158.499 188.073 159.635 188.073 160.796C188.073 162.027 187.848 163.205 187.397 164.332C186.964 165.441 186.348 166.438 185.551 167.322C184.754 168.189 183.809 168.873 182.717 169.376C181.642 169.879 180.472 170.13 179.207 170.13ZM173.331 160.77C173.331 161.637 173.47 162.477 173.747 163.292C174.024 164.107 174.414 164.835 174.917 165.476C175.437 166.1 176.061 166.594 176.789 166.958C177.517 167.322 178.332 167.504 179.233 167.504C180.169 167.504 181.001 167.313 181.729 166.932C182.457 166.551 183.064 166.039 183.549 165.398C184.052 164.739 184.433 164.011 184.693 163.214C184.953 162.399 185.083 161.585 185.083 160.77C185.083 159.903 184.944 159.071 184.667 158.274C184.407 157.459 184.017 156.74 183.497 156.116C182.977 155.475 182.353 154.972 181.625 154.608C180.914 154.244 180.117 154.062 179.233 154.062C178.297 154.062 177.465 154.253 176.737 154.634C176.009 155.015 175.394 155.527 174.891 156.168C174.388 156.809 173.998 157.529 173.721 158.326C173.461 159.123 173.331 159.938 173.331 160.77ZM191.088 170V151.54H199.122C199.954 151.54 200.716 151.713 201.41 152.06C202.103 152.407 202.701 152.866 203.204 153.438C203.724 154.01 204.122 154.651 204.4 155.362C204.694 156.073 204.842 156.801 204.842 157.546C204.842 158.361 204.694 159.141 204.4 159.886C204.105 160.631 203.68 161.273 203.126 161.81C202.588 162.347 201.956 162.737 201.228 162.98L205.57 170H202.294L198.29 163.578H194V170H191.088ZM194 161.004H199.096C199.633 161.004 200.11 160.848 200.526 160.536C200.942 160.224 201.271 159.808 201.514 159.288C201.756 158.751 201.878 158.17 201.878 157.546C201.878 156.905 201.739 156.333 201.462 155.83C201.184 155.31 200.82 154.894 200.37 154.582C199.936 154.27 199.46 154.114 198.94 154.114H194V161.004Z" fill="#EBFFF9"/>
</svg>
