<svg width="53" height="53" viewBox="0 0 53 53" fill="none" xmlns="http://www.w3.org/2000/svg">
<path d="M26.5 53C41.1355 53 53 41.1355 53 26.5C53 11.8645 41.1355 0 26.5 0C11.8645 0 0 11.8645 0 26.5C0 41.1355 11.8645 53 26.5 53Z" fill="url(#paint0_linear_95_420)"/>
<path d="M21.6911 18.6842C22.6435 17.712 23.8055 17.2277 25.1771 17.2277H26.7529C27.7071 17.2277 28.5384 16.8807 29.2161 16.2048C29.91 15.529 30.2552 14.6977 30.2552 13.7417H25.1771C22.367 13.7417 20.0972 14.9055 18.3443 17.2277C17.2871 18.6843 16.7486 20.3324 16.7486 22.1702V22.4467C14.9288 22.7431 13.68 23.4696 12.9861 24.6677C12.7783 25.049 12.6735 25.4647 12.6735 25.8984H16.7486V39.2604C17.7028 39.2604 18.534 38.9135 19.2117 38.2376C19.9057 37.5617 20.2508 36.7304 20.2508 35.7744V25.8984H23.8163C24.7181 24.4111 26.0084 23.1696 27.7848 22.3961H20.2508V22.1702C20.2508 20.8004 20.7351 19.6366 21.6911 18.6842Z" fill="#010314"/>
<path d="M37.8618 14.7646C37.1859 15.4404 36.8389 16.2735 36.8389 17.2277V30.8138C36.8389 32.1836 36.3546 33.3438 35.3824 34.3161C34.43 35.2684 33.268 35.7564 31.8982 35.7564C30.5284 35.7564 29.3826 35.2702 28.4122 34.3161C27.458 33.3438 26.9719 32.1836 26.9719 30.8138C26.9719 29.444 27.4562 28.2838 28.4122 27.3278C29.3826 26.3574 30.5446 25.8731 31.8982 25.8731H32.3662C33.3186 25.8731 34.1336 25.5442 34.8095 24.8665C35.4854 24.1906 35.8324 23.3575 35.8486 22.3871H31.8982C30.9964 22.3871 30.129 22.5244 29.314 22.7847C28.0128 23.2184 26.8852 23.8942 25.9328 24.8502C24.2847 26.4965 23.4697 28.4916 23.4697 30.8138C23.4697 33.136 24.2847 35.1311 25.9328 36.7792C27.5809 38.4255 29.5742 39.2405 31.8982 39.2405C34.2222 39.2405 36.1956 38.4255 37.8437 36.7792C39.49 35.1311 40.3231 33.1378 40.3231 30.8138V13.7417C39.3689 13.7417 38.5376 14.0905 37.86 14.7646H37.8618Z" fill="#010314"/>
<defs>
<linearGradient id="paint0_linear_95_420" x1="26.5" y1="-5.72685" x2="26.5" y2="47.2732" gradientUnits="userSpaceOnUse">
<stop stop-opacity="0"/>
<stop offset="0.58" stop-color="#6633EE"/>
<stop offset="1" stop-color="white"/>
</linearGradient>
</defs>
</svg>
