<svg width="5813" height="219" viewBox="0 0 5813 219" fill="none" xmlns="http://www.w3.org/2000/svg">
<g style="mix-blend-mode:luminosity" opacity="0.06">
<path d="M0 167.754V4.59601H59.3854C77.1857 4.59601 92.0704 8.27282 104.04 15.6264C116.009 22.8269 124.986 32.6317 130.97 45.0409C136.955 57.297 139.947 70.9318 139.947 85.9454C139.947 102.491 136.648 116.892 130.049 129.148C123.451 141.404 114.091 150.902 101.968 157.643C89.9988 164.384 75.8047 167.754 59.3854 167.754H0ZM107.953 85.9454C107.953 75.3746 106.034 66.106 102.198 58.1396C98.3619 50.0199 92.8377 43.7387 85.6255 39.2959C78.4133 34.6999 69.6666 32.4019 59.3854 32.4019H31.7643V139.949H59.3854C69.8201 139.949 78.6435 137.651 85.8557 133.055C93.0679 128.305 98.5154 121.871 102.198 113.751C106.034 105.478 107.953 96.2099 107.953 85.9454Z" fill="url(#paint0_linear_525_4622)"/>
<path d="M233.138 73.9958C223.777 73.9958 215.414 75.8342 208.049 79.511C200.683 83.0346 195.389 88.1668 192.166 94.9077V167.754H161.323V47.3389H189.635V73.0766C193.931 64.8038 199.379 58.2928 205.977 53.5435C212.575 48.7943 219.557 46.1899 226.923 45.7303C228.611 45.7303 229.915 45.7303 230.836 45.7303C231.757 45.7303 232.524 45.8069 233.138 45.9601V73.9958Z" fill="url(#paint1_linear_525_4622)"/>
<path d="M250.336 167.754V47.3389H281.18V167.754H250.336ZM250.336 30.5635V0H281.18V30.5635H250.336Z" fill="url(#paint2_linear_525_4622)"/>
<path d="M341.459 167.754L297.035 47.3389H329.03L359.413 139.719L390.026 47.3389H419.259L375.065 167.754H341.459Z" fill="url(#paint3_linear_525_4622)"/>
<path d="M435.556 167.754V47.3389H466.4V167.754H435.556ZM435.556 30.5635V0H466.4V30.5635H435.556Z" fill="url(#paint4_linear_525_4622)"/>
<path d="M606.32 167.754H575.476V100.193C575.476 90.5414 573.788 83.4942 570.412 79.0514C567.036 74.6086 562.356 72.3872 556.372 72.3872C552.228 72.3872 548.009 73.4596 543.712 75.6044C539.569 77.7492 535.809 80.7366 532.433 84.5666C529.057 88.2434 526.602 92.533 525.068 97.4355V167.754H494.224V47.3389H522.075V69.6296C525.144 64.4208 529.057 60.0546 533.814 56.5309C538.571 52.8541 544.019 50.0965 550.157 48.2581C556.448 46.2665 563.047 45.2707 569.952 45.2707C577.471 45.2707 583.609 46.6495 588.366 49.4071C593.276 52.0115 596.959 55.6117 599.414 60.2078C602.023 64.6506 603.788 69.7062 604.709 75.3746C605.783 81.043 606.32 86.788 606.32 92.6096V167.754Z" fill="url(#paint5_linear_525_4622)"/>
<path d="M680.325 168.444C672.346 168.444 664.98 166.912 658.228 163.848C651.63 160.631 645.875 156.188 640.965 150.519C636.208 144.851 632.525 138.34 629.916 130.986C627.308 123.633 626.003 115.82 626.003 107.547C626.003 98.8143 627.385 90.6946 630.147 83.1878C632.909 75.681 636.745 69.0934 641.655 63.425C646.719 57.6034 652.627 53.1605 659.379 50.0965C666.284 46.8793 673.88 45.2707 682.166 45.2707C691.527 45.2707 699.737 47.4155 706.795 51.7051C713.854 55.8415 719.685 61.4334 724.289 68.4806V47.3389H751.219V162.009C751.219 173.959 748.304 184.147 742.473 192.573C736.795 201.152 728.892 207.663 718.764 212.106C708.637 216.702 697.128 219 684.238 219C671.195 219 660.146 216.779 651.093 212.336C642.039 208.046 634.29 201.918 627.845 193.952L644.648 177.636C649.251 183.304 655.006 187.747 661.911 190.964C668.97 194.182 676.412 195.79 684.238 195.79C690.836 195.79 696.821 194.565 702.192 192.113C707.716 189.815 712.089 186.138 715.312 181.083C718.688 176.18 720.376 169.823 720.376 162.009V146.843C716.386 153.737 710.708 159.099 703.343 162.929C696.13 166.605 688.458 168.444 680.325 168.444ZM690.683 143.855C694.059 143.855 697.281 143.319 700.35 142.247C703.419 141.174 706.258 139.719 708.867 137.88C711.476 136.042 713.777 133.897 715.772 131.446C717.767 128.842 719.302 126.237 720.376 123.633V94.9077C718.534 90.1584 715.926 86.022 712.55 82.4984C709.327 78.9748 705.644 76.2938 701.501 74.4554C697.511 72.4638 693.292 71.468 688.841 71.468C684.085 71.468 679.788 72.4638 675.952 74.4554C672.115 76.447 668.816 79.2812 666.054 82.958C663.292 86.4816 661.144 90.4648 659.609 94.9077C658.228 99.1973 657.538 103.717 657.538 108.466C657.538 113.368 658.382 117.964 660.069 122.254C661.757 126.544 664.059 130.297 666.975 133.514C670.044 136.731 673.573 139.259 677.563 141.098C681.706 142.936 686.079 143.855 690.683 143.855Z" fill="url(#paint6_linear_525_4622)"/>
<path d="M827.413 85.0262C827.413 75.0682 829.178 65.34 832.707 55.8415C836.39 46.1899 841.684 37.4575 848.589 29.6443C855.494 21.6778 863.934 15.3966 873.908 10.8006C883.883 6.05141 895.238 3.6768 907.975 3.6768C923.013 3.6768 935.979 6.97062 946.874 13.5582C957.923 20.1459 966.132 28.7251 971.503 39.2959L947.104 56.0714C944.342 49.9433 940.736 45.1175 936.286 41.5939C931.836 37.9171 927.079 35.3893 922.015 34.0105C916.951 32.4785 911.964 31.7125 907.054 31.7125C899.074 31.7125 892.092 33.3211 886.108 36.5383C880.277 39.7555 875.366 43.9685 871.377 49.1773C867.387 54.3861 864.395 60.2078 862.4 66.6422C860.558 73.0766 859.638 79.511 859.638 85.9454C859.638 93.1459 860.789 100.116 863.09 106.857C865.392 113.445 868.615 119.343 872.758 124.552C877.054 129.608 882.118 133.667 887.949 136.731C893.934 139.642 900.455 141.098 907.514 141.098C912.578 141.098 917.719 140.255 922.936 138.57C928.153 136.885 932.987 134.204 937.437 130.527C941.887 126.85 945.34 122.101 947.795 116.279L973.805 131.216C970.582 139.336 965.288 146.23 957.923 151.898C950.711 157.567 942.578 161.856 933.524 164.767C924.47 167.678 915.494 169.133 906.594 169.133C894.931 169.133 884.266 166.759 874.599 162.009C864.932 157.107 856.569 150.673 849.51 142.706C842.605 134.587 837.157 125.548 833.167 115.59C829.331 105.478 827.413 95.2907 827.413 85.0262Z" fill="url(#paint7_linear_525_4622)"/>
<path d="M1104.21 167.754H1073.37V100.193C1073.37 90.8478 1071.53 83.8772 1067.84 79.2812C1064.31 74.6852 1059.4 72.3872 1053.11 72.3872C1049.43 72.3872 1045.52 73.4596 1041.37 75.6044C1037.23 77.7492 1033.47 80.7366 1030.09 84.5666C1026.87 88.2434 1024.49 92.533 1022.96 97.4355V167.754H992.115V0H1022.96V69.6296C1027.41 61.9696 1033.47 55.9947 1041.14 51.7051C1048.81 47.4155 1057.18 45.2707 1066.23 45.2707C1074.06 45.2707 1080.43 46.6495 1085.34 49.4071C1090.25 52.0115 1094.08 55.6117 1096.84 60.2078C1099.61 64.6506 1101.53 69.7062 1102.6 75.3746C1103.67 80.8898 1104.21 86.6348 1104.21 92.6096V167.754Z" fill="url(#paint8_linear_525_4622)"/>
<path d="M1122.74 132.135C1122.74 124.322 1124.89 117.505 1129.19 111.683C1133.64 105.708 1139.78 101.112 1147.6 97.8951C1155.43 94.6779 1164.41 93.0693 1174.53 93.0693C1179.6 93.0693 1184.74 93.4522 1189.95 94.2183C1195.17 94.9843 1199.7 96.2099 1203.54 97.8951V91.4606C1203.54 83.8006 1201.23 77.9024 1196.63 73.766C1192.18 69.6296 1185.5 67.5614 1176.6 67.5614C1170.01 67.5614 1163.71 68.7104 1157.73 71.0084C1151.75 73.3064 1145.45 76.6768 1138.86 81.1196L1128.96 60.8972C1136.94 55.6884 1145.07 51.7817 1153.36 49.1773C1161.8 46.5729 1170.62 45.2707 1179.83 45.2707C1197.01 45.2707 1210.36 49.5603 1219.88 58.1396C1229.54 66.7188 1234.38 78.9748 1234.38 94.9077V133.284C1234.38 136.502 1234.92 138.8 1235.99 140.178C1237.22 141.557 1239.14 142.4 1241.74 142.706V167.754C1238.98 168.214 1236.45 168.597 1234.15 168.903C1232 169.21 1230.16 169.363 1228.62 169.363C1222.49 169.363 1217.81 167.984 1214.58 165.227C1211.51 162.469 1209.6 159.099 1208.83 155.115L1208.14 148.911C1202.92 155.652 1196.4 160.86 1188.57 164.537C1180.75 168.214 1172.77 170.052 1164.64 170.052C1156.66 170.052 1149.44 168.444 1143 165.227C1136.71 161.856 1131.72 157.337 1128.04 151.668C1124.51 145.847 1122.74 139.336 1122.74 132.135ZM1197.78 138.34C1199.47 136.502 1200.85 134.663 1201.92 132.825C1203 130.986 1203.54 129.301 1203.54 127.769V115.59C1199.85 114.058 1195.86 112.909 1191.57 112.143C1187.27 111.223 1183.2 110.764 1179.37 110.764C1171.39 110.764 1164.79 112.526 1159.57 116.049C1154.51 119.42 1151.98 123.939 1151.98 129.608C1151.98 132.672 1152.82 135.582 1154.51 138.34C1156.2 141.098 1158.65 143.319 1161.87 145.004C1165.1 146.689 1168.93 147.532 1173.38 147.532C1177.99 147.532 1182.51 146.689 1186.96 145.004C1191.41 143.166 1195.02 140.944 1197.78 138.34Z" fill="url(#paint9_linear_525_4622)"/>
<path d="M1375.3 167.754H1344.45V100.193C1344.45 90.5414 1342.77 83.4942 1339.39 79.0514C1336.01 74.6086 1331.33 72.3872 1325.35 72.3872C1321.21 72.3872 1316.99 73.4596 1312.69 75.6044C1308.55 77.7492 1304.79 80.7366 1301.41 84.5666C1298.03 88.2434 1295.58 92.533 1294.04 97.4355V167.754H1263.2V47.3389H1291.05V69.6296C1294.12 64.4208 1298.03 60.0546 1302.79 56.5309C1307.55 52.8541 1313 50.0965 1319.13 48.2581C1325.43 46.2665 1332.02 45.2707 1338.93 45.2707C1346.45 45.2707 1352.59 46.6495 1357.34 49.4071C1362.25 52.0115 1365.94 55.6117 1368.39 60.2078C1371 64.6506 1372.76 69.7062 1373.69 75.3746C1374.76 81.043 1375.3 86.788 1375.3 92.6096V167.754Z" fill="url(#paint10_linear_525_4622)"/>
<path d="M1449.3 168.444C1441.32 168.444 1433.96 166.912 1427.21 163.848C1420.61 160.631 1414.85 156.188 1409.94 150.519C1405.18 144.851 1401.5 138.34 1398.89 130.986C1396.28 123.633 1394.98 115.82 1394.98 107.547C1394.98 98.8143 1396.36 90.6946 1399.12 83.1878C1401.89 75.681 1405.72 69.0934 1410.63 63.425C1415.7 57.6034 1421.6 53.1605 1428.36 50.0965C1435.26 46.8793 1442.86 45.2707 1451.14 45.2707C1460.5 45.2707 1468.71 47.4155 1475.77 51.7051C1482.83 55.8415 1488.66 61.4334 1493.27 68.4806V47.3389H1520.2V162.009C1520.2 173.959 1517.28 184.147 1511.45 192.573C1505.77 201.152 1497.87 207.663 1487.74 212.106C1477.61 216.702 1466.1 219 1453.21 219C1440.17 219 1429.12 216.779 1420.07 212.336C1411.02 208.046 1403.27 201.918 1396.82 193.952L1413.62 177.636C1418.23 183.304 1423.98 187.747 1430.89 190.964C1437.95 194.182 1445.39 195.79 1453.21 195.79C1459.81 195.79 1465.8 194.565 1471.17 192.113C1476.69 189.815 1481.07 186.138 1484.29 181.083C1487.66 176.18 1489.35 169.823 1489.35 162.009V146.843C1485.36 153.737 1479.69 159.099 1472.32 162.929C1465.11 166.605 1457.43 168.444 1449.3 168.444ZM1459.66 143.855C1463.04 143.855 1466.26 143.319 1469.33 142.247C1472.4 141.174 1475.24 139.719 1477.84 137.88C1480.45 136.042 1482.75 133.897 1484.75 131.446C1486.74 128.842 1488.28 126.237 1489.35 123.633V94.9077C1487.51 90.1584 1484.9 86.022 1481.53 82.4984C1478.3 78.9748 1474.62 76.2938 1470.48 74.4554C1466.49 72.4638 1462.27 71.468 1457.82 71.468C1453.06 71.468 1448.76 72.4638 1444.93 74.4554C1441.09 76.447 1437.79 79.2812 1435.03 82.958C1432.27 86.4816 1430.12 90.4648 1428.59 94.9077C1427.21 99.1973 1426.51 103.717 1426.51 108.466C1426.51 113.368 1427.36 117.964 1429.05 122.254C1430.73 126.544 1433.04 130.297 1435.95 133.514C1439.02 136.731 1442.55 139.259 1446.54 141.098C1450.68 142.936 1455.06 143.855 1459.66 143.855Z" fill="url(#paint11_linear_525_4622)"/>
<path d="M1603.93 170.052C1594.26 170.052 1585.52 168.444 1577.69 165.227C1569.87 161.856 1563.19 157.337 1557.67 151.668C1552.14 145.847 1547.85 139.259 1544.78 131.906C1541.86 124.399 1540.4 116.509 1540.4 108.236C1540.4 96.7461 1542.94 86.2518 1548 76.7534C1553.22 67.255 1560.58 59.6716 1570.1 54.0031C1579.76 48.1815 1591.12 45.2707 1604.16 45.2707C1617.36 45.2707 1628.64 48.1815 1638 54.0031C1647.36 59.6716 1654.49 67.255 1659.4 76.7534C1664.47 86.0986 1667 96.2099 1667 107.087C1667 108.925 1666.92 110.84 1666.77 112.832C1666.62 114.671 1666.46 116.203 1666.31 117.428H1573.09C1573.7 123.556 1575.47 128.918 1578.38 133.514C1581.45 138.11 1585.29 141.634 1589.89 144.085C1594.65 146.383 1599.71 147.532 1605.08 147.532C1611.22 147.532 1616.97 146.077 1622.35 143.166C1627.87 140.102 1631.63 136.119 1633.62 131.216L1660.09 138.57C1657.18 144.698 1652.96 150.136 1647.44 154.886C1642.06 159.635 1635.7 163.388 1628.33 166.146C1620.96 168.75 1612.83 170.052 1603.93 170.052ZM1572.4 97.8951H1635.47C1634.85 91.767 1633.09 86.4816 1630.17 82.0388C1627.41 77.4428 1623.73 73.9192 1619.12 71.468C1614.52 68.8636 1609.38 67.5614 1603.7 67.5614C1598.18 67.5614 1593.11 68.8636 1588.51 71.468C1584.06 73.9192 1580.38 77.4428 1577.46 82.0388C1574.7 86.4816 1573.01 91.767 1572.4 97.8951Z" fill="url(#paint12_linear_525_4622)"/>
</g>
<path d="M1896.5 89.2241V88.6784L1895.96 88.7261L1850.82 92.6812L1878.09 57.5965L1878.43 57.1562L1877.95 56.8639L1843.37 35.5742L1842.91 35.291L1842.67 35.7716L1821.25 77.4848L1799.82 35.7716L1799.58 35.2878L1799.11 35.576L1765.04 56.8656L1764.58 57.1565L1764.91 57.593L1791.68 92.6812L1747.04 88.7261L1746.5 88.6779V89.2241V129.776V130.316L1747.04 130.274L1791.68 126.813L1764.91 161.404L1764.57 161.841L1765.04 162.134L1799.11 183.424L1799.58 183.712L1799.82 183.228L1821.25 141.515L1842.67 183.228L1842.91 183.709L1843.37 183.426L1877.95 162.136L1878.43 161.842L1878.09 161.401L1850.82 126.813L1895.96 130.274L1896.5 130.316V129.776V89.2241Z" fill="url(#paint13_linear_525_4622)" fill-opacity="0.1" stroke="url(#paint14_linear_525_4622)"/>
<g style="mix-blend-mode:luminosity" opacity="0.06">
<path d="M1976 85.0262C1976 75.0682 1977.76 65.34 1981.29 55.8415C1984.97 46.1899 1990.27 37.4575 1997.17 29.6443C2004.07 21.6778 2012.51 15.3966 2022.48 10.8006C2032.46 6.05141 2043.81 3.6768 2056.54 3.6768C2071.58 3.6768 2084.54 6.97062 2095.43 13.5582C2106.48 20.1459 2114.69 28.7251 2120.06 39.2959L2095.66 56.0714C2092.9 49.9433 2089.3 45.1175 2084.85 41.5939C2080.4 37.9171 2075.64 35.3893 2070.58 34.0105C2065.52 32.4785 2060.53 31.7125 2055.62 31.7125C2047.64 31.7125 2040.66 33.3211 2034.68 36.5383C2028.85 39.7555 2023.94 43.9685 2019.95 49.1773C2015.96 54.3861 2012.97 60.2078 2010.98 66.6422C2009.14 73.0766 2008.22 79.511 2008.22 85.9454C2008.22 93.1459 2009.37 100.116 2011.67 106.857C2013.97 113.445 2017.19 119.343 2021.33 124.552C2025.63 129.608 2030.69 133.667 2036.52 136.731C2042.51 139.642 2049.03 141.098 2056.08 141.098C2061.15 141.098 2066.28 140.255 2071.5 138.57C2076.72 136.885 2081.55 134.204 2086 130.527C2090.45 126.85 2093.9 122.101 2096.35 116.279L2122.36 131.216C2119.14 139.336 2113.84 146.23 2106.48 151.898C2099.27 157.567 2091.14 161.856 2082.09 164.767C2073.03 167.678 2064.06 169.133 2055.16 169.133C2043.5 169.133 2032.84 166.759 2023.18 162.009C2013.51 157.107 2005.15 150.673 1998.09 142.706C1991.19 134.587 1985.74 125.548 1981.75 115.59C1977.92 105.478 1976 95.2907 1976 85.0262Z" fill="url(#paint15_linear_525_4622)"/>
<path d="M2212.46 73.9958C2203.1 73.9958 2194.74 75.8342 2187.38 79.511C2180.01 83.0346 2174.72 88.1668 2171.5 94.9077V167.754H2140.66V47.3389H2168.97V73.0766C2173.26 64.8038 2178.71 58.2928 2185.31 53.5435C2191.9 48.7943 2198.88 46.1899 2206.25 45.7303C2207.94 45.7303 2209.24 45.7303 2210.16 45.7303C2211.08 45.7303 2211.85 45.8069 2212.46 45.9601V73.9958Z" fill="url(#paint16_linear_525_4622)"/>
<path d="M2284 170.052C2274.34 170.052 2265.59 168.444 2257.77 165.227C2249.94 161.856 2243.27 157.337 2237.75 151.668C2232.23 145.847 2227.93 139.259 2224.86 131.906C2221.95 124.399 2220.49 116.509 2220.49 108.236C2220.49 96.7461 2223.02 86.2518 2228.08 76.7534C2233.3 67.255 2240.66 59.6716 2250.17 54.0031C2259.84 48.1815 2271.19 45.2707 2284.23 45.2707C2297.43 45.2707 2308.7 48.1815 2318.06 54.0031C2327.42 59.6716 2334.55 67.255 2339.46 76.7534C2344.52 86.0986 2347.06 96.2099 2347.06 107.087C2347.06 108.925 2346.98 110.84 2346.83 112.832C2346.67 114.671 2346.52 116.203 2346.37 117.428H2253.17C2253.78 123.556 2255.54 128.918 2258.46 133.514C2261.53 138.11 2265.36 141.634 2269.97 144.085C2274.72 146.383 2279.78 147.532 2285.15 147.532C2291.29 147.532 2297.04 146.077 2302.41 143.166C2307.94 140.102 2311.69 136.119 2313.69 131.216L2340.15 138.57C2337.24 144.698 2333.02 150.136 2327.5 154.886C2322.13 159.635 2315.76 163.388 2308.4 166.146C2301.03 168.75 2292.9 170.052 2284 170.052ZM2252.48 97.8951H2315.53C2314.92 91.767 2313.15 86.4816 2310.24 82.0388C2307.48 77.4428 2303.79 73.9192 2299.19 71.468C2294.59 68.8636 2289.45 67.5614 2283.77 67.5614C2278.25 67.5614 2273.19 68.8636 2268.58 71.468C2264.14 73.9192 2260.45 77.4428 2257.54 82.0388C2254.78 86.4816 2253.09 91.767 2252.48 97.8951Z" fill="url(#paint17_linear_525_4622)"/>
<path d="M2357.56 132.135C2357.56 124.322 2359.71 117.505 2364 111.683C2368.45 105.708 2374.59 101.112 2382.41 97.8951C2390.23 94.6779 2399.21 93.0693 2409.33 93.0693C2414.4 93.0693 2419.54 93.4522 2424.75 94.2183C2429.97 94.9843 2434.49 96.2099 2438.33 97.8951V91.4606C2438.33 83.8006 2436.03 77.9024 2431.43 73.766C2426.98 69.6296 2420.3 67.5614 2411.41 67.5614C2404.81 67.5614 2398.52 68.7104 2392.54 71.0084C2386.55 73.3064 2380.26 76.6768 2373.67 81.1196L2363.77 60.8972C2371.75 55.6884 2379.88 51.7817 2388.16 49.1773C2396.6 46.5729 2405.42 45.2707 2414.63 45.2707C2431.81 45.2707 2445.16 49.5603 2454.67 58.1396C2464.33 66.7188 2469.17 78.9748 2469.17 94.9077V133.284C2469.17 136.502 2469.7 138.8 2470.78 140.178C2472 141.557 2473.92 142.4 2476.53 142.706V167.754C2473.77 168.214 2471.24 168.597 2468.94 168.903C2466.79 169.21 2464.95 169.363 2463.41 169.363C2457.28 169.363 2452.6 167.984 2449.38 165.227C2446.31 162.469 2444.39 159.099 2443.62 155.115L2442.93 148.911C2437.72 155.652 2431.2 160.86 2423.37 164.537C2415.55 168.214 2407.57 170.052 2399.44 170.052C2391.46 170.052 2384.25 168.444 2377.81 165.227C2371.52 161.856 2366.53 157.337 2362.85 151.668C2359.32 145.847 2357.56 139.336 2357.56 132.135ZM2432.58 138.34C2434.26 136.502 2435.65 134.663 2436.72 132.825C2437.79 130.986 2438.33 129.301 2438.33 127.769V115.59C2434.65 114.058 2430.66 112.909 2426.36 112.143C2422.07 111.223 2418 110.764 2414.17 110.764C2406.19 110.764 2399.59 112.526 2394.38 116.049C2389.31 119.42 2386.78 123.939 2386.78 129.608C2386.78 132.672 2387.63 135.582 2389.31 138.34C2391 141.098 2393.46 143.319 2396.68 145.004C2399.9 146.689 2403.74 147.532 2408.18 147.532C2412.79 147.532 2417.31 146.689 2421.76 145.004C2426.21 143.166 2429.82 140.944 2432.58 138.34Z" fill="url(#paint18_linear_525_4622)"/>
<path d="M2569.12 161.55C2566.51 162.622 2563.36 163.848 2559.68 165.227C2556 166.605 2552.01 167.678 2547.72 168.444C2543.57 169.363 2539.35 169.823 2535.06 169.823C2529.38 169.823 2524.17 168.827 2519.41 166.835C2514.65 164.844 2510.82 161.703 2507.9 157.413C2505.14 152.971 2503.76 147.226 2503.76 140.178V71.0084H2487.88V47.3389H2503.76V8.27282H2534.6V47.3389H2559.91V71.0084H2534.6V129.837C2534.75 133.974 2535.9 136.961 2538.05 138.8C2540.2 140.638 2542.88 141.557 2546.1 141.557C2549.33 141.557 2552.47 141.021 2555.54 139.949C2558.61 138.876 2561.06 137.957 2562.9 137.191L2569.12 161.55Z" fill="url(#paint19_linear_525_4622)"/>
<path d="M2585.18 167.754V47.3389H2616.01V167.754H2585.18ZM2585.18 30.5635V0H2616.01V30.5635H2585.18Z" fill="url(#paint20_linear_525_4622)"/>
<path d="M2755.9 167.754H2725.06V100.193C2725.06 90.5414 2723.38 83.4942 2720 79.0514C2716.63 74.6086 2711.95 72.3872 2705.96 72.3872C2701.82 72.3872 2697.6 73.4596 2693.31 75.6044C2689.17 77.7492 2685.41 80.7366 2682.03 84.5666C2678.66 88.2434 2676.2 92.533 2674.67 97.4355V167.754H2643.83V47.3389H2671.68V69.6296C2674.74 64.4208 2678.66 60.0546 2683.41 56.5309C2688.17 52.8541 2693.61 50.0965 2699.75 48.2581C2706.04 46.2665 2712.64 45.2707 2719.54 45.2707C2727.06 45.2707 2733.2 46.6495 2737.95 49.4071C2742.86 52.0115 2746.54 55.6117 2749 60.2078C2751.61 64.6506 2753.37 69.7062 2754.29 75.3746C2755.36 81.043 2755.9 86.788 2755.9 92.6096V167.754Z" fill="url(#paint21_linear_525_4622)"/>
<path d="M2829.89 168.444C2821.91 168.444 2814.55 166.912 2807.8 163.848C2801.2 160.631 2795.45 156.188 2790.54 150.519C2785.78 144.851 2782.1 138.34 2779.49 130.986C2776.88 123.633 2775.58 115.82 2775.58 107.547C2775.58 98.8143 2776.96 90.6946 2779.72 83.1878C2782.48 75.681 2786.32 69.0934 2791.23 63.425C2796.29 57.6034 2802.2 53.1605 2808.95 50.0965C2815.85 46.8793 2823.45 45.2707 2831.73 45.2707C2841.09 45.2707 2849.3 47.4155 2856.35 51.7051C2863.41 55.8415 2869.24 61.4334 2873.84 68.4806V47.3389H2900.77V162.009C2900.77 173.959 2897.85 184.147 2892.02 192.573C2886.35 201.152 2878.44 207.663 2868.32 212.106C2858.19 216.702 2846.69 219 2833.8 219C2820.76 219 2809.72 216.779 2800.66 212.336C2791.61 208.046 2783.86 201.918 2777.42 193.952L2794.22 177.636C2798.82 183.304 2804.58 187.747 2811.48 190.964C2818.54 194.182 2825.98 195.79 2833.8 195.79C2840.4 195.79 2846.38 194.565 2851.75 192.113C2857.27 189.815 2861.65 186.138 2864.87 181.083C2868.24 176.18 2869.93 169.823 2869.93 162.009V146.843C2865.94 153.737 2860.27 159.099 2852.9 162.929C2845.69 166.605 2838.02 168.444 2829.89 168.444ZM2840.24 143.855C2843.62 143.855 2846.84 143.319 2849.91 142.247C2852.98 141.174 2855.82 139.719 2858.42 137.88C2861.03 136.042 2863.33 133.897 2865.33 131.446C2867.32 128.842 2868.86 126.237 2869.93 123.633V94.9077C2868.09 90.1584 2865.48 86.022 2862.11 82.4984C2858.88 78.9748 2855.2 76.2938 2851.06 74.4554C2847.07 72.4638 2842.85 71.468 2838.4 71.468C2833.65 71.468 2829.35 72.4638 2825.52 74.4554C2821.68 76.447 2818.38 79.2812 2815.62 82.958C2812.86 86.4816 2810.71 90.4648 2809.18 94.9077C2807.8 99.1973 2807.11 103.717 2807.11 108.466C2807.11 113.368 2807.95 117.964 2809.64 122.254C2811.33 126.544 2813.63 130.297 2816.54 133.514C2819.61 136.731 2823.14 139.259 2827.13 141.098C2831.27 142.936 2835.64 143.855 2840.24 143.855Z" fill="url(#paint22_linear_525_4622)"/>
<path d="M2986.84 167.754V4.59601H3018.59V167.754H2986.84Z" fill="url(#paint23_linear_525_4622)"/>
<path d="M3237.01 167.754H3206.18V100.193C3206.18 90.6946 3204.49 83.724 3201.11 79.2812C3197.89 74.6852 3193.36 72.3872 3187.54 72.3872C3181.55 72.3872 3175.8 74.7618 3170.28 79.511C3164.91 84.107 3161.07 90.1584 3158.77 97.6653V167.754H3127.93V100.193C3127.93 90.5414 3126.25 83.4942 3122.87 79.0514C3119.65 74.6086 3115.12 72.3872 3109.29 72.3872C3103.31 72.3872 3097.56 74.6852 3092.03 79.2812C3086.66 83.8772 3082.83 89.9286 3080.53 97.4355V167.754H3049.69V47.3389H3077.54V69.6296C3082.14 61.8164 3088.28 55.8415 3095.95 51.7051C3103.62 47.4155 3112.44 45.2707 3122.41 45.2707C3132.38 45.2707 3140.13 47.7219 3145.65 52.6243C3151.33 57.5267 3154.93 63.5782 3156.47 70.7786C3161.38 62.5058 3167.59 56.2246 3175.11 51.9349C3182.78 47.4921 3191.37 45.2707 3200.88 45.2707C3208.4 45.2707 3214.46 46.6495 3219.06 49.4071C3223.82 52.0115 3227.5 55.6117 3230.11 60.2078C3232.72 64.6506 3234.48 69.7062 3235.4 75.3746C3236.47 81.043 3237.01 86.788 3237.01 92.6096V167.754Z" fill="url(#paint24_linear_525_4622)"/>
<path d="M3336.12 170.052C3326.76 170.052 3318.47 167.984 3311.26 163.848C3304.21 159.558 3298.68 153.813 3294.69 146.613V216.702H3263.86V47.3389H3290.78V68.021C3295.39 60.9738 3301.22 55.4585 3308.27 51.4753C3315.33 47.3389 3323.38 45.2707 3332.44 45.2707C3340.57 45.2707 3348.01 46.8793 3354.76 50.0965C3361.66 53.3137 3367.64 57.8332 3372.71 63.6548C3377.77 69.3232 3381.68 75.9108 3384.44 83.4176C3387.36 90.7712 3388.82 98.7377 3388.82 107.317C3388.82 118.96 3386.51 129.531 3381.91 139.029C3377.46 148.528 3371.25 156.111 3363.27 161.78C3355.45 167.295 3346.4 170.052 3336.12 170.052ZM3325.76 143.855C3330.52 143.855 3334.81 142.859 3338.65 140.868C3342.48 138.876 3345.78 136.195 3348.54 132.825C3351.46 129.301 3353.61 125.395 3354.99 121.105C3356.52 116.662 3357.29 112.066 3357.29 107.317C3357.29 102.261 3356.44 97.5887 3354.76 93.299C3353.22 89.0094 3350.92 85.256 3347.85 82.0388C3344.78 78.6684 3341.18 76.064 3337.04 74.2256C3333.05 72.3872 3328.68 71.468 3323.92 71.468C3321.01 71.468 3318.01 72.0042 3314.95 73.0766C3312.03 73.9958 3309.19 75.3746 3306.43 77.213C3303.67 79.0514 3301.22 81.1962 3299.07 83.6474C3297.07 86.0986 3295.62 88.7796 3294.69 91.6904V119.956C3296.54 124.399 3298.99 128.459 3302.06 132.135C3305.28 135.812 3308.96 138.723 3313.1 140.868C3317.25 142.859 3321.47 143.855 3325.76 143.855Z" fill="url(#paint25_linear_525_4622)"/>
<path d="M3401.42 132.135C3401.42 124.322 3403.57 117.505 3407.87 111.683C3412.32 105.708 3418.45 101.112 3426.28 97.8951C3434.1 94.6779 3443.08 93.0693 3453.2 93.0693C3458.26 93.0693 3463.4 93.4522 3468.62 94.2183C3473.84 94.9843 3478.36 96.2099 3482.2 97.8951V91.4606C3482.2 83.8006 3479.9 77.9024 3475.29 73.766C3470.84 69.6296 3464.17 67.5614 3455.27 67.5614C3448.67 67.5614 3442.39 68.7104 3436.4 71.0084C3430.42 73.3064 3424.13 76.6768 3417.53 81.1196L3407.64 60.8972C3415.61 55.6884 3423.75 51.7817 3432.03 49.1773C3440.47 46.5729 3449.29 45.2707 3458.49 45.2707C3475.68 45.2707 3489.02 49.5603 3498.53 58.1396C3508.2 66.7188 3513.03 78.9748 3513.03 94.9077V133.284C3513.03 136.502 3513.57 138.8 3514.64 140.178C3515.87 141.557 3517.79 142.4 3520.4 142.706V167.754C3517.64 168.214 3515.1 168.597 3512.8 168.903C3510.65 169.21 3508.81 169.363 3507.28 169.363C3501.14 169.363 3496.46 167.984 3493.24 165.227C3490.17 162.469 3488.26 159.099 3487.49 155.115L3486.8 148.911C3481.58 155.652 3475.06 160.86 3467.24 164.537C3459.41 168.214 3451.44 170.052 3443.31 170.052C3435.33 170.052 3428.12 168.444 3421.67 165.227C3415.38 161.856 3410.4 157.337 3406.72 151.668C3403.19 145.847 3401.42 139.336 3401.42 132.135ZM3476.44 138.34C3478.13 136.502 3479.51 134.663 3480.59 132.825C3481.66 130.986 3482.2 129.301 3482.2 127.769V115.59C3478.51 114.058 3474.53 112.909 3470.23 112.143C3465.93 111.223 3461.87 110.764 3458.03 110.764C3450.06 110.764 3443.46 112.526 3438.24 116.049C3433.18 119.42 3430.65 123.939 3430.65 129.608C3430.65 132.672 3431.49 135.582 3433.18 138.34C3434.87 141.098 3437.32 143.319 3440.54 145.004C3443.77 146.689 3447.6 147.532 3452.05 147.532C3456.65 147.532 3461.18 146.689 3465.63 145.004C3470.08 143.166 3473.68 140.944 3476.44 138.34Z" fill="url(#paint26_linear_525_4622)"/>
<path d="M3598 170.052C3588.18 170.052 3579.36 168.444 3571.53 165.227C3563.71 161.856 3557.04 157.26 3551.51 151.439C3545.99 145.464 3541.69 138.723 3538.63 131.216C3535.71 123.709 3534.25 115.82 3534.25 107.547C3534.25 96.2099 3536.79 85.8688 3541.85 76.5236C3547.06 67.0252 3554.43 59.4418 3563.94 53.7733C3573.45 48.1049 3584.73 45.2707 3597.77 45.2707C3610.81 45.2707 3622.01 48.1049 3631.37 53.7733C3640.72 59.4418 3647.7 66.872 3652.31 76.064L3622.16 85.256C3619.55 80.8132 3616.1 77.4428 3611.81 75.1448C3607.51 72.6936 3602.75 71.468 3597.54 71.468C3591.71 71.468 3586.34 73 3581.43 76.064C3576.67 78.9748 3572.91 83.1878 3570.15 88.703C3567.39 94.0651 3566.01 100.346 3566.01 107.547C3566.01 114.594 3567.39 120.875 3570.15 126.39C3573.07 131.752 3576.9 136.042 3581.66 139.259C3586.42 142.323 3591.71 143.855 3597.54 143.855C3601.22 143.855 3604.67 143.242 3607.89 142.017C3611.27 140.791 3614.26 139.106 3616.87 136.961C3619.48 134.816 3621.39 132.365 3622.62 129.608L3652.77 138.8C3650.01 144.774 3645.94 150.136 3640.57 154.886C3635.35 159.635 3629.14 163.388 3621.93 166.146C3614.87 168.75 3606.9 170.052 3598 170.052Z" fill="url(#paint27_linear_525_4622)"/>
<path d="M3744 161.55C3741.39 162.622 3738.25 163.848 3734.56 165.227C3730.88 166.605 3726.89 167.678 3722.6 168.444C3718.46 169.363 3714.24 169.823 3709.94 169.823C3704.27 169.823 3699.05 168.827 3694.29 166.835C3689.54 164.844 3685.7 161.703 3682.79 157.413C3680.03 152.971 3678.65 147.226 3678.65 140.178V71.0084H3662.77V47.3389H3678.65V8.27282H3709.48V47.3389H3734.8V71.0084H3709.48V129.837C3709.64 133.974 3710.79 136.961 3712.93 138.8C3715.08 140.638 3717.77 141.557 3720.99 141.557C3724.21 141.557 3727.35 141.021 3730.42 139.949C3733.49 138.876 3735.95 137.957 3737.79 137.191L3744 161.55Z" fill="url(#paint28_linear_525_4622)"/>
</g>
<path d="M3973.5 89.2241V88.6784L3972.96 88.7261L3927.82 92.6812L3955.09 57.5965L3955.43 57.1562L3954.95 56.8639L3920.37 35.5742L3919.91 35.291L3919.67 35.7716L3898.25 77.4848L3876.82 35.7716L3876.58 35.2878L3876.11 35.576L3842.04 56.8656L3841.58 57.1565L3841.91 57.593L3868.68 92.6812L3824.04 88.7261L3823.5 88.6779V89.2241V129.776V130.316L3824.04 130.274L3868.68 126.813L3841.91 161.404L3841.57 161.841L3842.04 162.134L3876.11 183.424L3876.58 183.712L3876.82 183.228L3898.25 141.515L3919.67 183.228L3919.91 183.709L3920.37 183.426L3954.95 162.136L3955.43 161.842L3955.09 161.401L3927.82 126.813L3972.96 130.274L3973.5 130.316V129.776V89.2241Z" fill="url(#paint29_linear_525_4622)" fill-opacity="0.1" stroke="url(#paint30_linear_525_4622)"/>
<g style="mix-blend-mode:luminosity" opacity="0.06">
<path d="M4053 167.754V4.59601H4162.74V32.4019H4084.75V74.4554H4149.63V100.193H4084.75V167.754H4053Z" fill="url(#paint31_linear_525_4622)"/>
<path d="M4176.03 122.714V47.3389H4206.86V116.049C4206.86 125.241 4208.54 132.212 4211.92 136.961C4215.29 141.557 4220.28 143.855 4226.87 143.855C4230.86 143.855 4234.77 143.089 4238.61 141.557C4242.6 139.872 4246.2 137.421 4249.42 134.204C4252.8 130.986 4255.63 126.927 4257.93 122.024V47.3389H4288.76V133.284C4288.76 136.502 4289.3 138.8 4290.37 140.178C4291.6 141.557 4293.52 142.4 4296.13 142.706V167.754C4293.06 168.214 4290.45 168.52 4288.3 168.674C4286.31 168.98 4284.47 169.133 4282.78 169.133C4277.26 169.133 4272.73 167.908 4269.21 165.456C4265.83 162.852 4263.84 159.328 4263.23 154.886L4262.53 145.234C4257.17 153.354 4250.26 159.558 4241.83 163.848C4233.39 167.984 4224.11 170.052 4213.99 170.052C4201.57 170.052 4192.13 166.069 4185.69 158.103C4179.25 149.983 4176.03 138.187 4176.03 122.714Z" fill="url(#paint32_linear_525_4622)"/>
<path d="M4375.31 170.052C4365.65 170.052 4356.9 168.444 4349.08 165.227C4341.26 161.856 4334.59 157.337 4329.06 151.668C4323.54 145.847 4319.25 139.259 4316.18 131.906C4313.27 124.399 4311.81 116.509 4311.81 108.236C4311.81 96.7461 4314.34 86.2518 4319.4 76.7534C4324.62 67.255 4331.98 59.6716 4341.49 54.0031C4351.15 48.1815 4362.5 45.2707 4375.54 45.2707C4388.73 45.2707 4400 48.1815 4409.36 54.0031C4418.72 59.6716 4425.85 67.255 4430.76 76.7534C4435.82 86.0986 4438.35 96.2099 4438.35 107.087C4438.35 108.925 4438.27 110.84 4438.12 112.832C4437.96 114.671 4437.81 116.203 4437.66 117.428H4344.48C4345.09 123.556 4346.86 128.918 4349.77 133.514C4352.84 138.11 4356.67 141.634 4361.27 144.085C4366.03 146.383 4371.09 147.532 4376.46 147.532C4382.59 147.532 4388.35 146.077 4393.71 143.166C4399.24 140.102 4402.99 136.119 4404.99 131.216L4431.45 138.57C4428.53 144.698 4424.31 150.136 4418.79 154.886C4413.42 159.635 4407.06 163.388 4399.7 166.146C4392.33 168.75 4384.2 170.052 4375.31 170.052ZM4343.79 97.8951H4406.83C4406.21 91.767 4404.45 86.4816 4401.54 82.0388C4398.78 77.4428 4395.09 73.9192 4390.49 71.468C4385.89 68.8636 4380.75 67.5614 4375.08 67.5614C4369.56 67.5614 4364.49 68.8636 4359.89 71.468C4355.45 73.9192 4351.76 77.4428 4348.85 82.0388C4346.09 86.4816 4344.4 91.767 4343.79 97.8951Z" fill="url(#paint33_linear_525_4622)"/>
<path d="M4456.9 0H4487.73V129.148C4487.73 134.663 4488.65 138.417 4490.49 140.408C4492.33 142.247 4494.86 143.166 4498.08 143.166C4500.54 143.166 4503.07 142.859 4505.67 142.247C4508.28 141.634 4510.58 140.868 4512.58 139.949L4516.72 163.388C4512.58 165.38 4507.75 166.912 4502.22 167.984C4496.7 169.057 4491.72 169.593 4487.27 169.593C4477.61 169.593 4470.09 167.065 4464.72 162.009C4459.51 156.801 4456.9 149.447 4456.9 139.949V0Z" fill="url(#paint34_linear_525_4622)"/>
<path d="M4530.15 167.754V47.3389H4560.98V167.754H4530.15ZM4530.15 30.5635V0H4560.98V30.5635H4530.15Z" fill="url(#paint35_linear_525_4622)"/>
<path d="M4700.84 167.754H4670.01V100.193C4670.01 90.5414 4668.32 83.4942 4664.95 79.0514C4661.57 74.6086 4656.89 72.3872 4650.91 72.3872C4646.77 72.3872 4642.55 73.4596 4638.26 75.6044C4634.12 77.7492 4630.36 80.7366 4626.98 84.5666C4623.61 88.2434 4621.16 92.533 4619.62 97.4355V167.754H4588.79V47.3389H4616.63V69.6296C4619.7 64.4208 4623.61 60.0546 4628.36 56.5309C4633.12 52.8541 4638.56 50.0965 4644.7 48.2581C4650.99 46.2665 4657.58 45.2707 4664.49 45.2707C4672 45.2707 4678.14 46.6495 4682.89 49.4071C4687.8 52.0115 4691.48 55.6117 4693.93 60.2078C4696.54 64.6506 4698.31 69.7062 4699.23 75.3746C4700.3 81.043 4700.84 86.788 4700.84 92.6096V167.754Z" fill="url(#paint36_linear_525_4622)"/>
<path d="M4774.81 168.444C4766.83 168.444 4759.47 166.912 4752.72 163.848C4746.13 160.631 4740.37 156.188 4735.47 150.519C4730.71 144.851 4727.03 138.34 4724.42 130.986C4721.82 123.633 4720.51 115.82 4720.51 107.547C4720.51 98.8143 4721.89 90.6946 4724.65 83.1878C4727.41 75.681 4731.25 69.0934 4736.16 63.425C4741.22 57.6034 4747.12 53.1605 4753.87 50.0965C4760.77 46.8793 4768.37 45.2707 4776.65 45.2707C4786.01 45.2707 4794.21 47.4155 4801.27 51.7051C4808.32 55.8415 4814.15 61.4334 4818.75 68.4806V47.3389H4845.67V162.009C4845.67 173.959 4842.76 184.147 4836.93 192.573C4831.25 201.152 4823.35 207.663 4813.23 212.106C4803.11 216.702 4791.6 219 4778.72 219C4765.68 219 4754.64 216.779 4745.59 212.336C4736.54 208.046 4728.79 201.918 4722.35 193.952L4739.15 177.636C4743.75 183.304 4749.5 187.747 4756.4 190.964C4763.46 194.182 4770.9 195.79 4778.72 195.79C4785.32 195.79 4791.3 194.565 4796.67 192.113C4802.19 189.815 4806.56 186.138 4809.78 181.083C4813.15 176.18 4814.84 169.823 4814.84 162.009V146.843C4810.85 153.737 4805.18 159.099 4797.82 162.929C4790.61 166.605 4782.94 168.444 4774.81 168.444ZM4785.16 143.855C4788.54 143.855 4791.76 143.319 4794.83 142.247C4797.89 141.174 4800.73 139.719 4803.34 137.88C4805.95 136.042 4808.25 133.897 4810.24 131.446C4812.23 128.842 4813.77 126.237 4814.84 123.633V94.9077C4813 90.1584 4810.39 86.022 4807.02 82.4984C4803.8 78.9748 4800.12 76.2938 4795.98 74.4554C4791.99 72.4638 4787.77 71.468 4783.32 71.468C4778.57 71.468 4774.27 72.4638 4770.44 74.4554C4766.6 76.447 4763.31 79.2812 4760.54 82.958C4757.78 86.4816 4755.64 90.4648 4754.1 94.9077C4752.72 99.1973 4752.03 103.717 4752.03 108.466C4752.03 113.368 4752.88 117.964 4754.56 122.254C4756.25 126.544 4758.55 130.297 4761.46 133.514C4764.53 136.731 4768.06 139.259 4772.05 141.098C4776.19 142.936 4780.56 143.855 4785.16 143.855Z" fill="url(#paint37_linear_525_4622)"/>
<path d="M5029.04 47.3389C5027.97 46.2665 5025.98 44.8111 5023.06 42.9727C5020.3 41.1343 5016.85 39.3725 5012.71 37.6873C5008.72 36.0021 5004.35 34.5467 4999.6 33.3211C4994.84 31.9423 4990.01 31.2529 4985.1 31.2529C4976.51 31.2529 4969.99 32.8615 4965.54 36.0787C4961.25 39.2959 4959.1 43.8153 4959.1 49.6369C4959.1 54.0798 4960.48 57.6034 4963.24 60.2078C4966 62.8122 4970.15 65.0336 4975.67 66.872C4981.19 68.7104 4988.09 70.702 4996.37 72.8468C5007.11 75.4512 5016.39 78.6684 5024.21 82.4984C5032.19 86.1752 5038.25 91.0777 5042.39 97.2057C5046.68 103.18 5048.83 111.147 5048.83 121.105C5048.83 129.837 5047.22 137.344 5044 143.625C5040.78 149.753 5036.33 154.732 5030.65 158.562C5024.98 162.392 5018.54 165.227 5011.33 167.065C5004.12 168.75 4996.45 169.593 4988.32 169.593C4980.19 169.593 4972.06 168.75 4963.93 167.065C4955.8 165.38 4947.98 163.005 4940.47 159.941C4932.95 156.724 4926.05 152.894 4919.76 148.451L4933.79 121.105C4935.17 122.484 4937.63 124.322 4941.16 126.62C4944.68 128.765 4948.98 130.986 4954.04 133.284C4959.1 135.429 4964.62 137.268 4970.61 138.8C4976.59 140.332 4982.65 141.098 4988.78 141.098C4997.37 141.098 5003.89 139.642 5008.34 136.731C5012.79 133.821 5015.01 129.684 5015.01 124.322C5015.01 119.42 5013.25 115.59 5009.72 112.832C5006.19 110.075 5001.28 107.7 4994.99 105.708C4988.71 103.563 4981.27 101.265 4972.68 98.8143C4962.4 95.9035 4953.81 92.6863 4946.91 89.1626C4940.01 85.4858 4934.87 80.8898 4931.49 75.3746C4928.12 69.8594 4926.43 62.9654 4926.43 54.6925C4926.43 43.5089 4929.04 34.1637 4934.25 26.6569C4939.62 18.9968 4946.83 13.2518 4955.88 9.42182C4964.93 5.43861 4974.98 3.447 4986.02 3.447C4993.69 3.447 5000.9 4.2896 5007.65 5.97481C5014.55 7.66002 5020.99 9.88143 5026.97 12.639C5032.96 15.3966 5038.32 18.3841 5043.08 21.6013L5029.04 47.3389Z" fill="url(#paint38_linear_525_4622)"/>
<path d="M5068.01 122.714V47.3389H5098.84V116.049C5098.84 125.241 5100.52 132.212 5103.9 136.961C5107.27 141.557 5112.26 143.855 5118.85 143.855C5122.84 143.855 5126.75 143.089 5130.59 141.557C5134.58 139.872 5138.18 137.421 5141.4 134.204C5144.78 130.986 5147.61 126.927 5149.91 122.024V47.3389H5180.74V133.284C5180.74 136.502 5181.28 138.8 5182.35 140.178C5183.58 141.557 5185.5 142.4 5188.11 142.706V167.754C5185.04 168.214 5182.43 168.52 5180.28 168.674C5178.29 168.98 5176.45 169.133 5174.76 169.133C5169.24 169.133 5164.71 167.908 5161.19 165.456C5157.81 162.852 5155.82 159.328 5155.21 154.886L5154.51 145.234C5149.15 153.354 5142.24 159.558 5133.81 163.848C5125.37 167.984 5116.09 170.052 5105.97 170.052C5093.55 170.052 5084.11 166.069 5077.67 158.103C5071.23 149.983 5068.01 138.187 5068.01 122.714Z" fill="url(#paint39_linear_525_4622)"/>
<path d="M5267.52 170.052C5257.7 170.052 5248.88 168.444 5241.06 165.227C5233.24 161.856 5226.57 157.26 5221.04 151.439C5215.52 145.464 5211.23 138.723 5208.16 131.216C5205.25 123.709 5203.79 115.82 5203.79 107.547C5203.79 96.2099 5206.32 85.8688 5211.38 76.5236C5216.6 67.0252 5223.96 59.4418 5233.47 53.7733C5242.98 48.1049 5254.25 45.2707 5267.29 45.2707C5280.33 45.2707 5291.52 48.1049 5300.88 53.7733C5310.23 59.4418 5317.21 66.872 5321.82 76.064L5291.68 85.256C5289.07 80.8132 5285.62 77.4428 5281.32 75.1448C5277.03 72.6936 5272.27 71.468 5267.06 71.468C5261.23 71.468 5255.86 73 5250.95 76.064C5246.2 78.9748 5242.44 83.1878 5239.68 88.703C5236.92 94.0651 5235.54 100.346 5235.54 107.547C5235.54 114.594 5236.92 120.875 5239.68 126.39C5242.59 131.752 5246.43 136.042 5251.18 139.259C5255.94 142.323 5261.23 143.855 5267.06 143.855C5270.74 143.855 5274.19 143.242 5277.41 142.017C5280.79 140.791 5283.78 139.106 5286.38 136.961C5288.99 134.816 5290.91 132.365 5292.14 129.608L5322.28 138.8C5319.51 144.774 5315.45 150.136 5310.08 154.886C5304.87 159.635 5298.65 163.388 5291.45 166.146C5284.39 168.75 5276.41 170.052 5267.52 170.052Z" fill="url(#paint40_linear_525_4622)"/>
<path d="M5396.26 170.052C5386.44 170.052 5377.62 168.444 5369.8 165.227C5361.98 161.856 5355.31 157.26 5349.79 151.439C5344.26 145.464 5339.97 138.723 5336.9 131.216C5333.99 123.709 5332.53 115.82 5332.53 107.547C5332.53 96.2099 5335.06 85.8688 5340.12 76.5236C5345.34 67.0252 5352.7 59.4418 5362.21 53.7733C5371.72 48.1049 5382.99 45.2707 5396.03 45.2707C5409.07 45.2707 5420.26 48.1049 5429.62 53.7733C5438.98 59.4418 5445.96 66.872 5450.56 76.064L5420.42 85.256C5417.81 80.8132 5414.36 77.4428 5410.06 75.1448C5405.77 72.6936 5401.01 71.468 5395.8 71.468C5389.97 71.468 5384.6 73 5379.69 76.064C5374.94 78.9748 5371.18 83.1878 5368.42 88.703C5365.66 94.0651 5364.28 100.346 5364.28 107.547C5364.28 114.594 5365.66 120.875 5368.42 126.39C5371.34 131.752 5375.17 136.042 5379.92 139.259C5384.68 142.323 5389.97 143.855 5395.8 143.855C5399.48 143.855 5402.93 143.242 5406.15 142.017C5409.53 140.791 5412.52 139.106 5415.13 136.961C5417.73 134.816 5419.65 132.365 5420.88 129.608L5451.02 138.8C5448.26 144.774 5444.19 150.136 5438.82 154.886C5433.61 159.635 5427.4 163.388 5420.19 166.146C5413.13 168.75 5405.16 170.052 5396.26 170.052Z" fill="url(#paint41_linear_525_4622)"/>
<path d="M5524.77 170.052C5515.11 170.052 5506.37 168.444 5498.54 165.227C5490.72 161.856 5484.05 157.337 5478.53 151.668C5473.01 145.847 5468.71 139.259 5465.64 131.906C5462.73 124.399 5461.27 116.509 5461.27 108.236C5461.27 96.7461 5463.8 86.2518 5468.86 76.7534C5474.08 67.255 5481.44 59.6716 5490.95 54.0031C5500.61 48.1815 5511.96 45.2707 5525 45.2707C5538.19 45.2707 5549.47 48.1815 5558.82 54.0031C5568.18 59.6716 5575.31 67.255 5580.22 76.7534C5585.28 86.0986 5587.81 96.2099 5587.81 107.087C5587.81 108.925 5587.73 110.84 5587.58 112.832C5587.43 114.671 5587.27 116.203 5587.12 117.428H5493.94C5494.56 123.556 5496.32 128.918 5499.23 133.514C5502.3 138.11 5506.14 141.634 5510.74 144.085C5515.49 146.383 5520.55 147.532 5525.92 147.532C5532.06 147.532 5537.81 146.077 5543.18 143.166C5548.7 140.102 5552.46 136.119 5554.45 131.216L5580.91 138.57C5577.99 144.698 5573.78 150.136 5568.26 154.886C5562.89 159.635 5556.52 163.388 5549.16 166.146C5541.8 168.75 5533.67 170.052 5524.77 170.052ZM5493.25 97.8951H5556.29C5555.68 91.767 5553.91 86.4816 5551 82.0388C5548.24 77.4428 5544.56 73.9192 5539.96 71.468C5535.35 68.8636 5530.22 67.5614 5524.54 67.5614C5519.02 67.5614 5513.96 68.8636 5509.36 71.468C5504.91 73.9192 5501.23 77.4428 5498.31 82.0388C5495.55 86.4816 5493.87 91.767 5493.25 97.8951Z" fill="url(#paint42_linear_525_4622)"/>
<path d="M5651 170.052C5640.72 170.052 5630.9 168.367 5621.55 164.997C5612.19 161.626 5604.14 156.647 5597.39 150.06L5608.43 130.067C5615.64 135.889 5622.7 140.178 5629.6 142.936C5636.66 145.694 5643.4 147.072 5649.85 147.072C5655.83 147.072 5660.58 146 5664.11 143.855C5667.79 141.71 5669.63 138.493 5669.63 134.204C5669.63 131.293 5668.64 129.071 5666.64 127.539C5664.65 125.854 5661.73 124.399 5657.9 123.173C5654.22 121.948 5649.69 120.569 5644.32 119.037C5635.43 116.126 5627.99 113.292 5622.01 110.534C5616.03 107.776 5611.5 104.329 5608.43 100.193C5605.52 95.9035 5604.06 90.4648 5604.06 83.8772C5604.06 75.9108 5606.06 69.0934 5610.04 63.425C5614.19 57.6034 5619.86 53.0839 5627.07 49.8667C5634.43 46.6495 5643.02 45.0409 5652.84 45.0409C5661.43 45.0409 5669.56 46.4197 5677.22 49.1773C5684.89 51.7817 5691.87 56.0714 5698.16 62.0462L5685.74 81.5792C5679.6 76.83 5673.77 73.383 5668.25 71.2382C5662.73 68.9402 5657.13 67.7912 5651.46 67.7912C5648.24 67.7912 5645.17 68.1742 5642.25 68.9402C5639.49 69.7062 5637.19 71.0084 5635.35 72.8468C5633.66 74.532 5632.82 76.9832 5632.82 80.2004C5632.82 83.1112 5633.59 85.4092 5635.12 87.0944C5636.81 88.6264 5639.26 90.0052 5642.48 91.2309C5645.86 92.4565 5649.92 93.8353 5654.68 95.3673C5664.34 98.1249 5672.47 100.959 5679.07 103.87C5685.81 106.781 5690.88 110.381 5694.25 114.671C5697.62 118.807 5699.31 124.552 5699.31 131.906C5699.31 143.855 5694.94 153.2 5686.2 159.941C5677.46 166.682 5665.72 170.052 5651 170.052Z" fill="url(#paint43_linear_525_4622)"/>
<path d="M5764.68 170.052C5754.41 170.052 5744.59 168.367 5735.24 164.997C5725.88 161.626 5717.83 156.647 5711.08 150.06L5722.12 130.067C5729.33 135.889 5736.39 140.178 5743.29 142.936C5750.34 145.694 5757.09 147.072 5763.53 147.072C5769.52 147.072 5774.27 146 5777.8 143.855C5781.48 141.71 5783.32 138.493 5783.32 134.204C5783.32 131.293 5782.32 129.071 5780.33 127.539C5778.34 125.854 5775.42 124.399 5771.59 123.173C5767.91 121.948 5763.38 120.569 5758.01 119.037C5749.12 116.126 5741.68 113.292 5735.7 110.534C5729.71 107.776 5725.19 104.329 5722.12 100.193C5719.21 95.9035 5717.75 90.4648 5717.75 83.8772C5717.75 75.9108 5719.74 69.0934 5723.73 63.425C5727.87 57.6034 5733.55 53.0839 5740.76 49.8667C5748.12 46.6495 5756.71 45.0409 5766.53 45.0409C5775.11 45.0409 5783.24 46.4197 5790.91 49.1773C5798.58 51.7817 5805.56 56.0714 5811.85 62.0462L5799.43 81.5792C5793.29 76.83 5787.46 73.383 5781.94 71.2382C5776.42 68.9402 5770.82 67.7912 5765.15 67.7912C5761.92 67.7912 5758.86 68.1742 5755.94 68.9402C5753.18 69.7062 5750.88 71.0084 5749.04 72.8468C5747.35 74.532 5746.51 76.9832 5746.51 80.2004C5746.51 83.1112 5747.28 85.4092 5748.81 87.0944C5750.5 88.6264 5752.95 90.0052 5756.17 91.2309C5759.55 92.4565 5763.61 93.8353 5768.37 95.3673C5778.03 98.1249 5786.16 100.959 5792.75 103.87C5799.5 106.781 5804.56 110.381 5807.94 114.671C5811.31 118.807 5813 124.552 5813 131.906C5813 143.855 5808.63 153.2 5799.89 159.941C5791.14 166.682 5779.41 170.052 5764.68 170.052Z" fill="url(#paint44_linear_525_4622)"/>
</g>
<defs>
<linearGradient id="paint0_linear_525_4622" x1="833.5" y1="0" x2="833.5" y2="219" gradientUnits="userSpaceOnUse">
<stop stop-color="white"/>
<stop offset="1" stop-color="white" stop-opacity="0.53"/>
</linearGradient>
<linearGradient id="paint1_linear_525_4622" x1="833.5" y1="0" x2="833.5" y2="219" gradientUnits="userSpaceOnUse">
<stop stop-color="white"/>
<stop offset="1" stop-color="white" stop-opacity="0.53"/>
</linearGradient>
<linearGradient id="paint2_linear_525_4622" x1="833.5" y1="0" x2="833.5" y2="219" gradientUnits="userSpaceOnUse">
<stop stop-color="white"/>
<stop offset="1" stop-color="white" stop-opacity="0.53"/>
</linearGradient>
<linearGradient id="paint3_linear_525_4622" x1="833.5" y1="0" x2="833.5" y2="219" gradientUnits="userSpaceOnUse">
<stop stop-color="white"/>
<stop offset="1" stop-color="white" stop-opacity="0.53"/>
</linearGradient>
<linearGradient id="paint4_linear_525_4622" x1="833.5" y1="0" x2="833.5" y2="219" gradientUnits="userSpaceOnUse">
<stop stop-color="white"/>
<stop offset="1" stop-color="white" stop-opacity="0.53"/>
</linearGradient>
<linearGradient id="paint5_linear_525_4622" x1="833.5" y1="0" x2="833.5" y2="219" gradientUnits="userSpaceOnUse">
<stop stop-color="white"/>
<stop offset="1" stop-color="white" stop-opacity="0.53"/>
</linearGradient>
<linearGradient id="paint6_linear_525_4622" x1="833.5" y1="0" x2="833.5" y2="219" gradientUnits="userSpaceOnUse">
<stop stop-color="white"/>
<stop offset="1" stop-color="white" stop-opacity="0.53"/>
</linearGradient>
<linearGradient id="paint7_linear_525_4622" x1="833.5" y1="0" x2="833.5" y2="219" gradientUnits="userSpaceOnUse">
<stop stop-color="white"/>
<stop offset="1" stop-color="white" stop-opacity="0.53"/>
</linearGradient>
<linearGradient id="paint8_linear_525_4622" x1="833.5" y1="0" x2="833.5" y2="219" gradientUnits="userSpaceOnUse">
<stop stop-color="white"/>
<stop offset="1" stop-color="white" stop-opacity="0.53"/>
</linearGradient>
<linearGradient id="paint9_linear_525_4622" x1="833.5" y1="0" x2="833.5" y2="219" gradientUnits="userSpaceOnUse">
<stop stop-color="white"/>
<stop offset="1" stop-color="white" stop-opacity="0.53"/>
</linearGradient>
<linearGradient id="paint10_linear_525_4622" x1="833.5" y1="0" x2="833.5" y2="219" gradientUnits="userSpaceOnUse">
<stop stop-color="white"/>
<stop offset="1" stop-color="white" stop-opacity="0.53"/>
</linearGradient>
<linearGradient id="paint11_linear_525_4622" x1="833.5" y1="0" x2="833.5" y2="219" gradientUnits="userSpaceOnUse">
<stop stop-color="white"/>
<stop offset="1" stop-color="white" stop-opacity="0.53"/>
</linearGradient>
<linearGradient id="paint12_linear_525_4622" x1="833.5" y1="0" x2="833.5" y2="219" gradientUnits="userSpaceOnUse">
<stop stop-color="white"/>
<stop offset="1" stop-color="white" stop-opacity="0.53"/>
</linearGradient>
<linearGradient id="paint13_linear_525_4622" x1="1821.5" y1="-19.125" x2="1821.5" y2="304.275" gradientUnits="userSpaceOnUse">
<stop stop-opacity="0"/>
<stop offset="0.58" stop-color="#6633EE"/>
<stop offset="1" stop-color="white"/>
</linearGradient>
<linearGradient id="paint14_linear_525_4622" x1="1499.71" y1="109.5" x2="1888.07" y2="109.5" gradientUnits="userSpaceOnUse">
<stop offset="0.62" stop-color="white" stop-opacity="0.2"/>
<stop offset="1" stop-color="white" stop-opacity="0.2"/>
</linearGradient>
<linearGradient id="paint15_linear_525_4622" x1="2860" y1="0" x2="2860" y2="219" gradientUnits="userSpaceOnUse">
<stop stop-color="white"/>
<stop offset="1" stop-color="white" stop-opacity="0.53"/>
</linearGradient>
<linearGradient id="paint16_linear_525_4622" x1="2860" y1="0" x2="2860" y2="219" gradientUnits="userSpaceOnUse">
<stop stop-color="white"/>
<stop offset="1" stop-color="white" stop-opacity="0.53"/>
</linearGradient>
<linearGradient id="paint17_linear_525_4622" x1="2860" y1="0" x2="2860" y2="219" gradientUnits="userSpaceOnUse">
<stop stop-color="white"/>
<stop offset="1" stop-color="white" stop-opacity="0.53"/>
</linearGradient>
<linearGradient id="paint18_linear_525_4622" x1="2860" y1="0" x2="2860" y2="219" gradientUnits="userSpaceOnUse">
<stop stop-color="white"/>
<stop offset="1" stop-color="white" stop-opacity="0.53"/>
</linearGradient>
<linearGradient id="paint19_linear_525_4622" x1="2860" y1="0" x2="2860" y2="219" gradientUnits="userSpaceOnUse">
<stop stop-color="white"/>
<stop offset="1" stop-color="white" stop-opacity="0.53"/>
</linearGradient>
<linearGradient id="paint20_linear_525_4622" x1="2860" y1="0" x2="2860" y2="219" gradientUnits="userSpaceOnUse">
<stop stop-color="white"/>
<stop offset="1" stop-color="white" stop-opacity="0.53"/>
</linearGradient>
<linearGradient id="paint21_linear_525_4622" x1="2860" y1="0" x2="2860" y2="219" gradientUnits="userSpaceOnUse">
<stop stop-color="white"/>
<stop offset="1" stop-color="white" stop-opacity="0.53"/>
</linearGradient>
<linearGradient id="paint22_linear_525_4622" x1="2860" y1="0" x2="2860" y2="219" gradientUnits="userSpaceOnUse">
<stop stop-color="white"/>
<stop offset="1" stop-color="white" stop-opacity="0.53"/>
</linearGradient>
<linearGradient id="paint23_linear_525_4622" x1="2860" y1="0" x2="2860" y2="219" gradientUnits="userSpaceOnUse">
<stop stop-color="white"/>
<stop offset="1" stop-color="white" stop-opacity="0.53"/>
</linearGradient>
<linearGradient id="paint24_linear_525_4622" x1="2860" y1="0" x2="2860" y2="219" gradientUnits="userSpaceOnUse">
<stop stop-color="white"/>
<stop offset="1" stop-color="white" stop-opacity="0.53"/>
</linearGradient>
<linearGradient id="paint25_linear_525_4622" x1="2860" y1="0" x2="2860" y2="219" gradientUnits="userSpaceOnUse">
<stop stop-color="white"/>
<stop offset="1" stop-color="white" stop-opacity="0.53"/>
</linearGradient>
<linearGradient id="paint26_linear_525_4622" x1="2860" y1="0" x2="2860" y2="219" gradientUnits="userSpaceOnUse">
<stop stop-color="white"/>
<stop offset="1" stop-color="white" stop-opacity="0.53"/>
</linearGradient>
<linearGradient id="paint27_linear_525_4622" x1="2860" y1="0" x2="2860" y2="219" gradientUnits="userSpaceOnUse">
<stop stop-color="white"/>
<stop offset="1" stop-color="white" stop-opacity="0.53"/>
</linearGradient>
<linearGradient id="paint28_linear_525_4622" x1="2860" y1="0" x2="2860" y2="219" gradientUnits="userSpaceOnUse">
<stop stop-color="white"/>
<stop offset="1" stop-color="white" stop-opacity="0.53"/>
</linearGradient>
<linearGradient id="paint29_linear_525_4622" x1="3898.5" y1="-19.125" x2="3898.5" y2="304.275" gradientUnits="userSpaceOnUse">
<stop stop-opacity="0"/>
<stop offset="0.58" stop-color="#6633EE"/>
<stop offset="1" stop-color="white"/>
</linearGradient>
<linearGradient id="paint30_linear_525_4622" x1="3576.71" y1="109.5" x2="3965.07" y2="109.5" gradientUnits="userSpaceOnUse">
<stop offset="0.62" stop-color="white" stop-opacity="0.2"/>
<stop offset="1" stop-color="white" stop-opacity="0.2"/>
</linearGradient>
<linearGradient id="paint31_linear_525_4622" x1="4933" y1="0" x2="4933" y2="219" gradientUnits="userSpaceOnUse">
<stop stop-color="white"/>
<stop offset="1" stop-color="white" stop-opacity="0.53"/>
</linearGradient>
<linearGradient id="paint32_linear_525_4622" x1="4933" y1="0" x2="4933" y2="219" gradientUnits="userSpaceOnUse">
<stop stop-color="white"/>
<stop offset="1" stop-color="white" stop-opacity="0.53"/>
</linearGradient>
<linearGradient id="paint33_linear_525_4622" x1="4933" y1="0" x2="4933" y2="219" gradientUnits="userSpaceOnUse">
<stop stop-color="white"/>
<stop offset="1" stop-color="white" stop-opacity="0.53"/>
</linearGradient>
<linearGradient id="paint34_linear_525_4622" x1="4933" y1="0" x2="4933" y2="219" gradientUnits="userSpaceOnUse">
<stop stop-color="white"/>
<stop offset="1" stop-color="white" stop-opacity="0.53"/>
</linearGradient>
<linearGradient id="paint35_linear_525_4622" x1="4933" y1="0" x2="4933" y2="219" gradientUnits="userSpaceOnUse">
<stop stop-color="white"/>
<stop offset="1" stop-color="white" stop-opacity="0.53"/>
</linearGradient>
<linearGradient id="paint36_linear_525_4622" x1="4933" y1="0" x2="4933" y2="219" gradientUnits="userSpaceOnUse">
<stop stop-color="white"/>
<stop offset="1" stop-color="white" stop-opacity="0.53"/>
</linearGradient>
<linearGradient id="paint37_linear_525_4622" x1="4933" y1="0" x2="4933" y2="219" gradientUnits="userSpaceOnUse">
<stop stop-color="white"/>
<stop offset="1" stop-color="white" stop-opacity="0.53"/>
</linearGradient>
<linearGradient id="paint38_linear_525_4622" x1="4933" y1="0" x2="4933" y2="219" gradientUnits="userSpaceOnUse">
<stop stop-color="white"/>
<stop offset="1" stop-color="white" stop-opacity="0.53"/>
</linearGradient>
<linearGradient id="paint39_linear_525_4622" x1="4933" y1="0" x2="4933" y2="219" gradientUnits="userSpaceOnUse">
<stop stop-color="white"/>
<stop offset="1" stop-color="white" stop-opacity="0.53"/>
</linearGradient>
<linearGradient id="paint40_linear_525_4622" x1="4933" y1="0" x2="4933" y2="219" gradientUnits="userSpaceOnUse">
<stop stop-color="white"/>
<stop offset="1" stop-color="white" stop-opacity="0.53"/>
</linearGradient>
<linearGradient id="paint41_linear_525_4622" x1="4933" y1="0" x2="4933" y2="219" gradientUnits="userSpaceOnUse">
<stop stop-color="white"/>
<stop offset="1" stop-color="white" stop-opacity="0.53"/>
</linearGradient>
<linearGradient id="paint42_linear_525_4622" x1="4933" y1="0" x2="4933" y2="219" gradientUnits="userSpaceOnUse">
<stop stop-color="white"/>
<stop offset="1" stop-color="white" stop-opacity="0.53"/>
</linearGradient>
<linearGradient id="paint43_linear_525_4622" x1="4933" y1="0" x2="4933" y2="219" gradientUnits="userSpaceOnUse">
<stop stop-color="white"/>
<stop offset="1" stop-color="white" stop-opacity="0.53"/>
</linearGradient>
<linearGradient id="paint44_linear_525_4622" x1="4933" y1="0" x2="4933" y2="219" gradientUnits="userSpaceOnUse">
<stop stop-color="white"/>
<stop offset="1" stop-color="white" stop-opacity="0.53"/>
</linearGradient>
</defs>
</svg>
