<svg width="1440" height="181" viewBox="0 0 1440 181" fill="none" xmlns="http://www.w3.org/2000/svg">
<g style="mix-blend-mode:luminosity" opacity="0.06">
<path d="M0 138.646V3.79853H90.6163V26.7796H26.216V61.5362H79.7879V82.808H26.216V138.646H0Z" fill="url(#paint0_linear_95_214)"/>
<path d="M101.584 101.421V39.1249H127.04V95.9129C127.04 103.51 128.433 109.271 131.22 113.196C134.006 116.995 138.122 118.894 143.568 118.894C146.861 118.894 150.09 118.261 153.256 116.995C156.549 115.602 159.525 113.576 162.185 110.917C164.971 108.258 167.314 104.903 169.214 100.851V39.1249H194.67V110.157C194.67 112.816 195.113 114.716 196 115.855C197.013 116.995 198.596 117.691 200.749 117.944V138.646C198.216 139.026 196.063 139.279 194.29 139.406C192.644 139.659 191.124 139.786 189.731 139.786C185.171 139.786 181.435 138.773 178.522 136.747C175.736 134.595 174.09 131.682 173.583 128.01L173.013 120.034C168.581 126.744 162.882 131.872 155.916 135.418C148.95 138.836 141.288 140.546 132.929 140.546C122.671 140.546 114.882 137.254 109.563 130.669C104.244 123.959 101.584 114.209 101.584 101.421Z" fill="url(#paint1_linear_95_214)"/>
<path d="M266.13 140.546C258.152 140.546 250.933 139.216 244.474 136.557C238.015 133.772 232.505 130.036 227.946 125.352C223.387 120.54 219.841 115.095 217.308 109.018C214.901 102.814 213.698 96.2928 213.698 89.4554C213.698 79.9591 215.788 71.2858 219.967 63.4355C224.273 55.5852 230.352 49.3176 238.205 44.6327C246.183 39.8213 255.555 37.4155 266.32 37.4155C277.212 37.4155 286.521 39.8213 294.246 44.6327C301.972 49.3176 307.861 55.5852 311.913 63.4355C316.093 71.1591 318.183 79.5159 318.183 88.5058C318.183 90.0252 318.119 91.6079 317.993 93.2539C317.866 94.7733 317.739 96.0395 317.613 97.0525H240.674C241.181 102.117 242.637 106.549 245.044 110.347C247.577 114.146 250.743 117.058 254.542 119.084C258.468 120.983 262.648 121.933 267.08 121.933C272.146 121.933 276.895 120.73 281.328 118.324C285.887 115.792 288.99 112.5 290.637 108.448L312.483 114.526C310.077 119.59 306.594 124.085 302.035 128.01C297.602 131.936 292.346 135.038 286.267 137.317C280.188 139.469 273.476 140.546 266.13 140.546ZM240.104 80.9087H292.156C291.65 75.844 290.193 71.4757 287.787 67.8038C285.507 64.0052 282.468 61.093 278.668 59.0672C274.869 56.9146 270.626 55.8384 265.94 55.8384C261.381 55.8384 257.202 56.9146 253.402 59.0672C249.73 61.093 246.69 64.0052 244.284 67.8038C242.004 71.4757 240.611 75.844 240.104 80.9087Z" fill="url(#paint2_linear_95_214)"/>
<path d="M333.5 0H358.957V106.739C358.957 111.297 359.716 114.399 361.236 116.045C362.756 117.565 364.846 118.324 367.505 118.324C369.532 118.324 371.621 118.071 373.774 117.565C375.927 117.058 377.827 116.425 379.473 115.665L382.893 135.038C379.473 136.684 375.484 137.95 370.925 138.836C366.365 139.723 362.249 140.166 358.577 140.166C350.598 140.166 344.392 138.077 339.959 133.898C335.653 129.593 333.5 123.516 333.5 115.665V0Z" fill="url(#paint3_linear_95_214)"/>
<path d="M393.984 138.646V39.1249H419.44V138.646H393.984ZM393.984 25.2602V0H419.44V25.2602H393.984Z" fill="url(#paint4_linear_95_214)"/>
<path d="M534.92 138.646H509.464V82.808C509.464 74.8311 508.071 69.0066 505.285 65.3347C502.499 61.6628 498.636 59.8269 493.697 59.8269C490.277 59.8269 486.794 60.7132 483.248 62.4858C479.829 64.2585 476.726 66.7275 473.94 69.893C471.153 72.9318 469.127 76.4771 467.861 80.5288V138.646H442.404V39.1249H465.391V57.5477C467.924 53.2427 471.153 49.6341 475.079 46.7219C479.005 43.6831 483.502 41.404 488.567 39.8846C493.76 38.2385 499.206 37.4155 504.905 37.4155C511.111 37.4155 516.177 38.5551 520.103 40.8342C524.155 42.9867 527.195 45.9622 529.221 49.7607C531.374 53.4327 532.831 57.6111 533.591 62.2959C534.477 66.9808 534.92 71.7289 534.92 76.5404V138.646Z" fill="url(#paint5_linear_95_214)"/>
<path d="M595.999 139.216C589.413 139.216 583.334 137.95 577.762 135.418C572.316 132.759 567.567 129.087 563.514 124.402C559.588 119.717 556.548 114.336 554.395 108.258C552.242 102.18 551.166 95.723 551.166 88.8856C551.166 81.6684 552.306 74.9577 554.585 68.7534C556.865 62.5491 560.031 57.1046 564.084 52.4197C568.263 47.6083 573.139 43.9363 578.712 41.404C584.411 38.745 590.68 37.4155 597.519 37.4155C605.244 37.4155 612.02 39.1882 617.846 42.7335C623.672 46.1521 628.484 50.7737 632.284 56.5981V39.1249H654.51V133.898C654.51 143.774 652.104 152.194 647.291 159.158C642.605 166.249 636.083 171.63 627.724 175.302C619.366 179.101 609.867 181 599.229 181C588.464 181 579.345 179.164 571.873 175.492C564.401 171.947 558.005 166.882 552.686 160.298L566.554 146.813C570.353 151.498 575.102 155.17 580.801 157.829C586.627 160.488 592.77 161.817 599.229 161.817C604.674 161.817 609.614 160.804 614.046 158.779C618.606 156.879 622.215 153.84 624.875 149.662C627.661 145.61 629.054 140.356 629.054 133.898V121.363C625.761 127.061 621.075 131.492 614.996 134.658C609.044 137.697 602.711 139.216 595.999 139.216ZM604.548 118.894C607.334 118.894 609.994 118.451 612.527 117.565C615.06 116.678 617.402 115.475 619.555 113.956C621.708 112.437 623.608 110.664 625.255 108.638C626.901 106.485 628.168 104.333 629.054 102.18V78.4397C627.534 74.5145 625.381 71.0958 622.595 68.1836C619.935 65.2714 616.896 63.0556 613.476 61.5362C610.184 59.8902 606.701 59.0672 603.028 59.0672C599.102 59.0672 595.556 59.8902 592.39 61.5362C589.223 63.1822 586.501 65.5247 584.221 68.5635C581.941 71.4757 580.168 74.7677 578.902 78.4397C577.762 81.985 577.192 85.7202 577.192 89.6453C577.192 93.6971 577.888 97.4956 579.282 101.041C580.675 104.586 582.574 107.688 584.981 110.347C587.514 113.006 590.427 115.095 593.719 116.615C597.139 118.134 600.748 118.894 604.548 118.894Z" fill="url(#paint6_linear_95_214)"/>
<path d="M805.922 39.1249C805.035 38.2385 803.389 37.0357 800.982 35.5163C798.703 33.9968 795.853 32.5407 792.434 31.1479C789.141 29.7552 785.531 28.5523 781.605 27.5393C777.679 26.3998 773.69 25.83 769.637 25.83C762.545 25.83 757.162 27.1595 753.49 29.8185C749.944 32.4774 748.17 36.2127 748.17 41.0241C748.17 44.696 749.31 47.6082 751.59 49.7607C753.87 51.9132 757.289 53.7492 761.848 55.2686C766.408 56.788 772.107 58.4341 778.946 60.2067C787.811 62.3592 795.473 65.0182 801.932 68.1836C808.518 71.2225 813.521 75.2742 816.94 80.3389C820.486 85.277 822.259 91.8611 822.259 100.091C822.259 107.308 820.93 113.513 818.27 118.704C815.61 123.769 811.938 127.884 807.252 131.049C802.566 134.215 797.246 136.557 791.294 138.077C785.341 139.469 779.009 140.166 772.297 140.166C765.584 140.166 758.872 139.469 752.16 138.077C745.448 136.684 738.989 134.721 732.783 132.189C726.577 129.53 720.878 126.364 715.685 122.693L727.274 100.091C728.414 101.231 730.44 102.75 733.353 104.65C736.266 106.422 739.812 108.258 743.991 110.157C748.171 111.93 752.73 113.449 757.669 114.716C762.608 115.982 767.611 116.615 772.677 116.615C779.769 116.615 785.152 115.412 788.824 113.006C792.497 110.601 794.334 107.182 794.334 102.75C794.334 98.6985 792.877 95.533 789.964 93.2539C787.051 90.9748 782.999 89.0122 777.806 87.3662C772.613 85.5936 766.471 83.6943 759.379 81.6684C750.893 79.2627 743.801 76.6037 738.102 73.6915C732.403 70.6527 728.16 66.8541 725.374 62.2959C722.588 57.7377 721.195 52.0399 721.195 45.2025C721.195 35.9594 723.348 28.2357 727.654 22.0315C732.086 15.7006 738.039 10.9524 745.511 7.78699C752.983 4.49493 761.279 2.8489 770.397 2.8489C776.73 2.8489 782.682 3.54529 788.254 4.93808C793.954 6.33088 799.273 8.16684 804.212 10.446C809.151 12.7251 813.584 15.1941 817.51 17.8531L805.922 39.1249Z" fill="url(#paint7_linear_95_214)"/>
<path d="M838.094 101.421V39.1249H863.55V95.9129C863.55 103.51 864.943 109.271 867.729 113.196C870.515 116.995 874.631 118.894 880.077 118.894C883.37 118.894 886.6 118.261 889.766 116.995C893.059 115.602 896.035 113.576 898.695 110.917C901.481 108.258 903.824 104.903 905.723 100.851V39.1249H931.18V110.157C931.18 112.816 931.623 114.716 932.509 115.855C933.523 116.995 935.106 117.691 937.259 117.944V138.646C934.726 139.026 932.573 139.279 930.8 139.406C929.153 139.659 927.633 139.786 926.24 139.786C921.681 139.786 917.945 138.773 915.032 136.747C912.246 134.595 910.599 131.682 910.093 128.01L909.523 120.034C905.09 126.744 899.391 131.872 892.425 135.418C885.46 138.836 877.798 140.546 869.439 140.546C859.18 140.546 851.392 137.254 846.072 130.669C840.753 123.959 838.094 114.209 838.094 101.421Z" fill="url(#paint8_linear_95_214)"/>
<path d="M1002.83 140.546C994.724 140.546 987.442 139.216 980.983 136.557C974.524 133.772 969.015 129.973 964.456 125.162C959.896 120.224 956.35 114.652 953.817 108.448C951.411 102.244 950.208 95.723 950.208 88.8856C950.208 79.5159 952.298 70.9692 956.477 63.2455C960.783 55.3952 966.862 49.1277 974.714 44.4428C982.566 39.7579 991.875 37.4155 1002.64 37.4155C1013.4 37.4155 1022.65 39.7579 1030.38 44.4428C1038.1 49.1277 1043.86 55.2686 1047.66 62.8657L1022.78 70.4627C1020.62 66.7908 1017.77 64.0052 1014.23 62.106C1010.68 60.0801 1006.76 59.0672 1002.45 59.0672C997.637 59.0672 993.205 60.3333 989.152 62.8657C985.226 65.2714 982.123 68.7534 979.843 73.3116C977.564 77.7433 976.424 82.9346 976.424 88.8856C976.424 94.71 977.564 99.9014 979.843 104.46C982.25 108.891 985.416 112.437 989.342 115.095C993.268 117.628 997.637 118.894 1002.45 118.894C1005.49 118.894 1008.34 118.388 1011 117.375C1013.78 116.362 1016.25 114.969 1018.41 113.196C1020.56 111.424 1022.14 109.398 1023.16 107.119L1048.04 114.716C1045.76 119.654 1042.41 124.085 1037.97 128.01C1033.67 131.936 1028.54 135.038 1022.59 137.317C1016.76 139.469 1010.18 140.546 1002.83 140.546Z" fill="url(#paint9_linear_95_214)"/>
<path d="M1109.13 140.546C1101.03 140.546 1093.74 139.216 1087.29 136.557C1080.83 133.772 1075.32 129.973 1070.76 125.162C1066.2 120.224 1062.65 114.652 1060.12 108.448C1057.71 102.244 1056.51 95.723 1056.51 88.8856C1056.51 79.5159 1058.6 70.9692 1062.78 63.2455C1067.09 55.3952 1073.16 49.1277 1081.02 44.4428C1088.87 39.7579 1098.18 37.4155 1108.94 37.4155C1119.71 37.4155 1128.95 39.7579 1136.68 44.4428C1144.4 49.1277 1150.17 55.2686 1153.97 62.8657L1129.08 70.4627C1126.93 66.7908 1124.08 64.0052 1120.53 62.106C1116.98 60.0801 1113.06 59.0672 1108.75 59.0672C1103.94 59.0672 1099.51 60.3333 1095.45 62.8657C1091.53 65.2714 1088.43 68.7534 1086.15 73.3116C1083.87 77.7433 1082.73 82.9346 1082.73 88.8856C1082.73 94.71 1083.87 99.9014 1086.15 104.46C1088.55 108.891 1091.72 112.437 1095.64 115.095C1099.57 117.628 1103.94 118.894 1108.75 118.894C1111.79 118.894 1114.64 118.388 1117.3 117.375C1120.09 116.362 1122.56 114.969 1124.71 113.196C1126.86 111.424 1128.45 109.398 1129.46 107.119L1154.35 114.716C1152.07 119.654 1148.71 124.085 1144.28 128.01C1139.97 131.936 1134.84 135.038 1128.89 137.317C1123.06 139.469 1116.48 140.546 1109.13 140.546Z" fill="url(#paint10_linear_95_214)"/>
<path d="M1215.24 140.546C1207.27 140.546 1200.05 139.216 1193.59 136.557C1187.13 133.772 1181.62 130.036 1177.06 125.352C1172.5 120.54 1168.95 115.095 1166.42 109.018C1164.02 102.814 1162.81 96.2928 1162.81 89.4554C1162.81 79.9591 1164.9 71.2858 1169.08 63.4355C1173.39 55.5852 1179.47 49.3176 1187.32 44.6327C1195.3 39.8213 1204.67 37.4155 1215.43 37.4155C1226.33 37.4155 1235.63 39.8213 1243.36 44.6327C1251.09 49.3176 1256.97 55.5852 1261.03 63.4355C1265.21 71.1591 1267.3 79.5159 1267.3 88.5058C1267.3 90.0252 1267.23 91.6079 1267.11 93.2539C1266.98 94.7733 1266.85 96.0395 1266.73 97.0525H1189.79C1190.29 102.117 1191.75 106.549 1194.16 110.347C1196.69 114.146 1199.86 117.058 1203.66 119.084C1207.58 120.983 1211.76 121.933 1216.19 121.933C1221.26 121.933 1226.01 120.73 1230.44 118.324C1235 115.792 1238.1 112.5 1239.75 108.448L1261.6 114.526C1259.19 119.59 1255.71 124.085 1251.15 128.01C1246.72 131.936 1241.46 135.038 1235.38 137.317C1229.3 139.469 1222.59 140.546 1215.24 140.546ZM1189.22 80.9087H1241.27C1240.76 75.844 1239.31 71.4757 1236.9 67.8038C1234.62 64.0052 1231.58 61.093 1227.78 59.0672C1223.98 56.9146 1219.74 55.8384 1215.05 55.8384C1210.5 55.8384 1206.32 56.9146 1202.52 59.0672C1198.84 61.093 1195.8 64.0052 1193.4 67.8038C1191.12 71.4757 1189.72 75.844 1189.22 80.9087Z" fill="url(#paint11_linear_95_214)"/>
<path d="M1319.47 140.546C1310.98 140.546 1302.88 139.153 1295.15 136.367C1287.43 133.582 1280.78 129.467 1275.21 124.022L1284.32 107.498C1290.28 112.31 1296.1 115.855 1301.8 118.134C1307.63 120.413 1313.2 121.553 1318.52 121.553C1323.46 121.553 1327.38 120.667 1330.3 118.894C1333.34 117.121 1334.86 114.462 1334.86 110.917C1334.86 108.511 1334.03 106.675 1332.39 105.409C1330.74 104.016 1328.33 102.814 1325.17 101.801C1322.13 100.788 1318.39 99.6481 1313.96 98.3819C1306.61 95.9762 1300.47 93.6338 1295.53 91.3547C1290.59 89.0755 1286.86 86.2267 1284.32 82.808C1281.92 79.2627 1280.71 74.7677 1280.71 69.3232C1280.71 62.7391 1282.36 57.1046 1285.65 52.4197C1289.07 47.6083 1293.76 43.873 1299.71 41.2141C1305.79 38.5551 1312.88 37.2256 1320.99 37.2256C1328.08 37.2256 1334.79 38.3652 1341.13 40.6443C1347.46 42.7968 1353.22 46.3421 1358.41 51.2802L1348.15 67.4239C1343.09 63.4988 1338.28 60.6499 1333.72 58.8772C1329.16 56.978 1324.53 56.0283 1319.85 56.0283C1317.19 56.0283 1314.66 56.3449 1312.25 56.978C1309.97 57.6111 1308.07 58.6873 1306.55 60.2067C1305.16 61.5995 1304.46 63.6254 1304.46 66.2844C1304.46 68.6901 1305.09 70.5894 1306.36 71.9822C1307.75 73.2483 1309.78 74.3879 1312.44 75.4008C1315.23 76.4138 1318.58 77.5533 1322.51 78.8195C1330.49 81.0986 1337.2 83.4411 1342.65 85.8468C1348.22 88.2525 1352.4 91.2281 1355.18 94.7733C1357.97 98.192 1359.36 102.94 1359.36 109.018C1359.36 118.894 1355.75 126.618 1348.53 132.189C1341.32 137.76 1331.63 140.546 1319.47 140.546Z" fill="url(#paint12_linear_95_214)"/>
<path d="M1413.34 140.546C1404.86 140.546 1396.75 139.153 1389.03 136.367C1381.3 133.582 1374.65 129.467 1369.08 124.022L1378.2 107.498C1384.15 112.31 1389.97 115.855 1395.67 118.134C1401.5 120.413 1407.07 121.553 1412.39 121.553C1417.33 121.553 1421.26 120.667 1424.17 118.894C1427.21 117.121 1428.73 114.462 1428.73 110.917C1428.73 108.511 1427.91 106.675 1426.26 105.409C1424.61 104.016 1422.21 102.814 1419.04 101.801C1416 100.788 1412.26 99.6481 1407.83 98.3819C1400.49 95.9762 1394.34 93.6338 1389.41 91.3547C1384.47 89.0755 1380.73 86.2267 1378.2 82.808C1375.79 79.2627 1374.59 74.7677 1374.59 69.3232C1374.59 62.7391 1376.23 57.1046 1379.53 52.4197C1382.95 47.6083 1387.63 43.873 1393.58 41.2141C1399.66 38.5551 1406.76 37.2256 1414.86 37.2256C1421.95 37.2256 1428.67 38.3652 1435 40.6443C1441.33 42.7968 1447.09 46.3421 1452.29 51.2802L1442.03 67.4239C1436.96 63.4988 1432.15 60.6499 1427.59 58.8772C1423.03 56.978 1418.41 56.0283 1413.72 56.0283C1411.06 56.0283 1408.53 56.3449 1406.12 56.978C1403.84 57.6111 1401.94 58.6873 1400.42 60.2067C1399.03 61.5995 1398.33 63.6254 1398.33 66.2844C1398.33 68.6901 1398.97 70.5894 1400.23 71.9822C1401.63 73.2483 1403.65 74.3879 1406.31 75.4008C1409.1 76.4138 1412.45 77.5533 1416.38 78.8195C1424.36 81.0986 1431.07 83.4411 1436.52 85.8468C1442.09 88.2525 1446.27 91.2281 1449.06 94.7733C1451.84 98.192 1453.24 102.94 1453.24 109.018C1453.24 118.894 1449.63 126.618 1442.41 132.189C1435.19 137.76 1425.5 140.546 1413.34 140.546Z" fill="url(#paint13_linear_95_214)"/>
<path d="M1553.76 138.646V3.79853H1644.38V26.7796H1579.98V61.5362H1633.55V82.808H1579.98V138.646H1553.76Z" fill="url(#paint14_linear_95_214)"/>
<path d="M1655.35 101.421V39.1249H1680.8V95.9129C1680.8 103.51 1682.2 109.271 1684.98 113.196C1687.77 116.995 1691.89 118.894 1697.33 118.894C1700.63 118.894 1703.85 118.261 1707.02 116.995C1710.31 115.602 1713.29 113.576 1715.95 110.917C1718.74 108.258 1721.08 104.903 1722.98 100.851V39.1249H1748.43V110.157C1748.43 112.816 1748.88 114.716 1749.76 115.855C1750.78 116.995 1752.36 117.691 1754.51 117.944V138.646C1751.98 139.026 1749.83 139.279 1748.05 139.406C1746.41 139.659 1744.89 139.786 1743.5 139.786C1738.94 139.786 1735.2 138.773 1732.29 136.747C1729.5 134.595 1727.85 131.682 1727.35 128.01L1726.78 120.034C1722.35 126.744 1716.65 131.872 1709.68 135.418C1702.71 138.836 1695.05 140.546 1686.69 140.546C1676.44 140.546 1668.65 137.254 1663.33 130.669C1658.01 123.959 1655.35 114.209 1655.35 101.421Z" fill="url(#paint15_linear_95_214)"/>
<path d="M1819.9 140.546C1811.92 140.546 1804.7 139.216 1798.24 136.557C1791.78 133.772 1786.27 130.036 1781.71 125.352C1777.15 120.54 1773.61 115.095 1771.07 109.018C1768.67 102.814 1767.46 96.2928 1767.46 89.4554C1767.46 79.9591 1769.55 71.2858 1773.73 63.4355C1778.04 55.5852 1784.12 49.3176 1791.97 44.6327C1799.95 39.8213 1809.32 37.4155 1820.08 37.4155C1830.98 37.4155 1840.29 39.8213 1848.01 44.6327C1855.74 49.3176 1861.63 55.5852 1865.68 63.4355C1869.86 71.1591 1871.95 79.5159 1871.95 88.5058C1871.95 90.0252 1871.88 91.6079 1871.76 93.2539C1871.63 94.7733 1871.5 96.0395 1871.38 97.0525H1794.44C1794.95 102.117 1796.4 106.549 1798.81 110.347C1801.34 114.146 1804.51 117.058 1808.31 119.084C1812.23 120.983 1816.41 121.933 1820.84 121.933C1825.91 121.933 1830.66 120.73 1835.09 118.324C1839.65 115.792 1842.75 112.5 1844.4 108.448L1866.25 114.526C1863.84 119.59 1860.36 124.085 1855.8 128.01C1851.37 131.936 1846.11 135.038 1840.03 137.317C1833.95 139.469 1827.24 140.546 1819.9 140.546ZM1793.87 80.9087H1845.92C1845.41 75.844 1843.96 71.4757 1841.55 67.8038C1839.27 64.0052 1836.23 61.093 1832.43 59.0672C1828.63 56.9146 1824.39 55.8384 1819.71 55.8384C1815.15 55.8384 1810.97 56.9146 1807.17 59.0672C1803.49 61.093 1800.45 64.0052 1798.05 67.8038C1795.77 71.4757 1794.38 75.844 1793.87 80.9087Z" fill="url(#paint16_linear_95_214)"/>
<path d="M1887.27 0H1912.72V106.739C1912.72 111.297 1913.48 114.399 1915 116.045C1916.52 117.565 1918.61 118.324 1921.27 118.324C1923.3 118.324 1925.39 118.071 1927.54 117.565C1929.69 117.058 1931.59 116.425 1933.24 115.665L1936.66 135.038C1933.24 136.684 1929.25 137.95 1924.69 138.836C1920.13 139.723 1916.01 140.166 1912.34 140.166C1904.36 140.166 1898.16 138.077 1893.72 133.898C1889.42 129.593 1887.27 123.516 1887.27 115.665V0Z" fill="url(#paint17_linear_95_214)"/>
<path d="M1947.75 138.646V39.1249H1973.2V138.646H1947.75ZM1947.75 25.2602V0H1973.2V25.2602H1947.75Z" fill="url(#paint18_linear_95_214)"/>
<path d="M2088.69 138.646H2063.23V82.808C2063.23 74.8311 2061.84 69.0066 2059.05 65.3347C2056.26 61.6628 2052.4 59.8269 2047.46 59.8269C2044.04 59.8269 2040.56 60.7132 2037.01 62.4858C2033.59 64.2585 2030.49 66.7275 2027.7 69.893C2024.92 72.9318 2022.89 76.4771 2021.63 80.5288V138.646H1996.17V39.1249H2019.16V57.5477C2021.69 53.2427 2024.92 49.6341 2028.84 46.7219C2032.77 43.6831 2037.27 41.404 2042.33 39.8846C2047.52 38.2385 2052.97 37.4155 2058.67 37.4155C2064.88 37.4155 2069.94 38.5551 2073.87 40.8342C2077.92 42.9867 2080.96 45.9622 2082.99 49.7607C2085.14 53.4327 2086.6 57.6111 2087.36 62.2959C2088.24 66.9808 2088.69 71.7289 2088.69 76.5404V138.646Z" fill="url(#paint19_linear_95_214)"/>
<path d="M2149.76 139.216C2143.18 139.216 2137.1 137.95 2131.53 135.418C2126.08 132.759 2121.33 129.087 2117.28 124.402C2113.35 119.717 2110.31 114.336 2108.16 108.258C2106.01 102.18 2104.93 95.723 2104.93 88.8856C2104.93 81.6684 2106.07 74.9577 2108.35 68.7534C2110.63 62.5491 2113.8 57.1046 2117.85 52.4197C2122.03 47.6083 2126.9 43.9363 2132.48 41.404C2138.18 38.745 2144.44 37.4155 2151.28 37.4155C2159.01 37.4155 2165.78 39.1882 2171.61 42.7335C2177.44 46.1521 2182.25 50.7737 2186.05 56.5981V39.1249H2208.27V133.898C2208.27 143.774 2205.87 152.194 2201.06 159.158C2196.37 166.249 2189.85 171.63 2181.49 175.302C2173.13 179.101 2163.63 181 2152.99 181C2142.23 181 2133.11 179.164 2125.64 175.492C2118.17 171.947 2111.77 166.882 2106.45 160.298L2120.32 146.813C2124.12 151.498 2128.87 155.17 2134.57 157.829C2140.39 160.488 2146.53 161.817 2152.99 161.817C2158.44 161.817 2163.38 160.804 2167.81 158.779C2172.37 156.879 2175.98 153.84 2178.64 149.662C2181.43 145.61 2182.82 140.356 2182.82 133.898V121.363C2179.53 127.061 2174.84 131.492 2168.76 134.658C2162.81 137.697 2156.48 139.216 2149.76 139.216ZM2158.31 118.894C2161.1 118.894 2163.76 118.451 2166.29 117.565C2168.82 116.678 2171.17 115.475 2173.32 113.956C2175.47 112.437 2177.37 110.664 2179.02 108.638C2180.67 106.485 2181.93 104.333 2182.82 102.18V78.4397C2181.3 74.5145 2179.15 71.0958 2176.36 68.1836C2173.7 65.2714 2170.66 63.0556 2167.24 61.5362C2163.95 59.8902 2160.47 59.0672 2156.79 59.0672C2152.87 59.0672 2149.32 59.8902 2146.15 61.5362C2142.99 63.1822 2140.26 65.5247 2137.99 68.5635C2135.71 71.4757 2133.93 74.7677 2132.67 78.4397C2131.53 81.985 2130.96 85.7202 2130.96 89.6453C2130.96 93.6971 2131.65 97.4956 2133.05 101.041C2134.44 104.586 2136.34 107.688 2138.75 110.347C2141.28 113.006 2144.19 115.095 2147.48 116.615C2150.9 118.134 2154.51 118.894 2158.31 118.894Z" fill="url(#paint20_linear_95_214)"/>
<path d="M2359.69 39.1249C2358.8 38.2385 2357.15 37.0357 2354.75 35.5163C2352.47 33.9968 2349.62 32.5407 2346.2 31.1479C2342.91 29.7552 2339.3 28.5523 2335.37 27.5393C2331.44 26.3998 2327.45 25.83 2323.4 25.83C2316.31 25.83 2310.93 27.1595 2307.25 29.8185C2303.71 32.4774 2301.94 36.2127 2301.94 41.0241C2301.94 44.696 2303.08 47.6082 2305.35 49.7607C2307.63 51.9132 2311.05 53.7492 2315.61 55.2686C2320.17 56.788 2325.87 58.4341 2332.71 60.2067C2341.58 62.3592 2349.24 65.0182 2355.7 68.1836C2362.28 71.2225 2367.29 75.2742 2370.7 80.3389C2374.25 85.277 2376.02 91.8611 2376.02 100.091C2376.02 107.308 2374.69 113.513 2372.03 118.704C2369.37 123.769 2365.7 127.884 2361.02 131.049C2356.33 134.215 2351.01 136.557 2345.06 138.077C2339.11 139.469 2332.77 140.166 2326.06 140.166C2319.35 140.166 2312.64 139.469 2305.92 138.077C2299.21 136.684 2292.75 134.721 2286.55 132.189C2280.34 129.53 2274.64 126.364 2269.45 122.693L2281.04 100.091C2282.18 101.231 2284.2 102.75 2287.12 104.65C2290.03 106.422 2293.58 108.258 2297.76 110.157C2301.94 111.93 2306.49 113.449 2311.43 114.716C2316.37 115.982 2321.38 116.615 2326.44 116.615C2333.53 116.615 2338.92 115.412 2342.59 113.006C2346.26 110.601 2348.1 107.182 2348.1 102.75C2348.1 98.6985 2346.64 95.533 2343.73 93.2539C2340.82 90.9748 2336.76 89.0122 2331.57 87.3662C2326.38 85.5936 2320.24 83.6943 2313.14 81.6684C2304.66 79.2627 2297.57 76.6037 2291.87 73.6915C2286.17 70.6527 2281.92 66.8541 2279.14 62.2959C2276.35 57.7377 2274.96 52.0399 2274.96 45.2025C2274.96 35.9594 2277.11 28.2357 2281.42 22.0315C2285.85 15.7006 2291.8 10.9524 2299.28 7.78699C2306.75 4.49493 2315.04 2.8489 2324.16 2.8489C2330.49 2.8489 2336.45 3.54529 2342.02 4.93808C2347.72 6.33088 2353.04 8.16684 2357.98 10.446C2362.92 12.7251 2367.35 15.1941 2371.27 17.8531L2359.69 39.1249Z" fill="url(#paint21_linear_95_214)"/>
<path d="M2391.86 101.421V39.1249H2417.31V95.9129C2417.31 103.51 2418.71 109.271 2421.49 113.196C2424.28 116.995 2428.4 118.894 2433.84 118.894C2437.13 118.894 2440.36 118.261 2443.53 116.995C2446.82 115.602 2449.8 113.576 2452.46 110.917C2455.25 108.258 2457.59 104.903 2459.49 100.851V39.1249H2484.94V110.157C2484.94 112.816 2485.39 114.716 2486.27 115.855C2487.29 116.995 2488.87 117.691 2491.02 117.944V138.646C2488.49 139.026 2486.34 139.279 2484.56 139.406C2482.92 139.659 2481.4 139.786 2480 139.786C2475.45 139.786 2471.71 138.773 2468.8 136.747C2466.01 134.595 2464.36 131.682 2463.86 128.01L2463.29 120.034C2458.85 126.744 2453.16 131.872 2446.19 135.418C2439.22 138.836 2431.56 140.546 2423.2 140.546C2412.95 140.546 2405.16 137.254 2399.84 130.669C2394.52 123.959 2391.86 114.209 2391.86 101.421Z" fill="url(#paint22_linear_95_214)"/>
<path d="M2556.59 140.546C2548.49 140.546 2541.21 139.216 2534.75 136.557C2528.29 133.772 2522.78 129.973 2518.22 125.162C2513.66 120.224 2510.11 114.652 2507.58 108.448C2505.18 102.244 2503.97 95.723 2503.97 88.8856C2503.97 79.5159 2506.06 70.9692 2510.24 63.2455C2514.55 55.3952 2520.63 49.1277 2528.48 44.4428C2536.33 39.7579 2545.64 37.4155 2556.4 37.4155C2567.17 37.4155 2576.41 39.7579 2584.14 44.4428C2591.87 49.1277 2597.63 55.2686 2601.43 62.8657L2576.54 70.4627C2574.39 66.7908 2571.54 64.0052 2567.99 62.106C2564.45 60.0801 2560.52 59.0672 2556.21 59.0672C2551.4 59.0672 2546.97 60.3333 2542.92 62.8657C2538.99 65.2714 2535.89 68.7534 2533.61 73.3116C2531.33 77.7433 2530.19 82.9346 2530.19 88.8856C2530.19 94.71 2531.33 99.9014 2533.61 104.46C2536.01 108.891 2539.18 112.437 2543.11 115.095C2547.03 117.628 2551.4 118.894 2556.21 118.894C2559.25 118.894 2562.1 118.388 2564.76 117.375C2567.55 116.362 2570.02 114.969 2572.17 113.196C2574.33 111.424 2575.91 109.398 2576.92 107.119L2601.81 114.716C2599.53 119.654 2596.17 124.085 2591.74 128.01C2587.43 131.936 2582.3 135.038 2576.35 137.317C2570.53 139.469 2563.94 140.546 2556.59 140.546Z" fill="url(#paint23_linear_95_214)"/>
<path d="M2662.9 140.546C2654.79 140.546 2647.51 139.216 2641.05 136.557C2634.59 133.772 2629.08 129.973 2624.52 125.162C2619.96 120.224 2616.42 114.652 2613.88 108.448C2611.48 102.244 2610.27 95.723 2610.27 88.8856C2610.27 79.5159 2612.36 70.9692 2616.54 63.2455C2620.85 55.3952 2626.93 49.1277 2634.78 44.4428C2642.63 39.7579 2651.94 37.4155 2662.71 37.4155C2673.47 37.4155 2682.72 39.7579 2690.44 44.4428C2698.17 49.1277 2703.93 55.2686 2707.73 62.8657L2682.84 70.4627C2680.69 66.7908 2677.84 64.0052 2674.3 62.106C2670.75 60.0801 2666.82 59.0672 2662.52 59.0672C2657.7 59.0672 2653.27 60.3333 2649.22 62.8657C2645.29 65.2714 2642.19 68.7534 2639.91 73.3116C2637.63 77.7433 2636.49 82.9346 2636.49 88.8856C2636.49 94.71 2637.63 99.9014 2639.91 104.46C2642.32 108.891 2645.48 112.437 2649.41 115.095C2653.33 117.628 2657.7 118.894 2662.52 118.894C2665.56 118.894 2668.41 118.388 2671.07 117.375C2673.85 116.362 2676.32 114.969 2678.47 113.196C2680.63 111.424 2682.21 109.398 2683.22 107.119L2708.11 114.716C2705.83 119.654 2702.47 124.085 2698.04 128.01C2693.74 131.936 2688.61 135.038 2682.65 137.317C2676.83 139.469 2670.24 140.546 2662.9 140.546Z" fill="url(#paint24_linear_95_214)"/>
<path d="M2769.01 140.546C2761.03 140.546 2753.81 139.216 2747.35 136.557C2740.89 133.772 2735.38 130.036 2730.82 125.352C2726.27 120.54 2722.72 115.095 2720.19 109.018C2717.78 102.814 2716.58 96.2928 2716.58 89.4554C2716.58 79.9591 2718.67 71.2858 2722.85 63.4355C2727.15 55.5852 2733.23 49.3176 2741.08 44.6327C2749.06 39.8213 2758.43 37.4155 2769.2 37.4155C2780.09 37.4155 2789.4 39.8213 2797.12 44.6327C2804.85 49.3176 2810.74 55.5852 2814.79 63.4355C2818.97 71.1591 2821.06 79.5159 2821.06 88.5058C2821.06 90.0252 2821 91.6079 2820.87 93.2539C2820.74 94.7733 2820.62 96.0395 2820.49 97.0525H2743.55C2744.06 102.117 2745.52 106.549 2747.92 110.347C2750.46 114.146 2753.62 117.058 2757.42 119.084C2761.35 120.983 2765.53 121.933 2769.96 121.933C2775.02 121.933 2779.77 120.73 2784.21 118.324C2788.77 115.792 2791.87 112.5 2793.52 108.448L2815.36 114.526C2812.96 119.59 2809.47 124.085 2804.91 128.01C2800.48 131.936 2795.23 135.038 2789.15 137.317C2783.07 139.469 2776.35 140.546 2769.01 140.546ZM2742.98 80.9087H2795.04C2794.53 75.844 2793.07 71.4757 2790.67 67.8038C2788.39 64.0052 2785.35 61.093 2781.55 59.0672C2777.75 56.9146 2773.51 55.8384 2768.82 55.8384C2764.26 55.8384 2760.08 56.9146 2756.28 59.0672C2752.61 61.093 2749.57 64.0052 2747.16 67.8038C2744.88 71.4757 2743.49 75.844 2742.98 80.9087Z" fill="url(#paint25_linear_95_214)"/>
<path d="M2873.23 140.546C2864.75 140.546 2856.64 139.153 2848.92 136.367C2841.19 133.582 2834.54 129.467 2828.97 124.022L2838.09 107.498C2844.04 112.31 2849.87 115.855 2855.57 118.134C2861.39 120.413 2866.96 121.553 2872.28 121.553C2877.22 121.553 2881.15 120.667 2884.06 118.894C2887.1 117.121 2888.62 114.462 2888.62 110.917C2888.62 108.511 2887.8 106.675 2886.15 105.409C2884.51 104.016 2882.1 102.814 2878.93 101.801C2875.89 100.788 2872.16 99.6481 2867.72 98.3819C2860.38 95.9762 2854.24 93.6338 2849.3 91.3547C2844.36 89.0755 2840.62 86.2267 2838.09 82.808C2835.68 79.2627 2834.48 74.7677 2834.48 69.3232C2834.48 62.7391 2836.13 57.1046 2839.42 52.4197C2842.84 47.6083 2847.52 43.873 2853.48 41.2141C2859.56 38.5551 2866.65 37.2256 2874.75 37.2256C2881.85 37.2256 2888.56 38.3652 2894.89 40.6443C2901.22 42.7968 2906.98 46.3421 2912.18 51.2802L2901.92 67.4239C2896.85 63.4988 2892.04 60.6499 2887.48 58.8772C2882.92 56.978 2878.3 56.0283 2873.61 56.0283C2870.95 56.0283 2868.42 56.3449 2866.01 56.978C2863.74 57.6111 2861.84 58.6873 2860.32 60.2067C2858.92 61.5995 2858.23 63.6254 2858.23 66.2844C2858.23 68.6901 2858.86 70.5894 2860.13 71.9822C2861.52 73.2483 2863.54 74.3879 2866.2 75.4008C2868.99 76.4138 2872.35 77.5533 2876.27 78.8195C2884.25 81.0986 2890.96 83.4411 2896.41 85.8468C2901.98 88.2525 2906.16 91.2281 2908.95 94.7733C2911.73 98.192 2913.13 102.94 2913.13 109.018C2913.13 118.894 2909.52 126.618 2902.3 132.189C2895.08 137.76 2885.39 140.546 2873.23 140.546Z" fill="url(#paint26_linear_95_214)"/>
<path d="M2967.11 140.546C2958.62 140.546 2950.52 139.153 2942.79 136.367C2935.06 133.582 2928.42 129.467 2922.84 124.022L2931.96 107.498C2937.91 112.31 2943.74 115.855 2949.44 118.134C2955.26 120.413 2960.84 121.553 2966.16 121.553C2971.1 121.553 2975.02 120.667 2977.93 118.894C2980.97 117.121 2982.49 114.462 2982.49 110.917C2982.49 108.511 2981.67 106.675 2980.02 105.409C2978.38 104.016 2975.97 102.814 2972.81 101.801C2969.77 100.788 2966.03 99.6481 2961.6 98.3819C2954.25 95.9762 2948.11 93.6338 2943.17 91.3547C2938.23 89.0755 2934.49 86.2267 2931.96 82.808C2929.56 79.2627 2928.35 74.7677 2928.35 69.3232C2928.35 62.7391 2930 57.1046 2933.29 52.4197C2936.71 47.6083 2941.4 43.873 2947.35 41.2141C2953.43 38.5551 2960.52 37.2256 2968.63 37.2256C2975.72 37.2256 2982.43 38.3652 2988.76 40.6443C2995.1 42.7968 3000.86 46.3421 3006.05 51.2802L2995.79 67.4239C2990.73 63.4988 2985.91 60.6499 2981.35 58.8772C2976.79 56.978 2972.17 56.0283 2967.49 56.0283C2964.83 56.0283 2962.29 56.3449 2959.89 56.978C2957.61 57.6111 2955.71 58.6873 2954.19 60.2067C2952.79 61.5995 2952.1 63.6254 2952.1 66.2844C2952.1 68.6901 2952.73 70.5894 2954 71.9822C2955.39 73.2483 2957.42 74.3879 2960.08 75.4008C2962.86 76.4138 2966.22 77.5533 2970.15 78.8195C2978.12 81.0986 2984.84 83.4411 2990.28 85.8468C2995.85 88.2525 3000.03 91.2281 3002.82 94.7733C3005.61 98.192 3007 102.94 3007 109.018C3007 118.894 3003.39 126.618 2996.17 132.189C2988.95 137.76 2979.26 140.546 2967.11 140.546Z" fill="url(#paint27_linear_95_214)"/>
</g>
<defs>
<linearGradient id="paint0_linear_95_214" x1="0" y1="0" x2="13.5909" y2="326.614" gradientUnits="userSpaceOnUse">
<stop stop-color="#636262"/>
<stop offset="0.582575" stop-color="#C8C8C8"/>
<stop offset="0.746344" stop-color="#DCDCDC"/>
<stop offset="0.892397" stop-color="#C8C8C8"/>
<stop offset="1" stop-color="#5B5A5A"/>
</linearGradient>
<linearGradient id="paint1_linear_95_214" x1="0" y1="0" x2="13.5909" y2="326.614" gradientUnits="userSpaceOnUse">
<stop stop-color="#636262"/>
<stop offset="0.582575" stop-color="#C8C8C8"/>
<stop offset="0.746344" stop-color="#DCDCDC"/>
<stop offset="0.892397" stop-color="#C8C8C8"/>
<stop offset="1" stop-color="#5B5A5A"/>
</linearGradient>
<linearGradient id="paint2_linear_95_214" x1="0" y1="0" x2="13.5909" y2="326.614" gradientUnits="userSpaceOnUse">
<stop stop-color="#636262"/>
<stop offset="0.582575" stop-color="#C8C8C8"/>
<stop offset="0.746344" stop-color="#DCDCDC"/>
<stop offset="0.892397" stop-color="#C8C8C8"/>
<stop offset="1" stop-color="#5B5A5A"/>
</linearGradient>
<linearGradient id="paint3_linear_95_214" x1="0" y1="0" x2="13.5909" y2="326.614" gradientUnits="userSpaceOnUse">
<stop stop-color="#636262"/>
<stop offset="0.582575" stop-color="#C8C8C8"/>
<stop offset="0.746344" stop-color="#DCDCDC"/>
<stop offset="0.892397" stop-color="#C8C8C8"/>
<stop offset="1" stop-color="#5B5A5A"/>
</linearGradient>
<linearGradient id="paint4_linear_95_214" x1="0" y1="0" x2="13.5909" y2="326.614" gradientUnits="userSpaceOnUse">
<stop stop-color="#636262"/>
<stop offset="0.582575" stop-color="#C8C8C8"/>
<stop offset="0.746344" stop-color="#DCDCDC"/>
<stop offset="0.892397" stop-color="#C8C8C8"/>
<stop offset="1" stop-color="#5B5A5A"/>
</linearGradient>
<linearGradient id="paint5_linear_95_214" x1="0" y1="0" x2="13.5909" y2="326.614" gradientUnits="userSpaceOnUse">
<stop stop-color="#636262"/>
<stop offset="0.582575" stop-color="#C8C8C8"/>
<stop offset="0.746344" stop-color="#DCDCDC"/>
<stop offset="0.892397" stop-color="#C8C8C8"/>
<stop offset="1" stop-color="#5B5A5A"/>
</linearGradient>
<linearGradient id="paint6_linear_95_214" x1="0" y1="0" x2="13.5909" y2="326.614" gradientUnits="userSpaceOnUse">
<stop stop-color="#636262"/>
<stop offset="0.582575" stop-color="#C8C8C8"/>
<stop offset="0.746344" stop-color="#DCDCDC"/>
<stop offset="0.892397" stop-color="#C8C8C8"/>
<stop offset="1" stop-color="#5B5A5A"/>
</linearGradient>
<linearGradient id="paint7_linear_95_214" x1="0" y1="0" x2="13.5909" y2="326.614" gradientUnits="userSpaceOnUse">
<stop stop-color="#636262"/>
<stop offset="0.582575" stop-color="#C8C8C8"/>
<stop offset="0.746344" stop-color="#DCDCDC"/>
<stop offset="0.892397" stop-color="#C8C8C8"/>
<stop offset="1" stop-color="#5B5A5A"/>
</linearGradient>
<linearGradient id="paint8_linear_95_214" x1="0" y1="0" x2="13.5909" y2="326.614" gradientUnits="userSpaceOnUse">
<stop stop-color="#636262"/>
<stop offset="0.582575" stop-color="#C8C8C8"/>
<stop offset="0.746344" stop-color="#DCDCDC"/>
<stop offset="0.892397" stop-color="#C8C8C8"/>
<stop offset="1" stop-color="#5B5A5A"/>
</linearGradient>
<linearGradient id="paint9_linear_95_214" x1="0" y1="0" x2="13.5909" y2="326.614" gradientUnits="userSpaceOnUse">
<stop stop-color="#636262"/>
<stop offset="0.582575" stop-color="#C8C8C8"/>
<stop offset="0.746344" stop-color="#DCDCDC"/>
<stop offset="0.892397" stop-color="#C8C8C8"/>
<stop offset="1" stop-color="#5B5A5A"/>
</linearGradient>
<linearGradient id="paint10_linear_95_214" x1="0" y1="0" x2="13.5909" y2="326.614" gradientUnits="userSpaceOnUse">
<stop stop-color="#636262"/>
<stop offset="0.582575" stop-color="#C8C8C8"/>
<stop offset="0.746344" stop-color="#DCDCDC"/>
<stop offset="0.892397" stop-color="#C8C8C8"/>
<stop offset="1" stop-color="#5B5A5A"/>
</linearGradient>
<linearGradient id="paint11_linear_95_214" x1="0" y1="0" x2="13.5909" y2="326.614" gradientUnits="userSpaceOnUse">
<stop stop-color="#636262"/>
<stop offset="0.582575" stop-color="#C8C8C8"/>
<stop offset="0.746344" stop-color="#DCDCDC"/>
<stop offset="0.892397" stop-color="#C8C8C8"/>
<stop offset="1" stop-color="#5B5A5A"/>
</linearGradient>
<linearGradient id="paint12_linear_95_214" x1="0" y1="0" x2="13.5909" y2="326.614" gradientUnits="userSpaceOnUse">
<stop stop-color="#636262"/>
<stop offset="0.582575" stop-color="#C8C8C8"/>
<stop offset="0.746344" stop-color="#DCDCDC"/>
<stop offset="0.892397" stop-color="#C8C8C8"/>
<stop offset="1" stop-color="#5B5A5A"/>
</linearGradient>
<linearGradient id="paint13_linear_95_214" x1="0" y1="0" x2="13.5909" y2="326.614" gradientUnits="userSpaceOnUse">
<stop stop-color="#636262"/>
<stop offset="0.582575" stop-color="#C8C8C8"/>
<stop offset="0.746344" stop-color="#DCDCDC"/>
<stop offset="0.892397" stop-color="#C8C8C8"/>
<stop offset="1" stop-color="#5B5A5A"/>
</linearGradient>
<linearGradient id="paint14_linear_95_214" x1="622.325" y1="-195.629" x2="3078.93" y2="338.75" gradientUnits="userSpaceOnUse">
<stop stop-opacity="0"/>
<stop offset="0.236329" stop-color="#6633EE" stop-opacity="0"/>
<stop offset="1" stop-color="white" stop-opacity="0.1"/>
</linearGradient>
<linearGradient id="paint15_linear_95_214" x1="622.325" y1="-195.629" x2="3078.93" y2="338.75" gradientUnits="userSpaceOnUse">
<stop stop-opacity="0"/>
<stop offset="0.236329" stop-color="#6633EE" stop-opacity="0"/>
<stop offset="1" stop-color="white" stop-opacity="0.1"/>
</linearGradient>
<linearGradient id="paint16_linear_95_214" x1="622.325" y1="-195.629" x2="3078.93" y2="338.75" gradientUnits="userSpaceOnUse">
<stop stop-opacity="0"/>
<stop offset="0.236329" stop-color="#6633EE" stop-opacity="0"/>
<stop offset="1" stop-color="white" stop-opacity="0.1"/>
</linearGradient>
<linearGradient id="paint17_linear_95_214" x1="622.325" y1="-195.629" x2="3078.93" y2="338.75" gradientUnits="userSpaceOnUse">
<stop stop-opacity="0"/>
<stop offset="0.236329" stop-color="#6633EE" stop-opacity="0"/>
<stop offset="1" stop-color="white" stop-opacity="0.1"/>
</linearGradient>
<linearGradient id="paint18_linear_95_214" x1="622.325" y1="-195.629" x2="3078.93" y2="338.75" gradientUnits="userSpaceOnUse">
<stop stop-opacity="0"/>
<stop offset="0.236329" stop-color="#6633EE" stop-opacity="0"/>
<stop offset="1" stop-color="white" stop-opacity="0.1"/>
</linearGradient>
<linearGradient id="paint19_linear_95_214" x1="622.325" y1="-195.629" x2="3078.93" y2="338.75" gradientUnits="userSpaceOnUse">
<stop stop-opacity="0"/>
<stop offset="0.236329" stop-color="#6633EE" stop-opacity="0"/>
<stop offset="1" stop-color="white" stop-opacity="0.1"/>
</linearGradient>
<linearGradient id="paint20_linear_95_214" x1="622.325" y1="-195.629" x2="3078.93" y2="338.75" gradientUnits="userSpaceOnUse">
<stop stop-opacity="0"/>
<stop offset="0.236329" stop-color="#6633EE" stop-opacity="0"/>
<stop offset="1" stop-color="white" stop-opacity="0.1"/>
</linearGradient>
<linearGradient id="paint21_linear_95_214" x1="622.325" y1="-195.629" x2="3078.93" y2="338.75" gradientUnits="userSpaceOnUse">
<stop stop-opacity="0"/>
<stop offset="0.236329" stop-color="#6633EE" stop-opacity="0"/>
<stop offset="1" stop-color="white" stop-opacity="0.1"/>
</linearGradient>
<linearGradient id="paint22_linear_95_214" x1="622.325" y1="-195.629" x2="3078.93" y2="338.75" gradientUnits="userSpaceOnUse">
<stop stop-opacity="0"/>
<stop offset="0.236329" stop-color="#6633EE" stop-opacity="0"/>
<stop offset="1" stop-color="white" stop-opacity="0.1"/>
</linearGradient>
<linearGradient id="paint23_linear_95_214" x1="622.325" y1="-195.629" x2="3078.93" y2="338.75" gradientUnits="userSpaceOnUse">
<stop stop-opacity="0"/>
<stop offset="0.236329" stop-color="#6633EE" stop-opacity="0"/>
<stop offset="1" stop-color="white" stop-opacity="0.1"/>
</linearGradient>
<linearGradient id="paint24_linear_95_214" x1="622.325" y1="-195.629" x2="3078.93" y2="338.75" gradientUnits="userSpaceOnUse">
<stop stop-opacity="0"/>
<stop offset="0.236329" stop-color="#6633EE" stop-opacity="0"/>
<stop offset="1" stop-color="white" stop-opacity="0.1"/>
</linearGradient>
<linearGradient id="paint25_linear_95_214" x1="622.325" y1="-195.629" x2="3078.93" y2="338.75" gradientUnits="userSpaceOnUse">
<stop stop-opacity="0"/>
<stop offset="0.236329" stop-color="#6633EE" stop-opacity="0"/>
<stop offset="1" stop-color="white" stop-opacity="0.1"/>
</linearGradient>
<linearGradient id="paint26_linear_95_214" x1="622.325" y1="-195.629" x2="3078.93" y2="338.75" gradientUnits="userSpaceOnUse">
<stop stop-opacity="0"/>
<stop offset="0.236329" stop-color="#6633EE" stop-opacity="0"/>
<stop offset="1" stop-color="white" stop-opacity="0.1"/>
</linearGradient>
<linearGradient id="paint27_linear_95_214" x1="622.325" y1="-195.629" x2="3078.93" y2="338.75" gradientUnits="userSpaceOnUse">
<stop stop-opacity="0"/>
<stop offset="0.236329" stop-color="#6633EE" stop-opacity="0"/>
<stop offset="1" stop-color="white" stop-opacity="0.1"/>
</linearGradient>
</defs>
</svg>
