<svg width="18" height="19" viewBox="0 0 18 19" fill="none" xmlns="http://www.w3.org/2000/svg">
<g clip-path="url(#clip0_111_74)">
<path d="M15.75 8C15.75 13.25 9 17.75 9 17.75C9 17.75 2.25 13.25 2.25 8C2.25 6.20979 2.96116 4.4929 4.22703 3.22703C5.4929 1.96116 7.20979 1.25 9 1.25C10.7902 1.25 12.5071 1.96116 13.773 3.22703C15.0388 4.4929 15.75 6.20979 15.75 8Z" stroke="url(#paint0_linear_111_74)" stroke-linecap="round" stroke-linejoin="round"/>
<path d="M9 10.25C10.2426 10.25 11.25 9.24264 11.25 8C11.25 6.75736 10.2426 5.75 9 5.75C7.75736 5.75 6.75 6.75736 6.75 8C6.75 9.24264 7.75736 10.25 9 10.25Z" stroke="url(#paint1_linear_111_74)" stroke-linecap="round" stroke-linejoin="round"/>
</g>
<defs>
<linearGradient id="paint0_linear_111_74" x1="-20.1551" y1="9.5" x2="15.0312" y2="9.5" gradientUnits="userSpaceOnUse">
<stop offset="0.258333" stop-color="white" stop-opacity="0"/>
<stop offset="1" stop-color="white"/>
</linearGradient>
<linearGradient id="paint1_linear_111_74" x1="-0.718359" y1="8" x2="11.0104" y2="8" gradientUnits="userSpaceOnUse">
<stop offset="0.258333" stop-color="white" stop-opacity="0"/>
<stop offset="1" stop-color="white"/>
</linearGradient>
<clipPath id="clip0_111_74">
<rect width="18" height="18" fill="white" transform="translate(0 0.5)"/>
</clipPath>
</defs>
</svg>
