<svg width="1308" height="378" viewBox="0 0 1308 378" fill="none" xmlns="http://www.w3.org/2000/svg">
<path fill-rule="evenodd" clip-rule="evenodd" d="M663.748 377.743C663.604 377.743 663.491 377.628 663.491 377.486V0.5135C663.491 0.371774 663.604 0.25675 663.748 0.25675C663.887 0.25675 664.005 0.371774 664.005 0.5135V377.486C664.005 377.628 663.887 377.743 663.748 377.743ZM663.177 0.25675C663.177 0.115024 663.059 0 662.92 0H0.376861C0.305823 0 0.248226 0.057512 0.248226 0.128375V0.132982C0.248226 0.201278 0.192639 0.25675 0.124113 0.25675C0.0555869 0.25675 -2.99617e-09 0.312222 0 0.380518L1.65231e-05 377.619C1.6526e-05 377.687 0.0556034 377.743 0.124129 377.743C0.192656 377.743 0.248243 377.798 0.248243 377.867V377.871C0.248243 377.942 0.305903 378 0.377066 378H662.92C663.059 378 663.177 377.885 663.177 377.743C663.177 377.601 663.059 377.487 662.92 377.487H618.196C617.347 377.487 616.652 376.797 616.652 375.946V332.846C616.652 331.995 617.347 331.306 618.196 331.306H662.92C663.059 331.306 663.177 331.191 663.177 331.049C663.177 330.907 663.059 330.792 662.92 330.792H618.196C617.347 330.792 616.652 330.102 616.652 329.252V285.028C616.652 284.177 617.347 283.488 618.196 283.488H662.92C663.059 283.488 663.177 283.373 663.177 283.231C663.177 283.089 663.059 282.974 662.92 282.974H618.196C617.347 282.974 616.652 282.285 616.652 281.434V238.334C616.652 237.483 617.347 236.794 618.196 236.794H662.92C663.059 236.794 663.177 236.679 663.177 236.537C663.177 236.395 663.059 236.28 662.92 236.28H618.196C617.347 236.28 616.652 235.591 616.652 234.74V191.08C616.652 190.229 617.347 189.539 618.196 189.539H662.92C663.059 189.539 663.177 189.424 663.177 189.283C663.177 189.141 663.059 189.026 662.92 189.026H618.196C617.347 189.026 616.652 188.336 616.652 187.485V143.822C616.652 142.971 617.347 142.282 618.196 142.282H662.92C663.059 142.282 663.177 142.167 663.177 142.025C663.177 141.883 663.059 141.768 662.92 141.768H618.196C617.347 141.768 616.652 141.078 616.652 140.228V96.5662C616.652 95.7153 617.347 95.0257 618.196 95.0257H662.92C663.059 95.0257 663.177 94.9107 663.177 94.7689C663.177 94.6272 663.059 94.5122 662.92 94.5122H618.196C617.347 94.5122 616.652 93.8226 616.652 92.9717V49.3119C616.652 48.461 617.347 47.7714 618.196 47.7714H662.92C663.059 47.7714 663.177 47.6564 663.177 47.5146C663.177 47.3729 663.059 47.2579 662.92 47.2579H618.196C617.347 47.2579 616.652 46.5683 616.652 45.7174V2.054C616.652 1.20313 617.347 0.5135 618.196 0.5135H662.92C663.059 0.5135 663.177 0.398476 663.177 0.25675ZM0.514557 375.946C0.514557 376.797 1.20566 377.487 2.05818 377.487H45.8063C46.6588 377.487 47.3499 376.797 47.3499 375.946V332.846C47.3499 331.995 46.6588 331.306 45.8063 331.306H2.05818C1.20566 331.306 0.514557 331.995 0.514557 332.846V375.946ZM0.514557 329.252C0.514557 330.102 1.20566 330.792 2.05818 330.792H45.8063C46.6588 330.792 47.3499 330.102 47.3499 329.252V285.028C47.3499 284.178 46.6588 283.488 45.8063 283.488H2.05818C1.20565 283.488 0.514552 284.178 0.514552 285.028L0.514557 329.252ZM0.514552 281.434C0.514552 282.285 1.20565 282.974 2.05818 282.974H45.8063C46.6588 282.974 47.3499 282.285 47.3499 281.434V238.334C47.3499 237.483 46.6588 236.794 45.8063 236.794H2.05818C1.20565 236.794 0.514552 237.483 0.514552 238.334V281.434ZM0.514552 234.74C0.514552 235.591 1.20565 236.28 2.05818 236.28H45.8063C46.6588 236.28 47.3499 235.591 47.3499 234.74V191.08C47.3499 190.229 46.6588 189.539 45.8063 189.539H2.05818C1.20565 189.539 0.514552 190.229 0.514552 191.08V234.74ZM0.514552 187.485C0.514552 188.336 1.20565 189.026 2.05818 189.026H45.8063C46.6588 189.026 47.3499 188.336 47.3499 187.485L47.3498 143.822C47.3498 142.971 46.6588 142.282 45.8062 142.282H2.05817C1.20565 142.282 0.514547 142.971 0.514547 143.822L0.514552 187.485ZM0.514547 140.228C0.514547 141.078 1.20565 141.768 2.05817 141.768H45.8062C46.6588 141.768 47.3498 141.078 47.3498 140.228V96.5662C47.3498 95.7153 46.6588 95.0257 45.8062 95.0257H2.05817C1.20565 95.0257 0.514547 95.7153 0.514547 96.5662V140.228ZM0.514547 92.9717C0.514547 93.8226 1.20565 94.5122 2.05817 94.5122H45.8062C46.6588 94.5122 47.3498 93.8226 47.3498 92.9717V49.3119C47.3498 48.461 46.6588 47.7714 45.8062 47.7714H2.05817C1.20564 47.7714 0.514541 48.461 0.514541 49.3119L0.514547 92.9717ZM0.514541 45.7174C0.514541 46.5683 1.20564 47.2579 2.05817 47.2579H45.8062C46.6588 47.2579 47.3498 46.5683 47.3498 45.7174V2.054C47.3498 1.20313 46.6588 0.5135 45.8062 0.5135H2.05817C1.20564 0.5135 0.514541 1.20313 0.514541 2.054V45.7174ZM49.408 47.2579C48.5555 47.2579 47.8644 46.5683 47.8644 45.7174V2.054C47.8644 1.20313 48.5555 0.5135 49.408 0.5135H93.1603C94.0129 0.5135 94.7039 1.20313 94.7039 2.054V45.7174C94.7039 46.5683 94.0129 47.2579 93.1603 47.2579H49.408ZM49.408 94.5122C48.5555 94.5122 47.8644 93.8226 47.8644 92.9717V49.3119C47.8644 48.461 48.5555 47.7714 49.408 47.7714H93.1603C94.0129 47.7714 94.7039 48.461 94.7039 49.3119V92.9717C94.7039 93.8226 94.0129 94.5122 93.1603 94.5122H49.408ZM49.408 141.768C48.5555 141.768 47.8644 141.078 47.8644 140.228V96.5662C47.8644 95.7153 48.5555 95.0257 49.408 95.0257H93.1603C94.0129 95.0257 94.7039 95.7153 94.7039 96.5662V140.228C94.7039 141.078 94.0129 141.768 93.1603 141.768H49.408ZM49.4081 189.026C48.5555 189.026 47.8644 188.336 47.8644 187.485L47.8644 143.822C47.8644 142.971 48.5555 142.282 49.408 142.282H93.1603C94.0129 142.282 94.7039 142.971 94.7039 143.822V187.485C94.7039 188.336 94.0129 189.026 93.1603 189.026H49.4081ZM49.4081 236.28C48.5555 236.28 47.8644 235.591 47.8644 234.74V191.08C47.8644 190.229 48.5555 189.539 49.4081 189.539H93.1603C94.0129 189.539 94.7039 190.229 94.7039 191.08V234.74C94.7039 235.591 94.0129 236.28 93.1603 236.28H49.4081ZM49.4081 282.974C48.5555 282.974 47.8644 282.285 47.8644 281.434V238.334C47.8644 237.483 48.5555 236.794 49.4081 236.794H93.1603C94.0129 236.794 94.7039 237.483 94.7039 238.334V281.434C94.7039 282.285 94.0129 282.974 93.1603 282.974H49.4081ZM49.4081 330.792C48.5555 330.792 47.8644 330.102 47.8644 329.252V285.028C47.8644 284.178 48.5555 283.488 49.4081 283.488H93.1603C94.0129 283.488 94.7039 284.178 94.7039 285.028V329.252C94.7039 330.102 94.0129 330.792 93.1603 330.792H49.4081ZM49.4081 377.487C48.5555 377.487 47.8644 376.797 47.8644 375.946V332.846C47.8644 331.995 48.5555 331.306 49.4081 331.306H93.1603C94.0129 331.306 94.7039 331.995 94.7039 332.846V375.946C94.7039 376.797 94.0129 377.487 93.1603 377.487H49.4081ZM614.594 331.306C615.448 331.306 616.138 331.995 616.138 332.846V375.946C616.138 376.797 615.448 377.487 614.594 377.487H570.848C569.993 377.487 569.304 376.797 569.304 375.946V332.846C569.304 331.995 569.993 331.306 570.848 331.306H614.594ZM614.594 283.488C615.448 283.488 616.138 284.177 616.138 285.028V329.252C616.138 330.102 615.448 330.792 614.594 330.792H570.848C569.993 330.792 569.304 330.102 569.304 329.252V285.028C569.304 284.177 569.993 283.488 570.848 283.488H614.594ZM614.594 236.794C615.448 236.794 616.138 237.483 616.138 238.334V281.434C616.138 282.285 615.448 282.974 614.594 282.974H570.848C569.993 282.974 569.304 282.285 569.304 281.434V238.334C569.304 237.483 569.993 236.794 570.848 236.794H614.594ZM614.594 189.539C615.448 189.539 616.138 190.229 616.138 191.08V234.74C616.138 235.591 615.448 236.28 614.594 236.28H570.848C569.993 236.28 569.304 235.591 569.304 234.74V191.08C569.304 190.229 569.993 189.539 570.848 189.539H614.594ZM614.594 142.282C615.448 142.282 616.138 142.971 616.138 143.822V187.485C616.138 188.336 615.448 189.026 614.594 189.026H570.848C569.993 189.026 569.304 188.336 569.304 187.485V143.822C569.304 142.971 569.993 142.282 570.848 142.282H614.594ZM614.594 95.0257C615.448 95.0257 616.138 95.7153 616.138 96.5662V140.228C616.138 141.078 615.448 141.768 614.594 141.768H570.848C569.993 141.768 569.304 141.078 569.304 140.228V96.5662C569.304 95.7153 569.993 95.0257 570.848 95.0257H614.594ZM614.594 47.7714C615.448 47.7714 616.138 48.461 616.138 49.3119V92.9717C616.138 93.8226 615.448 94.5122 614.594 94.5122H570.848C569.993 94.5122 569.304 93.8226 569.304 92.9717V49.3119C569.304 48.461 569.993 47.7714 570.848 47.7714H614.594ZM614.594 0.5135C615.448 0.5135 616.138 1.20313 616.138 2.054V45.7174C616.138 46.5683 615.448 47.2579 614.594 47.2579H570.848C569.993 47.2579 569.304 46.5683 569.304 45.7174V2.054C569.304 1.20313 569.993 0.5135 570.848 0.5135H614.594ZM95.2184 375.946C95.2184 376.797 95.9095 377.487 96.7621 377.487L140.51 377.487C141.363 377.487 142.054 376.797 142.054 375.946V332.846C142.054 331.995 141.363 331.306 140.51 331.306H96.7621C95.9095 331.306 95.2184 331.995 95.2184 332.846V375.946ZM95.2184 329.252C95.2184 330.102 95.9095 330.792 96.7621 330.792H140.51C141.363 330.792 142.054 330.102 142.054 329.252V285.028C142.054 284.177 141.363 283.488 140.51 283.488H96.7621C95.9095 283.488 95.2184 284.178 95.2184 285.028V329.252ZM95.2184 281.434C95.2184 282.285 95.9095 282.974 96.7621 282.974H140.51C141.363 282.974 142.054 282.285 142.054 281.434V238.334C142.054 237.483 141.363 236.794 140.51 236.794H96.7621C95.9095 236.794 95.2184 237.483 95.2184 238.334V281.434ZM95.2184 234.74C95.2184 235.591 95.9095 236.28 96.7621 236.28H140.51C141.363 236.28 142.054 235.591 142.054 234.74V191.08C142.054 190.229 141.363 189.539 140.51 189.539H96.7621C95.9095 189.539 95.2184 190.229 95.2184 191.08V234.74ZM95.2184 187.485C95.2184 188.336 95.9095 189.026 96.7621 189.026H140.51C141.363 189.026 142.054 188.336 142.054 187.485V143.822C142.054 142.971 141.363 142.282 140.51 142.282H96.7621C95.9095 142.282 95.2184 142.971 95.2184 143.822V187.485ZM95.2184 140.228C95.2184 141.078 95.9095 141.768 96.7621 141.768H140.51C141.363 141.768 142.054 141.078 142.054 140.228V96.5662C142.054 95.7153 141.363 95.0257 140.51 95.0257H96.7621C95.9095 95.0257 95.2184 95.7153 95.2184 96.5662V140.228ZM95.2184 92.9717C95.2184 93.8226 95.9095 94.5122 96.7621 94.5122H140.51C141.363 94.5122 142.054 93.8226 142.054 92.9717V49.3119C142.054 48.461 141.363 47.7714 140.51 47.7714H96.7621C95.9095 47.7714 95.2184 48.461 95.2184 49.3119V92.9717ZM95.2184 45.7174C95.2184 46.5683 95.9095 47.2579 96.7621 47.2579H140.51C141.363 47.2579 142.054 46.5683 142.054 45.7174V2.054C142.054 1.20313 141.363 0.5135 140.51 0.5135H96.7621C95.9095 0.5135 95.2184 1.20313 95.2184 2.054V45.7174ZM144.112 47.2579C143.259 47.2579 142.568 46.5683 142.568 45.7174V2.054C142.568 1.20313 143.259 0.5135 144.112 0.5135H187.86C188.712 0.5135 189.403 1.20313 189.403 2.054V45.7174C189.403 46.5683 188.712 47.2579 187.86 47.2579H144.112ZM191.461 47.2579C190.609 47.2579 189.918 46.5683 189.918 45.7174V2.054C189.918 1.20313 190.609 0.5135 191.461 0.5135H235.78C236.633 0.5135 237.324 1.20313 237.324 2.054V45.7174C237.324 46.5683 236.633 47.2579 235.78 47.2579H191.461ZM189.403 49.3119C189.403 48.461 188.712 47.7714 187.86 47.7714H144.112C143.259 47.7714 142.568 48.461 142.568 49.3119V92.9717C142.568 93.8226 143.259 94.5122 144.112 94.5122H187.86C188.712 94.5122 189.403 93.8226 189.403 92.9717V49.3119ZM191.461 94.5122C190.609 94.5122 189.918 93.8226 189.918 92.9717V49.3119C189.918 48.461 190.609 47.7714 191.461 47.7714H235.78C236.633 47.7714 237.324 48.461 237.324 49.3119V92.9717C237.324 93.8226 236.633 94.5122 235.78 94.5122H191.461ZM189.403 96.5662C189.403 95.7153 188.712 95.0257 187.86 95.0257H144.112C143.259 95.0257 142.568 95.7153 142.568 96.5662V140.228C142.568 141.078 143.259 141.768 144.112 141.768H187.86C188.712 141.768 189.403 141.078 189.403 140.228V96.5662ZM191.461 141.768C190.609 141.768 189.918 141.078 189.918 140.228V96.5662C189.918 95.7153 190.609 95.0257 191.461 95.0257H235.78C236.633 95.0257 237.324 95.7153 237.324 96.5662V140.228C237.324 141.078 236.633 141.768 235.78 141.768H191.461ZM189.403 143.822C189.403 142.971 188.712 142.282 187.86 142.282H144.112C143.259 142.282 142.568 142.971 142.568 143.822V187.485C142.568 188.336 143.259 189.026 144.112 189.026H187.86C188.712 189.026 189.403 188.336 189.403 187.485V143.822ZM191.461 189.026C190.609 189.026 189.918 188.336 189.918 187.485V143.822C189.918 142.971 190.609 142.282 191.461 142.282H235.78C236.633 142.282 237.324 142.971 237.324 143.822V187.485C237.324 188.336 236.633 189.026 235.78 189.026H191.461ZM189.403 191.08C189.403 190.229 188.712 189.539 187.86 189.539H144.112C143.259 189.539 142.568 190.229 142.568 191.08V234.74C142.568 235.591 143.259 236.28 144.112 236.28H187.86C188.712 236.28 189.403 235.591 189.403 234.74V191.08ZM191.461 236.28C190.609 236.28 189.918 235.591 189.918 234.74V191.08C189.918 190.229 190.609 189.539 191.461 189.539H235.78C236.633 189.539 237.324 190.229 237.324 191.08V234.74C237.324 235.591 236.633 236.28 235.78 236.28H191.461ZM189.403 238.334C189.403 237.483 188.712 236.794 187.86 236.794H144.112C143.259 236.794 142.568 237.483 142.568 238.334V281.434C142.568 282.285 143.259 282.974 144.112 282.974H187.86C188.712 282.974 189.403 282.285 189.403 281.434V238.334ZM191.461 282.974C190.609 282.974 189.918 282.285 189.918 281.434V238.334C189.918 237.483 190.609 236.794 191.461 236.794H235.78C236.633 236.794 237.324 237.483 237.324 238.334V281.434C237.324 282.285 236.633 282.974 235.78 282.974H191.461ZM189.403 285.028C189.403 284.177 188.712 283.488 187.86 283.488H144.112C143.259 283.488 142.568 284.177 142.568 285.028V329.252C142.568 330.102 143.259 330.792 144.112 330.792L187.86 330.792C188.712 330.792 189.403 330.102 189.403 329.252V285.028ZM191.461 330.792C190.609 330.792 189.918 330.102 189.918 329.252V285.028C189.918 284.177 190.609 283.488 191.461 283.488H235.78C236.633 283.488 237.324 284.177 237.324 285.028V329.252C237.324 330.102 236.633 330.792 235.78 330.792H191.461ZM189.403 332.846C189.403 331.995 188.712 331.306 187.86 331.306L144.112 331.306C143.259 331.306 142.568 331.995 142.568 332.846V375.946C142.568 376.797 143.259 377.487 144.112 377.487H187.86C188.712 377.487 189.403 376.797 189.403 375.946V332.846ZM191.461 377.487C190.609 377.487 189.918 376.797 189.918 375.946V332.846C189.918 331.995 190.609 331.306 191.461 331.306H235.78C236.633 331.306 237.324 331.995 237.324 332.846V375.946C237.324 376.797 236.633 377.487 235.78 377.487H191.461ZM237.839 375.946C237.839 376.797 238.53 377.487 239.382 377.487H283.135C283.987 377.487 284.678 376.797 284.678 375.946V332.846C284.678 331.995 283.987 331.306 283.135 331.306H239.382C238.53 331.306 237.839 331.995 237.839 332.846V375.946ZM286.736 331.306C285.884 331.306 285.193 331.995 285.193 332.846V375.946C285.193 376.797 285.884 377.487 286.736 377.487H330.484C331.337 377.487 332.028 376.797 332.028 375.946V332.846C332.028 331.995 331.337 331.306 330.484 331.306H286.736ZM334.086 331.306C333.233 331.306 332.542 331.995 332.542 332.846V375.946C332.542 376.797 333.233 377.487 334.086 377.487H377.842C378.695 377.487 379.386 376.797 379.386 375.946V332.846C379.386 331.995 378.695 331.306 377.842 331.306H334.086ZM379.386 329.252C379.386 330.102 378.695 330.792 377.842 330.792H334.086C333.233 330.792 332.542 330.102 332.542 329.252V285.028C332.542 284.177 333.233 283.488 334.086 283.488H377.842C378.695 283.488 379.386 284.177 379.386 285.028V329.252ZM330.484 283.488C331.337 283.488 332.028 284.177 332.028 285.028V329.252C332.028 330.102 331.337 330.792 330.484 330.792H286.736C285.884 330.792 285.193 330.102 285.193 329.252V285.028C285.193 284.177 285.884 283.488 286.736 283.488H330.484ZM285.193 281.434C285.193 282.285 285.884 282.974 286.736 282.974H330.484C331.337 282.974 332.028 282.285 332.028 281.434V238.334C332.028 237.483 331.337 236.794 330.484 236.794H286.736C285.884 236.794 285.193 237.483 285.193 238.334V281.434ZM334.086 236.794C333.233 236.794 332.542 237.483 332.542 238.334V281.434C332.542 282.285 333.233 282.974 334.086 282.974H377.842C378.695 282.974 379.386 282.285 379.386 281.434V238.334C379.386 237.483 378.695 236.794 377.842 236.794H334.086ZM379.386 234.74C379.386 235.591 378.695 236.28 377.842 236.28H334.086C333.233 236.28 332.542 235.591 332.542 234.74V191.08C332.542 190.229 333.233 189.539 334.086 189.539H377.842C378.695 189.539 379.386 190.229 379.386 191.08V234.74ZM330.484 189.539C331.337 189.539 332.028 190.229 332.028 191.08V234.74C332.028 235.591 331.337 236.28 330.484 236.28H286.736C285.884 236.28 285.193 235.591 285.193 234.74V191.08C285.193 190.229 285.884 189.539 286.736 189.539H330.484ZM285.193 187.485C285.193 188.336 285.884 189.026 286.736 189.026H330.484C331.337 189.026 332.028 188.336 332.028 187.485V143.822C332.028 142.971 331.337 142.282 330.484 142.282H286.736C285.884 142.282 285.193 142.971 285.193 143.822V187.485ZM334.086 142.282C333.233 142.282 332.542 142.971 332.542 143.822V187.485C332.542 188.336 333.233 189.026 334.086 189.026H377.842C378.695 189.026 379.386 188.336 379.386 187.485V143.822C379.386 142.971 378.695 142.282 377.842 142.282H334.086ZM379.386 140.228C379.386 141.078 378.695 141.768 377.842 141.768H334.086C333.233 141.768 332.542 141.078 332.542 140.228V96.5662C332.542 95.7153 333.233 95.0257 334.086 95.0257H377.842C378.695 95.0257 379.386 95.7153 379.386 96.5662V140.228ZM330.484 95.0257C331.337 95.0257 332.028 95.7153 332.028 96.5662V140.228C332.028 141.078 331.337 141.768 330.484 141.768H286.736C285.884 141.768 285.193 141.078 285.193 140.228V96.5662C285.193 95.7153 285.884 95.0257 286.736 95.0257H330.484ZM285.193 92.9717C285.193 93.8226 285.884 94.5122 286.736 94.5122H330.484C331.337 94.5122 332.028 93.8226 332.028 92.9717V49.3119C332.028 48.461 331.337 47.7714 330.484 47.7714H286.736C285.884 47.7714 285.193 48.461 285.193 49.3119V92.9717ZM334.086 47.7714C333.233 47.7714 332.542 48.461 332.542 49.3119V92.9717C332.542 93.8226 333.233 94.5122 334.086 94.5122H377.842C378.695 94.5122 379.386 93.8226 379.386 92.9717V49.3119C379.386 48.461 378.695 47.7714 377.842 47.7714H334.086ZM379.386 45.7174C379.386 46.5683 378.695 47.2579 377.842 47.2579H334.086C333.233 47.2579 332.542 46.5683 332.542 45.7174V2.054C332.542 1.20313 333.233 0.5135 334.086 0.5135H377.842C378.695 0.5135 379.386 1.20313 379.386 2.054V45.7174ZM330.484 0.5135C331.337 0.5135 332.028 1.20313 332.028 2.054V45.7174C332.028 46.5683 331.337 47.2579 330.484 47.2579H286.736C285.884 47.2579 285.193 46.5683 285.193 45.7174V2.054C285.193 1.20313 285.884 0.5135 286.736 0.5135H330.484ZM283.135 283.488C283.987 283.488 284.678 284.177 284.678 285.028V329.252C284.678 330.102 283.987 330.792 283.135 330.792H239.382C238.53 330.792 237.839 330.102 237.839 329.252V285.028C237.839 284.177 238.53 283.488 239.382 283.488H283.135ZM237.839 281.434C237.839 282.285 238.53 282.974 239.382 282.974H283.135C283.987 282.974 284.678 282.285 284.678 281.434V238.334C284.678 237.483 283.987 236.794 283.135 236.794H239.382C238.53 236.794 237.839 237.483 237.839 238.334V281.434ZM283.135 189.539C283.987 189.539 284.678 190.229 284.678 191.08V234.74C284.678 235.591 283.987 236.28 283.135 236.28H239.382C238.53 236.28 237.839 235.591 237.839 234.74V191.08C237.839 190.229 238.53 189.539 239.382 189.539H283.135ZM237.839 187.485C237.839 188.336 238.53 189.026 239.382 189.026H283.135C283.987 189.026 284.678 188.336 284.678 187.485V143.822C284.678 142.971 283.987 142.282 283.135 142.282H239.382C238.53 142.282 237.839 142.971 237.839 143.822V187.485ZM283.135 95.0257C283.987 95.0257 284.678 95.7153 284.678 96.5662V140.228C284.678 141.078 283.987 141.768 283.135 141.768H239.382C238.53 141.768 237.839 141.078 237.839 140.228V96.5662C237.839 95.7153 238.53 95.0257 239.382 95.0257H283.135ZM237.839 92.9717C237.839 93.8226 238.53 94.5122 239.382 94.5122H283.135C283.987 94.5122 284.678 93.8226 284.678 92.9717V49.3119C284.678 48.461 283.987 47.7714 283.135 47.7714H239.382C238.53 47.7714 237.839 48.461 237.839 49.3119V92.9717ZM283.135 0.5135C283.987 0.5135 284.678 1.20313 284.678 2.054V45.7174C284.678 46.5683 283.987 47.2579 283.135 47.2579H239.382C238.53 47.2579 237.839 46.5683 237.839 45.7174V2.054C237.839 1.20313 238.53 0.5135 239.382 0.5135H283.135ZM381.444 47.2579C380.591 47.2579 379.9 46.5683 379.9 45.7174V2.054C379.9 1.20313 380.591 0.5135 381.444 0.5135H425.188C426.041 0.5135 426.732 1.20313 426.732 2.054V45.7174C426.732 46.5683 426.041 47.2579 425.188 47.2579H381.444ZM428.79 47.2579C427.937 47.2579 427.246 46.5683 427.246 45.7174V2.054C427.246 1.20313 427.937 0.5135 428.79 0.5135H472.534C473.386 0.5135 474.077 1.20313 474.077 2.054V45.7174C474.077 46.5683 473.386 47.2579 472.534 47.2579H428.79ZM476.135 47.2579C475.283 47.2579 474.592 46.5683 474.592 45.7174V2.054C474.592 1.20313 475.283 0.5135 476.135 0.5135H519.893C520.747 0.5135 521.436 1.20313 521.436 2.054V45.7174C521.436 46.5683 520.747 47.2579 519.893 47.2579H476.135ZM523.494 47.2579C522.64 47.2579 521.951 46.5683 521.951 45.7174V2.054C521.951 1.20313 522.64 0.5135 523.494 0.5135H567.246C568.1 0.5135 568.789 1.20313 568.789 2.054V45.7174C568.789 46.5683 568.1 47.2579 567.246 47.2579H523.494ZM521.951 49.3119C521.951 48.461 522.64 47.7714 523.494 47.7714H567.246C568.1 47.7714 568.789 48.461 568.789 49.3119V92.9717C568.789 93.8226 568.1 94.5122 567.246 94.5122H523.494C522.64 94.5122 521.951 93.8226 521.951 92.9717V49.3119ZM519.893 47.7714C520.747 47.7714 521.436 48.461 521.436 49.3119V92.9717C521.436 93.8226 520.747 94.5122 519.893 94.5122H476.135C475.283 94.5122 474.592 93.8226 474.592 92.9717V49.3119C474.592 48.461 475.283 47.7714 476.135 47.7714H519.893ZM521.436 96.5662C521.436 95.7153 520.747 95.0257 519.893 95.0257H476.135C475.283 95.0257 474.592 95.7153 474.592 96.5662V140.228C474.592 141.078 475.283 141.768 476.135 141.768H519.893C520.747 141.768 521.436 141.078 521.436 140.228V96.5662ZM523.494 95.0257C522.64 95.0257 521.951 95.7153 521.951 96.5662V140.228C521.951 141.078 522.64 141.768 523.494 141.768H567.246C568.1 141.768 568.789 141.078 568.789 140.228V96.5662C568.789 95.7153 568.1 95.0257 567.246 95.0257H523.494ZM521.951 143.822C521.951 142.971 522.64 142.282 523.494 142.282H567.246C568.1 142.282 568.789 142.971 568.789 143.822V187.485C568.789 188.336 568.1 189.026 567.246 189.026H523.494C522.64 189.026 521.951 188.336 521.951 187.485V143.822ZM519.893 142.282C520.747 142.282 521.436 142.971 521.436 143.822V187.485C521.436 188.336 520.747 189.026 519.893 189.026H476.135C475.283 189.026 474.592 188.336 474.592 187.485V143.822C474.592 142.971 475.283 142.282 476.135 142.282H519.893ZM521.436 191.08C521.436 190.229 520.747 189.539 519.893 189.539H476.135C475.283 189.539 474.592 190.229 474.592 191.08V234.74C474.592 235.591 475.283 236.28 476.135 236.28H519.893C520.747 236.28 521.436 235.591 521.436 234.74V191.08ZM523.494 189.539C522.64 189.539 521.951 190.229 521.951 191.08V234.74C521.951 235.591 522.64 236.28 523.494 236.28H567.246C568.1 236.28 568.789 235.591 568.789 234.74V191.08C568.789 190.229 568.1 189.539 567.246 189.539H523.494ZM521.951 238.334C521.951 237.483 522.64 236.794 523.494 236.794H567.246C568.1 236.794 568.789 237.483 568.789 238.334V281.434C568.789 282.285 568.1 282.974 567.246 282.974H523.494C522.64 282.974 521.951 282.285 521.951 281.434V238.334ZM519.893 236.794C520.747 236.794 521.436 237.483 521.436 238.334V281.434C521.436 282.285 520.747 282.974 519.893 282.974H476.135C475.283 282.974 474.592 282.285 474.592 281.434V238.334C474.592 237.483 475.283 236.794 476.135 236.794H519.893ZM521.436 285.028C521.436 284.177 520.747 283.488 519.893 283.488H476.135C475.283 283.488 474.592 284.177 474.592 285.028V329.252C474.592 330.102 475.283 330.792 476.135 330.792H519.893C520.747 330.792 521.436 330.102 521.436 329.252V285.028ZM523.494 283.488C522.64 283.488 521.951 284.177 521.951 285.028V329.252C521.951 330.102 522.64 330.792 523.494 330.792H567.246C568.1 330.792 568.789 330.102 568.789 329.252V285.028C568.789 284.177 568.1 283.488 567.246 283.488H523.494ZM521.951 332.846C521.951 331.995 522.64 331.306 523.494 331.306H567.246C568.1 331.306 568.789 331.995 568.789 332.846V375.946C568.789 376.797 568.1 377.487 567.246 377.487H523.494C522.64 377.487 521.951 376.797 521.951 375.946V332.846ZM519.893 331.306C520.747 331.306 521.436 331.995 521.436 332.846V375.946C521.436 376.797 520.747 377.487 519.893 377.487H476.135C475.283 377.487 474.592 376.797 474.592 375.946V332.846C474.592 331.995 475.283 331.306 476.135 331.306H519.893ZM472.534 47.7714C473.386 47.7714 474.077 48.461 474.077 49.3119V92.9717C474.077 93.8226 473.386 94.5122 472.534 94.5122H428.79C427.937 94.5122 427.246 93.8226 427.246 92.9717V49.3119C427.246 48.461 427.937 47.7714 428.79 47.7714H472.534ZM474.077 96.5662C474.077 95.7153 473.386 95.0257 472.534 95.0257H428.79C427.937 95.0257 427.246 95.7153 427.246 96.5662V140.228C427.246 141.078 427.937 141.768 428.79 141.768H472.534C473.386 141.768 474.077 141.078 474.077 140.228V96.5662ZM472.534 142.282C473.386 142.282 474.077 142.971 474.077 143.822V187.485C474.077 188.336 473.386 189.026 472.534 189.026H428.79C427.937 189.026 427.246 188.336 427.246 187.485V143.822C427.246 142.971 427.937 142.282 428.79 142.282H472.534ZM474.077 191.08C474.077 190.229 473.386 189.539 472.534 189.539H428.79C427.937 189.539 427.246 190.229 427.246 191.08V234.74C427.246 235.591 427.937 236.28 428.79 236.28H472.534C473.386 236.28 474.077 235.591 474.077 234.74V191.08ZM472.534 236.794C473.386 236.794 474.077 237.483 474.077 238.334V281.434C474.077 282.285 473.386 282.974 472.534 282.974H428.79C427.937 282.974 427.246 282.285 427.246 281.434V238.334C427.246 237.483 427.937 236.794 428.79 236.794H472.534ZM474.077 285.028C474.077 284.177 473.386 283.488 472.534 283.488H428.79C427.937 283.488 427.246 284.177 427.246 285.028V329.252C427.246 330.102 427.937 330.792 428.79 330.792H472.534C473.386 330.792 474.077 330.102 474.077 329.252V285.028ZM472.534 331.306C473.386 331.306 474.077 331.995 474.077 332.846V375.946C474.077 376.797 473.386 377.487 472.534 377.487H428.79C427.937 377.487 427.246 376.797 427.246 375.946V332.846C427.246 331.995 427.937 331.306 428.79 331.306H472.534ZM425.188 47.7714C426.041 47.7714 426.732 48.461 426.732 49.3119V92.9717C426.732 93.8226 426.041 94.5122 425.188 94.5122H381.444C380.591 94.5122 379.9 93.8226 379.9 92.9717V49.3119C379.9 48.461 380.591 47.7714 381.444 47.7714H425.188ZM426.732 96.5662C426.732 95.7153 426.041 95.0257 425.188 95.0257H381.444C380.591 95.0257 379.9 95.7153 379.9 96.5662V140.228C379.9 141.078 380.591 141.768 381.444 141.768H425.188C426.041 141.768 426.732 141.078 426.732 140.228V96.5662ZM425.188 142.282C426.041 142.282 426.732 142.971 426.732 143.822V187.485C426.732 188.336 426.041 189.026 425.188 189.026H381.444C380.591 189.026 379.9 188.336 379.9 187.485V143.822C379.9 142.971 380.591 142.282 381.444 142.282H425.188ZM426.732 191.08C426.732 190.229 426.041 189.539 425.188 189.539H381.444C380.591 189.539 379.9 190.229 379.9 191.08V234.74C379.9 235.591 380.591 236.28 381.444 236.28H425.188C426.041 236.28 426.732 235.591 426.732 234.74V191.08ZM425.188 236.794C426.041 236.794 426.732 237.483 426.732 238.334V281.434C426.732 282.285 426.041 282.974 425.188 282.974H381.444C380.591 282.974 379.9 282.285 379.9 281.434V238.334C379.9 237.483 380.591 236.794 381.444 236.794H425.188ZM426.732 285.028C426.732 284.177 426.041 283.488 425.188 283.488H381.444C380.591 283.488 379.9 284.177 379.9 285.028V329.252C379.9 330.102 380.591 330.792 381.444 330.792H425.188C426.041 330.792 426.732 330.102 426.732 329.252V285.028ZM425.188 331.306C426.041 331.306 426.732 331.995 426.732 332.846V375.946C426.732 376.797 426.041 377.487 425.188 377.487H381.444C380.591 377.487 379.9 376.797 379.9 375.946V332.846C379.9 331.995 380.591 331.306 381.444 331.306H425.188Z" fill="url(#paint0_linear_95_73)"/>
<path fill-rule="evenodd" clip-rule="evenodd" d="M1326.74 377.743C1326.6 377.743 1326.49 377.628 1326.49 377.486V0.5135C1326.49 0.371774 1326.6 0.25675 1326.74 0.25675C1326.88 0.25675 1327 0.371774 1327 0.5135V377.486C1327 377.628 1326.88 377.743 1326.74 377.743ZM1326.17 0.25675C1326.17 0.115024 1326.05 0 1325.91 0H663.371C663.3 0 663.243 0.057512 663.243 0.128375V0.132982C663.243 0.201278 663.187 0.25675 663.119 0.25675C663.05 0.25675 662.995 0.312222 662.995 0.380518V377.619C662.995 377.687 663.05 377.743 663.119 377.743C663.187 377.743 663.243 377.798 663.243 377.867V377.871C663.243 377.942 663.301 378 663.372 378H1325.91C1326.05 378 1326.17 377.885 1326.17 377.743C1326.17 377.601 1326.05 377.487 1325.91 377.487H1281.19C1280.34 377.487 1279.65 376.797 1279.65 375.946V332.846C1279.65 331.995 1280.34 331.306 1281.19 331.306H1325.91C1326.05 331.306 1326.17 331.191 1326.17 331.049C1326.17 330.907 1326.05 330.792 1325.91 330.792H1281.19C1280.34 330.792 1279.65 330.102 1279.65 329.252V285.028C1279.65 284.177 1280.34 283.488 1281.19 283.488H1325.91C1326.05 283.488 1326.17 283.373 1326.17 283.231C1326.17 283.089 1326.05 282.974 1325.91 282.974H1281.19C1280.34 282.974 1279.65 282.285 1279.65 281.434V238.334C1279.65 237.483 1280.34 236.794 1281.19 236.794H1325.91C1326.05 236.794 1326.17 236.679 1326.17 236.537C1326.17 236.395 1326.05 236.28 1325.91 236.28H1281.19C1280.34 236.28 1279.65 235.591 1279.65 234.74V191.08C1279.65 190.229 1280.34 189.539 1281.19 189.539H1325.91C1326.05 189.539 1326.17 189.424 1326.17 189.283C1326.17 189.141 1326.05 189.026 1325.91 189.026H1281.19C1280.34 189.026 1279.65 188.336 1279.65 187.485V143.822C1279.65 142.971 1280.34 142.282 1281.19 142.282H1325.91C1326.05 142.282 1326.17 142.167 1326.17 142.025C1326.17 141.883 1326.05 141.768 1325.91 141.768H1281.19C1280.34 141.768 1279.65 141.078 1279.65 140.228V96.5662C1279.65 95.7153 1280.34 95.0257 1281.19 95.0257H1325.91C1326.05 95.0257 1326.17 94.9107 1326.17 94.7689C1326.17 94.6272 1326.05 94.5122 1325.91 94.5122H1281.19C1280.34 94.5122 1279.65 93.8226 1279.65 92.9717V49.3119C1279.65 48.461 1280.34 47.7714 1281.19 47.7714H1325.91C1326.05 47.7714 1326.17 47.6564 1326.17 47.5146C1326.17 47.3729 1326.05 47.2579 1325.91 47.2579H1281.19C1280.34 47.2579 1279.65 46.5683 1279.65 45.7174V2.054C1279.65 1.20313 1280.34 0.5135 1281.19 0.5135H1325.91C1326.05 0.5135 1326.17 0.398476 1326.17 0.25675ZM663.509 375.946C663.509 376.797 664.2 377.487 665.053 377.487H708.801C709.653 377.487 710.345 376.797 710.345 375.946V332.846C710.345 331.995 709.653 331.306 708.801 331.306H665.053C664.2 331.306 663.509 331.995 663.509 332.846V375.946ZM663.509 329.252C663.509 330.102 664.2 330.792 665.053 330.792H708.801C709.653 330.792 710.345 330.102 710.345 329.252V285.028C710.345 284.178 709.653 283.488 708.801 283.488H665.053C664.2 283.488 663.509 284.178 663.509 285.028L663.509 329.252ZM663.509 281.434C663.509 282.285 664.2 282.974 665.053 282.974H708.801C709.653 282.974 710.345 282.285 710.345 281.434V238.334C710.345 237.483 709.653 236.794 708.801 236.794H665.053C664.2 236.794 663.509 237.483 663.509 238.334V281.434ZM663.509 234.74C663.509 235.591 664.2 236.28 665.053 236.28H708.801C709.653 236.28 710.345 235.591 710.345 234.74V191.08C710.345 190.229 709.653 189.539 708.801 189.539H665.053C664.2 189.539 663.509 190.229 663.509 191.08V234.74ZM663.509 187.485C663.509 188.336 664.2 189.026 665.053 189.026H708.801C709.653 189.026 710.345 188.336 710.345 187.485L710.344 143.822C710.344 142.971 709.653 142.282 708.801 142.282H665.053C664.2 142.282 663.509 142.971 663.509 143.822V187.485ZM663.509 140.228C663.509 141.078 664.2 141.768 665.053 141.768H708.801C709.653 141.768 710.344 141.078 710.344 140.228V96.5662C710.344 95.7153 709.653 95.0257 708.801 95.0257H665.053C664.2 95.0257 663.509 95.7153 663.509 96.5662V140.228ZM663.509 92.9717C663.509 93.8226 664.2 94.5122 665.053 94.5122H708.801C709.653 94.5122 710.344 93.8226 710.344 92.9717V49.3119C710.344 48.461 709.653 47.7714 708.801 47.7714H665.053C664.2 47.7714 663.509 48.461 663.509 49.3119V92.9717ZM663.509 45.7174C663.509 46.5683 664.2 47.2579 665.053 47.2579H708.801C709.653 47.2579 710.344 46.5683 710.344 45.7174V2.054C710.344 1.20313 709.653 0.5135 708.801 0.5135H665.053C664.2 0.5135 663.509 1.20313 663.509 2.054V45.7174ZM712.403 47.2579C711.55 47.2579 710.859 46.5683 710.859 45.7174V2.054C710.859 1.20313 711.55 0.5135 712.403 0.5135H756.155C757.008 0.5135 757.699 1.20313 757.699 2.054V45.7174C757.699 46.5683 757.008 47.2579 756.155 47.2579H712.403ZM712.403 94.5122C711.55 94.5122 710.859 93.8226 710.859 92.9717V49.3119C710.859 48.461 711.55 47.7714 712.403 47.7714H756.155C757.008 47.7714 757.699 48.461 757.699 49.3119V92.9717C757.699 93.8226 757.008 94.5122 756.155 94.5122H712.403ZM712.403 141.768C711.55 141.768 710.859 141.078 710.859 140.228V96.5662C710.859 95.7153 711.55 95.0257 712.403 95.0257H756.155C757.008 95.0257 757.699 95.7153 757.699 96.5662V140.228C757.699 141.078 757.008 141.768 756.155 141.768H712.403ZM712.403 189.026C711.55 189.026 710.859 188.336 710.859 187.485V143.822C710.859 142.971 711.55 142.282 712.403 142.282H756.155C757.008 142.282 757.699 142.971 757.699 143.822V187.485C757.699 188.336 757.008 189.026 756.155 189.026H712.403ZM712.403 236.28C711.55 236.28 710.859 235.591 710.859 234.74V191.08C710.859 190.229 711.55 189.539 712.403 189.539H756.155C757.008 189.539 757.699 190.229 757.699 191.08V234.74C757.699 235.591 757.008 236.28 756.155 236.28H712.403ZM712.403 282.974C711.55 282.974 710.859 282.285 710.859 281.434V238.334C710.859 237.483 711.55 236.794 712.403 236.794H756.155C757.008 236.794 757.699 237.483 757.699 238.334V281.434C757.699 282.285 757.008 282.974 756.155 282.974H712.403ZM712.403 330.792C711.55 330.792 710.859 330.102 710.859 329.252V285.028C710.859 284.178 711.55 283.488 712.403 283.488H756.155C757.008 283.488 757.699 284.178 757.699 285.028V329.252C757.699 330.102 757.008 330.792 756.155 330.792H712.403ZM712.403 377.487C711.55 377.487 710.859 376.797 710.859 375.946V332.846C710.859 331.995 711.55 331.306 712.403 331.306H756.155C757.008 331.306 757.699 331.995 757.699 332.846V375.946C757.699 376.797 757.008 377.487 756.155 377.487H712.403ZM1277.59 331.306C1278.44 331.306 1279.13 331.995 1279.13 332.846V375.946C1279.13 376.797 1278.44 377.487 1277.59 377.487H1233.84C1232.99 377.487 1232.3 376.797 1232.3 375.946V332.846C1232.3 331.995 1232.99 331.306 1233.84 331.306H1277.59ZM1277.59 283.488C1278.44 283.488 1279.13 284.177 1279.13 285.028V329.252C1279.13 330.102 1278.44 330.792 1277.59 330.792H1233.84C1232.99 330.792 1232.3 330.102 1232.3 329.252V285.028C1232.3 284.177 1232.99 283.488 1233.84 283.488H1277.59ZM1277.59 236.794C1278.44 236.794 1279.13 237.483 1279.13 238.334V281.434C1279.13 282.285 1278.44 282.974 1277.59 282.974H1233.84C1232.99 282.974 1232.3 282.285 1232.3 281.434V238.334C1232.3 237.483 1232.99 236.794 1233.84 236.794H1277.59ZM1277.59 189.539C1278.44 189.539 1279.13 190.229 1279.13 191.08V234.74C1279.13 235.591 1278.44 236.28 1277.59 236.28H1233.84C1232.99 236.28 1232.3 235.591 1232.3 234.74V191.08C1232.3 190.229 1232.99 189.539 1233.84 189.539H1277.59ZM1277.59 142.282C1278.44 142.282 1279.13 142.971 1279.13 143.822V187.485C1279.13 188.336 1278.44 189.026 1277.59 189.026H1233.84C1232.99 189.026 1232.3 188.336 1232.3 187.485V143.822C1232.3 142.971 1232.99 142.282 1233.84 142.282H1277.59ZM1277.59 95.0257C1278.44 95.0257 1279.13 95.7153 1279.13 96.5662V140.228C1279.13 141.078 1278.44 141.768 1277.59 141.768H1233.84C1232.99 141.768 1232.3 141.078 1232.3 140.228V96.5662C1232.3 95.7153 1232.99 95.0257 1233.84 95.0257H1277.59ZM1277.59 47.7714C1278.44 47.7714 1279.13 48.461 1279.13 49.3119V92.9717C1279.13 93.8226 1278.44 94.5122 1277.59 94.5122H1233.84C1232.99 94.5122 1232.3 93.8226 1232.3 92.9717V49.3119C1232.3 48.461 1232.99 47.7714 1233.84 47.7714H1277.59ZM1277.59 0.5135C1278.44 0.5135 1279.13 1.20313 1279.13 2.054V45.7174C1279.13 46.5683 1278.44 47.2579 1277.59 47.2579H1233.84C1232.99 47.2579 1232.3 46.5683 1232.3 45.7174V2.054C1232.3 1.20313 1232.99 0.5135 1233.84 0.5135H1277.59ZM758.213 375.946C758.213 376.797 758.904 377.487 759.757 377.487L803.505 377.487C804.357 377.487 805.048 376.797 805.048 375.946V332.846C805.048 331.995 804.357 331.306 803.505 331.306H759.757C758.904 331.306 758.213 331.995 758.213 332.846V375.946ZM758.213 329.252C758.213 330.102 758.904 330.792 759.757 330.792H803.505C804.357 330.792 805.048 330.102 805.048 329.252V285.028C805.048 284.177 804.357 283.488 803.505 283.488H759.757C758.904 283.488 758.213 284.178 758.213 285.028V329.252ZM758.213 281.434C758.213 282.285 758.904 282.974 759.757 282.974H803.505C804.357 282.974 805.048 282.285 805.048 281.434V238.334C805.048 237.483 804.357 236.794 803.505 236.794H759.757C758.904 236.794 758.213 237.483 758.213 238.334V281.434ZM758.213 234.74C758.213 235.591 758.904 236.28 759.757 236.28H803.505C804.357 236.28 805.048 235.591 805.048 234.74V191.08C805.048 190.229 804.357 189.539 803.505 189.539H759.757C758.904 189.539 758.213 190.229 758.213 191.08V234.74ZM758.213 187.485C758.213 188.336 758.904 189.026 759.757 189.026H803.505C804.357 189.026 805.048 188.336 805.048 187.485V143.822C805.048 142.971 804.357 142.282 803.505 142.282H759.757C758.904 142.282 758.213 142.971 758.213 143.822V187.485ZM758.213 140.228C758.213 141.078 758.904 141.768 759.757 141.768H803.505C804.357 141.768 805.048 141.078 805.048 140.228V96.5662C805.048 95.7153 804.357 95.0257 803.505 95.0257H759.757C758.904 95.0257 758.213 95.7153 758.213 96.5662V140.228ZM758.213 92.9717C758.213 93.8226 758.904 94.5122 759.757 94.5122H803.505C804.357 94.5122 805.048 93.8226 805.048 92.9717V49.3119C805.048 48.461 804.357 47.7714 803.505 47.7714H759.757C758.904 47.7714 758.213 48.461 758.213 49.3119V92.9717ZM758.213 45.7174C758.213 46.5683 758.904 47.2579 759.757 47.2579H803.505C804.357 47.2579 805.048 46.5683 805.048 45.7174V2.054C805.048 1.20313 804.357 0.5135 803.505 0.5135H759.757C758.904 0.5135 758.213 1.20313 758.213 2.054V45.7174ZM807.106 47.2579C806.254 47.2579 805.563 46.5683 805.563 45.7174V2.054C805.563 1.20313 806.254 0.5135 807.106 0.5135H850.854C851.707 0.5135 852.398 1.20313 852.398 2.054V45.7174C852.398 46.5683 851.707 47.2579 850.854 47.2579H807.106ZM854.456 47.2579C853.604 47.2579 852.912 46.5683 852.912 45.7174V2.054C852.912 1.20313 853.604 0.5135 854.456 0.5135H898.775C899.628 0.5135 900.319 1.20313 900.319 2.054V45.7174C900.319 46.5683 899.628 47.2579 898.775 47.2579H854.456ZM852.398 49.3119C852.398 48.461 851.707 47.7714 850.854 47.7714H807.106C806.254 47.7714 805.563 48.461 805.563 49.3119V92.9717C805.563 93.8226 806.254 94.5122 807.106 94.5122H850.854C851.707 94.5122 852.398 93.8226 852.398 92.9717V49.3119ZM854.456 94.5122C853.604 94.5122 852.912 93.8226 852.912 92.9717V49.3119C852.912 48.461 853.604 47.7714 854.456 47.7714H898.775C899.628 47.7714 900.319 48.461 900.319 49.3119V92.9717C900.319 93.8226 899.628 94.5122 898.775 94.5122H854.456ZM852.398 96.5662C852.398 95.7153 851.707 95.0257 850.854 95.0257H807.106C806.254 95.0257 805.563 95.7153 805.563 96.5662V140.228C805.563 141.078 806.254 141.768 807.106 141.768H850.854C851.707 141.768 852.398 141.078 852.398 140.228V96.5662ZM854.456 141.768C853.604 141.768 852.912 141.078 852.912 140.228V96.5662C852.912 95.7153 853.604 95.0257 854.456 95.0257H898.775C899.628 95.0257 900.319 95.7153 900.319 96.5662V140.228C900.319 141.078 899.628 141.768 898.775 141.768H854.456ZM852.398 143.822C852.398 142.971 851.707 142.282 850.854 142.282H807.106C806.254 142.282 805.563 142.971 805.563 143.822V187.485C805.563 188.336 806.254 189.026 807.106 189.026H850.854C851.707 189.026 852.398 188.336 852.398 187.485V143.822ZM854.456 189.026C853.604 189.026 852.912 188.336 852.912 187.485V143.822C852.912 142.971 853.604 142.282 854.456 142.282H898.775C899.628 142.282 900.319 142.971 900.319 143.822V187.485C900.319 188.336 899.628 189.026 898.775 189.026H854.456ZM852.398 191.08C852.398 190.229 851.707 189.539 850.854 189.539H807.106C806.254 189.539 805.563 190.229 805.563 191.08V234.74C805.563 235.591 806.254 236.28 807.106 236.28H850.854C851.707 236.28 852.398 235.591 852.398 234.74V191.08ZM854.456 236.28C853.604 236.28 852.912 235.591 852.912 234.74V191.08C852.912 190.229 853.604 189.539 854.456 189.539H898.775C899.628 189.539 900.319 190.229 900.319 191.08V234.74C900.319 235.591 899.628 236.28 898.775 236.28H854.456ZM852.398 238.334C852.398 237.483 851.707 236.794 850.854 236.794H807.106C806.254 236.794 805.563 237.483 805.563 238.334V281.434C805.563 282.285 806.254 282.974 807.106 282.974H850.854C851.707 282.974 852.398 282.285 852.398 281.434V238.334ZM854.456 282.974C853.604 282.974 852.912 282.285 852.912 281.434V238.334C852.912 237.483 853.604 236.794 854.456 236.794H898.775C899.628 236.794 900.319 237.483 900.319 238.334V281.434C900.319 282.285 899.628 282.974 898.775 282.974H854.456ZM852.398 285.028C852.398 284.177 851.707 283.488 850.854 283.488H807.106C806.254 283.488 805.563 284.177 805.563 285.028V329.252C805.563 330.102 806.254 330.792 807.106 330.792L850.854 330.792C851.707 330.792 852.398 330.102 852.398 329.252V285.028ZM854.456 330.792C853.604 330.792 852.912 330.102 852.912 329.252V285.028C852.912 284.177 853.604 283.488 854.456 283.488H898.775C899.628 283.488 900.319 284.177 900.319 285.028V329.252C900.319 330.102 899.628 330.792 898.775 330.792H854.456ZM852.398 332.846C852.398 331.995 851.707 331.306 850.854 331.306L807.106 331.306C806.254 331.306 805.563 331.995 805.563 332.846V375.946C805.563 376.797 806.254 377.487 807.106 377.487H850.854C851.707 377.487 852.398 376.797 852.398 375.946V332.846ZM854.456 377.487C853.604 377.487 852.912 376.797 852.912 375.946V332.846C852.912 331.995 853.604 331.306 854.456 331.306H898.775C899.628 331.306 900.319 331.995 900.319 332.846V375.946C900.319 376.797 899.628 377.487 898.775 377.487H854.456ZM900.833 375.946C900.833 376.797 901.525 377.487 902.377 377.487H946.129C946.982 377.487 947.673 376.797 947.673 375.946V332.846C947.673 331.995 946.982 331.306 946.129 331.306H902.377C901.525 331.306 900.833 331.995 900.833 332.846V375.946ZM949.731 331.306C948.878 331.306 948.187 331.995 948.187 332.846V375.946C948.187 376.797 948.878 377.487 949.731 377.487H993.479C994.331 377.487 995.023 376.797 995.023 375.946V332.846C995.023 331.995 994.331 331.306 993.479 331.306H949.731ZM997.081 331.306C996.228 331.306 995.537 331.995 995.537 332.846V375.946C995.537 376.797 996.228 377.487 997.081 377.487H1040.84C1041.69 377.487 1042.38 376.797 1042.38 375.946V332.846C1042.38 331.995 1041.69 331.306 1040.84 331.306H997.081ZM1042.38 329.252C1042.38 330.102 1041.69 330.792 1040.84 330.792H997.081C996.228 330.792 995.537 330.102 995.537 329.252V285.028C995.537 284.177 996.228 283.488 997.081 283.488H1040.84C1041.69 283.488 1042.38 284.177 1042.38 285.028V329.252ZM993.479 283.488C994.331 283.488 995.023 284.177 995.023 285.028V329.252C995.023 330.102 994.331 330.792 993.479 330.792H949.731C948.878 330.792 948.187 330.102 948.187 329.252V285.028C948.187 284.177 948.878 283.488 949.731 283.488H993.479ZM948.187 281.434C948.187 282.285 948.878 282.974 949.731 282.974H993.479C994.331 282.974 995.023 282.285 995.023 281.434V238.334C995.023 237.483 994.331 236.794 993.479 236.794H949.731C948.878 236.794 948.187 237.483 948.187 238.334V281.434ZM997.081 236.794C996.228 236.794 995.537 237.483 995.537 238.334V281.434C995.537 282.285 996.228 282.974 997.081 282.974H1040.84C1041.69 282.974 1042.38 282.285 1042.38 281.434V238.334C1042.38 237.483 1041.69 236.794 1040.84 236.794H997.081ZM1042.38 234.74C1042.38 235.591 1041.69 236.28 1040.84 236.28H997.081C996.228 236.28 995.537 235.591 995.537 234.74V191.08C995.537 190.229 996.228 189.539 997.081 189.539H1040.84C1041.69 189.539 1042.38 190.229 1042.38 191.08V234.74ZM993.479 189.539C994.331 189.539 995.023 190.229 995.023 191.08V234.74C995.023 235.591 994.331 236.28 993.479 236.28H949.731C948.878 236.28 948.187 235.591 948.187 234.74V191.08C948.187 190.229 948.878 189.539 949.731 189.539H993.479ZM948.187 187.485C948.187 188.336 948.878 189.026 949.731 189.026H993.479C994.331 189.026 995.023 188.336 995.023 187.485V143.822C995.023 142.971 994.331 142.282 993.479 142.282H949.731C948.878 142.282 948.187 142.971 948.187 143.822V187.485ZM997.081 142.282C996.228 142.282 995.537 142.971 995.537 143.822V187.485C995.537 188.336 996.228 189.026 997.081 189.026H1040.84C1041.69 189.026 1042.38 188.336 1042.38 187.485V143.822C1042.38 142.971 1041.69 142.282 1040.84 142.282H997.081ZM1042.38 140.228C1042.38 141.078 1041.69 141.768 1040.84 141.768H997.081C996.228 141.768 995.537 141.078 995.537 140.228V96.5662C995.537 95.7153 996.228 95.0257 997.081 95.0257H1040.84C1041.69 95.0257 1042.38 95.7153 1042.38 96.5662V140.228ZM993.479 95.0257C994.331 95.0257 995.023 95.7153 995.023 96.5662V140.228C995.023 141.078 994.331 141.768 993.479 141.768H949.731C948.878 141.768 948.187 141.078 948.187 140.228V96.5662C948.187 95.7153 948.878 95.0257 949.731 95.0257H993.479ZM948.187 92.9717C948.187 93.8226 948.878 94.5122 949.731 94.5122H993.479C994.331 94.5122 995.023 93.8226 995.023 92.9717V49.3119C995.023 48.461 994.331 47.7714 993.479 47.7714H949.731C948.878 47.7714 948.187 48.461 948.187 49.3119V92.9717ZM997.081 47.7714C996.228 47.7714 995.537 48.461 995.537 49.3119V92.9717C995.537 93.8226 996.228 94.5122 997.081 94.5122H1040.84C1041.69 94.5122 1042.38 93.8226 1042.38 92.9717V49.3119C1042.38 48.461 1041.69 47.7714 1040.84 47.7714H997.081ZM1042.38 45.7174C1042.38 46.5683 1041.69 47.2579 1040.84 47.2579H997.081C996.228 47.2579 995.537 46.5683 995.537 45.7174V2.054C995.537 1.20313 996.228 0.5135 997.081 0.5135H1040.84C1041.69 0.5135 1042.38 1.20313 1042.38 2.054V45.7174ZM993.479 0.5135C994.331 0.5135 995.023 1.20313 995.023 2.054V45.7174C995.023 46.5683 994.331 47.2579 993.479 47.2579H949.731C948.878 47.2579 948.187 46.5683 948.187 45.7174V2.054C948.187 1.20313 948.878 0.5135 949.731 0.5135H993.479ZM946.129 283.488C946.982 283.488 947.673 284.177 947.673 285.028V329.252C947.673 330.102 946.982 330.792 946.129 330.792H902.377C901.525 330.792 900.833 330.102 900.833 329.252V285.028C900.833 284.177 901.525 283.488 902.377 283.488H946.129ZM900.833 281.434C900.833 282.285 901.525 282.974 902.377 282.974H946.129C946.982 282.974 947.673 282.285 947.673 281.434V238.334C947.673 237.483 946.982 236.794 946.129 236.794H902.377C901.525 236.794 900.833 237.483 900.833 238.334V281.434ZM946.129 189.539C946.982 189.539 947.673 190.229 947.673 191.08V234.74C947.673 235.591 946.982 236.28 946.129 236.28H902.377C901.525 236.28 900.833 235.591 900.833 234.74V191.08C900.833 190.229 901.525 189.539 902.377 189.539H946.129ZM900.833 187.485C900.833 188.336 901.525 189.026 902.377 189.026H946.129C946.982 189.026 947.673 188.336 947.673 187.485V143.822C947.673 142.971 946.981 142.282 946.129 142.282H902.377C901.525 142.282 900.833 142.971 900.833 143.822V187.485ZM946.129 95.0257C946.981 95.0257 947.673 95.7153 947.673 96.5662V140.228C947.673 141.078 946.981 141.768 946.129 141.768H902.377C901.525 141.768 900.833 141.078 900.833 140.228V96.5662C900.833 95.7153 901.525 95.0257 902.377 95.0257H946.129ZM900.833 92.9717C900.833 93.8226 901.525 94.5122 902.377 94.5122H946.129C946.981 94.5122 947.673 93.8226 947.673 92.9717V49.3119C947.673 48.461 946.981 47.7714 946.129 47.7714H902.377C901.525 47.7714 900.833 48.461 900.833 49.3119V92.9717ZM946.129 0.5135C946.981 0.5135 947.673 1.20313 947.673 2.054V45.7174C947.673 46.5683 946.981 47.2579 946.129 47.2579H902.377C901.525 47.2579 900.833 46.5683 900.833 45.7174V2.054C900.833 1.20313 901.525 0.5135 902.377 0.5135H946.129ZM1044.44 47.2579C1043.59 47.2579 1042.89 46.5683 1042.89 45.7174V2.054C1042.89 1.20313 1043.59 0.5135 1044.44 0.5135H1088.18C1089.04 0.5135 1089.73 1.20313 1089.73 2.054V45.7174C1089.73 46.5683 1089.04 47.2579 1088.18 47.2579H1044.44ZM1091.78 47.2579C1090.93 47.2579 1090.24 46.5683 1090.24 45.7174V2.054C1090.24 1.20313 1090.93 0.5135 1091.78 0.5135H1135.53C1136.38 0.5135 1137.07 1.20313 1137.07 2.054V45.7174C1137.07 46.5683 1136.38 47.2579 1135.53 47.2579H1091.78ZM1139.13 47.2579C1138.28 47.2579 1137.59 46.5683 1137.59 45.7174V2.054C1137.59 1.20313 1138.28 0.5135 1139.13 0.5135H1182.89C1183.74 0.5135 1184.43 1.20313 1184.43 2.054V45.7174C1184.43 46.5683 1183.74 47.2579 1182.89 47.2579H1139.13ZM1186.49 47.2579C1185.63 47.2579 1184.95 46.5683 1184.95 45.7174V2.054C1184.95 1.20313 1185.63 0.5135 1186.49 0.5135H1230.24C1231.09 0.5135 1231.78 1.20313 1231.78 2.054V45.7174C1231.78 46.5683 1231.09 47.2579 1230.24 47.2579H1186.49ZM1184.95 49.3119C1184.95 48.461 1185.63 47.7714 1186.49 47.7714H1230.24C1231.09 47.7714 1231.78 48.461 1231.78 49.3119V92.9717C1231.78 93.8226 1231.09 94.5122 1230.24 94.5122H1186.49C1185.63 94.5122 1184.95 93.8226 1184.95 92.9717V49.3119ZM1182.89 47.7714C1183.74 47.7714 1184.43 48.461 1184.43 49.3119V92.9717C1184.43 93.8226 1183.74 94.5122 1182.89 94.5122H1139.13C1138.28 94.5122 1137.59 93.8226 1137.59 92.9717V49.3119C1137.59 48.461 1138.28 47.7714 1139.13 47.7714H1182.89ZM1184.43 96.5662C1184.43 95.7153 1183.74 95.0257 1182.89 95.0257H1139.13C1138.28 95.0257 1137.59 95.7153 1137.59 96.5662V140.228C1137.59 141.078 1138.28 141.768 1139.13 141.768H1182.89C1183.74 141.768 1184.43 141.078 1184.43 140.228V96.5662ZM1186.49 95.0257C1185.63 95.0257 1184.95 95.7153 1184.95 96.5662V140.228C1184.95 141.078 1185.63 141.768 1186.49 141.768H1230.24C1231.09 141.768 1231.78 141.078 1231.78 140.228V96.5662C1231.78 95.7153 1231.09 95.0257 1230.24 95.0257H1186.49ZM1184.95 143.822C1184.95 142.971 1185.63 142.282 1186.49 142.282H1230.24C1231.09 142.282 1231.78 142.971 1231.78 143.822V187.485C1231.78 188.336 1231.09 189.026 1230.24 189.026H1186.49C1185.63 189.026 1184.95 188.336 1184.95 187.485V143.822ZM1182.89 142.282C1183.74 142.282 1184.43 142.971 1184.43 143.822V187.485C1184.43 188.336 1183.74 189.026 1182.89 189.026H1139.13C1138.28 189.026 1137.59 188.336 1137.59 187.485V143.822C1137.59 142.971 1138.28 142.282 1139.13 142.282H1182.89ZM1184.43 191.08C1184.43 190.229 1183.74 189.539 1182.89 189.539H1139.13C1138.28 189.539 1137.59 190.229 1137.59 191.08V234.74C1137.59 235.591 1138.28 236.28 1139.13 236.28H1182.89C1183.74 236.28 1184.43 235.591 1184.43 234.74V191.08ZM1186.49 189.539C1185.63 189.539 1184.95 190.229 1184.95 191.08V234.74C1184.95 235.591 1185.63 236.28 1186.49 236.28H1230.24C1231.09 236.28 1231.78 235.591 1231.78 234.74V191.08C1231.78 190.229 1231.09 189.539 1230.24 189.539H1186.49ZM1184.95 238.334C1184.95 237.483 1185.63 236.794 1186.49 236.794H1230.24C1231.09 236.794 1231.78 237.483 1231.78 238.334V281.434C1231.78 282.285 1231.09 282.974 1230.24 282.974H1186.49C1185.63 282.974 1184.95 282.285 1184.95 281.434V238.334ZM1182.89 236.794C1183.74 236.794 1184.43 237.483 1184.43 238.334V281.434C1184.43 282.285 1183.74 282.974 1182.89 282.974H1139.13C1138.28 282.974 1137.59 282.285 1137.59 281.434V238.334C1137.59 237.483 1138.28 236.794 1139.13 236.794H1182.89ZM1184.43 285.028C1184.43 284.177 1183.74 283.488 1182.89 283.488H1139.13C1138.28 283.488 1137.59 284.177 1137.59 285.028V329.252C1137.59 330.102 1138.28 330.792 1139.13 330.792H1182.89C1183.74 330.792 1184.43 330.102 1184.43 329.252V285.028ZM1186.49 283.488C1185.63 283.488 1184.95 284.177 1184.95 285.028V329.252C1184.95 330.102 1185.63 330.792 1186.49 330.792H1230.24C1231.09 330.792 1231.78 330.102 1231.78 329.252V285.028C1231.78 284.177 1231.09 283.488 1230.24 283.488H1186.49ZM1184.95 332.846C1184.95 331.995 1185.63 331.306 1186.49 331.306H1230.24C1231.09 331.306 1231.78 331.995 1231.78 332.846V375.946C1231.78 376.797 1231.09 377.487 1230.24 377.487H1186.49C1185.63 377.487 1184.95 376.797 1184.95 375.946V332.846ZM1182.89 331.306C1183.74 331.306 1184.43 331.995 1184.43 332.846V375.946C1184.43 376.797 1183.74 377.487 1182.89 377.487H1139.13C1138.28 377.487 1137.59 376.797 1137.59 375.946V332.846C1137.59 331.995 1138.28 331.306 1139.13 331.306H1182.89ZM1135.53 47.7714C1136.38 47.7714 1137.07 48.461 1137.07 49.3119V92.9717C1137.07 93.8226 1136.38 94.5122 1135.53 94.5122H1091.78C1090.93 94.5122 1090.24 93.8226 1090.24 92.9717V49.3119C1090.24 48.461 1090.93 47.7714 1091.78 47.7714H1135.53ZM1137.07 96.5662C1137.07 95.7153 1136.38 95.0257 1135.53 95.0257H1091.78C1090.93 95.0257 1090.24 95.7153 1090.24 96.5662V140.228C1090.24 141.078 1090.93 141.768 1091.78 141.768H1135.53C1136.38 141.768 1137.07 141.078 1137.07 140.228V96.5662ZM1135.53 142.282C1136.38 142.282 1137.07 142.971 1137.07 143.822V187.485C1137.07 188.336 1136.38 189.026 1135.53 189.026H1091.78C1090.93 189.026 1090.24 188.336 1090.24 187.485V143.822C1090.24 142.971 1090.93 142.282 1091.78 142.282H1135.53ZM1137.07 191.08C1137.07 190.229 1136.38 189.539 1135.53 189.539H1091.78C1090.93 189.539 1090.24 190.229 1090.24 191.08V234.74C1090.24 235.591 1090.93 236.28 1091.78 236.28H1135.53C1136.38 236.28 1137.07 235.591 1137.07 234.74V191.08ZM1135.53 236.794C1136.38 236.794 1137.07 237.483 1137.07 238.334V281.434C1137.07 282.285 1136.38 282.974 1135.53 282.974H1091.78C1090.93 282.974 1090.24 282.285 1090.24 281.434V238.334C1090.24 237.483 1090.93 236.794 1091.78 236.794H1135.53ZM1137.07 285.028C1137.07 284.177 1136.38 283.488 1135.53 283.488H1091.78C1090.93 283.488 1090.24 284.177 1090.24 285.028V329.252C1090.24 330.102 1090.93 330.792 1091.78 330.792H1135.53C1136.38 330.792 1137.07 330.102 1137.07 329.252V285.028ZM1135.53 331.306C1136.38 331.306 1137.07 331.995 1137.07 332.846V375.946C1137.07 376.797 1136.38 377.487 1135.53 377.487H1091.78C1090.93 377.487 1090.24 376.797 1090.24 375.946V332.846C1090.24 331.995 1090.93 331.306 1091.78 331.306H1135.53ZM1088.18 47.7714C1089.04 47.7714 1089.73 48.461 1089.73 49.3119V92.9717C1089.73 93.8226 1089.04 94.5122 1088.18 94.5122H1044.44C1043.59 94.5122 1042.89 93.8226 1042.89 92.9717V49.3119C1042.89 48.461 1043.59 47.7714 1044.44 47.7714H1088.18ZM1089.73 96.5662C1089.73 95.7153 1089.04 95.0257 1088.18 95.0257H1044.44C1043.59 95.0257 1042.89 95.7153 1042.89 96.5662V140.228C1042.89 141.078 1043.59 141.768 1044.44 141.768H1088.18C1089.04 141.768 1089.73 141.078 1089.73 140.228V96.5662ZM1088.18 142.282C1089.04 142.282 1089.73 142.971 1089.73 143.822V187.485C1089.73 188.336 1089.04 189.026 1088.18 189.026H1044.44C1043.59 189.026 1042.89 188.336 1042.89 187.485V143.822C1042.89 142.971 1043.59 142.282 1044.44 142.282H1088.18ZM1089.73 191.08C1089.73 190.229 1089.04 189.539 1088.18 189.539H1044.44C1043.59 189.539 1042.89 190.229 1042.89 191.08V234.74C1042.89 235.591 1043.59 236.28 1044.44 236.28H1088.18C1089.04 236.28 1089.73 235.591 1089.73 234.74V191.08ZM1088.18 236.794C1089.04 236.794 1089.73 237.483 1089.73 238.334V281.434C1089.73 282.285 1089.04 282.974 1088.18 282.974H1044.44C1043.59 282.974 1042.89 282.285 1042.89 281.434V238.334C1042.89 237.483 1043.59 236.794 1044.44 236.794H1088.18ZM1089.73 285.028C1089.73 284.177 1089.04 283.488 1088.18 283.488H1044.44C1043.59 283.488 1042.89 284.177 1042.89 285.028V329.252C1042.89 330.102 1043.59 330.792 1044.44 330.792H1088.18C1089.04 330.792 1089.73 330.102 1089.73 329.252V285.028ZM1088.18 331.306C1089.04 331.306 1089.73 331.995 1089.73 332.846V375.946C1089.73 376.797 1089.04 377.487 1088.18 377.487H1044.44C1043.59 377.487 1042.89 376.797 1042.89 375.946V332.846C1042.89 331.995 1043.59 331.306 1044.44 331.306H1088.18Z" fill="url(#paint1_linear_95_73)"/>
<defs>
<linearGradient id="paint0_linear_95_73" x1="754.965" y1="0" x2="754.965" y2="378" gradientUnits="userSpaceOnUse">
<stop offset="0.440553" stop-color="white" stop-opacity="0"/>
<stop offset="1" stop-color="white" stop-opacity="0.11"/>
</linearGradient>
<linearGradient id="paint1_linear_95_73" x1="754.965" y1="0" x2="754.965" y2="378" gradientUnits="userSpaceOnUse">
<stop offset="0.440553" stop-color="white" stop-opacity="0"/>
<stop offset="1" stop-color="white" stop-opacity="0.11"/>
</linearGradient>
</defs>
</svg>
