<svg width="18" height="19" viewBox="0 0 18 19" fill="none" xmlns="http://www.w3.org/2000/svg">
<path d="M16.5 13.1901V15.4401C16.5009 15.6489 16.4581 15.8557 16.3744 16.0471C16.2907 16.2385 16.168 16.4103 16.0141 16.5515C15.8602 16.6927 15.6784 16.8002 15.4806 16.8671C15.2827 16.934 15.073 16.9589 14.865 16.9401C12.5571 16.6893 10.3403 15.9007 8.39251 14.6376C6.58038 13.4861 5.04401 11.9497 3.89251 10.1376C2.62499 8.18098 1.83619 5.95332 1.59001 3.63507C1.57127 3.42767 1.59592 3.21864 1.66239 3.02129C1.72886 2.82394 1.83569 2.64259 1.97609 2.48879C2.11648 2.33499 2.28736 2.2121 2.47785 2.12796C2.66834 2.04382 2.87427 2.00027 3.08251 2.00007H5.33251C5.69649 1.99649 6.04935 2.12538 6.32533 2.36272C6.60131 2.60006 6.78157 2.92966 6.83251 3.29007C6.92748 4.01012 7.1036 4.71712 7.35751 5.39757C7.45842 5.66602 7.48026 5.95776 7.42044 6.23823C7.36062 6.51871 7.22166 6.77616 7.02001 6.98007L6.06751 7.93257C7.13518 9.81023 8.68985 11.3649 10.5675 12.4326L11.52 11.4801C11.7239 11.2784 11.9814 11.1395 12.2619 11.0796C12.5423 11.0198 12.8341 11.0417 13.1025 11.1426C13.783 11.3965 14.49 11.5726 15.21 11.6676C15.5743 11.719 15.9071 11.9025 16.1449 12.1832C16.3828 12.4639 16.5091 12.8223 16.5 13.1901Z" stroke="url(#paint0_linear_111_80)" stroke-linecap="round" stroke-linejoin="round"/>
<defs>
<linearGradient id="paint0_linear_111_80" x1="-23.1721" y1="9.47308" x2="15.7063" y2="9.47308" gradientUnits="userSpaceOnUse">
<stop offset="0.440625" stop-color="white" stop-opacity="0"/>
<stop offset="1" stop-color="white"/>
</linearGradient>
</defs>
</svg>
