<svg width="56" height="74" viewBox="0 0 56 74" fill="none" xmlns="http://www.w3.org/2000/svg">
<path d="M21.6469 73.4993C20.8757 73.0421 20.6523 72.3581 20.6577 71.4723C20.686 66.5077 20.6807 61.5413 20.6541 56.5766C20.6523 56.1605 20.5016 55.6873 20.2712 55.3408C14.1725 46.1669 8.05424 37.0073 1.94135 27.8424C1.02477 26.4673 0.983992 25.2547 1.81016 24.1546C2.43066 23.3277 3.29228 23.0241 4.28687 23.0241C6.15017 23.0241 8.01347 23.0241 9.87677 23.0241C10.1019 23.0241 10.3271 23.0241 10.5771 23.0241C9.14102 19.0506 9.70657 16.3701 12.3464 14.4628C14.4809 12.9198 17.6154 13.0341 19.679 14.6396C21.6345 16.1611 23.1042 19.3792 21.2019 22.9616H29.2242C30.334 18.856 32.9703 16.3344 37.3156 16.3844C41.5387 16.4326 44.0827 18.9488 45.1855 23.0241C47.7898 23.0241 50.3836 23.0116 52.9755 23.0277C54.6775 23.0384 55.8529 24.0974 55.9894 25.7047C56.0585 26.5315 55.6987 27.2191 55.2572 27.8799C49.4546 36.5662 43.6785 45.274 37.8262 53.9264C36.8937 55.3051 36.4097 56.6391 36.4895 58.3214C36.6136 60.8805 36.5019 63.4521 36.532 66.0184C36.5427 66.9292 36.1668 67.4649 35.3477 67.8203C31.1301 69.649 26.9248 71.5063 22.716 73.3546C22.6344 73.3903 22.5653 73.4511 22.4908 73.5011H21.6416L21.6469 73.4993ZM23.535 69.8258C23.7194 69.7776 23.8134 69.7669 23.8967 69.7311C27.0276 68.3596 30.155 66.9792 33.2912 65.6219C33.6919 65.4487 33.699 65.179 33.6972 64.8361C33.6919 61.9609 33.7132 59.0857 33.6812 56.2123C33.6724 55.4104 33.894 54.7497 34.3354 54.0925C40.4501 44.9579 46.547 35.8126 52.6475 26.6708C52.7982 26.444 52.9383 26.2083 53.1085 25.9386H4.08122C4.85419 27.0977 5.60235 28.1656 6.28845 29.271C6.57211 29.73 6.88414 29.8836 7.42132 29.8836C17.1385 29.8657 26.8556 29.8693 36.5728 29.8746C36.9238 29.8746 37.2873 29.8836 37.6206 29.9747C38.2695 30.1532 38.5974 30.6586 38.5939 31.3033C38.5903 31.948 38.257 32.4463 37.6064 32.6231C37.2944 32.7088 36.9558 32.7177 36.6278 32.7177C27.5949 32.7231 18.5621 32.7213 9.52928 32.7213H8.65525C8.76517 32.9231 8.8024 33.007 8.85204 33.0838C13.4278 39.9397 18.0019 46.7991 22.6007 53.6407C22.7567 53.8728 23.1663 54.0461 23.4624 54.0532C25.1838 54.0943 26.9053 54.0586 28.6268 54.0907C29.4529 54.1068 29.9812 54.6586 30.0132 55.4158C30.0468 56.1676 29.6196 56.7463 28.836 56.8481C28.1623 56.9356 27.4744 56.9141 26.7918 56.9213C25.7157 56.932 24.6413 56.9231 23.5368 56.9231V69.8276L23.535 69.8258ZM19.2713 19.6257C19.2837 17.7434 17.798 16.2094 15.94 16.1826C14.0661 16.1558 12.4953 17.722 12.5059 19.6096C12.5148 21.4758 14.0395 23.0116 15.8886 23.017C17.743 23.0224 19.2589 21.5026 19.2713 19.6257ZM42.1574 23.0027C41.6379 20.6972 39.2977 19.031 36.8866 19.1899C34.6421 19.3382 32.458 21.1419 32.2931 23.0027H42.1592H42.1574Z" fill="url(#paint0_linear_95_172)"/>
<path d="M39.6452 6.86046C39.5814 10.3196 36.72 13.127 33.3497 13.0359C29.944 12.9448 27.1783 10.1107 27.212 6.74795C27.2492 3.28699 30.1585 0.409989 33.5323 0.501067C36.9859 0.595717 39.709 3.42807 39.6452 6.85868V6.86046ZM36.8157 6.74974C36.8086 4.8746 35.2946 3.34949 33.4401 3.35128C31.5963 3.35128 30.0592 4.89067 30.0433 6.75153C30.0273 8.62488 31.6105 10.2071 33.4774 10.1857C35.3336 10.1643 36.8228 8.63023 36.8157 6.74974Z" fill="url(#paint1_linear_95_172)"/>
<path d="M2.83133 6.55315C2.83133 8.09612 2.84729 9.63909 2.82424 11.1821C2.8136 11.9285 2.38988 12.4429 1.74101 12.5768C1.09391 12.7107 0.562042 12.4875 0.241151 11.9089C0.0993205 11.6517 0.017768 11.3249 0.017768 11.0285C0.00181203 8.06219 -0.0052795 5.09412 0.0124493 2.12604C0.017768 1.14561 0.620548 0.502709 1.43785 0.504494C2.26401 0.508066 2.82424 1.14561 2.8331 2.13676C2.84551 3.60829 2.83665 5.07983 2.83665 6.55315H2.83133Z" fill="url(#paint2_linear_95_172)"/>
<path d="M49.974 12.8645C49.974 14.1449 49.9847 15.4254 49.9705 16.7058C49.9598 17.7113 49.4138 18.3202 48.5681 18.3202C47.7384 18.3202 47.1569 17.697 47.1498 16.704C47.1321 14.1431 47.1303 11.5822 47.1498 9.01955C47.1569 8.02662 47.7384 7.40336 48.5699 7.40336C49.4032 7.40336 49.9616 8.03197 49.9705 9.02133C49.9829 10.3018 49.974 11.5822 49.974 12.8627V12.8645Z" fill="url(#paint3_linear_95_172)"/>
<path d="M22.1132 6.68902C22.1132 7.59265 22.1274 8.49451 22.1079 9.39814C22.0884 10.3554 21.553 10.9679 20.7516 11C19.9503 11.0304 19.3103 10.3875 19.2925 9.41779C19.2606 7.58908 19.2624 5.75859 19.2925 3.92989C19.3085 2.92981 19.9006 2.32441 20.7339 2.33691C21.5707 2.34941 22.0919 2.96017 22.1096 3.98168C22.1256 4.88353 22.1132 5.78716 22.1132 6.6908V6.68902Z" fill="url(#paint4_linear_95_172)"/>
<path d="M2.82779 16.5397C2.83843 17.3094 2.21437 17.9577 1.45203 17.9684C0.707423 17.9791 0.0390466 17.3291 0.0248636 16.579C0.0106805 15.8325 0.656009 15.1718 1.41303 15.1611C2.18778 15.1504 2.81715 15.7647 2.82779 16.538V16.5397Z" fill="url(#paint5_linear_95_172)"/>
<path d="M48.5486 5.52465C47.7898 5.51215 47.1463 4.85674 47.1622 4.10847C47.1782 3.35484 47.8324 2.72444 48.5929 2.73337C49.3624 2.7423 49.9776 3.37806 49.9669 4.15133C49.9563 4.9246 49.3234 5.53536 48.5504 5.52465H48.5486Z" fill="url(#paint6_linear_95_172)"/>
<path d="M44.8805 31.3337C44.8628 32.098 44.2033 32.7338 43.4569 32.707C42.7088 32.682 42.0741 32.0016 42.0971 31.2551C42.1202 30.5033 42.7992 29.8532 43.5349 29.88C44.2902 29.9068 44.8983 30.564 44.8805 31.3337Z" fill="url(#paint7_linear_95_172)"/>
<defs>
<linearGradient id="paint0_linear_95_172" x1="-83.5507" y1="37" x2="90.1183" y2="37" gradientUnits="userSpaceOnUse">
<stop offset="0.397624" stop-color="white" stop-opacity="0"/>
<stop offset="1" stop-color="white" stop-opacity="0.4"/>
</linearGradient>
<linearGradient id="paint1_linear_95_172" x1="-83.5507" y1="37" x2="90.1183" y2="37" gradientUnits="userSpaceOnUse">
<stop offset="0.397624" stop-color="white" stop-opacity="0"/>
<stop offset="1" stop-color="white" stop-opacity="0.4"/>
</linearGradient>
<linearGradient id="paint2_linear_95_172" x1="-83.5507" y1="37" x2="90.1183" y2="37" gradientUnits="userSpaceOnUse">
<stop offset="0.397624" stop-color="white" stop-opacity="0"/>
<stop offset="1" stop-color="white" stop-opacity="0.4"/>
</linearGradient>
<linearGradient id="paint3_linear_95_172" x1="-83.5507" y1="37" x2="90.1183" y2="37" gradientUnits="userSpaceOnUse">
<stop offset="0.397624" stop-color="white" stop-opacity="0"/>
<stop offset="1" stop-color="white" stop-opacity="0.4"/>
</linearGradient>
<linearGradient id="paint4_linear_95_172" x1="-83.5507" y1="37" x2="90.1183" y2="37" gradientUnits="userSpaceOnUse">
<stop offset="0.397624" stop-color="white" stop-opacity="0"/>
<stop offset="1" stop-color="white" stop-opacity="0.4"/>
</linearGradient>
<linearGradient id="paint5_linear_95_172" x1="-83.5507" y1="37" x2="90.1183" y2="37" gradientUnits="userSpaceOnUse">
<stop offset="0.397624" stop-color="white" stop-opacity="0"/>
<stop offset="1" stop-color="white" stop-opacity="0.4"/>
</linearGradient>
<linearGradient id="paint6_linear_95_172" x1="-83.5507" y1="37" x2="90.1183" y2="37" gradientUnits="userSpaceOnUse">
<stop offset="0.397624" stop-color="white" stop-opacity="0"/>
<stop offset="1" stop-color="white" stop-opacity="0.4"/>
</linearGradient>
<linearGradient id="paint7_linear_95_172" x1="-83.5507" y1="37" x2="90.1183" y2="37" gradientUnits="userSpaceOnUse">
<stop offset="0.397624" stop-color="white" stop-opacity="0"/>
<stop offset="1" stop-color="white" stop-opacity="0.4"/>
</linearGradient>
</defs>
</svg>
