<svg width="56" height="70" viewBox="0 0 56 70" fill="none" xmlns="http://www.w3.org/2000/svg">
<path d="M20.1572 17.8704C20.551 16.9413 20.8493 16.2478 21.1398 15.5504C23.1498 10.7361 25.1559 5.91983 27.1659 1.10354C27.5168 0.263508 28.0451 -0.186224 28.6007 0.0733128C29.0102 0.263508 29.4235 0.697391 29.597 1.12335C31.7688 6.48448 33.8958 11.8634 36.0344 17.2384C36.1514 17.5317 36.2742 17.8249 36.4341 18.2132C36.668 17.9913 36.861 17.8209 37.0423 17.6386C38.7287 15.9269 40.4268 14.229 42.0917 12.4954C42.661 11.9011 43.2147 11.7683 43.9789 12.1111C46.4431 13.2166 48.9249 14.2864 51.4126 15.3424C52.0481 15.6119 52.4166 16.0279 52.631 16.6956C53.6916 20.0022 54.7912 23.2969 55.8673 26.5976C56.3021 27.931 55.6412 28.668 54.2843 28.3926C51.1416 27.7527 47.9989 27.1147 44.8542 26.4768C44.7158 26.449 44.5716 26.4451 44.361 26.4233V27.2554C44.361 32.248 44.3513 37.2387 44.3727 42.2313C44.3766 42.9287 44.1641 43.4438 43.6806 43.9331C38.0639 49.6192 32.4667 55.323 26.8461 61.0051C26.4991 61.3558 26.0351 61.651 25.5711 61.8075C17.6773 64.5019 9.77578 67.1686 1.87615 69.8492C1.25229 70.0612 0.671323 70.1266 0.234622 69.5223C-0.20403 68.9161 0.0357663 68.3811 0.435426 67.8422C4.7732 61.9779 9.10123 56.1056 13.4293 50.2353C13.5599 50.059 13.6866 49.8787 13.8426 49.6608C13.7002 49.4924 13.5716 49.324 13.4273 49.1694C9.53793 45.0188 5.6505 40.8642 1.74943 36.7235C1.33417 36.2817 1.15676 35.8142 1.15676 35.202C1.16846 24.0062 1.16651 12.8124 1.16066 1.61667C1.16066 0.988627 1.225 0.422004 1.8703 0.130768C2.5624 -0.182262 3.01665 0.213978 3.46505 0.671635C8.84389 6.14371 14.2286 11.6118 19.6055 17.0859C19.7926 17.2761 19.9193 17.5277 20.1591 17.8704H20.1572ZM3.53718 4.21204V34.0232C11.1424 31.7765 18.6911 29.5476 26.2671 27.3089C18.6521 19.5703 11.1229 11.9209 3.53718 4.21204ZM4.50221 36.2084C11.2867 43.4438 17.962 50.5662 24.7523 57.8095C25.6218 48.2601 26.4718 38.9147 27.3316 29.4684C19.6659 31.7309 12.1464 33.9518 4.50026 36.2064L4.50221 36.2084ZM41.3236 42.8137C37.3991 38.8276 33.4766 34.8414 29.5521 30.8532C28.7587 39.5666 27.9574 48.3591 27.1522 57.2072C31.9559 52.3294 36.6797 47.531 41.3236 42.8137ZM41.9942 16.1567C38.1146 20.0993 34.2545 24.0221 30.4938 27.8458C34.311 31.725 38.175 35.6537 41.9942 39.5388V16.1587V16.1567ZM28.396 4.38242C28.2888 4.56866 28.2167 4.66772 28.1699 4.77668C26.1774 9.54147 24.1928 14.3082 22.1867 19.0671C22.0132 19.4772 22.1594 19.6832 22.4187 19.9448C24.3507 21.8923 26.271 23.8517 28.1972 25.8051C28.3259 25.9359 28.4799 26.0409 28.6436 26.1776C30.5211 24.2658 32.3459 22.3856 34.2038 20.5391C34.5645 20.1805 34.5898 19.8972 34.4085 19.4495C33.0185 16.0061 31.6518 12.5529 30.2774 9.10362C29.6613 7.55631 29.0433 6.00899 28.396 4.3844V4.38242ZM4.48467 66.3108C4.51391 66.3504 4.54315 66.39 4.5724 66.4296C10.8734 64.2939 17.1744 62.1582 23.5689 59.9907C20.8278 57.0665 18.1881 54.2532 15.4997 51.3864C11.7916 56.4107 8.13814 61.3598 4.48467 66.3108ZM44.3591 14.8709C44.3591 17.8506 44.3513 20.7115 44.3805 23.5703C44.3805 23.7308 44.6593 23.9904 44.8464 24.032C46.2657 24.3529 47.6948 24.6362 49.1218 24.9235C50.4202 25.187 51.7206 25.4426 53.1184 25.72C52.2255 23.0057 51.3814 20.4143 50.506 17.8308C50.4339 17.6188 50.1804 17.4148 49.964 17.3157C48.8372 16.7986 47.6948 16.3192 46.5582 15.8239C45.8524 15.5168 45.1467 15.2097 44.361 14.8669L44.3591 14.8709Z" fill="url(#paint0_linear_95_153)"/>
<defs>
<linearGradient id="paint0_linear_95_153" x1="-83.5589" y1="35" x2="90.1229" y2="35" gradientUnits="userSpaceOnUse">
<stop offset="0.397624" stop-color="white" stop-opacity="0"/>
<stop offset="1" stop-color="white" stop-opacity="0.4"/>
</linearGradient>
</defs>
</svg>
