<svg width="64" height="72" viewBox="0 0 64 72" fill="none" xmlns="http://www.w3.org/2000/svg">
<path d="M31.5852 72C30.8349 71.5867 30.5841 70.9573 30.5971 70.093C30.638 67.241 30.6101 64.3871 30.6139 61.5331C30.6139 60.6426 31.0392 60.0639 31.7598 59.9286C32.5641 59.7765 33.3683 60.3814 33.3757 61.2513C33.4036 64.3852 33.3906 67.5191 33.3831 70.6529C33.3831 71.3218 32.9095 71.675 32.4192 72H31.5852Z" fill="url(#paint0_linear_95_134)"/>
<path d="M32.0199 16.3063C38.3812 16.3476 44.1687 18.3298 49.5252 21.6853C55.0267 25.1311 59.631 29.5707 63.4682 34.8314C64.1759 35.8028 64.1814 36.1992 63.4682 37.1611C58.485 43.8929 52.4524 49.3697 44.8002 52.823C35.4262 57.0522 26.1618 56.558 17.1092 51.8084C10.4079 48.2931 4.99751 43.2391 0.515766 37.1367C-0.171447 36.2011 -0.175162 35.799 0.515766 34.8671C5.65872 27.9192 11.9105 22.3335 19.871 18.8821C23.7417 17.2044 27.7944 16.3232 32.0199 16.3082V16.3063ZM30.9017 52.8718C35.7327 52.8793 39.7557 52 43.3515 50.403C50.3276 47.303 55.8606 42.3918 60.5652 36.4284C60.8531 36.062 60.7677 35.8385 60.5225 35.5266C56.5367 30.4444 51.897 26.1175 46.2285 23.0118C37.9076 18.4519 29.362 17.7642 20.5954 21.6327C13.6341 24.7046 8.13269 29.6271 3.43921 35.5679C3.11418 35.9794 3.27576 36.2123 3.52465 36.528C6.99229 40.9507 10.9874 44.7929 15.7366 47.7877C20.7013 50.9178 26.0448 52.838 30.8999 52.8774L30.9017 52.8718Z" fill="url(#paint1_linear_95_134)"/>
<path d="M33.3943 6.08552C33.3943 7.53597 33.3999 8.98454 33.3943 10.435C33.3887 11.4458 32.8352 12.0902 31.9957 12.0846C31.1562 12.0789 30.6176 11.4383 30.6157 10.4181C30.612 7.49464 30.6101 4.5712 30.6157 1.64964C30.6157 0.636955 31.1711 -0.00559967 32.0124 3.67823e-05C32.8519 0.00567323 33.3887 0.64635 33.3924 1.66655C33.398 3.13954 33.3924 4.61253 33.3924 6.08552H33.3943Z" fill="url(#paint2_linear_95_134)"/>
<path d="M13.0528 18.1757C12.7723 18.5552 12.5661 19.0738 12.1984 19.2617C11.8288 19.4477 11.2902 19.3462 10.8388 19.2842C10.6457 19.2579 10.4711 19.0174 10.3095 18.854C8.49302 17.0221 6.66168 15.2034 4.88236 13.334C4.56104 12.9977 4.26201 12.4322 4.30287 12.0094C4.34373 11.5942 4.75977 11.0381 5.14424 10.884C5.52685 10.73 6.2345 10.8314 6.5261 11.1114C8.56917 13.0766 10.5472 15.1095 12.5253 17.1442C12.7519 17.3772 12.841 17.7455 13.0583 18.1776L13.0528 18.1757Z" fill="url(#paint3_linear_95_134)"/>
<path d="M58.1971 10.7168C59.4452 10.7544 60.0879 11.8911 59.5808 12.806C59.4805 12.9864 59.3394 13.1499 59.1945 13.2964C57.3335 15.1846 55.4668 17.0653 53.6058 18.9517C53.121 19.4439 52.5713 19.6581 51.9119 19.3688C50.9777 18.9573 50.8272 17.7999 51.6203 16.9827C52.9483 15.6149 54.2967 14.2678 55.6377 12.9113C56.1931 12.3495 56.7261 11.7614 57.3149 11.2372C57.6102 10.9742 58.0077 10.8258 58.199 10.7168H58.1971Z" fill="url(#paint4_linear_95_134)"/>
<path d="M13.1029 55.1921C12.8095 55.7051 12.6683 56.1184 12.3953 56.4002C10.5175 58.3373 8.61746 60.2518 6.71369 62.1588C6.05434 62.8183 5.26125 62.8464 4.67619 62.279C4.06885 61.6928 4.0837 60.8587 4.75977 60.1691C6.64683 58.2415 8.54688 56.3288 10.4451 54.4124C10.9094 53.9427 11.4908 53.6872 12.0702 54.0461C12.477 54.2978 12.7463 54.7788 13.1066 55.1903L13.1029 55.1921Z" fill="url(#paint5_linear_95_134)"/>
<path d="M59.904 61.3528C59.6217 61.7323 59.4155 62.2509 59.0478 62.4369C58.6782 62.6229 58.1395 62.5195 57.6864 62.4557C57.4932 62.4275 57.3186 62.1889 57.157 62.0235C55.3406 60.1917 53.5092 58.373 51.7299 56.5036C51.4086 56.1673 51.1114 55.6017 51.1523 55.1771C51.1931 54.7619 51.611 54.2076 51.9955 54.0555C52.3781 53.9033 53.0839 54.0047 53.3755 54.2866C55.4186 56.2518 57.3966 58.2847 59.3728 60.3194C59.5994 60.5524 59.6886 60.9225 59.904 61.3547V61.3528Z" fill="url(#paint6_linear_95_134)"/>
<path d="M32.0737 23.3406C38.58 23.3706 43.9904 28.4885 44.49 35.0869C44.9785 41.5388 40.4132 47.4138 34.0778 48.4867C25.6511 49.9146 18.2812 42.497 19.6463 33.9653C19.8005 33.0052 20.4171 32.4585 21.2306 32.5618C22.0571 32.6689 22.5437 33.3133 22.4026 34.3072C22.1593 36.0113 22.267 37.6684 22.8335 39.2917C24.4401 43.8817 29.2376 46.636 33.9181 45.6553C38.7471 44.6426 42.0903 40.1842 41.7151 35.2523C41.2341 28.9301 35.0157 24.6971 29.0314 26.6153C28.8104 26.6867 28.5968 26.7826 28.3702 26.8295C27.6031 26.9911 26.9289 26.6097 26.7153 25.9089C26.4961 25.1893 26.8138 24.513 27.527 24.1804C28.5485 23.7032 30.5544 23.3312 32.0756 23.3387L32.0737 23.3406Z" fill="url(#paint7_linear_95_134)"/>
<path d="M31.9809 41.6215C28.92 41.6121 26.4274 39.0625 26.4441 35.9568C26.4609 32.8624 28.9868 30.3504 32.0589 30.3749C35.09 30.3993 37.5621 32.9282 37.5603 36.0019C37.5603 39.102 35.0473 41.6308 31.979 41.6215H31.9809ZM32.0273 38.8089C33.5522 38.7957 34.7929 37.5181 34.7817 35.9719C34.7687 34.4293 33.5076 33.1743 31.979 33.1874C30.4523 33.1987 29.2134 34.4763 29.2264 36.0226C29.2376 37.5651 30.5006 38.822 32.0291 38.8089H32.0273Z" fill="url(#paint8_linear_95_134)"/>
<path d="M23.6544 27.5642C24.4215 27.5623 25.0623 28.2217 25.0456 28.9939C25.0289 29.7417 24.4048 30.3617 23.6656 30.3655C22.9004 30.3692 22.2596 29.7098 22.2763 28.9338C22.2911 28.1842 22.9152 27.5642 23.6544 27.5623V27.5642Z" fill="url(#paint9_linear_95_134)"/>
<defs>
<linearGradient id="paint0_linear_95_134" x1="-95.5001" y1="36" x2="103" y2="36" gradientUnits="userSpaceOnUse">
<stop offset="0.397624" stop-color="white" stop-opacity="0"/>
<stop offset="1" stop-color="white" stop-opacity="0.4"/>
</linearGradient>
<linearGradient id="paint1_linear_95_134" x1="-95.5001" y1="36" x2="103" y2="36" gradientUnits="userSpaceOnUse">
<stop offset="0.397624" stop-color="white" stop-opacity="0"/>
<stop offset="1" stop-color="white" stop-opacity="0.4"/>
</linearGradient>
<linearGradient id="paint2_linear_95_134" x1="-95.5001" y1="36" x2="103" y2="36" gradientUnits="userSpaceOnUse">
<stop offset="0.397624" stop-color="white" stop-opacity="0"/>
<stop offset="1" stop-color="white" stop-opacity="0.4"/>
</linearGradient>
<linearGradient id="paint3_linear_95_134" x1="-95.5001" y1="36" x2="103" y2="36" gradientUnits="userSpaceOnUse">
<stop offset="0.397624" stop-color="white" stop-opacity="0"/>
<stop offset="1" stop-color="white" stop-opacity="0.4"/>
</linearGradient>
<linearGradient id="paint4_linear_95_134" x1="-95.5001" y1="36" x2="103" y2="36" gradientUnits="userSpaceOnUse">
<stop offset="0.397624" stop-color="white" stop-opacity="0"/>
<stop offset="1" stop-color="white" stop-opacity="0.4"/>
</linearGradient>
<linearGradient id="paint5_linear_95_134" x1="-95.5001" y1="36" x2="103" y2="36" gradientUnits="userSpaceOnUse">
<stop offset="0.397624" stop-color="white" stop-opacity="0"/>
<stop offset="1" stop-color="white" stop-opacity="0.4"/>
</linearGradient>
<linearGradient id="paint6_linear_95_134" x1="-95.5001" y1="36" x2="103" y2="36" gradientUnits="userSpaceOnUse">
<stop offset="0.397624" stop-color="white" stop-opacity="0"/>
<stop offset="1" stop-color="white" stop-opacity="0.4"/>
</linearGradient>
<linearGradient id="paint7_linear_95_134" x1="-95.5001" y1="36" x2="103" y2="36" gradientUnits="userSpaceOnUse">
<stop offset="0.397624" stop-color="white" stop-opacity="0"/>
<stop offset="1" stop-color="white" stop-opacity="0.4"/>
</linearGradient>
<linearGradient id="paint8_linear_95_134" x1="-95.5001" y1="36" x2="103" y2="36" gradientUnits="userSpaceOnUse">
<stop offset="0.397624" stop-color="white" stop-opacity="0"/>
<stop offset="1" stop-color="white" stop-opacity="0.4"/>
</linearGradient>
<linearGradient id="paint9_linear_95_134" x1="-95.5001" y1="36" x2="103" y2="36" gradientUnits="userSpaceOnUse">
<stop offset="0.397624" stop-color="white" stop-opacity="0"/>
<stop offset="1" stop-color="white" stop-opacity="0.4"/>
</linearGradient>
</defs>
</svg>
