<svg width="200" height="196" viewBox="0 0 200 196" fill="none" xmlns="http://www.w3.org/2000/svg">
<g style="mix-blend-mode:soft-light" opacity="0.5">
<path d="M9.79995 119.891C9.79995 95.6682 22.4431 53.8945 56.6281 37.5852C59.8378 36.054 61.8464 39.9764 59.1733 42.3105C35.8325 62.6906 27.9564 83.8045 49 81.0225C70.6495 81.0225 88.2 98.4245 88.2 119.891C88.2 141.358 70.6495 158.76 49 158.76C27.3504 158.76 9.79995 141.358 9.79995 119.891Z" fill="url(#paint0_linear_289_251)"/>
<path d="M107.8 119.891C107.8 95.6682 120.443 53.8945 154.628 37.5852C157.838 36.054 159.846 39.9764 157.173 42.3105C133.832 62.6906 125.956 83.8045 147 81.0225C168.65 81.0225 186.2 98.4245 186.2 119.891C186.2 141.358 168.65 158.76 147 158.76C125.35 158.76 107.8 141.358 107.8 119.891Z" fill="url(#paint1_linear_289_251)"/>
</g>
<defs>
<linearGradient id="paint0_linear_289_251" x1="97.075" y1="201.799" x2="-20.7344" y2="46.2276" gradientUnits="userSpaceOnUse">
<stop stop-color="#636262"/>
<stop offset="0.582575" stop-color="#C8C8C8"/>
<stop offset="0.746344" stop-color="#DCDCDC"/>
<stop offset="0.892397" stop-color="#C8C8C8"/>
<stop offset="1" stop-color="#5B5A5A"/>
</linearGradient>
<linearGradient id="paint1_linear_289_251" x1="195.075" y1="201.799" x2="77.2656" y2="46.2276" gradientUnits="userSpaceOnUse">
<stop stop-color="#636262"/>
<stop offset="0.582575" stop-color="#C8C8C8"/>
<stop offset="0.746344" stop-color="#DCDCDC"/>
<stop offset="0.892397" stop-color="#C8C8C8"/>
<stop offset="1" stop-color="#5B5A5A"/>
</linearGradient>
</defs>
</svg>
