<svg width="254" height="68" viewBox="0 0 254 68" fill="none" xmlns="http://www.w3.org/2000/svg">
<rect x="0.25" y="0.25" width="47.5" height="29.5" rx="7.75" fill="#F98948"/>
<path d="M10.984 19V10.672H12.112V19H10.984ZM11.752 15.34V14.308H16.096V15.34H11.752ZM11.752 11.704V10.672H16.3V11.704H11.752ZM19.9585 19.12C19.3985 19.12 18.8945 18.988 18.4465 18.724C17.9985 18.46 17.6425 18.104 17.3785 17.656C17.1145 17.2 16.9825 16.692 16.9825 16.132C16.9825 15.58 17.1145 15.084 17.3785 14.644C17.6425 14.196 17.9985 13.84 18.4465 13.576C18.8945 13.312 19.3985 13.18 19.9585 13.18C20.5105 13.18 21.0105 13.312 21.4585 13.576C21.9145 13.832 22.2745 14.184 22.5385 14.632C22.8025 15.08 22.9345 15.58 22.9345 16.132C22.9345 16.692 22.8025 17.2 22.5385 17.656C22.2745 18.104 21.9145 18.46 21.4585 18.724C21.0105 18.988 20.5105 19.12 19.9585 19.12ZM19.9585 18.076C20.3185 18.076 20.6385 17.992 20.9185 17.824C21.1985 17.656 21.4185 17.428 21.5785 17.14C21.7385 16.844 21.8185 16.508 21.8185 16.132C21.8185 15.764 21.7345 15.436 21.5665 15.148C21.4065 14.86 21.1865 14.636 20.9065 14.476C20.6345 14.308 20.3185 14.224 19.9585 14.224C19.5985 14.224 19.2785 14.308 18.9985 14.476C18.7185 14.636 18.4985 14.86 18.3385 15.148C18.1785 15.436 18.0985 15.764 18.0985 16.132C18.0985 16.508 18.1785 16.844 18.3385 17.14C18.4985 17.428 18.7185 17.656 18.9985 17.824C19.2785 17.992 19.5985 18.076 19.9585 18.076ZM26.7554 19.12C26.1954 19.12 25.6914 18.988 25.2434 18.724C24.7954 18.46 24.4394 18.104 24.1754 17.656C23.9114 17.2 23.7794 16.692 23.7794 16.132C23.7794 15.58 23.9114 15.084 24.1754 14.644C24.4394 14.196 24.7954 13.84 25.2434 13.576C25.6914 13.312 26.1954 13.18 26.7554 13.18C27.3074 13.18 27.8074 13.312 28.2554 13.576C28.7114 13.832 29.0714 14.184 29.3354 14.632C29.5994 15.08 29.7314 15.58 29.7314 16.132C29.7314 16.692 29.5994 17.2 29.3354 17.656C29.0714 18.104 28.7114 18.46 28.2554 18.724C27.8074 18.988 27.3074 19.12 26.7554 19.12ZM26.7554 18.076C27.1154 18.076 27.4354 17.992 27.7154 17.824C27.9954 17.656 28.2154 17.428 28.3754 17.14C28.5354 16.844 28.6154 16.508 28.6154 16.132C28.6154 15.764 28.5314 15.436 28.3634 15.148C28.2034 14.86 27.9834 14.636 27.7034 14.476C27.4314 14.308 27.1154 14.224 26.7554 14.224C26.3954 14.224 26.0754 14.308 25.7954 14.476C25.5154 14.636 25.2954 14.86 25.1354 15.148C24.9754 15.436 24.8954 15.764 24.8954 16.132C24.8954 16.508 24.9754 16.844 25.1354 17.14C25.2954 17.428 25.5154 17.656 25.7954 17.824C26.0754 17.992 26.3954 18.076 26.7554 18.076ZM33.3603 19.12C32.8323 19.12 32.3603 18.992 31.9443 18.736C31.5283 18.472 31.1963 18.116 30.9482 17.668C30.7083 17.22 30.5883 16.716 30.5883 16.156C30.5883 15.596 30.7083 15.092 30.9482 14.644C31.1963 14.196 31.5283 13.84 31.9443 13.576C32.3603 13.312 32.8323 13.18 33.3603 13.18C33.7843 13.18 34.1683 13.272 34.5123 13.456C34.8563 13.632 35.1323 13.88 35.3403 14.2C35.5563 14.512 35.6763 14.876 35.7003 15.292V17.008C35.6763 17.416 35.5603 17.78 35.3523 18.1C35.1443 18.42 34.8683 18.672 34.5243 18.856C34.1803 19.032 33.7923 19.12 33.3603 19.12ZM33.5403 18.1C33.9003 18.1 34.2123 18.016 34.4763 17.848C34.7483 17.68 34.9603 17.452 35.1123 17.164C35.2643 16.868 35.3403 16.532 35.3403 16.156C35.3403 15.764 35.2603 15.424 35.1003 15.136C34.9483 14.848 34.7363 14.62 34.4643 14.452C34.2003 14.284 33.8883 14.2 33.5283 14.2C33.1683 14.2 32.8523 14.284 32.5803 14.452C32.3083 14.62 32.0923 14.852 31.9323 15.148C31.7803 15.436 31.7043 15.768 31.7043 16.144C31.7043 16.528 31.7803 16.868 31.9323 17.164C32.0923 17.452 32.3083 17.68 32.5803 17.848C32.8603 18.016 33.1803 18.1 33.5403 18.1ZM36.3603 19H35.2683V17.464L35.4723 16.072L35.2683 14.692V10.432H36.3603V19Z" fill="white"/>
<rect x="0.25" y="0.25" width="47.5" height="29.5" rx="7.75" stroke="#A4A3A3" stroke-width="0.5"/>
<rect x="56.25" y="0.25" width="46.5" height="29.5" rx="7.75" fill="#F98948"/>
<path d="M67.74 15.76V14.776H70.008C70.32 14.776 70.596 14.712 70.836 14.584C71.084 14.456 71.276 14.276 71.412 14.044C71.556 13.812 71.628 13.536 71.628 13.216C71.628 12.896 71.556 12.62 71.412 12.388C71.276 12.156 71.084 11.976 70.836 11.848C70.596 11.72 70.32 11.656 70.008 11.656H67.74V10.672H70.08C70.592 10.672 71.048 10.776 71.448 10.984C71.856 11.192 72.176 11.488 72.408 11.872C72.648 12.248 72.768 12.696 72.768 13.216C72.768 13.728 72.648 14.176 72.408 14.56C72.176 14.936 71.856 15.232 71.448 15.448C71.048 15.656 70.592 15.76 70.08 15.76H67.74ZM66.984 19V10.672H68.112V19H66.984ZM74.0693 19V13.3H75.1493V19H74.0693ZM75.1493 15.748L74.7413 15.568C74.7413 14.84 74.9093 14.26 75.2453 13.828C75.5813 13.396 76.0653 13.18 76.6973 13.18C76.9853 13.18 77.2453 13.232 77.4773 13.336C77.7093 13.432 77.9253 13.596 78.1253 13.828L77.4173 14.56C77.2973 14.432 77.1653 14.34 77.0213 14.284C76.8773 14.228 76.7093 14.2 76.5173 14.2C76.1173 14.2 75.7893 14.328 75.5333 14.584C75.2773 14.84 75.1493 15.228 75.1493 15.748ZM78.8978 19V13.3H79.9778V19H78.8978ZM79.4378 12.16C79.2378 12.16 79.0738 12.096 78.9458 11.968C78.8178 11.832 78.7538 11.664 78.7538 11.464C78.7538 11.272 78.8178 11.112 78.9458 10.984C79.0738 10.848 79.2378 10.78 79.4378 10.78C79.6378 10.78 79.8018 10.848 79.9298 10.984C80.0578 11.112 80.1218 11.272 80.1218 11.464C80.1218 11.664 80.0578 11.832 79.9298 11.968C79.8018 12.096 79.6378 12.16 79.4378 12.16ZM84.1733 19.12C83.6133 19.12 83.1053 18.988 82.6493 18.724C82.2013 18.46 81.8453 18.104 81.5813 17.656C81.3253 17.2 81.1973 16.696 81.1973 16.144C81.1973 15.584 81.3253 15.08 81.5813 14.632C81.8453 14.184 82.2013 13.832 82.6493 13.576C83.1053 13.312 83.6133 13.18 84.1733 13.18C84.6133 13.18 85.0213 13.264 85.3973 13.432C85.7733 13.592 86.0973 13.828 86.3693 14.14L85.6493 14.86C85.4733 14.652 85.2573 14.496 85.0013 14.392C84.7533 14.28 84.4773 14.224 84.1733 14.224C83.8133 14.224 83.4933 14.308 83.2133 14.476C82.9333 14.636 82.7133 14.86 82.5533 15.148C82.3933 15.436 82.3133 15.768 82.3133 16.144C82.3133 16.52 82.3933 16.852 82.5533 17.14C82.7133 17.428 82.9333 17.656 83.2133 17.824C83.4933 17.992 83.8133 18.076 84.1733 18.076C84.4773 18.076 84.7533 18.024 85.0013 17.92C85.2573 17.808 85.4773 17.648 85.6613 17.44L86.3693 18.16C86.1053 18.464 85.7813 18.7 85.3973 18.868C85.0213 19.036 84.6133 19.12 84.1733 19.12ZM89.9633 19.12C89.3953 19.12 88.8833 18.992 88.4273 18.736C87.9713 18.472 87.6113 18.116 87.3473 17.668C87.0833 17.22 86.9513 16.712 86.9513 16.144C86.9513 15.584 87.0793 15.08 87.3353 14.632C87.5993 14.184 87.9513 13.832 88.3913 13.576C88.8393 13.312 89.3393 13.18 89.8913 13.18C90.4193 13.18 90.8833 13.3 91.2833 13.54C91.6913 13.78 92.0073 14.112 92.2313 14.536C92.4633 14.96 92.5793 15.44 92.5793 15.976C92.5793 16.056 92.5753 16.144 92.5673 16.24C92.5593 16.328 92.5433 16.432 92.5193 16.552H87.7073V15.652H91.9433L91.5473 16C91.5473 15.616 91.4793 15.292 91.3433 15.028C91.2073 14.756 91.0153 14.548 90.7673 14.404C90.5193 14.252 90.2193 14.176 89.8673 14.176C89.4993 14.176 89.1753 14.256 88.8953 14.416C88.6153 14.576 88.3993 14.8 88.2473 15.088C88.0953 15.376 88.0193 15.716 88.0193 16.108C88.0193 16.508 88.0993 16.86 88.2593 17.164C88.4193 17.46 88.6473 17.692 88.9433 17.86C89.2393 18.02 89.5793 18.1 89.9633 18.1C90.2833 18.1 90.5753 18.044 90.8393 17.932C91.1113 17.82 91.3433 17.652 91.5353 17.428L92.2313 18.136C91.9593 18.456 91.6233 18.7 91.2233 18.868C90.8313 19.036 90.4113 19.12 89.9633 19.12Z" fill="white"/>
<rect x="56.25" y="0.25" width="46.5" height="29.5" rx="7.75" stroke="#A4A3A3" stroke-width="0.5"/>
<rect x="111.25" y="0.25" width="81.5" height="29.5" rx="7.75" fill="#F98948"/>
<path d="M122.74 15.376V14.428H124.996C125.484 14.428 125.86 14.304 126.124 14.056C126.388 13.808 126.52 13.472 126.52 13.048C126.52 12.648 126.388 12.316 126.124 12.052C125.868 11.788 125.496 11.656 125.008 11.656H122.74V10.672H125.044C125.572 10.672 126.032 10.776 126.424 10.984C126.816 11.184 127.116 11.46 127.324 11.812C127.54 12.164 127.648 12.568 127.648 13.024C127.648 13.496 127.54 13.908 127.324 14.26C127.116 14.612 126.816 14.888 126.424 15.088C126.032 15.28 125.572 15.376 125.044 15.376H122.74ZM121.984 19V10.672H123.112V19H121.984ZM126.784 19L123.76 15.268L124.828 14.896L128.212 19H126.784ZM131.423 19.12C130.903 19.12 130.431 18.992 130.007 18.736C129.583 18.472 129.247 18.116 128.999 17.668C128.759 17.22 128.639 16.716 128.639 16.156C128.639 15.596 128.759 15.092 128.999 14.644C129.247 14.196 129.579 13.84 129.995 13.576C130.419 13.312 130.895 13.18 131.423 13.18C131.855 13.18 132.239 13.272 132.575 13.456C132.919 13.632 133.195 13.88 133.403 14.2C133.611 14.512 133.727 14.876 133.751 15.292V17.008C133.727 17.416 133.611 17.78 133.403 18.1C133.203 18.42 132.931 18.672 132.587 18.856C132.251 19.032 131.863 19.12 131.423 19.12ZM131.603 18.1C132.139 18.1 132.571 17.92 132.899 17.56C133.227 17.192 133.391 16.724 133.391 16.156C133.391 15.764 133.315 15.424 133.163 15.136C133.019 14.84 132.811 14.612 132.539 14.452C132.267 14.284 131.951 14.2 131.591 14.2C131.231 14.2 130.911 14.284 130.631 14.452C130.359 14.62 130.143 14.852 129.983 15.148C129.831 15.436 129.755 15.768 129.755 16.144C129.755 16.528 129.831 16.868 129.983 17.164C130.143 17.452 130.363 17.68 130.643 17.848C130.923 18.016 131.243 18.1 131.603 18.1ZM133.319 19V17.464L133.523 16.072L133.319 14.692V13.3H134.411V19H133.319ZM136.836 19V10.912H137.916V19H136.836ZM135.432 14.284V13.3H139.32V14.284H135.432ZM140.39 19V13.3H141.47V19H140.39ZM140.93 12.16C140.73 12.16 140.566 12.096 140.438 11.968C140.31 11.832 140.246 11.664 140.246 11.464C140.246 11.272 140.31 11.112 140.438 10.984C140.566 10.848 140.73 10.78 140.93 10.78C141.13 10.78 141.294 10.848 141.422 10.984C141.55 11.112 141.614 11.272 141.614 11.464C141.614 11.664 141.55 11.832 141.422 11.968C141.294 12.096 141.13 12.16 140.93 12.16ZM147.094 19V15.676C147.094 15.244 146.958 14.888 146.686 14.608C146.414 14.328 146.062 14.188 145.63 14.188C145.342 14.188 145.086 14.252 144.862 14.38C144.638 14.508 144.462 14.684 144.334 14.908C144.206 15.132 144.142 15.388 144.142 15.676L143.698 15.424C143.698 14.992 143.794 14.608 143.986 14.272C144.178 13.936 144.446 13.672 144.79 13.48C145.134 13.28 145.522 13.18 145.954 13.18C146.386 13.18 146.766 13.288 147.094 13.504C147.43 13.72 147.694 14.004 147.886 14.356C148.078 14.7 148.174 15.068 148.174 15.46V19H147.094ZM143.062 19V13.3H144.142V19H143.062ZM152 21.508C151.416 21.508 150.896 21.4 150.44 21.184C149.992 20.968 149.632 20.664 149.36 20.272L150.056 19.564C150.288 19.86 150.564 20.084 150.884 20.236C151.204 20.396 151.584 20.476 152.024 20.476C152.608 20.476 153.068 20.32 153.404 20.008C153.748 19.704 153.92 19.292 153.92 18.772V17.356L154.112 16.072L153.92 14.8V13.3H155V18.772C155 19.316 154.872 19.792 154.616 20.2C154.368 20.608 154.016 20.928 153.56 21.16C153.112 21.392 152.592 21.508 152 21.508ZM152 18.904C151.48 18.904 151.012 18.78 150.596 18.532C150.188 18.284 149.864 17.944 149.624 17.512C149.384 17.072 149.264 16.58 149.264 16.036C149.264 15.492 149.384 15.008 149.624 14.584C149.864 14.152 150.188 13.812 150.596 13.564C151.012 13.308 151.48 13.18 152 13.18C152.448 13.18 152.844 13.268 153.188 13.444C153.532 13.62 153.804 13.868 154.004 14.188C154.212 14.5 154.324 14.868 154.34 15.292V16.804C154.316 17.22 154.2 17.588 153.992 17.908C153.792 18.22 153.52 18.464 153.176 18.64C152.832 18.816 152.44 18.904 152 18.904ZM152.216 17.884C152.568 17.884 152.876 17.808 153.14 17.656C153.412 17.504 153.62 17.292 153.764 17.02C153.908 16.74 153.98 16.416 153.98 16.048C153.98 15.68 153.904 15.36 153.752 15.088C153.608 14.808 153.404 14.592 153.14 14.44C152.876 14.28 152.564 14.2 152.204 14.2C151.844 14.2 151.528 14.28 151.256 14.44C150.984 14.592 150.768 14.808 150.608 15.088C150.456 15.36 150.38 15.676 150.38 16.036C150.38 16.396 150.456 16.716 150.608 16.996C150.768 17.276 150.984 17.496 151.256 17.656C151.536 17.808 151.856 17.884 152.216 17.884ZM158.685 16.132L161.721 10.672H162.993L159.897 16.132H158.685ZM158.685 16.828V16.132L159.165 15.82H165.069V16.828H158.685ZM162.753 19V13.492H163.869V19H162.753ZM166.709 19.12C166.485 19.12 166.297 19.044 166.145 18.892C166.001 18.732 165.929 18.544 165.929 18.328C165.929 18.104 166.001 17.92 166.145 17.776C166.297 17.624 166.485 17.548 166.709 17.548C166.933 17.548 167.117 17.624 167.261 17.776C167.413 17.92 167.489 18.104 167.489 18.328C167.489 18.544 167.413 18.732 167.261 18.892C167.117 19.044 166.933 19.12 166.709 19.12ZM172.081 19.12C171.457 19.12 170.885 18.944 170.365 18.592C169.853 18.24 169.445 17.744 169.141 17.104C168.837 16.456 168.685 15.696 168.685 14.824C168.685 13.952 168.833 13.196 169.129 12.556C169.433 11.916 169.841 11.424 170.353 11.08C170.865 10.728 171.429 10.552 172.045 10.552C172.677 10.552 173.249 10.728 173.761 11.08C174.273 11.424 174.677 11.916 174.973 12.556C175.277 13.196 175.429 13.956 175.429 14.836C175.429 15.708 175.277 16.468 174.973 17.116C174.677 17.756 174.273 18.252 173.761 18.604C173.257 18.948 172.697 19.12 172.081 19.12ZM172.057 18.052C172.497 18.052 172.881 17.932 173.209 17.692C173.545 17.444 173.809 17.08 174.001 16.6C174.193 16.12 174.289 15.528 174.289 14.824C174.289 14.12 174.193 13.532 174.001 13.06C173.809 12.58 173.545 12.22 173.209 11.98C172.873 11.732 172.485 11.608 172.045 11.608C171.613 11.608 171.229 11.732 170.893 11.98C170.557 12.22 170.293 12.58 170.101 13.06C169.917 13.532 169.825 14.12 169.825 14.824C169.825 15.528 169.917 16.12 170.101 16.6C170.293 17.08 170.557 17.444 170.893 17.692C171.229 17.932 171.617 18.052 172.057 18.052ZM176.704 15.472V14.5H181.792V15.472H176.704ZM178.756 12.316H179.752V17.656H178.756V12.316Z" fill="white"/>
<rect x="111.25" y="0.25" width="81.5" height="29.5" rx="7.75" stroke="#A4A3A3" stroke-width="0.5"/>
<rect x="0.25" y="38.25" width="66.5" height="29.5" rx="7.75" fill="#F98948"/>
<path d="M11.728 57V55.968H14.044C14.66 55.968 15.2 55.836 15.664 55.572C16.128 55.3 16.488 54.928 16.744 54.456C17.008 53.984 17.14 53.44 17.14 52.824C17.14 52.216 17.008 51.676 16.744 51.204C16.48 50.732 16.116 50.364 15.652 50.1C15.188 49.836 14.652 49.704 14.044 49.704H11.74V48.672H14.068C14.676 48.672 15.236 48.776 15.748 48.984C16.268 49.192 16.716 49.484 17.092 49.86C17.476 50.236 17.772 50.676 17.98 51.18C18.196 51.684 18.304 52.236 18.304 52.836C18.304 53.428 18.196 53.98 17.98 54.492C17.772 54.996 17.48 55.436 17.104 55.812C16.728 56.188 16.28 56.48 15.76 56.688C15.248 56.896 14.692 57 14.092 57H11.728ZM10.984 57V48.672H12.112V57H10.984ZM19.6868 57V51.3H20.7668V57H19.6868ZM20.2268 50.16C20.0268 50.16 19.8628 50.096 19.7348 49.968C19.6068 49.832 19.5428 49.664 19.5428 49.464C19.5428 49.272 19.6068 49.112 19.7348 48.984C19.8628 48.848 20.0268 48.78 20.2268 48.78C20.4268 48.78 20.5908 48.848 20.7188 48.984C20.8468 49.112 20.9108 49.272 20.9108 49.464C20.9108 49.664 20.8468 49.832 20.7188 49.968C20.5908 50.096 20.4268 50.16 20.2268 50.16ZM24.1704 57.12C23.8504 57.12 23.5464 57.08 23.2584 57C22.9784 56.912 22.7184 56.792 22.4784 56.64C22.2384 56.48 22.0304 56.292 21.8544 56.076L22.5504 55.38C22.7584 55.636 22.9984 55.828 23.2704 55.956C23.5424 56.076 23.8464 56.136 24.1824 56.136C24.5184 56.136 24.7784 56.08 24.9624 55.968C25.1464 55.848 25.2384 55.684 25.2384 55.476C25.2384 55.268 25.1624 55.108 25.0104 54.996C24.8664 54.876 24.6784 54.78 24.4464 54.708C24.2144 54.628 23.9664 54.552 23.7024 54.48C23.4464 54.4 23.2024 54.3 22.9704 54.18C22.7384 54.06 22.5464 53.896 22.3944 53.688C22.2504 53.48 22.1784 53.204 22.1784 52.86C22.1784 52.516 22.2624 52.22 22.4304 51.972C22.5984 51.716 22.8304 51.52 23.1264 51.384C23.4304 51.248 23.7944 51.18 24.2184 51.18C24.6664 51.18 25.0624 51.26 25.4064 51.42C25.7584 51.572 26.0464 51.804 26.2704 52.116L25.5744 52.812C25.4144 52.604 25.2144 52.444 24.9744 52.332C24.7424 52.22 24.4784 52.164 24.1824 52.164C23.8704 52.164 23.6304 52.22 23.4624 52.332C23.3024 52.436 23.2224 52.584 23.2224 52.776C23.2224 52.968 23.2944 53.116 23.4384 53.22C23.5824 53.324 23.7704 53.412 24.0024 53.484C24.2424 53.556 24.4904 53.632 24.7464 53.712C25.0024 53.784 25.2464 53.884 25.4784 54.012C25.7104 54.14 25.8984 54.312 26.0424 54.528C26.1944 54.744 26.2704 55.028 26.2704 55.38C26.2704 55.916 26.0784 56.34 25.6944 56.652C25.3184 56.964 24.8104 57.12 24.1704 57.12ZM28.3555 57V48.912H29.4355V57H28.3555ZM26.9515 52.284V51.3H30.8395V52.284H26.9515ZM34.1457 57.12C33.6257 57.12 33.1537 56.992 32.7297 56.736C32.3057 56.472 31.9697 56.116 31.7217 55.668C31.4817 55.22 31.3617 54.716 31.3617 54.156C31.3617 53.596 31.4817 53.092 31.7217 52.644C31.9697 52.196 32.3017 51.84 32.7177 51.576C33.1417 51.312 33.6177 51.18 34.1457 51.18C34.5777 51.18 34.9617 51.272 35.2977 51.456C35.6417 51.632 35.9177 51.88 36.1257 52.2C36.3337 52.512 36.4497 52.876 36.4737 53.292V55.008C36.4497 55.416 36.3337 55.78 36.1257 56.1C35.9257 56.42 35.6537 56.672 35.3097 56.856C34.9737 57.032 34.5857 57.12 34.1457 57.12ZM34.3257 56.1C34.8617 56.1 35.2937 55.92 35.6217 55.56C35.9497 55.192 36.1137 54.724 36.1137 54.156C36.1137 53.764 36.0377 53.424 35.8857 53.136C35.7417 52.84 35.5337 52.612 35.2617 52.452C34.9897 52.284 34.6737 52.2 34.3137 52.2C33.9537 52.2 33.6337 52.284 33.3537 52.452C33.0817 52.62 32.8657 52.852 32.7057 53.148C32.5537 53.436 32.4777 53.768 32.4777 54.144C32.4777 54.528 32.5537 54.868 32.7057 55.164C32.8657 55.452 33.0857 55.68 33.3657 55.848C33.6457 56.016 33.9657 56.1 34.3257 56.1ZM36.0417 57V55.464L36.2457 54.072L36.0417 52.692V51.3H37.1337V57H36.0417ZM42.7381 57V53.676C42.7381 53.244 42.6021 52.888 42.3301 52.608C42.0581 52.328 41.7061 52.188 41.2741 52.188C40.9861 52.188 40.7301 52.252 40.5061 52.38C40.2821 52.508 40.1061 52.684 39.9781 52.908C39.8501 53.132 39.7861 53.388 39.7861 53.676L39.3421 53.424C39.3421 52.992 39.4381 52.608 39.6301 52.272C39.8221 51.936 40.0901 51.672 40.4341 51.48C40.7781 51.28 41.1661 51.18 41.5981 51.18C42.0301 51.18 42.4101 51.288 42.7381 51.504C43.0741 51.72 43.3381 52.004 43.5301 52.356C43.7221 52.7 43.8181 53.068 43.8181 53.46V57H42.7381ZM38.7061 57V51.3H39.7861V57H38.7061ZM47.8843 57.12C47.3243 57.12 46.8163 56.988 46.3603 56.724C45.9123 56.46 45.5563 56.104 45.2923 55.656C45.0363 55.2 44.9083 54.696 44.9083 54.144C44.9083 53.584 45.0363 53.08 45.2923 52.632C45.5563 52.184 45.9123 51.832 46.3603 51.576C46.8163 51.312 47.3243 51.18 47.8843 51.18C48.3243 51.18 48.7323 51.264 49.1083 51.432C49.4843 51.592 49.8083 51.828 50.0803 52.14L49.3603 52.86C49.1843 52.652 48.9683 52.496 48.7123 52.392C48.4643 52.28 48.1883 52.224 47.8843 52.224C47.5243 52.224 47.2043 52.308 46.9243 52.476C46.6443 52.636 46.4243 52.86 46.2643 53.148C46.1043 53.436 46.0243 53.768 46.0243 54.144C46.0243 54.52 46.1043 54.852 46.2643 55.14C46.4243 55.428 46.6443 55.656 46.9243 55.824C47.2043 55.992 47.5243 56.076 47.8843 56.076C48.1883 56.076 48.4643 56.024 48.7123 55.92C48.9683 55.808 49.1883 55.648 49.3723 55.44L50.0803 56.16C49.8163 56.464 49.4923 56.7 49.1083 56.868C48.7323 57.036 48.3243 57.12 47.8843 57.12ZM53.6742 57.12C53.1062 57.12 52.5942 56.992 52.1382 56.736C51.6822 56.472 51.3222 56.116 51.0582 55.668C50.7942 55.22 50.6622 54.712 50.6622 54.144C50.6622 53.584 50.7902 53.08 51.0462 52.632C51.3102 52.184 51.6622 51.832 52.1022 51.576C52.5502 51.312 53.0502 51.18 53.6022 51.18C54.1302 51.18 54.5942 51.3 54.9942 51.54C55.4022 51.78 55.7182 52.112 55.9422 52.536C56.1742 52.96 56.2902 53.44 56.2902 53.976C56.2902 54.056 56.2862 54.144 56.2782 54.24C56.2702 54.328 56.2542 54.432 56.2302 54.552H51.4182V53.652H55.6542L55.2582 54C55.2582 53.616 55.1902 53.292 55.0542 53.028C54.9182 52.756 54.7262 52.548 54.4782 52.404C54.2302 52.252 53.9302 52.176 53.5782 52.176C53.2102 52.176 52.8862 52.256 52.6062 52.416C52.3262 52.576 52.1102 52.8 51.9582 53.088C51.8062 53.376 51.7302 53.716 51.7302 54.108C51.7302 54.508 51.8102 54.86 51.9702 55.164C52.1302 55.46 52.3582 55.692 52.6542 55.86C52.9502 56.02 53.2902 56.1 53.6742 56.1C53.9942 56.1 54.2862 56.044 54.5502 55.932C54.8222 55.82 55.0542 55.652 55.2462 55.428L55.9422 56.136C55.6702 56.456 55.3342 56.7 54.9342 56.868C54.5422 57.036 54.1222 57.12 53.6742 57.12Z" fill="white"/>
<rect x="0.25" y="38.25" width="66.5" height="29.5" rx="7.75" stroke="#A4A3A3" stroke-width="0.5"/>
<rect x="75.25" y="38.25" width="83.5" height="29.5" rx="7.75" fill="#F98948"/>
<path d="M86.74 53.376V52.428H88.996C89.484 52.428 89.86 52.304 90.124 52.056C90.388 51.808 90.52 51.472 90.52 51.048C90.52 50.648 90.388 50.316 90.124 50.052C89.868 49.788 89.496 49.656 89.008 49.656H86.74V48.672H89.044C89.572 48.672 90.032 48.776 90.424 48.984C90.816 49.184 91.116 49.46 91.324 49.812C91.54 50.164 91.648 50.568 91.648 51.024C91.648 51.496 91.54 51.908 91.324 52.26C91.116 52.612 90.816 52.888 90.424 53.088C90.032 53.28 89.572 53.376 89.044 53.376H86.74ZM85.984 57V48.672H87.112V57H85.984ZM90.784 57L87.76 53.268L88.828 52.896L92.212 57H90.784ZM95.639 57.12C95.071 57.12 94.559 56.992 94.103 56.736C93.647 56.472 93.287 56.116 93.023 55.668C92.759 55.22 92.627 54.712 92.627 54.144C92.627 53.584 92.755 53.08 93.011 52.632C93.275 52.184 93.627 51.832 94.067 51.576C94.515 51.312 95.015 51.18 95.567 51.18C96.095 51.18 96.559 51.3 96.959 51.54C97.367 51.78 97.683 52.112 97.907 52.536C98.139 52.96 98.255 53.44 98.255 53.976C98.255 54.056 98.251 54.144 98.243 54.24C98.235 54.328 98.219 54.432 98.195 54.552H93.383V53.652H97.619L97.223 54C97.223 53.616 97.155 53.292 97.019 53.028C96.883 52.756 96.691 52.548 96.443 52.404C96.195 52.252 95.895 52.176 95.543 52.176C95.175 52.176 94.851 52.256 94.571 52.416C94.291 52.576 94.075 52.8 93.923 53.088C93.771 53.376 93.695 53.716 93.695 54.108C93.695 54.508 93.775 54.86 93.935 55.164C94.095 55.46 94.323 55.692 94.619 55.86C94.915 56.02 95.255 56.1 95.639 56.1C95.959 56.1 96.251 56.044 96.515 55.932C96.787 55.82 97.019 55.652 97.211 55.428L97.907 56.136C97.635 56.456 97.299 56.7 96.899 56.868C96.507 57.036 96.087 57.12 95.639 57.12ZM101.245 57.12C100.925 57.12 100.621 57.08 100.333 57C100.053 56.912 99.7926 56.792 99.5526 56.64C99.3126 56.48 99.1046 56.292 98.9286 56.076L99.6246 55.38C99.8326 55.636 100.073 55.828 100.345 55.956C100.617 56.076 100.921 56.136 101.257 56.136C101.593 56.136 101.853 56.08 102.037 55.968C102.221 55.848 102.313 55.684 102.313 55.476C102.313 55.268 102.237 55.108 102.085 54.996C101.941 54.876 101.753 54.78 101.521 54.708C101.289 54.628 101.041 54.552 100.777 54.48C100.521 54.4 100.277 54.3 100.045 54.18C99.8126 54.06 99.6206 53.896 99.4686 53.688C99.3246 53.48 99.2526 53.204 99.2526 52.86C99.2526 52.516 99.3366 52.22 99.5046 51.972C99.6726 51.716 99.9046 51.52 100.201 51.384C100.505 51.248 100.869 51.18 101.293 51.18C101.741 51.18 102.137 51.26 102.481 51.42C102.833 51.572 103.121 51.804 103.345 52.116L102.649 52.812C102.489 52.604 102.289 52.444 102.049 52.332C101.817 52.22 101.553 52.164 101.257 52.164C100.945 52.164 100.705 52.22 100.537 52.332C100.377 52.436 100.297 52.584 100.297 52.776C100.297 52.968 100.369 53.116 100.513 53.22C100.657 53.324 100.845 53.412 101.077 53.484C101.317 53.556 101.565 53.632 101.821 53.712C102.077 53.784 102.321 53.884 102.553 54.012C102.785 54.14 102.973 54.312 103.117 54.528C103.269 54.744 103.345 55.028 103.345 55.38C103.345 55.916 103.153 56.34 102.769 56.652C102.393 56.964 101.885 57.12 101.245 57.12ZM105.43 57V48.912H106.51V57H105.43ZM104.026 52.284V51.3H107.914V52.284H104.026ZM111.22 57.12C110.7 57.12 110.228 56.992 109.804 56.736C109.38 56.472 109.044 56.116 108.796 55.668C108.556 55.22 108.436 54.716 108.436 54.156C108.436 53.596 108.556 53.092 108.796 52.644C109.044 52.196 109.376 51.84 109.792 51.576C110.216 51.312 110.692 51.18 111.22 51.18C111.652 51.18 112.036 51.272 112.372 51.456C112.716 51.632 112.992 51.88 113.2 52.2C113.408 52.512 113.524 52.876 113.548 53.292V55.008C113.524 55.416 113.408 55.78 113.2 56.1C113 56.42 112.728 56.672 112.384 56.856C112.048 57.032 111.66 57.12 111.22 57.12ZM111.4 56.1C111.936 56.1 112.368 55.92 112.696 55.56C113.024 55.192 113.188 54.724 113.188 54.156C113.188 53.764 113.112 53.424 112.96 53.136C112.816 52.84 112.608 52.612 112.336 52.452C112.064 52.284 111.748 52.2 111.388 52.2C111.028 52.2 110.708 52.284 110.428 52.452C110.156 52.62 109.94 52.852 109.78 53.148C109.628 53.436 109.552 53.768 109.552 54.144C109.552 54.528 109.628 54.868 109.78 55.164C109.94 55.452 110.16 55.68 110.44 55.848C110.72 56.016 111.04 56.1 111.4 56.1ZM113.116 57V55.464L113.32 54.072L113.116 52.692V51.3H114.208V57H113.116ZM118.072 57.12C117.608 57.12 117.188 57.016 116.812 56.808C116.444 56.592 116.156 56.296 115.948 55.92C115.74 55.544 115.636 55.108 115.636 54.612V51.3H116.716V54.564C116.716 54.876 116.768 55.148 116.872 55.38C116.984 55.604 117.144 55.776 117.352 55.896C117.56 56.016 117.804 56.076 118.084 56.076C118.508 56.076 118.84 55.944 119.08 55.68C119.32 55.408 119.44 55.036 119.44 54.564V51.3H120.52V54.612C120.52 55.108 120.416 55.544 120.208 55.92C120 56.296 119.712 56.592 119.344 56.808C118.984 57.016 118.56 57.12 118.072 57.12ZM121.968 57V51.3H123.048V57H121.968ZM123.048 53.748L122.64 53.568C122.64 52.84 122.808 52.26 123.144 51.828C123.48 51.396 123.964 51.18 124.596 51.18C124.884 51.18 125.144 51.232 125.376 51.336C125.608 51.432 125.824 51.596 126.024 51.828L125.316 52.56C125.196 52.432 125.064 52.34 124.92 52.284C124.776 52.228 124.608 52.2 124.416 52.2C124.016 52.2 123.688 52.328 123.432 52.584C123.176 52.84 123.048 53.228 123.048 53.748ZM129.021 57.12C128.501 57.12 128.029 56.992 127.605 56.736C127.181 56.472 126.845 56.116 126.597 55.668C126.357 55.22 126.237 54.716 126.237 54.156C126.237 53.596 126.357 53.092 126.597 52.644C126.845 52.196 127.177 51.84 127.593 51.576C128.017 51.312 128.493 51.18 129.021 51.18C129.453 51.18 129.837 51.272 130.173 51.456C130.517 51.632 130.793 51.88 131.001 52.2C131.209 52.512 131.325 52.876 131.349 53.292V55.008C131.325 55.416 131.209 55.78 131.001 56.1C130.801 56.42 130.529 56.672 130.185 56.856C129.849 57.032 129.461 57.12 129.021 57.12ZM129.201 56.1C129.737 56.1 130.169 55.92 130.497 55.56C130.825 55.192 130.989 54.724 130.989 54.156C130.989 53.764 130.913 53.424 130.761 53.136C130.617 52.84 130.409 52.612 130.137 52.452C129.865 52.284 129.549 52.2 129.189 52.2C128.829 52.2 128.509 52.284 128.229 52.452C127.957 52.62 127.741 52.852 127.581 53.148C127.429 53.436 127.353 53.768 127.353 54.144C127.353 54.528 127.429 54.868 127.581 55.164C127.741 55.452 127.961 55.68 128.241 55.848C128.521 56.016 128.841 56.1 129.201 56.1ZM130.917 57V55.464L131.121 54.072L130.917 52.692V51.3H132.009V57H130.917ZM137.613 57V53.676C137.613 53.244 137.477 52.888 137.205 52.608C136.933 52.328 136.581 52.188 136.149 52.188C135.861 52.188 135.605 52.252 135.381 52.38C135.157 52.508 134.981 52.684 134.853 52.908C134.725 53.132 134.661 53.388 134.661 53.676L134.217 53.424C134.217 52.992 134.313 52.608 134.505 52.272C134.697 51.936 134.965 51.672 135.309 51.48C135.653 51.28 136.041 51.18 136.473 51.18C136.905 51.18 137.285 51.288 137.613 51.504C137.949 51.72 138.213 52.004 138.405 52.356C138.597 52.7 138.693 53.068 138.693 53.46V57H137.613ZM133.581 57V51.3H134.661V57H133.581ZM140.961 57V48.912H142.041V57H140.961ZM139.557 52.284V51.3H143.445V52.284H139.557ZM146.198 57.12C145.878 57.12 145.574 57.08 145.286 57C145.006 56.912 144.746 56.792 144.506 56.64C144.266 56.48 144.058 56.292 143.882 56.076L144.578 55.38C144.786 55.636 145.026 55.828 145.298 55.956C145.57 56.076 145.874 56.136 146.21 56.136C146.546 56.136 146.806 56.08 146.99 55.968C147.174 55.848 147.266 55.684 147.266 55.476C147.266 55.268 147.19 55.108 147.038 54.996C146.894 54.876 146.706 54.78 146.474 54.708C146.242 54.628 145.994 54.552 145.73 54.48C145.474 54.4 145.23 54.3 144.998 54.18C144.766 54.06 144.574 53.896 144.422 53.688C144.278 53.48 144.206 53.204 144.206 52.86C144.206 52.516 144.29 52.22 144.458 51.972C144.626 51.716 144.858 51.52 145.154 51.384C145.458 51.248 145.822 51.18 146.246 51.18C146.694 51.18 147.09 51.26 147.434 51.42C147.786 51.572 148.074 51.804 148.298 52.116L147.602 52.812C147.442 52.604 147.242 52.444 147.002 52.332C146.77 52.22 146.506 52.164 146.21 52.164C145.898 52.164 145.658 52.22 145.49 52.332C145.33 52.436 145.25 52.584 145.25 52.776C145.25 52.968 145.322 53.116 145.466 53.22C145.61 53.324 145.798 53.412 146.03 53.484C146.27 53.556 146.518 53.632 146.774 53.712C147.03 53.784 147.274 53.884 147.506 54.012C147.738 54.14 147.926 54.312 148.07 54.528C148.222 54.744 148.298 55.028 148.298 55.38C148.298 55.916 148.106 56.34 147.722 56.652C147.346 56.964 146.838 57.12 146.198 57.12Z" fill="white"/>
<rect x="75.25" y="38.25" width="83.5" height="29.5" rx="7.75" stroke="#A4A3A3" stroke-width="0.5"/>
<rect x="167.25" y="38.25" width="63.5" height="29.5" rx="7.75" fill="#F98948"/>
<path d="M181.764 57.12C181.164 57.12 180.608 57.012 180.096 56.796C179.584 56.572 179.136 56.264 178.752 55.872C178.376 55.48 178.084 55.024 177.876 54.504C177.668 53.984 177.564 53.428 177.564 52.836C177.564 52.236 177.668 51.676 177.876 51.156C178.084 50.636 178.376 50.184 178.752 49.8C179.136 49.408 179.58 49.104 180.084 48.888C180.596 48.664 181.152 48.552 181.752 48.552C182.408 48.552 182.984 48.664 183.48 48.888C183.976 49.112 184.416 49.416 184.8 49.8L184.02 50.58C183.756 50.284 183.432 50.052 183.048 49.884C182.672 49.716 182.24 49.632 181.752 49.632C181.312 49.632 180.908 49.712 180.54 49.872C180.172 50.024 179.852 50.244 179.58 50.532C179.308 50.82 179.096 51.16 178.944 51.552C178.8 51.944 178.728 52.372 178.728 52.836C178.728 53.3 178.8 53.728 178.944 54.12C179.096 54.512 179.308 54.852 179.58 55.14C179.852 55.428 180.172 55.652 180.54 55.812C180.908 55.964 181.312 56.04 181.752 56.04C182.272 56.04 182.724 55.956 183.108 55.788C183.492 55.612 183.816 55.376 184.08 55.08L184.86 55.848C184.476 56.248 184.024 56.56 183.504 56.784C182.992 57.008 182.412 57.12 181.764 57.12ZM188.346 57.12C187.882 57.12 187.462 57.016 187.086 56.808C186.718 56.592 186.43 56.296 186.222 55.92C186.014 55.544 185.91 55.108 185.91 54.612V51.3H186.99V54.564C186.99 54.876 187.042 55.148 187.146 55.38C187.258 55.604 187.418 55.776 187.626 55.896C187.834 56.016 188.078 56.076 188.358 56.076C188.782 56.076 189.114 55.944 189.354 55.68C189.594 55.408 189.714 55.036 189.714 54.564V51.3H190.794V54.612C190.794 55.108 190.69 55.544 190.482 55.92C190.274 56.296 189.986 56.592 189.618 56.808C189.258 57.016 188.834 57.12 188.346 57.12ZM192.253 57V51.3H193.333V57H192.253ZM192.793 50.16C192.593 50.16 192.429 50.096 192.301 49.968C192.173 49.832 192.109 49.664 192.109 49.464C192.109 49.272 192.173 49.112 192.301 48.984C192.429 48.848 192.593 48.78 192.793 48.78C192.993 48.78 193.157 48.848 193.285 48.984C193.413 49.112 193.477 49.272 193.477 49.464C193.477 49.664 193.413 49.832 193.285 49.968C193.157 50.096 192.993 50.16 192.793 50.16ZM196.737 57.12C196.417 57.12 196.113 57.08 195.825 57C195.545 56.912 195.285 56.792 195.045 56.64C194.805 56.48 194.597 56.292 194.421 56.076L195.117 55.38C195.325 55.636 195.565 55.828 195.837 55.956C196.109 56.076 196.413 56.136 196.749 56.136C197.085 56.136 197.345 56.08 197.529 55.968C197.713 55.848 197.805 55.684 197.805 55.476C197.805 55.268 197.729 55.108 197.577 54.996C197.433 54.876 197.245 54.78 197.013 54.708C196.781 54.628 196.533 54.552 196.269 54.48C196.013 54.4 195.769 54.3 195.537 54.18C195.305 54.06 195.113 53.896 194.961 53.688C194.817 53.48 194.745 53.204 194.745 52.86C194.745 52.516 194.829 52.22 194.997 51.972C195.165 51.716 195.397 51.52 195.693 51.384C195.997 51.248 196.361 51.18 196.785 51.18C197.233 51.18 197.629 51.26 197.973 51.42C198.325 51.572 198.613 51.804 198.837 52.116L198.141 52.812C197.981 52.604 197.781 52.444 197.541 52.332C197.309 52.22 197.045 52.164 196.749 52.164C196.437 52.164 196.197 52.22 196.029 52.332C195.869 52.436 195.789 52.584 195.789 52.776C195.789 52.968 195.861 53.116 196.005 53.22C196.149 53.324 196.337 53.412 196.569 53.484C196.809 53.556 197.057 53.632 197.313 53.712C197.569 53.784 197.813 53.884 198.045 54.012C198.277 54.14 198.465 54.312 198.609 54.528C198.761 54.744 198.837 55.028 198.837 55.38C198.837 55.916 198.645 56.34 198.261 56.652C197.885 56.964 197.377 57.12 196.737 57.12ZM200.058 57V51.3H201.138V57H200.058ZM200.598 50.16C200.398 50.16 200.234 50.096 200.106 49.968C199.978 49.832 199.914 49.664 199.914 49.464C199.914 49.272 199.978 49.112 200.106 48.984C200.234 48.848 200.398 48.78 200.598 48.78C200.798 48.78 200.962 48.848 201.09 48.984C201.218 49.112 201.282 49.272 201.282 49.464C201.282 49.664 201.218 49.832 201.09 49.968C200.962 50.096 200.798 50.16 200.598 50.16ZM206.762 57V53.676C206.762 53.244 206.626 52.888 206.354 52.608C206.082 52.328 205.73 52.188 205.298 52.188C205.01 52.188 204.754 52.252 204.53 52.38C204.306 52.508 204.13 52.684 204.002 52.908C203.874 53.132 203.81 53.388 203.81 53.676L203.366 53.424C203.366 52.992 203.462 52.608 203.654 52.272C203.846 51.936 204.114 51.672 204.458 51.48C204.802 51.28 205.19 51.18 205.622 51.18C206.054 51.18 206.434 51.288 206.762 51.504C207.098 51.72 207.362 52.004 207.554 52.356C207.746 52.7 207.842 53.068 207.842 53.46V57H206.762ZM202.729 57V51.3H203.81V57H202.729ZM211.944 57.12C211.376 57.12 210.864 56.992 210.408 56.736C209.952 56.472 209.592 56.116 209.328 55.668C209.064 55.22 208.932 54.712 208.932 54.144C208.932 53.584 209.06 53.08 209.316 52.632C209.58 52.184 209.932 51.832 210.372 51.576C210.82 51.312 211.32 51.18 211.872 51.18C212.4 51.18 212.864 51.3 213.264 51.54C213.672 51.78 213.988 52.112 214.212 52.536C214.444 52.96 214.56 53.44 214.56 53.976C214.56 54.056 214.556 54.144 214.548 54.24C214.54 54.328 214.524 54.432 214.5 54.552H209.688V53.652H213.924L213.528 54C213.528 53.616 213.46 53.292 213.324 53.028C213.188 52.756 212.996 52.548 212.748 52.404C212.5 52.252 212.2 52.176 211.848 52.176C211.48 52.176 211.156 52.256 210.876 52.416C210.596 52.576 210.38 52.8 210.228 53.088C210.076 53.376 210 53.716 210 54.108C210 54.508 210.08 54.86 210.24 55.164C210.4 55.46 210.628 55.692 210.924 55.86C211.22 56.02 211.56 56.1 211.944 56.1C212.264 56.1 212.556 56.044 212.82 55.932C213.092 55.82 213.324 55.652 213.516 55.428L214.212 56.136C213.94 56.456 213.604 56.7 213.204 56.868C212.812 57.036 212.392 57.12 211.944 57.12ZM217.549 57.12C217.229 57.12 216.925 57.08 216.637 57C216.357 56.912 216.097 56.792 215.857 56.64C215.617 56.48 215.409 56.292 215.233 56.076L215.929 55.38C216.137 55.636 216.377 55.828 216.649 55.956C216.921 56.076 217.225 56.136 217.561 56.136C217.897 56.136 218.157 56.08 218.341 55.968C218.525 55.848 218.617 55.684 218.617 55.476C218.617 55.268 218.541 55.108 218.389 54.996C218.245 54.876 218.057 54.78 217.825 54.708C217.593 54.628 217.345 54.552 217.081 54.48C216.825 54.4 216.581 54.3 216.349 54.18C216.117 54.06 215.925 53.896 215.773 53.688C215.629 53.48 215.557 53.204 215.557 52.86C215.557 52.516 215.641 52.22 215.809 51.972C215.977 51.716 216.209 51.52 216.505 51.384C216.809 51.248 217.173 51.18 217.597 51.18C218.045 51.18 218.441 51.26 218.785 51.42C219.137 51.572 219.425 51.804 219.649 52.116L218.953 52.812C218.793 52.604 218.593 52.444 218.353 52.332C218.121 52.22 217.857 52.164 217.561 52.164C217.249 52.164 217.009 52.22 216.841 52.332C216.681 52.436 216.601 52.584 216.601 52.776C216.601 52.968 216.673 53.116 216.817 53.22C216.961 53.324 217.149 53.412 217.381 53.484C217.621 53.556 217.869 53.632 218.125 53.712C218.381 53.784 218.625 53.884 218.857 54.012C219.089 54.14 219.277 54.312 219.421 54.528C219.573 54.744 219.649 55.028 219.649 55.38C219.649 55.916 219.457 56.34 219.073 56.652C218.697 56.964 218.189 57.12 217.549 57.12Z" fill="white"/>
<rect x="167.25" y="38.25" width="63.5" height="29.5" rx="7.75" stroke="#A4A3A3" stroke-width="0.5"/>
</svg>
