<svg width="254" height="68" viewBox="0 0 254 68" fill="none" xmlns="http://www.w3.org/2000/svg">
<rect x="0.25" y="0.25" width="53.5" height="29.5" rx="7.75" fill="white"/>
<path d="M11.74 15.76V14.776H14.008C14.32 14.776 14.596 14.712 14.836 14.584C15.084 14.456 15.276 14.276 15.412 14.044C15.556 13.812 15.628 13.536 15.628 13.216C15.628 12.896 15.556 12.62 15.412 12.388C15.276 12.156 15.084 11.976 14.836 11.848C14.596 11.72 14.32 11.656 14.008 11.656H11.74V10.672H14.08C14.592 10.672 15.048 10.776 15.448 10.984C15.856 11.192 16.176 11.488 16.408 11.872C16.648 12.248 16.768 12.696 16.768 13.216C16.768 13.728 16.648 14.176 16.408 14.56C16.176 14.936 15.856 15.232 15.448 15.448C15.048 15.656 14.592 15.76 14.08 15.76H11.74ZM10.984 19V10.672H12.112V19H10.984ZM20.3452 19.12C19.7852 19.12 19.2812 18.988 18.8332 18.724C18.3852 18.46 18.0292 18.104 17.7652 17.656C17.5012 17.2 17.3692 16.692 17.3692 16.132C17.3692 15.58 17.5012 15.084 17.7652 14.644C18.0292 14.196 18.3852 13.84 18.8332 13.576C19.2812 13.312 19.7852 13.18 20.3452 13.18C20.8972 13.18 21.3972 13.312 21.8452 13.576C22.3012 13.832 22.6612 14.184 22.9252 14.632C23.1892 15.08 23.3212 15.58 23.3212 16.132C23.3212 16.692 23.1892 17.2 22.9252 17.656C22.6612 18.104 22.3012 18.46 21.8452 18.724C21.3972 18.988 20.8972 19.12 20.3452 19.12ZM20.3452 18.076C20.7052 18.076 21.0252 17.992 21.3052 17.824C21.5852 17.656 21.8052 17.428 21.9652 17.14C22.1252 16.844 22.2052 16.508 22.2052 16.132C22.2052 15.764 22.1212 15.436 21.9532 15.148C21.7932 14.86 21.5732 14.636 21.2932 14.476C21.0212 14.308 20.7052 14.224 20.3452 14.224C19.9852 14.224 19.6652 14.308 19.3852 14.476C19.1052 14.636 18.8852 14.86 18.7252 15.148C18.5652 15.436 18.4852 15.764 18.4852 16.132C18.4852 16.508 18.5652 16.844 18.7252 17.14C18.8852 17.428 19.1052 17.656 19.3852 17.824C19.6652 17.992 19.9852 18.076 20.3452 18.076ZM26.006 19L23.75 13.3H24.878L26.51 17.74H26.15L27.77 13.3H28.394L30.014 17.74H29.654L31.286 13.3H32.414L30.17 19H29.534L27.89 14.692H28.286L26.63 19H26.006ZM35.85 19.12C35.282 19.12 34.77 18.992 34.314 18.736C33.858 18.472 33.498 18.116 33.234 17.668C32.97 17.22 32.838 16.712 32.838 16.144C32.838 15.584 32.966 15.08 33.222 14.632C33.486 14.184 33.838 13.832 34.278 13.576C34.726 13.312 35.226 13.18 35.778 13.18C36.306 13.18 36.77 13.3 37.17 13.54C37.578 13.78 37.894 14.112 38.118 14.536C38.35 14.96 38.466 15.44 38.466 15.976C38.466 16.056 38.462 16.144 38.454 16.24C38.446 16.328 38.43 16.432 38.406 16.552H33.594V15.652H37.83L37.434 16C37.434 15.616 37.366 15.292 37.23 15.028C37.094 14.756 36.902 14.548 36.654 14.404C36.406 14.252 36.106 14.176 35.754 14.176C35.386 14.176 35.062 14.256 34.782 14.416C34.502 14.576 34.286 14.8 34.134 15.088C33.982 15.376 33.906 15.716 33.906 16.108C33.906 16.508 33.986 16.86 34.146 17.164C34.306 17.46 34.534 17.692 34.83 17.86C35.126 18.02 35.466 18.1 35.85 18.1C36.17 18.1 36.462 18.044 36.726 17.932C36.998 17.82 37.23 17.652 37.422 17.428L38.118 18.136C37.846 18.456 37.51 18.7 37.11 18.868C36.718 19.036 36.298 19.12 35.85 19.12ZM39.6436 19V13.3H40.7236V19H39.6436ZM40.7236 15.748L40.3156 15.568C40.3156 14.84 40.4836 14.26 40.8196 13.828C41.1556 13.396 41.6396 13.18 42.2716 13.18C42.5596 13.18 42.8196 13.232 43.0516 13.336C43.2836 13.432 43.4996 13.596 43.6996 13.828L42.9916 14.56C42.8716 14.432 42.7396 14.34 42.5956 14.284C42.4516 14.228 42.2836 14.2 42.0916 14.2C41.6916 14.2 41.3636 14.328 41.1076 14.584C40.8516 14.84 40.7236 15.228 40.7236 15.748Z" fill="#494847"/>
<rect x="0.25" y="0.25" width="53.5" height="29.5" rx="7.75" stroke="#A4A3A3" stroke-width="0.5"/>
<rect x="62.25" y="0.25" width="62.5" height="29.5" rx="7.75" fill="white"/>
<path d="M72.984 19V10.672H73.776L77.304 16.468H76.764L80.292 10.672H81.084V19H79.956V12.652L80.22 12.724L77.436 17.296H76.644L73.86 12.724L74.112 12.652V19H72.984ZM82.8704 19V13.3H83.9504V19H82.8704ZM83.4104 12.16C83.2104 12.16 83.0464 12.096 82.9184 11.968C82.7904 11.832 82.7264 11.664 82.7264 11.464C82.7264 11.272 82.7904 11.112 82.9184 10.984C83.0464 10.848 83.2104 10.78 83.4104 10.78C83.6104 10.78 83.7744 10.848 83.9024 10.984C84.0304 11.112 84.0944 11.272 84.0944 11.464C84.0944 11.664 84.0304 11.832 83.9024 11.968C83.7744 12.096 83.6104 12.16 83.4104 12.16ZM85.542 19V10.432H86.622V19H85.542ZM90.8422 19.12C90.2742 19.12 89.7622 18.992 89.3062 18.736C88.8502 18.472 88.4902 18.116 88.2262 17.668C87.9622 17.22 87.8302 16.712 87.8302 16.144C87.8302 15.584 87.9582 15.08 88.2142 14.632C88.4782 14.184 88.8302 13.832 89.2702 13.576C89.7182 13.312 90.2182 13.18 90.7702 13.18C91.2982 13.18 91.7622 13.3 92.1622 13.54C92.5702 13.78 92.8862 14.112 93.1102 14.536C93.3422 14.96 93.4582 15.44 93.4582 15.976C93.4582 16.056 93.4542 16.144 93.4462 16.24C93.4382 16.328 93.4222 16.432 93.3982 16.552H88.5862V15.652H92.8222L92.4262 16C92.4262 15.616 92.3582 15.292 92.2222 15.028C92.0862 14.756 91.8942 14.548 91.6462 14.404C91.3982 14.252 91.0982 14.176 90.7462 14.176C90.3782 14.176 90.0542 14.256 89.7742 14.416C89.4942 14.576 89.2782 14.8 89.1262 15.088C88.9742 15.376 88.8982 15.716 88.8982 16.108C88.8982 16.508 88.9782 16.86 89.1382 17.164C89.2982 17.46 89.5262 17.692 89.8222 17.86C90.1182 18.02 90.4582 18.1 90.8422 18.1C91.1622 18.1 91.4542 18.044 91.7182 17.932C91.9902 17.82 92.2222 17.652 92.4142 17.428L93.1102 18.136C92.8382 18.456 92.5022 18.7 92.1022 18.868C91.7102 19.036 91.2902 19.12 90.8422 19.12ZM97.0598 19.12C96.5398 19.12 96.0678 18.992 95.6438 18.736C95.2198 18.472 94.8838 18.116 94.6357 17.668C94.3958 17.22 94.2758 16.716 94.2758 16.156C94.2758 15.596 94.3958 15.092 94.6357 14.644C94.8838 14.196 95.2158 13.84 95.6318 13.576C96.0558 13.312 96.5318 13.18 97.0598 13.18C97.4918 13.18 97.8758 13.272 98.2118 13.456C98.5558 13.632 98.8318 13.88 99.0398 14.2C99.2478 14.512 99.3638 14.876 99.3878 15.292V17.008C99.3638 17.416 99.2478 17.78 99.0398 18.1C98.8398 18.42 98.5678 18.672 98.2238 18.856C97.8878 19.032 97.4998 19.12 97.0598 19.12ZM97.2398 18.1C97.7758 18.1 98.2078 17.92 98.5358 17.56C98.8638 17.192 99.0278 16.724 99.0278 16.156C99.0278 15.764 98.9518 15.424 98.7998 15.136C98.6558 14.84 98.4478 14.612 98.1758 14.452C97.9038 14.284 97.5878 14.2 97.2278 14.2C96.8678 14.2 96.5478 14.284 96.2678 14.452C95.9958 14.62 95.7798 14.852 95.6198 15.148C95.4678 15.436 95.3918 15.768 95.3918 16.144C95.3918 16.528 95.4678 16.868 95.6198 17.164C95.7798 17.452 95.9998 17.68 96.2798 17.848C96.5598 18.016 96.8798 18.1 97.2398 18.1ZM98.9558 19V17.464L99.1598 16.072L98.9558 14.692V13.3H100.048V19H98.9558ZM103.984 21.508C103.4 21.508 102.88 21.4 102.424 21.184C101.976 20.968 101.616 20.664 101.344 20.272L102.04 19.564C102.272 19.86 102.548 20.084 102.868 20.236C103.188 20.396 103.568 20.476 104.008 20.476C104.592 20.476 105.052 20.32 105.388 20.008C105.732 19.704 105.904 19.292 105.904 18.772V17.356L106.096 16.072L105.904 14.8V13.3H106.984V18.772C106.984 19.316 106.856 19.792 106.6 20.2C106.352 20.608 106 20.928 105.544 21.16C105.096 21.392 104.576 21.508 103.984 21.508ZM103.984 18.904C103.464 18.904 102.996 18.78 102.58 18.532C102.172 18.284 101.848 17.944 101.608 17.512C101.368 17.072 101.248 16.58 101.248 16.036C101.248 15.492 101.368 15.008 101.608 14.584C101.848 14.152 102.172 13.812 102.58 13.564C102.996 13.308 103.464 13.18 103.984 13.18C104.432 13.18 104.828 13.268 105.172 13.444C105.516 13.62 105.788 13.868 105.988 14.188C106.196 14.5 106.308 14.868 106.324 15.292V16.804C106.3 17.22 106.184 17.588 105.976 17.908C105.776 18.22 105.504 18.464 105.16 18.64C104.816 18.816 104.424 18.904 103.984 18.904ZM104.2 17.884C104.552 17.884 104.86 17.808 105.124 17.656C105.396 17.504 105.604 17.292 105.748 17.02C105.892 16.74 105.964 16.416 105.964 16.048C105.964 15.68 105.888 15.36 105.736 15.088C105.592 14.808 105.388 14.592 105.124 14.44C104.86 14.28 104.548 14.2 104.188 14.2C103.828 14.2 103.512 14.28 103.24 14.44C102.968 14.592 102.752 14.808 102.592 15.088C102.44 15.36 102.364 15.676 102.364 16.036C102.364 16.396 102.44 16.716 102.592 16.996C102.752 17.276 102.968 17.496 103.24 17.656C103.52 17.808 103.84 17.884 104.2 17.884ZM111.209 19.12C110.641 19.12 110.129 18.992 109.673 18.736C109.217 18.472 108.857 18.116 108.593 17.668C108.329 17.22 108.197 16.712 108.197 16.144C108.197 15.584 108.325 15.08 108.581 14.632C108.845 14.184 109.197 13.832 109.637 13.576C110.085 13.312 110.585 13.18 111.137 13.18C111.665 13.18 112.129 13.3 112.529 13.54C112.937 13.78 113.253 14.112 113.477 14.536C113.709 14.96 113.825 15.44 113.825 15.976C113.825 16.056 113.821 16.144 113.813 16.24C113.805 16.328 113.789 16.432 113.765 16.552H108.953V15.652H113.189L112.793 16C112.793 15.616 112.725 15.292 112.589 15.028C112.453 14.756 112.261 14.548 112.013 14.404C111.765 14.252 111.465 14.176 111.113 14.176C110.745 14.176 110.421 14.256 110.141 14.416C109.861 14.576 109.645 14.8 109.493 15.088C109.341 15.376 109.265 15.716 109.265 16.108C109.265 16.508 109.345 16.86 109.505 17.164C109.665 17.46 109.893 17.692 110.189 17.86C110.485 18.02 110.825 18.1 111.209 18.1C111.529 18.1 111.821 18.044 112.085 17.932C112.357 17.82 112.589 17.652 112.781 17.428L113.477 18.136C113.205 18.456 112.869 18.7 112.469 18.868C112.077 19.036 111.657 19.12 111.209 19.12Z" fill="#494847"/>
<rect x="62.25" y="0.25" width="62.5" height="29.5" rx="7.75" stroke="#A4A3A3" stroke-width="0.5"/>
<rect x="133.25" y="0.25" width="81.5" height="29.5" rx="7.75" fill="white"/>
<path d="M144.74 15.376V14.428H146.996C147.484 14.428 147.86 14.304 148.124 14.056C148.388 13.808 148.52 13.472 148.52 13.048C148.52 12.648 148.388 12.316 148.124 12.052C147.868 11.788 147.496 11.656 147.008 11.656H144.74V10.672H147.044C147.572 10.672 148.032 10.776 148.424 10.984C148.816 11.184 149.116 11.46 149.324 11.812C149.54 12.164 149.648 12.568 149.648 13.024C149.648 13.496 149.54 13.908 149.324 14.26C149.116 14.612 148.816 14.888 148.424 15.088C148.032 15.28 147.572 15.376 147.044 15.376H144.74ZM143.984 19V10.672H145.112V19H143.984ZM148.784 19L145.76 15.268L146.828 14.896L150.212 19H148.784ZM153.423 19.12C152.903 19.12 152.431 18.992 152.007 18.736C151.583 18.472 151.247 18.116 150.999 17.668C150.759 17.22 150.639 16.716 150.639 16.156C150.639 15.596 150.759 15.092 150.999 14.644C151.247 14.196 151.579 13.84 151.995 13.576C152.419 13.312 152.895 13.18 153.423 13.18C153.855 13.18 154.239 13.272 154.575 13.456C154.919 13.632 155.195 13.88 155.403 14.2C155.611 14.512 155.727 14.876 155.751 15.292V17.008C155.727 17.416 155.611 17.78 155.403 18.1C155.203 18.42 154.931 18.672 154.587 18.856C154.251 19.032 153.863 19.12 153.423 19.12ZM153.603 18.1C154.139 18.1 154.571 17.92 154.899 17.56C155.227 17.192 155.391 16.724 155.391 16.156C155.391 15.764 155.315 15.424 155.163 15.136C155.019 14.84 154.811 14.612 154.539 14.452C154.267 14.284 153.951 14.2 153.591 14.2C153.231 14.2 152.911 14.284 152.631 14.452C152.359 14.62 152.143 14.852 151.983 15.148C151.831 15.436 151.755 15.768 151.755 16.144C151.755 16.528 151.831 16.868 151.983 17.164C152.143 17.452 152.363 17.68 152.643 17.848C152.923 18.016 153.243 18.1 153.603 18.1ZM155.319 19V17.464L155.523 16.072L155.319 14.692V13.3H156.411V19H155.319ZM158.836 19V10.912H159.916V19H158.836ZM157.432 14.284V13.3H161.32V14.284H157.432ZM162.39 19V13.3H163.47V19H162.39ZM162.93 12.16C162.73 12.16 162.566 12.096 162.438 11.968C162.31 11.832 162.246 11.664 162.246 11.464C162.246 11.272 162.31 11.112 162.438 10.984C162.566 10.848 162.73 10.78 162.93 10.78C163.13 10.78 163.294 10.848 163.422 10.984C163.55 11.112 163.614 11.272 163.614 11.464C163.614 11.664 163.55 11.832 163.422 11.968C163.294 12.096 163.13 12.16 162.93 12.16ZM169.094 19V15.676C169.094 15.244 168.958 14.888 168.686 14.608C168.414 14.328 168.062 14.188 167.63 14.188C167.342 14.188 167.086 14.252 166.862 14.38C166.638 14.508 166.462 14.684 166.334 14.908C166.206 15.132 166.142 15.388 166.142 15.676L165.698 15.424C165.698 14.992 165.794 14.608 165.986 14.272C166.178 13.936 166.446 13.672 166.79 13.48C167.134 13.28 167.522 13.18 167.954 13.18C168.386 13.18 168.766 13.288 169.094 13.504C169.43 13.72 169.694 14.004 169.886 14.356C170.078 14.7 170.174 15.068 170.174 15.46V19H169.094ZM165.062 19V13.3H166.142V19H165.062ZM174 21.508C173.416 21.508 172.896 21.4 172.44 21.184C171.992 20.968 171.632 20.664 171.36 20.272L172.056 19.564C172.288 19.86 172.564 20.084 172.884 20.236C173.204 20.396 173.584 20.476 174.024 20.476C174.608 20.476 175.068 20.32 175.404 20.008C175.748 19.704 175.92 19.292 175.92 18.772V17.356L176.112 16.072L175.92 14.8V13.3H177V18.772C177 19.316 176.872 19.792 176.616 20.2C176.368 20.608 176.016 20.928 175.56 21.16C175.112 21.392 174.592 21.508 174 21.508ZM174 18.904C173.48 18.904 173.012 18.78 172.596 18.532C172.188 18.284 171.864 17.944 171.624 17.512C171.384 17.072 171.264 16.58 171.264 16.036C171.264 15.492 171.384 15.008 171.624 14.584C171.864 14.152 172.188 13.812 172.596 13.564C173.012 13.308 173.48 13.18 174 13.18C174.448 13.18 174.844 13.268 175.188 13.444C175.532 13.62 175.804 13.868 176.004 14.188C176.212 14.5 176.324 14.868 176.34 15.292V16.804C176.316 17.22 176.2 17.588 175.992 17.908C175.792 18.22 175.52 18.464 175.176 18.64C174.832 18.816 174.44 18.904 174 18.904ZM174.216 17.884C174.568 17.884 174.876 17.808 175.14 17.656C175.412 17.504 175.62 17.292 175.764 17.02C175.908 16.74 175.98 16.416 175.98 16.048C175.98 15.68 175.904 15.36 175.752 15.088C175.608 14.808 175.404 14.592 175.14 14.44C174.876 14.28 174.564 14.2 174.204 14.2C173.844 14.2 173.528 14.28 173.256 14.44C172.984 14.592 172.768 14.808 172.608 15.088C172.456 15.36 172.38 15.676 172.38 16.036C172.38 16.396 172.456 16.716 172.608 16.996C172.768 17.276 172.984 17.496 173.256 17.656C173.536 17.808 173.856 17.884 174.216 17.884ZM180.685 16.132L183.721 10.672H184.993L181.897 16.132H180.685ZM180.685 16.828V16.132L181.165 15.82H187.069V16.828H180.685ZM184.753 19V13.492H185.869V19H184.753ZM188.709 19.12C188.485 19.12 188.297 19.044 188.145 18.892C188.001 18.732 187.929 18.544 187.929 18.328C187.929 18.104 188.001 17.92 188.145 17.776C188.297 17.624 188.485 17.548 188.709 17.548C188.933 17.548 189.117 17.624 189.261 17.776C189.413 17.92 189.489 18.104 189.489 18.328C189.489 18.544 189.413 18.732 189.261 18.892C189.117 19.044 188.933 19.12 188.709 19.12ZM194.081 19.12C193.457 19.12 192.885 18.944 192.365 18.592C191.853 18.24 191.445 17.744 191.141 17.104C190.837 16.456 190.685 15.696 190.685 14.824C190.685 13.952 190.833 13.196 191.129 12.556C191.433 11.916 191.841 11.424 192.353 11.08C192.865 10.728 193.429 10.552 194.045 10.552C194.677 10.552 195.249 10.728 195.761 11.08C196.273 11.424 196.677 11.916 196.973 12.556C197.277 13.196 197.429 13.956 197.429 14.836C197.429 15.708 197.277 16.468 196.973 17.116C196.677 17.756 196.273 18.252 195.761 18.604C195.257 18.948 194.697 19.12 194.081 19.12ZM194.057 18.052C194.497 18.052 194.881 17.932 195.209 17.692C195.545 17.444 195.809 17.08 196.001 16.6C196.193 16.12 196.289 15.528 196.289 14.824C196.289 14.12 196.193 13.532 196.001 13.06C195.809 12.58 195.545 12.22 195.209 11.98C194.873 11.732 194.485 11.608 194.045 11.608C193.613 11.608 193.229 11.732 192.893 11.98C192.557 12.22 192.293 12.58 192.101 13.06C191.917 13.532 191.825 14.12 191.825 14.824C191.825 15.528 191.917 16.12 192.101 16.6C192.293 17.08 192.557 17.444 192.893 17.692C193.229 17.932 193.617 18.052 194.057 18.052ZM198.704 15.472V14.5H203.792V15.472H198.704ZM200.756 12.316H201.752V17.656H200.756V12.316Z" fill="#494847"/>
<rect x="133.25" y="0.25" width="81.5" height="29.5" rx="7.75" stroke="#A4A3A3" stroke-width="0.5"/>
<rect x="0.25" y="38.25" width="53.5" height="29.5" rx="7.75" fill="white"/>
<path d="M13.3 57.12C12.644 57.12 12.084 57 11.62 56.76C11.156 56.52 10.744 56.172 10.384 55.716L11.152 54.948C11.416 55.316 11.72 55.596 12.064 55.788C12.408 55.972 12.832 56.064 13.336 56.064C13.832 56.064 14.228 55.956 14.524 55.74C14.828 55.524 14.98 55.228 14.98 54.852C14.98 54.54 14.908 54.288 14.764 54.096C14.62 53.904 14.424 53.748 14.176 53.628C13.936 53.5 13.672 53.388 13.384 53.292C13.096 53.188 12.808 53.08 12.52 52.968C12.232 52.848 11.968 52.704 11.728 52.536C11.488 52.36 11.292 52.132 11.14 51.852C10.996 51.572 10.924 51.22 10.924 50.796C10.924 50.324 11.036 49.924 11.26 49.596C11.492 49.26 11.804 49.004 12.196 48.828C12.596 48.644 13.044 48.552 13.54 48.552C14.084 48.552 14.572 48.66 15.004 48.876C15.436 49.084 15.788 49.36 16.06 49.704L15.292 50.472C15.044 50.184 14.776 49.968 14.488 49.824C14.208 49.68 13.884 49.608 13.516 49.608C13.068 49.608 12.712 49.708 12.448 49.908C12.184 50.1 12.052 50.372 12.052 50.724C12.052 51.004 12.124 51.232 12.268 51.408C12.42 51.576 12.616 51.72 12.856 51.84C13.096 51.96 13.36 52.072 13.648 52.176C13.944 52.272 14.236 52.38 14.524 52.5C14.812 52.62 15.076 52.772 15.316 52.956C15.556 53.14 15.748 53.38 15.892 53.676C16.044 53.964 16.12 54.328 16.12 54.768C16.12 55.504 15.864 56.08 15.352 56.496C14.848 56.912 14.164 57.12 13.3 57.12ZM19.7902 57.12C19.2702 57.12 18.7982 56.992 18.3742 56.736C17.9502 56.472 17.6142 56.116 17.3662 55.668C17.1262 55.22 17.0062 54.716 17.0062 54.156C17.0062 53.596 17.1262 53.092 17.3662 52.644C17.6142 52.196 17.9462 51.84 18.3622 51.576C18.7862 51.312 19.2622 51.18 19.7902 51.18C20.2222 51.18 20.6062 51.272 20.9422 51.456C21.2862 51.632 21.5622 51.88 21.7702 52.2C21.9782 52.512 22.0942 52.876 22.1182 53.292V55.008C22.0942 55.416 21.9782 55.78 21.7702 56.1C21.5702 56.42 21.2982 56.672 20.9542 56.856C20.6182 57.032 20.2302 57.12 19.7902 57.12ZM19.9702 56.1C20.5062 56.1 20.9382 55.92 21.2662 55.56C21.5942 55.192 21.7582 54.724 21.7582 54.156C21.7582 53.764 21.6822 53.424 21.5302 53.136C21.3862 52.84 21.1782 52.612 20.9062 52.452C20.6342 52.284 20.3182 52.2 19.9582 52.2C19.5982 52.2 19.2782 52.284 18.9982 52.452C18.7262 52.62 18.5102 52.852 18.3502 53.148C18.1982 53.436 18.1222 53.768 18.1222 54.144C18.1222 54.528 18.1982 54.868 18.3502 55.164C18.5102 55.452 18.7302 55.68 19.0102 55.848C19.2902 56.016 19.6102 56.1 19.9702 56.1ZM21.6862 57V55.464L21.8902 54.072L21.6862 52.692V51.3H22.7782V57H21.6862ZM25.1432 57V50.448C25.1432 50.024 25.2352 49.656 25.4192 49.344C25.6032 49.024 25.8552 48.772 26.1752 48.588C26.5032 48.404 26.8832 48.312 27.3152 48.312C27.6432 48.312 27.9272 48.368 28.1672 48.48C28.4072 48.592 28.6272 48.756 28.8272 48.972L28.1192 49.668C28.0152 49.556 27.8992 49.472 27.7712 49.416C27.6432 49.352 27.4872 49.32 27.3032 49.32C26.9592 49.32 26.6912 49.42 26.4992 49.62C26.3152 49.82 26.2232 50.096 26.2232 50.448V57H25.1432ZM23.7392 52.284V51.3H28.0352V52.284H23.7392ZM31.432 57.12C30.864 57.12 30.352 56.992 29.896 56.736C29.44 56.472 29.08 56.116 28.816 55.668C28.552 55.22 28.42 54.712 28.42 54.144C28.42 53.584 28.548 53.08 28.804 52.632C29.068 52.184 29.42 51.832 29.86 51.576C30.308 51.312 30.808 51.18 31.36 51.18C31.888 51.18 32.352 51.3 32.752 51.54C33.16 51.78 33.476 52.112 33.7 52.536C33.932 52.96 34.048 53.44 34.048 53.976C34.048 54.056 34.044 54.144 34.036 54.24C34.028 54.328 34.012 54.432 33.988 54.552H29.176V53.652H33.412L33.016 54C33.016 53.616 32.948 53.292 32.812 53.028C32.676 52.756 32.484 52.548 32.236 52.404C31.988 52.252 31.688 52.176 31.336 52.176C30.968 52.176 30.644 52.256 30.364 52.416C30.084 52.576 29.868 52.8 29.716 53.088C29.564 53.376 29.488 53.716 29.488 54.108C29.488 54.508 29.568 54.86 29.728 55.164C29.888 55.46 30.116 55.692 30.412 55.86C30.708 56.02 31.048 56.1 31.432 56.1C31.752 56.1 32.044 56.044 32.308 55.932C32.58 55.82 32.812 55.652 33.004 55.428L33.7 56.136C33.428 56.456 33.092 56.7 32.692 56.868C32.3 57.036 31.88 57.12 31.432 57.12ZM37.0376 57.12C36.7176 57.12 36.4136 57.08 36.1256 57C35.8456 56.912 35.5856 56.792 35.3456 56.64C35.1056 56.48 34.8976 56.292 34.7216 56.076L35.4176 55.38C35.6256 55.636 35.8656 55.828 36.1376 55.956C36.4096 56.076 36.7136 56.136 37.0496 56.136C37.3856 56.136 37.6456 56.08 37.8296 55.968C38.0136 55.848 38.1056 55.684 38.1056 55.476C38.1056 55.268 38.0296 55.108 37.8776 54.996C37.7336 54.876 37.5456 54.78 37.3136 54.708C37.0816 54.628 36.8336 54.552 36.5696 54.48C36.3136 54.4 36.0696 54.3 35.8376 54.18C35.6056 54.06 35.4136 53.896 35.2616 53.688C35.1176 53.48 35.0456 53.204 35.0456 52.86C35.0456 52.516 35.1296 52.22 35.2976 51.972C35.4656 51.716 35.6976 51.52 35.9936 51.384C36.2976 51.248 36.6616 51.18 37.0856 51.18C37.5336 51.18 37.9296 51.26 38.2736 51.42C38.6256 51.572 38.9136 51.804 39.1376 52.116L38.4416 52.812C38.2816 52.604 38.0816 52.444 37.8416 52.332C37.6096 52.22 37.3456 52.164 37.0496 52.164C36.7376 52.164 36.4976 52.22 36.3296 52.332C36.1696 52.436 36.0896 52.584 36.0896 52.776C36.0896 52.968 36.1616 53.116 36.3056 53.22C36.4496 53.324 36.6376 53.412 36.8696 53.484C37.1096 53.556 37.3576 53.632 37.6136 53.712C37.8696 53.784 38.1136 53.884 38.3456 54.012C38.5776 54.14 38.7656 54.312 38.9096 54.528C39.0616 54.744 39.1376 55.028 39.1376 55.38C39.1376 55.916 38.9456 56.34 38.5616 56.652C38.1856 56.964 37.6776 57.12 37.0376 57.12ZM41.2227 57V48.912H42.3027V57H41.2227ZM39.8187 52.284V51.3H43.7067V52.284H39.8187Z" fill="#494847"/>
<rect x="0.25" y="38.25" width="53.5" height="29.5" rx="7.75" stroke="#A4A3A3" stroke-width="0.5"/>
<rect x="62.25" y="38.25" width="82.5" height="29.5" rx="7.75" fill="white"/>
<path d="M73.74 57V56.016H76.26C76.74 56.016 77.116 55.876 77.388 55.596C77.66 55.308 77.796 54.964 77.796 54.564C77.796 54.292 77.736 54.048 77.616 53.832C77.496 53.608 77.32 53.432 77.088 53.304C76.864 53.176 76.6 53.112 76.296 53.112H73.74V52.128H76.128C76.528 52.128 76.844 52.024 77.076 51.816C77.316 51.6 77.436 51.292 77.436 50.892C77.436 50.492 77.312 50.188 77.064 49.98C76.816 49.764 76.488 49.656 76.08 49.656H73.74V48.672H76.104C76.648 48.672 77.1 48.772 77.46 48.972C77.828 49.164 78.104 49.42 78.288 49.74C78.48 50.06 78.576 50.412 78.576 50.796C78.576 51.244 78.452 51.636 78.204 51.972C77.964 52.308 77.608 52.572 77.136 52.764L77.232 52.404C77.768 52.596 78.184 52.888 78.48 53.28C78.784 53.664 78.936 54.12 78.936 54.648C78.936 55.088 78.828 55.484 78.612 55.836C78.396 56.188 78.084 56.472 77.676 56.688C77.276 56.896 76.784 57 76.2 57H73.74ZM72.984 57V48.672H74.112V57H72.984ZM82.5606 57.12C82.0966 57.12 81.6766 57.016 81.3006 56.808C80.9326 56.592 80.6446 56.296 80.4366 55.92C80.2286 55.544 80.1246 55.108 80.1246 54.612V51.3H81.2046V54.564C81.2046 54.876 81.2566 55.148 81.3606 55.38C81.4726 55.604 81.6326 55.776 81.8406 55.896C82.0486 56.016 82.2926 56.076 82.5726 56.076C82.9966 56.076 83.3286 55.944 83.5686 55.68C83.8086 55.408 83.9286 55.036 83.9286 54.564V51.3H85.0086V54.612C85.0086 55.108 84.9046 55.544 84.6966 55.92C84.4886 56.296 84.2006 56.592 83.8326 56.808C83.4726 57.016 83.0486 57.12 82.5606 57.12ZM86.4681 57V51.3H87.5481V57H86.4681ZM87.0081 50.16C86.8081 50.16 86.6441 50.096 86.5161 49.968C86.3881 49.832 86.3241 49.664 86.3241 49.464C86.3241 49.272 86.3881 49.112 86.5161 48.984C86.6441 48.848 86.8081 48.78 87.0081 48.78C87.2081 48.78 87.3721 48.848 87.5001 48.984C87.6281 49.112 87.6921 49.272 87.6921 49.464C87.6921 49.664 87.6281 49.832 87.5001 49.968C87.3721 50.096 87.2081 50.16 87.0081 50.16ZM89.1397 57V48.432H90.2197V57H89.1397ZM92.6758 57V48.912H93.7558V57H92.6758ZM91.2718 52.284V51.3H95.1598V52.284H91.2718ZM101.15 57.12C100.622 57.12 100.146 56.992 99.7219 56.736C99.2979 56.472 98.9619 56.116 98.7139 55.668C98.4739 55.22 98.3539 54.716 98.3539 54.156C98.3539 53.596 98.4739 53.092 98.7139 52.644C98.9619 52.196 99.2979 51.84 99.7219 51.576C100.146 51.312 100.618 51.18 101.138 51.18C101.578 51.18 101.966 51.272 102.302 51.456C102.646 51.632 102.918 51.88 103.118 52.2C103.326 52.512 103.442 52.876 103.466 53.292V55.008C103.442 55.416 103.326 55.78 103.118 56.1C102.918 56.42 102.646 56.672 102.302 56.856C101.966 57.032 101.582 57.12 101.15 57.12ZM101.318 56.1C101.854 56.1 102.286 55.92 102.614 55.56C102.942 55.192 103.106 54.724 103.106 54.156C103.106 53.764 103.03 53.424 102.878 53.136C102.734 52.84 102.526 52.612 102.254 52.452C101.99 52.284 101.678 52.2 101.318 52.2C100.958 52.2 100.638 52.284 100.358 52.452C100.086 52.62 99.8699 52.852 99.7099 53.148C99.5499 53.436 99.4699 53.768 99.4699 54.144C99.4699 54.528 99.5499 54.868 99.7099 55.164C99.8699 55.452 100.086 55.68 100.358 55.848C100.638 56.016 100.958 56.1 101.318 56.1ZM103.046 59.388V55.572L103.238 54.18L103.046 52.8V51.3H104.126V59.388H103.046ZM108.002 57.12C107.538 57.12 107.118 57.016 106.742 56.808C106.374 56.592 106.086 56.296 105.878 55.92C105.67 55.544 105.566 55.108 105.566 54.612V51.3H106.646V54.564C106.646 54.876 106.698 55.148 106.802 55.38C106.914 55.604 107.074 55.776 107.282 55.896C107.49 56.016 107.734 56.076 108.014 56.076C108.438 56.076 108.77 55.944 109.01 55.68C109.25 55.408 109.37 55.036 109.37 54.564V51.3H110.45V54.612C110.45 55.108 110.346 55.544 110.138 55.92C109.93 56.296 109.642 56.592 109.274 56.808C108.914 57.016 108.49 57.12 108.002 57.12ZM114.321 57.12C113.801 57.12 113.329 56.992 112.905 56.736C112.481 56.472 112.145 56.116 111.897 55.668C111.657 55.22 111.537 54.716 111.537 54.156C111.537 53.596 111.657 53.092 111.897 52.644C112.145 52.196 112.477 51.84 112.893 51.576C113.317 51.312 113.793 51.18 114.321 51.18C114.753 51.18 115.137 51.272 115.473 51.456C115.817 51.632 116.093 51.88 116.301 52.2C116.509 52.512 116.625 52.876 116.649 53.292V55.008C116.625 55.416 116.509 55.78 116.301 56.1C116.101 56.42 115.829 56.672 115.485 56.856C115.149 57.032 114.761 57.12 114.321 57.12ZM114.501 56.1C115.037 56.1 115.469 55.92 115.797 55.56C116.125 55.192 116.289 54.724 116.289 54.156C116.289 53.764 116.213 53.424 116.061 53.136C115.917 52.84 115.709 52.612 115.437 52.452C115.165 52.284 114.849 52.2 114.489 52.2C114.129 52.2 113.809 52.284 113.529 52.452C113.257 52.62 113.041 52.852 112.881 53.148C112.729 53.436 112.653 53.768 112.653 54.144C112.653 54.528 112.729 54.868 112.881 55.164C113.041 55.452 113.261 55.68 113.541 55.848C113.821 56.016 114.141 56.1 114.501 56.1ZM116.217 57V55.464L116.421 54.072L116.217 52.692V51.3H117.309V57H116.217ZM118.882 57V48.432H119.962V57H118.882ZM121.554 57V51.3H122.634V57H121.554ZM122.094 50.16C121.894 50.16 121.73 50.096 121.602 49.968C121.474 49.832 121.41 49.664 121.41 49.464C121.41 49.272 121.474 49.112 121.602 48.984C121.73 48.848 121.894 48.78 122.094 48.78C122.294 48.78 122.458 48.848 122.586 48.984C122.714 49.112 122.778 49.272 122.778 49.464C122.778 49.664 122.714 49.832 122.586 49.968C122.458 50.096 122.294 50.16 122.094 50.16ZM125.102 57V48.912H126.182V57H125.102ZM123.698 52.284V51.3H127.586V52.284H123.698ZM130.516 57.048L128.044 51.3H129.244L131.08 55.8H130.696L132.628 51.3H133.828L131.164 57.048H130.516ZM128.884 59.388L130.564 55.944L131.164 57.048L130.084 59.388H128.884Z" fill="#494847"/>
<rect x="62.25" y="38.25" width="82.5" height="29.5" rx="7.75" stroke="#A4A3A3" stroke-width="0.5"/>
<rect x="153.25" y="38.25" width="77.5" height="29.5" rx="7.75" fill="white"/>
<path d="M163.372 57L166.78 48.672H167.596L170.992 57H169.768L166.972 49.956H167.392L164.572 57H163.372ZM164.992 55.116V54.132H169.372V55.116H164.992ZM172.448 57V50.676C172.448 50.236 172.54 49.852 172.724 49.524C172.916 49.188 173.18 48.924 173.516 48.732C173.852 48.532 174.24 48.432 174.68 48.432C175.128 48.432 175.496 48.528 175.784 48.72C176.072 48.912 176.284 49.176 176.42 49.512C176.564 49.84 176.636 50.216 176.636 50.64L175.844 50.628C175.836 50.26 175.736 49.968 175.544 49.752C175.352 49.528 175.064 49.416 174.68 49.416C174.304 49.416 174.016 49.528 173.816 49.752C173.624 49.968 173.528 50.268 173.528 50.652V57H172.448ZM171.044 52.284V51.3H178.736V52.284H171.044ZM175.844 57V50.448C175.844 50.024 175.936 49.656 176.12 49.344C176.304 49.024 176.556 48.772 176.876 48.588C177.204 48.404 177.584 48.312 178.016 48.312C178.344 48.312 178.628 48.368 178.868 48.48C179.108 48.592 179.328 48.756 179.528 48.972L178.82 49.668C178.716 49.556 178.6 49.472 178.472 49.416C178.344 49.352 178.188 49.32 178.004 49.32C177.66 49.32 177.392 49.42 177.2 49.62C177.016 49.82 176.924 50.096 176.924 50.448V57H175.844ZM182.087 57.12C181.527 57.12 181.023 56.988 180.575 56.724C180.127 56.46 179.771 56.104 179.507 55.656C179.243 55.2 179.111 54.692 179.111 54.132C179.111 53.58 179.243 53.084 179.507 52.644C179.771 52.196 180.127 51.84 180.575 51.576C181.023 51.312 181.527 51.18 182.087 51.18C182.639 51.18 183.139 51.312 183.587 51.576C184.043 51.832 184.403 52.184 184.667 52.632C184.931 53.08 185.063 53.58 185.063 54.132C185.063 54.692 184.931 55.2 184.667 55.656C184.403 56.104 184.043 56.46 183.587 56.724C183.139 56.988 182.639 57.12 182.087 57.12ZM182.087 56.076C182.447 56.076 182.767 55.992 183.047 55.824C183.327 55.656 183.547 55.428 183.707 55.14C183.867 54.844 183.947 54.508 183.947 54.132C183.947 53.764 183.863 53.436 183.695 53.148C183.535 52.86 183.315 52.636 183.035 52.476C182.763 52.308 182.447 52.224 182.087 52.224C181.727 52.224 181.407 52.308 181.127 52.476C180.847 52.636 180.627 52.86 180.467 53.148C180.307 53.436 180.227 53.764 180.227 54.132C180.227 54.508 180.307 54.844 180.467 55.14C180.627 55.428 180.847 55.656 181.127 55.824C181.407 55.992 181.727 56.076 182.087 56.076ZM186.28 57V51.3H187.36V57H186.28ZM187.36 53.748L186.952 53.568C186.952 52.84 187.12 52.26 187.456 51.828C187.792 51.396 188.276 51.18 188.908 51.18C189.196 51.18 189.456 51.232 189.688 51.336C189.92 51.432 190.136 51.596 190.336 51.828L189.628 52.56C189.508 52.432 189.376 52.34 189.232 52.284C189.088 52.228 188.92 52.2 188.728 52.2C188.328 52.2 188 52.328 187.744 52.584C187.488 52.84 187.36 53.228 187.36 53.748ZM193.321 57.12C192.793 57.12 192.321 56.992 191.905 56.736C191.489 56.472 191.157 56.116 190.909 55.668C190.669 55.22 190.549 54.716 190.549 54.156C190.549 53.596 190.669 53.092 190.909 52.644C191.157 52.196 191.489 51.84 191.905 51.576C192.321 51.312 192.793 51.18 193.321 51.18C193.745 51.18 194.129 51.272 194.473 51.456C194.817 51.632 195.093 51.88 195.301 52.2C195.517 52.512 195.637 52.876 195.661 53.292V55.008C195.637 55.416 195.521 55.78 195.313 56.1C195.105 56.42 194.829 56.672 194.485 56.856C194.141 57.032 193.753 57.12 193.321 57.12ZM193.501 56.1C193.861 56.1 194.173 56.016 194.437 55.848C194.709 55.68 194.921 55.452 195.073 55.164C195.225 54.868 195.301 54.532 195.301 54.156C195.301 53.764 195.221 53.424 195.061 53.136C194.909 52.848 194.697 52.62 194.425 52.452C194.161 52.284 193.849 52.2 193.489 52.2C193.129 52.2 192.813 52.284 192.541 52.452C192.269 52.62 192.053 52.852 191.893 53.148C191.741 53.436 191.665 53.768 191.665 54.144C191.665 54.528 191.741 54.868 191.893 55.164C192.053 55.452 192.269 55.68 192.541 55.848C192.821 56.016 193.141 56.1 193.501 56.1ZM196.321 57H195.229V55.464L195.433 54.072L195.229 52.692V48.432H196.321V57ZM200.318 57.12C199.798 57.12 199.326 56.992 198.902 56.736C198.478 56.472 198.142 56.116 197.894 55.668C197.654 55.22 197.534 54.716 197.534 54.156C197.534 53.596 197.654 53.092 197.894 52.644C198.142 52.196 198.474 51.84 198.89 51.576C199.314 51.312 199.79 51.18 200.318 51.18C200.75 51.18 201.134 51.272 201.47 51.456C201.814 51.632 202.09 51.88 202.298 52.2C202.506 52.512 202.622 52.876 202.646 53.292V55.008C202.622 55.416 202.506 55.78 202.298 56.1C202.098 56.42 201.826 56.672 201.482 56.856C201.146 57.032 200.758 57.12 200.318 57.12ZM200.498 56.1C201.034 56.1 201.466 55.92 201.794 55.56C202.122 55.192 202.286 54.724 202.286 54.156C202.286 53.764 202.21 53.424 202.058 53.136C201.914 52.84 201.706 52.612 201.434 52.452C201.162 52.284 200.846 52.2 200.486 52.2C200.126 52.2 199.806 52.284 199.526 52.452C199.254 52.62 199.038 52.852 198.878 53.148C198.726 53.436 198.65 53.768 198.65 54.144C198.65 54.528 198.726 54.868 198.878 55.164C199.038 55.452 199.258 55.68 199.538 55.848C199.818 56.016 200.138 56.1 200.498 56.1ZM202.214 57V55.464L202.418 54.072L202.214 52.692V51.3H203.306V57H202.214ZM207.878 57.12C207.446 57.12 207.054 57.032 206.702 56.856C206.358 56.672 206.082 56.42 205.874 56.1C205.666 55.78 205.55 55.416 205.526 55.008V53.292C205.55 52.876 205.666 52.512 205.874 52.2C206.09 51.88 206.37 51.632 206.714 51.456C207.066 51.272 207.454 51.18 207.878 51.18C208.398 51.18 208.866 51.312 209.282 51.576C209.706 51.84 210.038 52.196 210.278 52.644C210.518 53.092 210.638 53.596 210.638 54.156C210.638 54.716 210.518 55.22 210.278 55.668C210.038 56.116 209.706 56.472 209.282 56.736C208.866 56.992 208.398 57.12 207.878 57.12ZM207.698 56.1C208.058 56.1 208.374 56.016 208.646 55.848C208.918 55.68 209.134 55.452 209.294 55.164C209.454 54.868 209.534 54.528 209.534 54.144C209.534 53.768 209.454 53.432 209.294 53.136C209.134 52.84 208.918 52.612 208.646 52.452C208.374 52.284 208.062 52.2 207.71 52.2C207.35 52.2 207.034 52.284 206.762 52.452C206.49 52.612 206.278 52.84 206.126 53.136C205.974 53.432 205.898 53.772 205.898 54.156C205.898 54.532 205.97 54.868 206.114 55.164C206.266 55.452 206.478 55.68 206.75 55.848C207.03 56.016 207.346 56.1 207.698 56.1ZM204.878 57V48.432H205.958V52.692L205.754 54.072L205.958 55.464V57H204.878ZM211.862 57V48.432H212.942V57H211.862ZM217.162 57.12C216.594 57.12 216.082 56.992 215.626 56.736C215.17 56.472 214.81 56.116 214.546 55.668C214.282 55.22 214.15 54.712 214.15 54.144C214.15 53.584 214.278 53.08 214.534 52.632C214.798 52.184 215.15 51.832 215.59 51.576C216.038 51.312 216.538 51.18 217.09 51.18C217.618 51.18 218.082 51.3 218.482 51.54C218.89 51.78 219.206 52.112 219.43 52.536C219.662 52.96 219.778 53.44 219.778 53.976C219.778 54.056 219.774 54.144 219.766 54.24C219.758 54.328 219.742 54.432 219.718 54.552H214.906V53.652H219.142L218.746 54C218.746 53.616 218.678 53.292 218.542 53.028C218.406 52.756 218.214 52.548 217.966 52.404C217.718 52.252 217.418 52.176 217.066 52.176C216.698 52.176 216.374 52.256 216.094 52.416C215.814 52.576 215.598 52.8 215.446 53.088C215.294 53.376 215.218 53.716 215.218 54.108C215.218 54.508 215.298 54.86 215.458 55.164C215.618 55.46 215.846 55.692 216.142 55.86C216.438 56.02 216.778 56.1 217.162 56.1C217.482 56.1 217.774 56.044 218.038 55.932C218.31 55.82 218.542 55.652 218.734 55.428L219.43 56.136C219.158 56.456 218.822 56.7 218.422 56.868C218.03 57.036 217.61 57.12 217.162 57.12Z" fill="#494847"/>
<rect x="153.25" y="38.25" width="77.5" height="29.5" rx="7.75" stroke="#A4A3A3" stroke-width="0.5"/>
</svg>
