<svg width="254" height="68" viewBox="0 0 254 68" fill="none" xmlns="http://www.w3.org/2000/svg">
<rect x="0.25" y="0.25" width="78.5" height="29.5" rx="7.75" fill="#004445"/>
<path d="M14.764 19.12C14.164 19.12 13.608 19.012 13.096 18.796C12.584 18.572 12.136 18.264 11.752 17.872C11.376 17.48 11.084 17.024 10.876 16.504C10.668 15.984 10.564 15.428 10.564 14.836C10.564 14.236 10.668 13.676 10.876 13.156C11.084 12.636 11.376 12.184 11.752 11.8C12.136 11.408 12.58 11.104 13.084 10.888C13.596 10.664 14.152 10.552 14.752 10.552C15.408 10.552 15.984 10.664 16.48 10.888C16.976 11.112 17.416 11.416 17.8 11.8L17.02 12.58C16.756 12.284 16.432 12.052 16.048 11.884C15.672 11.716 15.24 11.632 14.752 11.632C14.312 11.632 13.908 11.712 13.54 11.872C13.172 12.024 12.852 12.244 12.58 12.532C12.308 12.82 12.096 13.16 11.944 13.552C11.8 13.944 11.728 14.372 11.728 14.836C11.728 15.3 11.8 15.728 11.944 16.12C12.096 16.512 12.308 16.852 12.58 17.14C12.852 17.428 13.172 17.652 13.54 17.812C13.908 17.964 14.312 18.04 14.752 18.04C15.272 18.04 15.724 17.956 16.108 17.788C16.492 17.612 16.816 17.376 17.08 17.08L17.86 17.848C17.476 18.248 17.024 18.56 16.504 18.784C15.992 19.008 15.412 19.12 14.764 19.12ZM21.2785 19.12C20.7585 19.12 20.2865 18.992 19.8625 18.736C19.4385 18.472 19.1025 18.116 18.8545 17.668C18.6145 17.22 18.4945 16.716 18.4945 16.156C18.4945 15.596 18.6145 15.092 18.8545 14.644C19.1025 14.196 19.4345 13.84 19.8505 13.576C20.2745 13.312 20.7505 13.18 21.2785 13.18C21.7105 13.18 22.0945 13.272 22.4305 13.456C22.7745 13.632 23.0505 13.88 23.2585 14.2C23.4665 14.512 23.5825 14.876 23.6065 15.292V17.008C23.5825 17.416 23.4665 17.78 23.2585 18.1C23.0585 18.42 22.7865 18.672 22.4425 18.856C22.1065 19.032 21.7185 19.12 21.2785 19.12ZM21.4585 18.1C21.9945 18.1 22.4265 17.92 22.7545 17.56C23.0825 17.192 23.2465 16.724 23.2465 16.156C23.2465 15.764 23.1705 15.424 23.0185 15.136C22.8745 14.84 22.6665 14.612 22.3945 14.452C22.1225 14.284 21.8065 14.2 21.4465 14.2C21.0865 14.2 20.7665 14.284 20.4865 14.452C20.2145 14.62 19.9985 14.852 19.8385 15.148C19.6865 15.436 19.6105 15.768 19.6105 16.144C19.6105 16.528 19.6865 16.868 19.8385 17.164C19.9985 17.452 20.2185 17.68 20.4985 17.848C20.7785 18.016 21.0985 18.1 21.4585 18.1ZM23.1745 19V17.464L23.3785 16.072L23.1745 14.692V13.3H24.2665V19H23.1745ZM26.6914 19V10.912H27.7714V19H26.6914ZM25.2874 14.284V13.3H29.1754V14.284H25.2874ZM32.6976 19.12C32.1296 19.12 31.6176 18.992 31.1616 18.736C30.7056 18.472 30.3456 18.116 30.0816 17.668C29.8176 17.22 29.6856 16.712 29.6856 16.144C29.6856 15.584 29.8136 15.08 30.0696 14.632C30.3336 14.184 30.6856 13.832 31.1256 13.576C31.5736 13.312 32.0736 13.18 32.6256 13.18C33.1536 13.18 33.6176 13.3 34.0176 13.54C34.4256 13.78 34.7416 14.112 34.9656 14.536C35.1976 14.96 35.3136 15.44 35.3136 15.976C35.3136 16.056 35.3096 16.144 35.3016 16.24C35.2936 16.328 35.2776 16.432 35.2536 16.552H30.4416V15.652H34.6776L34.2816 16C34.2816 15.616 34.2136 15.292 34.0776 15.028C33.9416 14.756 33.7496 14.548 33.5016 14.404C33.2536 14.252 32.9536 14.176 32.6016 14.176C32.2336 14.176 31.9096 14.256 31.6296 14.416C31.3496 14.576 31.1336 14.8 30.9816 15.088C30.8296 15.376 30.7536 15.716 30.7536 16.108C30.7536 16.508 30.8336 16.86 30.9936 17.164C31.1536 17.46 31.3816 17.692 31.6776 17.86C31.9736 18.02 32.3136 18.1 32.6976 18.1C33.0176 18.1 33.3096 18.044 33.5736 17.932C33.8456 17.82 34.0776 17.652 34.2696 17.428L34.9656 18.136C34.6936 18.456 34.3576 18.7 33.9576 18.868C33.5656 19.036 33.1456 19.12 32.6976 19.12ZM38.8552 21.508C38.2712 21.508 37.7512 21.4 37.2952 21.184C36.8472 20.968 36.4872 20.664 36.2152 20.272L36.9112 19.564C37.1432 19.86 37.4192 20.084 37.7392 20.236C38.0592 20.396 38.4392 20.476 38.8792 20.476C39.4632 20.476 39.9232 20.32 40.2592 20.008C40.6032 19.704 40.7752 19.292 40.7752 18.772V17.356L40.9672 16.072L40.7752 14.8V13.3H41.8552V18.772C41.8552 19.316 41.7272 19.792 41.4712 20.2C41.2232 20.608 40.8712 20.928 40.4152 21.16C39.9672 21.392 39.4472 21.508 38.8552 21.508ZM38.8552 18.904C38.3352 18.904 37.8672 18.78 37.4512 18.532C37.0432 18.284 36.7192 17.944 36.4792 17.512C36.2392 17.072 36.1192 16.58 36.1192 16.036C36.1192 15.492 36.2392 15.008 36.4792 14.584C36.7192 14.152 37.0432 13.812 37.4512 13.564C37.8672 13.308 38.3352 13.18 38.8552 13.18C39.3032 13.18 39.6992 13.268 40.0432 13.444C40.3872 13.62 40.6592 13.868 40.8592 14.188C41.0672 14.5 41.1792 14.868 41.1952 15.292V16.804C41.1712 17.22 41.0552 17.588 40.8472 17.908C40.6472 18.22 40.3752 18.464 40.0312 18.64C39.6872 18.816 39.2952 18.904 38.8552 18.904ZM39.0712 17.884C39.4232 17.884 39.7312 17.808 39.9952 17.656C40.2672 17.504 40.4752 17.292 40.6192 17.02C40.7632 16.74 40.8352 16.416 40.8352 16.048C40.8352 15.68 40.7592 15.36 40.6072 15.088C40.4632 14.808 40.2592 14.592 39.9952 14.44C39.7312 14.28 39.4192 14.2 39.0592 14.2C38.6992 14.2 38.3832 14.28 38.1112 14.44C37.8392 14.592 37.6232 14.808 37.4632 15.088C37.3112 15.36 37.2352 15.676 37.2352 16.036C37.2352 16.396 37.3112 16.716 37.4632 16.996C37.6232 17.276 37.8392 17.496 38.1112 17.656C38.3912 17.808 38.7112 17.884 39.0712 17.884ZM46.0444 19.12C45.4844 19.12 44.9804 18.988 44.5324 18.724C44.0844 18.46 43.7284 18.104 43.4644 17.656C43.2004 17.2 43.0684 16.692 43.0684 16.132C43.0684 15.58 43.2004 15.084 43.4644 14.644C43.7284 14.196 44.0844 13.84 44.5324 13.576C44.9804 13.312 45.4844 13.18 46.0444 13.18C46.5964 13.18 47.0964 13.312 47.5444 13.576C48.0004 13.832 48.3604 14.184 48.6244 14.632C48.8884 15.08 49.0204 15.58 49.0204 16.132C49.0204 16.692 48.8884 17.2 48.6244 17.656C48.3604 18.104 48.0004 18.46 47.5444 18.724C47.0964 18.988 46.5964 19.12 46.0444 19.12ZM46.0444 18.076C46.4044 18.076 46.7244 17.992 47.0044 17.824C47.2844 17.656 47.5044 17.428 47.6644 17.14C47.8244 16.844 47.9044 16.508 47.9044 16.132C47.9044 15.764 47.8204 15.436 47.6524 15.148C47.4924 14.86 47.2724 14.636 46.9924 14.476C46.7204 14.308 46.4044 14.224 46.0444 14.224C45.6844 14.224 45.3644 14.308 45.0844 14.476C44.8044 14.636 44.5844 14.86 44.4244 15.148C44.2644 15.436 44.1844 15.764 44.1844 16.132C44.1844 16.508 44.2644 16.844 44.4244 17.14C44.5844 17.428 44.8044 17.656 45.0844 17.824C45.3644 17.992 45.6844 18.076 46.0444 18.076ZM50.2373 19V13.3H51.3173V19H50.2373ZM51.3173 15.748L50.9093 15.568C50.9093 14.84 51.0773 14.26 51.4133 13.828C51.7493 13.396 52.2333 13.18 52.8653 13.18C53.1533 13.18 53.4133 13.232 53.6453 13.336C53.8773 13.432 54.0933 13.596 54.2933 13.828L53.5853 14.56C53.4653 14.432 53.3333 14.34 53.1893 14.284C53.0453 14.228 52.8773 14.2 52.6853 14.2C52.2853 14.2 51.9573 14.328 51.7013 14.584C51.4453 14.84 51.3173 15.228 51.3173 15.748ZM55.0657 19V13.3H56.1457V19H55.0657ZM55.6057 12.16C55.4057 12.16 55.2417 12.096 55.1137 11.968C54.9857 11.832 54.9217 11.664 54.9217 11.464C54.9217 11.272 54.9857 11.112 55.1137 10.984C55.2417 10.848 55.4057 10.78 55.6057 10.78C55.8057 10.78 55.9697 10.848 56.0977 10.984C56.2257 11.112 56.2897 11.272 56.2897 11.464C56.2897 11.664 56.2257 11.832 56.0977 11.968C55.9697 12.096 55.8057 12.16 55.6057 12.16ZM60.3773 19.12C59.8093 19.12 59.2973 18.992 58.8413 18.736C58.3853 18.472 58.0253 18.116 57.7613 17.668C57.4973 17.22 57.3653 16.712 57.3653 16.144C57.3653 15.584 57.4933 15.08 57.7493 14.632C58.0133 14.184 58.3653 13.832 58.8053 13.576C59.2533 13.312 59.7533 13.18 60.3053 13.18C60.8333 13.18 61.2973 13.3 61.6973 13.54C62.1053 13.78 62.4213 14.112 62.6453 14.536C62.8773 14.96 62.9933 15.44 62.9933 15.976C62.9933 16.056 62.9893 16.144 62.9813 16.24C62.9733 16.328 62.9573 16.432 62.9333 16.552H58.1213V15.652H62.3573L61.9613 16C61.9613 15.616 61.8933 15.292 61.7573 15.028C61.6213 14.756 61.4293 14.548 61.1813 14.404C60.9333 14.252 60.6333 14.176 60.2813 14.176C59.9133 14.176 59.5893 14.256 59.3093 14.416C59.0293 14.576 58.8133 14.8 58.6613 15.088C58.5093 15.376 58.4333 15.716 58.4333 16.108C58.4333 16.508 58.5133 16.86 58.6733 17.164C58.8333 17.46 59.0613 17.692 59.3573 17.86C59.6533 18.02 59.9933 18.1 60.3773 18.1C60.6973 18.1 60.9893 18.044 61.2533 17.932C61.5253 17.82 61.7573 17.652 61.9493 17.428L62.6453 18.136C62.3733 18.456 62.0373 18.7 61.6373 18.868C61.2453 19.036 60.8253 19.12 60.3773 19.12ZM65.9829 19.12C65.6629 19.12 65.3589 19.08 65.0709 19C64.7909 18.912 64.5309 18.792 64.2909 18.64C64.0509 18.48 63.8429 18.292 63.6669 18.076L64.3629 17.38C64.5709 17.636 64.8109 17.828 65.0829 17.956C65.3549 18.076 65.6589 18.136 65.9949 18.136C66.3309 18.136 66.5909 18.08 66.7749 17.968C66.9589 17.848 67.0509 17.684 67.0509 17.476C67.0509 17.268 66.9749 17.108 66.8229 16.996C66.6789 16.876 66.4909 16.78 66.2589 16.708C66.0269 16.628 65.7789 16.552 65.5149 16.48C65.2589 16.4 65.0149 16.3 64.7829 16.18C64.5509 16.06 64.3589 15.896 64.2069 15.688C64.0629 15.48 63.9909 15.204 63.9909 14.86C63.9909 14.516 64.0749 14.22 64.2429 13.972C64.4109 13.716 64.6429 13.52 64.9389 13.384C65.2429 13.248 65.6069 13.18 66.0309 13.18C66.4789 13.18 66.8749 13.26 67.2189 13.42C67.5709 13.572 67.8589 13.804 68.0829 14.116L67.3869 14.812C67.2269 14.604 67.0269 14.444 66.7869 14.332C66.5549 14.22 66.2909 14.164 65.9949 14.164C65.6829 14.164 65.4429 14.22 65.2749 14.332C65.1149 14.436 65.0349 14.584 65.0349 14.776C65.0349 14.968 65.1069 15.116 65.2509 15.22C65.3949 15.324 65.5829 15.412 65.8149 15.484C66.0549 15.556 66.3029 15.632 66.5589 15.712C66.8149 15.784 67.0589 15.884 67.2909 16.012C67.5229 16.14 67.7109 16.312 67.8549 16.528C68.0069 16.744 68.0829 17.028 68.0829 17.38C68.0829 17.916 67.8909 18.34 67.5069 18.652C67.1309 18.964 66.6229 19.12 65.9829 19.12Z" fill="white"/>
<rect x="0.25" y="0.25" width="78.5" height="29.5" rx="7.75" stroke="#A4A3A3" stroke-width="0.5"/>
<rect x="87.25" y="0.25" width="73.5" height="29.5" rx="7.75" fill="#004445"/>
<path d="M98.74 19V18.016H101.26C101.74 18.016 102.116 17.876 102.388 17.596C102.66 17.308 102.796 16.964 102.796 16.564C102.796 16.292 102.736 16.048 102.616 15.832C102.496 15.608 102.32 15.432 102.088 15.304C101.864 15.176 101.6 15.112 101.296 15.112H98.74V14.128H101.128C101.528 14.128 101.844 14.024 102.076 13.816C102.316 13.6 102.436 13.292 102.436 12.892C102.436 12.492 102.312 12.188 102.064 11.98C101.816 11.764 101.488 11.656 101.08 11.656H98.74V10.672H101.104C101.648 10.672 102.1 10.772 102.46 10.972C102.828 11.164 103.104 11.42 103.288 11.74C103.48 12.06 103.576 12.412 103.576 12.796C103.576 13.244 103.452 13.636 103.204 13.972C102.964 14.308 102.608 14.572 102.136 14.764L102.232 14.404C102.768 14.596 103.184 14.888 103.48 15.28C103.784 15.664 103.936 16.12 103.936 16.648C103.936 17.088 103.828 17.484 103.612 17.836C103.396 18.188 103.084 18.472 102.676 18.688C102.276 18.896 101.784 19 101.2 19H98.74ZM97.984 19V10.672H99.112V19H97.984ZM107.909 19.12C107.341 19.12 106.829 18.992 106.373 18.736C105.917 18.472 105.557 18.116 105.293 17.668C105.029 17.22 104.897 16.712 104.897 16.144C104.897 15.584 105.025 15.08 105.281 14.632C105.545 14.184 105.897 13.832 106.337 13.576C106.785 13.312 107.285 13.18 107.837 13.18C108.365 13.18 108.829 13.3 109.229 13.54C109.637 13.78 109.953 14.112 110.177 14.536C110.409 14.96 110.525 15.44 110.525 15.976C110.525 16.056 110.521 16.144 110.513 16.24C110.505 16.328 110.489 16.432 110.465 16.552H105.653V15.652H109.889L109.493 16C109.493 15.616 109.425 15.292 109.289 15.028C109.153 14.756 108.961 14.548 108.713 14.404C108.465 14.252 108.165 14.176 107.813 14.176C107.445 14.176 107.121 14.256 106.841 14.416C106.561 14.576 106.345 14.8 106.193 15.088C106.041 15.376 105.965 15.716 105.965 16.108C105.965 16.508 106.045 16.86 106.205 17.164C106.365 17.46 106.593 17.692 106.889 17.86C107.185 18.02 107.525 18.1 107.909 18.1C108.229 18.1 108.521 18.044 108.785 17.932C109.057 17.82 109.289 17.652 109.481 17.428L110.177 18.136C109.905 18.456 109.569 18.7 109.169 18.868C108.777 19.036 108.357 19.12 107.909 19.12ZM113.514 19.12C113.194 19.12 112.89 19.08 112.602 19C112.322 18.912 112.062 18.792 111.822 18.64C111.582 18.48 111.374 18.292 111.198 18.076L111.894 17.38C112.102 17.636 112.342 17.828 112.614 17.956C112.886 18.076 113.19 18.136 113.526 18.136C113.862 18.136 114.122 18.08 114.306 17.968C114.49 17.848 114.582 17.684 114.582 17.476C114.582 17.268 114.506 17.108 114.354 16.996C114.21 16.876 114.022 16.78 113.79 16.708C113.558 16.628 113.31 16.552 113.046 16.48C112.79 16.4 112.546 16.3 112.314 16.18C112.082 16.06 111.89 15.896 111.738 15.688C111.594 15.48 111.522 15.204 111.522 14.86C111.522 14.516 111.606 14.22 111.774 13.972C111.942 13.716 112.174 13.52 112.47 13.384C112.774 13.248 113.138 13.18 113.562 13.18C114.01 13.18 114.406 13.26 114.75 13.42C115.102 13.572 115.39 13.804 115.614 14.116L114.918 14.812C114.758 14.604 114.558 14.444 114.318 14.332C114.086 14.22 113.822 14.164 113.526 14.164C113.214 14.164 112.974 14.22 112.806 14.332C112.646 14.436 112.566 14.584 112.566 14.776C112.566 14.968 112.638 15.116 112.782 15.22C112.926 15.324 113.114 15.412 113.346 15.484C113.586 15.556 113.834 15.632 114.09 15.712C114.346 15.784 114.59 15.884 114.822 16.012C115.054 16.14 115.242 16.312 115.386 16.528C115.538 16.744 115.614 17.028 115.614 17.38C115.614 17.916 115.422 18.34 115.038 18.652C114.662 18.964 114.154 19.12 113.514 19.12ZM117.699 19V10.912H118.779V19H117.699ZM116.295 14.284V13.3H120.183V14.284H116.295ZM124.685 15.376V14.428H126.941C127.429 14.428 127.805 14.304 128.069 14.056C128.333 13.808 128.465 13.472 128.465 13.048C128.465 12.648 128.333 12.316 128.069 12.052C127.813 11.788 127.441 11.656 126.953 11.656H124.685V10.672H126.989C127.517 10.672 127.977 10.776 128.369 10.984C128.761 11.184 129.061 11.46 129.269 11.812C129.485 12.164 129.593 12.568 129.593 13.024C129.593 13.496 129.485 13.908 129.269 14.26C129.061 14.612 128.761 14.888 128.369 15.088C127.977 15.28 127.517 15.376 126.989 15.376H124.685ZM123.929 19V10.672H125.057V19H123.929ZM128.729 19L125.705 15.268L126.773 14.896L130.157 19H128.729ZM133.584 19.12C133.016 19.12 132.504 18.992 132.048 18.736C131.592 18.472 131.232 18.116 130.968 17.668C130.704 17.22 130.572 16.712 130.572 16.144C130.572 15.584 130.7 15.08 130.956 14.632C131.22 14.184 131.572 13.832 132.012 13.576C132.46 13.312 132.96 13.18 133.512 13.18C134.04 13.18 134.504 13.3 134.904 13.54C135.312 13.78 135.628 14.112 135.852 14.536C136.084 14.96 136.2 15.44 136.2 15.976C136.2 16.056 136.196 16.144 136.188 16.24C136.18 16.328 136.164 16.432 136.14 16.552H131.328V15.652H135.564L135.168 16C135.168 15.616 135.1 15.292 134.964 15.028C134.828 14.756 134.636 14.548 134.388 14.404C134.14 14.252 133.84 14.176 133.488 14.176C133.12 14.176 132.796 14.256 132.516 14.416C132.236 14.576 132.02 14.8 131.868 15.088C131.716 15.376 131.64 15.716 131.64 16.108C131.64 16.508 131.72 16.86 131.88 17.164C132.04 17.46 132.268 17.692 132.564 17.86C132.86 18.02 133.2 18.1 133.584 18.1C133.904 18.1 134.196 18.044 134.46 17.932C134.732 17.82 134.964 17.652 135.156 17.428L135.852 18.136C135.58 18.456 135.244 18.7 134.844 18.868C134.452 19.036 134.032 19.12 133.584 19.12ZM139.802 19.12C139.282 19.12 138.81 18.992 138.386 18.736C137.962 18.472 137.626 18.116 137.378 17.668C137.138 17.22 137.018 16.716 137.018 16.156C137.018 15.596 137.138 15.092 137.378 14.644C137.626 14.196 137.958 13.84 138.374 13.576C138.798 13.312 139.274 13.18 139.802 13.18C140.234 13.18 140.618 13.272 140.954 13.456C141.298 13.632 141.574 13.88 141.782 14.2C141.99 14.512 142.106 14.876 142.13 15.292V17.008C142.106 17.416 141.99 17.78 141.782 18.1C141.582 18.42 141.31 18.672 140.966 18.856C140.63 19.032 140.242 19.12 139.802 19.12ZM139.982 18.1C140.518 18.1 140.95 17.92 141.278 17.56C141.606 17.192 141.77 16.724 141.77 16.156C141.77 15.764 141.694 15.424 141.542 15.136C141.398 14.84 141.19 14.612 140.918 14.452C140.646 14.284 140.33 14.2 139.97 14.2C139.61 14.2 139.29 14.284 139.01 14.452C138.738 14.62 138.522 14.852 138.362 15.148C138.21 15.436 138.134 15.768 138.134 16.144C138.134 16.528 138.21 16.868 138.362 17.164C138.522 17.452 138.742 17.68 139.022 17.848C139.302 18.016 139.622 18.1 139.982 18.1ZM141.698 19V17.464L141.902 16.072L141.698 14.692V13.3H142.79V19H141.698ZM146.774 19.12C146.246 19.12 145.774 18.992 145.358 18.736C144.942 18.472 144.61 18.116 144.362 17.668C144.122 17.22 144.002 16.716 144.002 16.156C144.002 15.596 144.122 15.092 144.362 14.644C144.61 14.196 144.942 13.84 145.358 13.576C145.774 13.312 146.246 13.18 146.774 13.18C147.198 13.18 147.582 13.272 147.926 13.456C148.27 13.632 148.546 13.88 148.754 14.2C148.97 14.512 149.09 14.876 149.114 15.292V17.008C149.09 17.416 148.974 17.78 148.766 18.1C148.558 18.42 148.282 18.672 147.938 18.856C147.594 19.032 147.206 19.12 146.774 19.12ZM146.954 18.1C147.314 18.1 147.626 18.016 147.89 17.848C148.162 17.68 148.374 17.452 148.526 17.164C148.678 16.868 148.754 16.532 148.754 16.156C148.754 15.764 148.674 15.424 148.514 15.136C148.362 14.848 148.15 14.62 147.878 14.452C147.614 14.284 147.302 14.2 146.942 14.2C146.582 14.2 146.266 14.284 145.994 14.452C145.722 14.62 145.506 14.852 145.346 15.148C145.194 15.436 145.118 15.768 145.118 16.144C145.118 16.528 145.194 16.868 145.346 17.164C145.506 17.452 145.722 17.68 145.994 17.848C146.274 18.016 146.594 18.1 146.954 18.1ZM149.774 19H148.682V17.464L148.886 16.072L148.682 14.692V10.432H149.774V19Z" fill="white"/>
<rect x="87.25" y="0.25" width="73.5" height="29.5" rx="7.75" stroke="#A4A3A3" stroke-width="0.5"/>
<rect x="169.25" y="0.25" width="63.5" height="29.5" rx="7.75" fill="#004445"/>
<path d="M183.104 19.12C182.488 19.12 181.936 18.984 181.448 18.712C180.968 18.432 180.588 18.052 180.308 17.572C180.028 17.084 179.888 16.532 179.888 15.916V10.672H181.016V15.892C181.016 16.332 181.108 16.712 181.292 17.032C181.476 17.352 181.724 17.6 182.036 17.776C182.356 17.952 182.712 18.04 183.104 18.04C183.512 18.04 183.868 17.952 184.172 17.776C184.484 17.6 184.728 17.352 184.904 17.032C185.088 16.712 185.18 16.336 185.18 15.904V10.672H186.32V15.928C186.32 16.544 186.18 17.092 185.9 17.572C185.62 18.052 185.24 18.432 184.76 18.712C184.28 18.984 183.728 19.12 183.104 19.12ZM190.983 19.12C190.551 19.12 190.159 19.032 189.807 18.856C189.463 18.672 189.187 18.42 188.979 18.1C188.771 17.78 188.655 17.416 188.631 17.008V15.292C188.655 14.876 188.771 14.512 188.979 14.2C189.195 13.88 189.475 13.632 189.819 13.456C190.171 13.272 190.559 13.18 190.983 13.18C191.503 13.18 191.971 13.312 192.387 13.576C192.811 13.84 193.143 14.196 193.383 14.644C193.623 15.092 193.743 15.596 193.743 16.156C193.743 16.716 193.623 17.22 193.383 17.668C193.143 18.116 192.811 18.472 192.387 18.736C191.971 18.992 191.503 19.12 190.983 19.12ZM190.803 18.1C191.163 18.1 191.479 18.016 191.751 17.848C192.023 17.68 192.239 17.452 192.399 17.164C192.559 16.868 192.639 16.528 192.639 16.144C192.639 15.768 192.559 15.432 192.399 15.136C192.239 14.84 192.023 14.612 191.751 14.452C191.479 14.284 191.167 14.2 190.815 14.2C190.455 14.2 190.139 14.284 189.867 14.452C189.595 14.612 189.383 14.84 189.231 15.136C189.079 15.432 189.003 15.772 189.003 16.156C189.003 16.532 189.075 16.868 189.219 17.164C189.371 17.452 189.583 17.68 189.855 17.848C190.135 18.016 190.451 18.1 190.803 18.1ZM187.983 21.388V13.3H189.063V14.8L188.859 16.18L189.063 17.572V21.388H187.983ZM196.701 19L194.085 13.3H195.285L197.385 18.112H196.689L198.801 13.3H199.953L197.337 19H196.701ZM203.255 19.12C202.695 19.12 202.191 18.988 201.743 18.724C201.295 18.46 200.939 18.104 200.675 17.656C200.411 17.2 200.279 16.692 200.279 16.132C200.279 15.58 200.411 15.084 200.675 14.644C200.939 14.196 201.295 13.84 201.743 13.576C202.191 13.312 202.695 13.18 203.255 13.18C203.807 13.18 204.307 13.312 204.755 13.576C205.211 13.832 205.571 14.184 205.835 14.632C206.099 15.08 206.231 15.58 206.231 16.132C206.231 16.692 206.099 17.2 205.835 17.656C205.571 18.104 205.211 18.46 204.755 18.724C204.307 18.988 203.807 19.12 203.255 19.12ZM203.255 18.076C203.615 18.076 203.935 17.992 204.215 17.824C204.495 17.656 204.715 17.428 204.875 17.14C205.035 16.844 205.115 16.508 205.115 16.132C205.115 15.764 205.031 15.436 204.863 15.148C204.703 14.86 204.483 14.636 204.203 14.476C203.931 14.308 203.615 14.224 203.255 14.224C202.895 14.224 202.575 14.308 202.295 14.476C202.015 14.636 201.795 14.86 201.635 15.148C201.475 15.436 201.395 15.764 201.395 16.132C201.395 16.508 201.475 16.844 201.635 17.14C201.795 17.428 202.015 17.656 202.295 17.824C202.575 17.992 202.895 18.076 203.255 18.076ZM208.148 19V10.912H209.228V19H208.148ZM206.744 14.284V13.3H210.632V14.284H206.744ZM214.155 19.12C213.587 19.12 213.075 18.992 212.619 18.736C212.163 18.472 211.803 18.116 211.539 17.668C211.275 17.22 211.143 16.712 211.143 16.144C211.143 15.584 211.271 15.08 211.527 14.632C211.791 14.184 212.143 13.832 212.583 13.576C213.031 13.312 213.531 13.18 214.083 13.18C214.611 13.18 215.075 13.3 215.475 13.54C215.883 13.78 216.199 14.112 216.423 14.536C216.655 14.96 216.771 15.44 216.771 15.976C216.771 16.056 216.767 16.144 216.759 16.24C216.751 16.328 216.735 16.432 216.711 16.552H211.899V15.652H216.135L215.739 16C215.739 15.616 215.671 15.292 215.535 15.028C215.399 14.756 215.207 14.548 214.959 14.404C214.711 14.252 214.411 14.176 214.059 14.176C213.691 14.176 213.367 14.256 213.087 14.416C212.807 14.576 212.591 14.8 212.439 15.088C212.287 15.376 212.211 15.716 212.211 16.108C212.211 16.508 212.291 16.86 212.451 17.164C212.611 17.46 212.839 17.692 213.135 17.86C213.431 18.02 213.771 18.1 214.155 18.1C214.475 18.1 214.767 18.044 215.031 17.932C215.303 17.82 215.535 17.652 215.727 17.428L216.423 18.136C216.151 18.456 215.815 18.7 215.415 18.868C215.023 19.036 214.603 19.12 214.155 19.12ZM219.76 19.12C219.44 19.12 219.136 19.08 218.848 19C218.568 18.912 218.308 18.792 218.068 18.64C217.828 18.48 217.62 18.292 217.444 18.076L218.14 17.38C218.348 17.636 218.588 17.828 218.86 17.956C219.132 18.076 219.436 18.136 219.772 18.136C220.108 18.136 220.368 18.08 220.552 17.968C220.736 17.848 220.828 17.684 220.828 17.476C220.828 17.268 220.752 17.108 220.6 16.996C220.456 16.876 220.268 16.78 220.036 16.708C219.804 16.628 219.556 16.552 219.292 16.48C219.036 16.4 218.792 16.3 218.56 16.18C218.328 16.06 218.136 15.896 217.984 15.688C217.84 15.48 217.768 15.204 217.768 14.86C217.768 14.516 217.852 14.22 218.02 13.972C218.188 13.716 218.42 13.52 218.716 13.384C219.02 13.248 219.384 13.18 219.808 13.18C220.256 13.18 220.652 13.26 220.996 13.42C221.348 13.572 221.636 13.804 221.86 14.116L221.164 14.812C221.004 14.604 220.804 14.444 220.564 14.332C220.332 14.22 220.068 14.164 219.772 14.164C219.46 14.164 219.22 14.22 219.052 14.332C218.892 14.436 218.812 14.584 218.812 14.776C218.812 14.968 218.884 15.116 219.028 15.22C219.172 15.324 219.36 15.412 219.592 15.484C219.832 15.556 220.08 15.632 220.336 15.712C220.592 15.784 220.836 15.884 221.068 16.012C221.3 16.14 221.488 16.312 221.632 16.528C221.784 16.744 221.86 17.028 221.86 17.38C221.86 17.916 221.668 18.34 221.284 18.652C220.908 18.964 220.4 19.12 219.76 19.12Z" fill="white"/>
<rect x="169.25" y="0.25" width="63.5" height="29.5" rx="7.75" stroke="#A4A3A3" stroke-width="0.5"/>
<rect x="0.25" y="38.25" width="56.5" height="29.5" rx="7.75" fill="#004445"/>
<path d="M11.74 53.376V52.428H13.996C14.484 52.428 14.86 52.304 15.124 52.056C15.388 51.808 15.52 51.472 15.52 51.048C15.52 50.648 15.388 50.316 15.124 50.052C14.868 49.788 14.496 49.656 14.008 49.656H11.74V48.672H14.044C14.572 48.672 15.032 48.776 15.424 48.984C15.816 49.184 16.116 49.46 16.324 49.812C16.54 50.164 16.648 50.568 16.648 51.024C16.648 51.496 16.54 51.908 16.324 52.26C16.116 52.612 15.816 52.888 15.424 53.088C15.032 53.28 14.572 53.376 14.044 53.376H11.74ZM10.984 57V48.672H12.112V57H10.984ZM15.784 57L12.76 53.268L13.828 52.896L17.212 57H15.784ZM20.639 57.12C20.071 57.12 19.559 56.992 19.103 56.736C18.647 56.472 18.287 56.116 18.023 55.668C17.759 55.22 17.627 54.712 17.627 54.144C17.627 53.584 17.755 53.08 18.011 52.632C18.275 52.184 18.627 51.832 19.067 51.576C19.515 51.312 20.015 51.18 20.567 51.18C21.095 51.18 21.559 51.3 21.959 51.54C22.367 51.78 22.683 52.112 22.907 52.536C23.139 52.96 23.255 53.44 23.255 53.976C23.255 54.056 23.251 54.144 23.243 54.24C23.235 54.328 23.219 54.432 23.195 54.552H18.383V53.652H22.619L22.223 54C22.223 53.616 22.155 53.292 22.019 53.028C21.883 52.756 21.691 52.548 21.443 52.404C21.195 52.252 20.895 52.176 20.543 52.176C20.175 52.176 19.851 52.256 19.571 52.416C19.291 52.576 19.075 52.8 18.923 53.088C18.771 53.376 18.695 53.716 18.695 54.108C18.695 54.508 18.775 54.86 18.935 55.164C19.095 55.46 19.323 55.692 19.619 55.86C19.915 56.02 20.255 56.1 20.639 56.1C20.959 56.1 21.251 56.044 21.515 55.932C21.787 55.82 22.019 55.652 22.211 55.428L22.907 56.136C22.635 56.456 22.299 56.7 21.899 56.868C21.507 57.036 21.087 57.12 20.639 57.12ZM27.0366 57.12C26.4766 57.12 25.9686 56.988 25.5126 56.724C25.0646 56.46 24.7086 56.104 24.4446 55.656C24.1886 55.2 24.0606 54.696 24.0606 54.144C24.0606 53.584 24.1886 53.08 24.4446 52.632C24.7086 52.184 25.0646 51.832 25.5126 51.576C25.9686 51.312 26.4766 51.18 27.0366 51.18C27.4766 51.18 27.8846 51.264 28.2606 51.432C28.6366 51.592 28.9606 51.828 29.2326 52.14L28.5126 52.86C28.3366 52.652 28.1206 52.496 27.8646 52.392C27.6166 52.28 27.3406 52.224 27.0366 52.224C26.6766 52.224 26.3566 52.308 26.0766 52.476C25.7966 52.636 25.5766 52.86 25.4166 53.148C25.2566 53.436 25.1766 53.768 25.1766 54.144C25.1766 54.52 25.2566 54.852 25.4166 55.14C25.5766 55.428 25.7966 55.656 26.0766 55.824C26.3566 55.992 26.6766 56.076 27.0366 56.076C27.3406 56.076 27.6166 56.024 27.8646 55.92C28.1206 55.808 28.3406 55.648 28.5246 55.44L29.2326 56.16C28.9686 56.464 28.6446 56.7 28.2606 56.868C27.8846 57.036 27.4766 57.12 27.0366 57.12ZM32.8265 57.12C32.2585 57.12 31.7465 56.992 31.2905 56.736C30.8345 56.472 30.4745 56.116 30.2105 55.668C29.9465 55.22 29.8145 54.712 29.8145 54.144C29.8145 53.584 29.9425 53.08 30.1985 52.632C30.4625 52.184 30.8145 51.832 31.2545 51.576C31.7025 51.312 32.2025 51.18 32.7545 51.18C33.2825 51.18 33.7465 51.3 34.1465 51.54C34.5545 51.78 34.8705 52.112 35.0945 52.536C35.3265 52.96 35.4425 53.44 35.4425 53.976C35.4425 54.056 35.4385 54.144 35.4305 54.24C35.4225 54.328 35.4065 54.432 35.3825 54.552H30.5705V53.652H34.8065L34.4105 54C34.4105 53.616 34.3425 53.292 34.2065 53.028C34.0705 52.756 33.8785 52.548 33.6305 52.404C33.3825 52.252 33.0825 52.176 32.7305 52.176C32.3625 52.176 32.0385 52.256 31.7585 52.416C31.4785 52.576 31.2625 52.8 31.1105 53.088C30.9585 53.376 30.8825 53.716 30.8825 54.108C30.8825 54.508 30.9625 54.86 31.1225 55.164C31.2825 55.46 31.5105 55.692 31.8065 55.86C32.1025 56.02 32.4425 56.1 32.8265 56.1C33.1465 56.1 33.4385 56.044 33.7025 55.932C33.9745 55.82 34.2065 55.652 34.3985 55.428L35.0945 56.136C34.8225 56.456 34.4865 56.7 34.0865 56.868C33.6945 57.036 33.2745 57.12 32.8265 57.12ZM40.6521 57V53.676C40.6521 53.244 40.5161 52.888 40.2441 52.608C39.9721 52.328 39.6201 52.188 39.1881 52.188C38.9001 52.188 38.6441 52.252 38.4201 52.38C38.1961 52.508 38.0201 52.684 37.8921 52.908C37.7641 53.132 37.7001 53.388 37.7001 53.676L37.2561 53.424C37.2561 52.992 37.3521 52.608 37.5441 52.272C37.7361 51.936 38.0041 51.672 38.3481 51.48C38.6921 51.28 39.0801 51.18 39.5121 51.18C39.9441 51.18 40.3241 51.288 40.6521 51.504C40.9881 51.72 41.2521 52.004 41.4441 52.356C41.6361 52.7 41.7321 53.068 41.7321 53.46V57H40.6521ZM36.6201 57V51.3H37.7001V57H36.6201ZM44 57V48.912H45.08V57H44ZM42.596 52.284V51.3H46.484V52.284H42.596Z" fill="white"/>
<rect x="0.25" y="38.25" width="56.5" height="29.5" rx="7.75" stroke="#A4A3A3" stroke-width="0.5"/>
<rect x="65.25" y="38.25" width="81.5" height="29.5" rx="7.75" fill="#004445"/>
<path d="M78.192 57V48.912H79.32V57H78.192ZM75.36 49.704V48.672H82.14V49.704H75.36ZM84.314 57.12C83.754 57.12 83.25 56.988 82.802 56.724C82.354 56.46 81.998 56.104 81.734 55.656C81.47 55.2 81.338 54.692 81.338 54.132C81.338 53.58 81.47 53.084 81.734 52.644C81.998 52.196 82.354 51.84 82.802 51.576C83.25 51.312 83.754 51.18 84.314 51.18C84.866 51.18 85.366 51.312 85.814 51.576C86.27 51.832 86.63 52.184 86.894 52.632C87.158 53.08 87.29 53.58 87.29 54.132C87.29 54.692 87.158 55.2 86.894 55.656C86.63 56.104 86.27 56.46 85.814 56.724C85.366 56.988 84.866 57.12 84.314 57.12ZM84.314 56.076C84.674 56.076 84.994 55.992 85.274 55.824C85.554 55.656 85.774 55.428 85.934 55.14C86.094 54.844 86.174 54.508 86.174 54.132C86.174 53.764 86.09 53.436 85.922 53.148C85.762 52.86 85.542 52.636 85.262 52.476C84.99 52.308 84.674 52.224 84.314 52.224C83.954 52.224 83.634 52.308 83.354 52.476C83.074 52.636 82.854 52.86 82.694 53.148C82.534 53.436 82.454 53.764 82.454 54.132C82.454 54.508 82.534 54.844 82.694 55.14C82.854 55.428 83.074 55.656 83.354 55.824C83.634 55.992 83.954 56.076 84.314 56.076ZM91.5068 57.12C91.0748 57.12 90.6828 57.032 90.3308 56.856C89.9868 56.672 89.7108 56.42 89.5028 56.1C89.2948 55.78 89.1788 55.416 89.1548 55.008V53.292C89.1788 52.876 89.2948 52.512 89.5028 52.2C89.7188 51.88 89.9988 51.632 90.3428 51.456C90.6948 51.272 91.0828 51.18 91.5068 51.18C92.0268 51.18 92.4948 51.312 92.9108 51.576C93.3348 51.84 93.6668 52.196 93.9068 52.644C94.1468 53.092 94.2668 53.596 94.2668 54.156C94.2668 54.716 94.1468 55.22 93.9068 55.668C93.6668 56.116 93.3348 56.472 92.9108 56.736C92.4948 56.992 92.0268 57.12 91.5068 57.12ZM91.3268 56.1C91.6868 56.1 92.0028 56.016 92.2748 55.848C92.5468 55.68 92.7628 55.452 92.9228 55.164C93.0828 54.868 93.1628 54.528 93.1628 54.144C93.1628 53.768 93.0828 53.432 92.9228 53.136C92.7628 52.84 92.5468 52.612 92.2748 52.452C92.0028 52.284 91.6908 52.2 91.3388 52.2C90.9788 52.2 90.6628 52.284 90.3908 52.452C90.1188 52.612 89.9068 52.84 89.7548 53.136C89.6028 53.432 89.5268 53.772 89.5268 54.156C89.5268 54.532 89.5988 54.868 89.7428 55.164C89.8948 55.452 90.1068 55.68 90.3788 55.848C90.6588 56.016 90.9748 56.1 91.3268 56.1ZM88.5068 59.388V51.3H89.5868V52.8L89.3828 54.18L89.5868 55.572V59.388H88.5068ZM100.303 57L97.5793 48.672H98.7073L100.867 55.464H100.543L102.667 48.672H103.483L105.607 55.464H105.295L107.455 48.672H108.571L105.859 57H105.055L102.919 50.22H103.231L101.107 57H100.303ZM108.991 57V51.3H110.071V57H108.991ZM110.071 53.748L109.663 53.568C109.663 52.84 109.831 52.26 110.167 51.828C110.503 51.396 110.987 51.18 111.619 51.18C111.907 51.18 112.167 51.232 112.399 51.336C112.631 51.432 112.847 51.596 113.047 51.828L112.339 52.56C112.219 52.432 112.087 52.34 111.943 52.284C111.799 52.228 111.631 52.2 111.439 52.2C111.039 52.2 110.711 52.328 110.455 52.584C110.199 52.84 110.071 53.228 110.071 53.748ZM113.82 57V51.3H114.9V57H113.82ZM114.36 50.16C114.16 50.16 113.996 50.096 113.868 49.968C113.74 49.832 113.676 49.664 113.676 49.464C113.676 49.272 113.74 49.112 113.868 48.984C113.996 48.848 114.16 48.78 114.36 48.78C114.56 48.78 114.724 48.848 114.852 48.984C114.98 49.112 115.044 49.272 115.044 49.464C115.044 49.664 114.98 49.832 114.852 49.968C114.724 50.096 114.56 50.16 114.36 50.16ZM117.367 57V48.912H118.447V57H117.367ZM115.963 52.284V51.3H119.851V52.284H115.963ZM123.373 57.12C122.805 57.12 122.293 56.992 121.837 56.736C121.381 56.472 121.021 56.116 120.757 55.668C120.493 55.22 120.361 54.712 120.361 54.144C120.361 53.584 120.489 53.08 120.745 52.632C121.009 52.184 121.361 51.832 121.801 51.576C122.249 51.312 122.749 51.18 123.301 51.18C123.829 51.18 124.293 51.3 124.693 51.54C125.101 51.78 125.417 52.112 125.641 52.536C125.873 52.96 125.989 53.44 125.989 53.976C125.989 54.056 125.985 54.144 125.977 54.24C125.969 54.328 125.953 54.432 125.929 54.552H121.117V53.652H125.353L124.957 54C124.957 53.616 124.889 53.292 124.753 53.028C124.617 52.756 124.425 52.548 124.177 52.404C123.929 52.252 123.629 52.176 123.277 52.176C122.909 52.176 122.585 52.256 122.305 52.416C122.025 52.576 121.809 52.8 121.657 53.088C121.505 53.376 121.429 53.716 121.429 54.108C121.429 54.508 121.509 54.86 121.669 55.164C121.829 55.46 122.057 55.692 122.353 55.86C122.649 56.02 122.989 56.1 123.373 56.1C123.693 56.1 123.985 56.044 124.249 55.932C124.521 55.82 124.753 55.652 124.945 55.428L125.641 56.136C125.369 56.456 125.033 56.7 124.633 56.868C124.241 57.036 123.821 57.12 123.373 57.12ZM127.167 57V51.3H128.247V57H127.167ZM128.247 53.748L127.839 53.568C127.839 52.84 128.007 52.26 128.343 51.828C128.679 51.396 129.163 51.18 129.795 51.18C130.083 51.18 130.343 51.232 130.575 51.336C130.807 51.432 131.023 51.596 131.223 51.828L130.515 52.56C130.395 52.432 130.263 52.34 130.119 52.284C129.975 52.228 129.807 52.2 129.615 52.2C129.215 52.2 128.887 52.328 128.631 52.584C128.375 52.84 128.247 53.228 128.247 53.748ZM133.667 57.12C133.347 57.12 133.043 57.08 132.755 57C132.475 56.912 132.215 56.792 131.975 56.64C131.735 56.48 131.527 56.292 131.351 56.076L132.047 55.38C132.255 55.636 132.495 55.828 132.767 55.956C133.039 56.076 133.343 56.136 133.679 56.136C134.015 56.136 134.275 56.08 134.459 55.968C134.643 55.848 134.735 55.684 134.735 55.476C134.735 55.268 134.659 55.108 134.507 54.996C134.363 54.876 134.175 54.78 133.943 54.708C133.711 54.628 133.463 54.552 133.199 54.48C132.943 54.4 132.699 54.3 132.467 54.18C132.235 54.06 132.043 53.896 131.891 53.688C131.747 53.48 131.675 53.204 131.675 52.86C131.675 52.516 131.759 52.22 131.927 51.972C132.095 51.716 132.327 51.52 132.623 51.384C132.927 51.248 133.291 51.18 133.715 51.18C134.163 51.18 134.559 51.26 134.903 51.42C135.255 51.572 135.543 51.804 135.767 52.116L135.071 52.812C134.911 52.604 134.711 52.444 134.471 52.332C134.239 52.22 133.975 52.164 133.679 52.164C133.367 52.164 133.127 52.22 132.959 52.332C132.799 52.436 132.719 52.584 132.719 52.776C132.719 52.968 132.791 53.116 132.935 53.22C133.079 53.324 133.267 53.412 133.499 53.484C133.739 53.556 133.987 53.632 134.243 53.712C134.499 53.784 134.743 53.884 134.975 54.012C135.207 54.14 135.395 54.312 135.539 54.528C135.691 54.744 135.767 55.028 135.767 55.38C135.767 55.916 135.575 56.34 135.191 56.652C134.815 56.964 134.307 57.12 133.667 57.12Z" fill="white"/>
<rect x="65.25" y="38.25" width="81.5" height="29.5" rx="7.75" stroke="#A4A3A3" stroke-width="0.5"/>
<rect x="155.25" y="38.25" width="43.5" height="29.5" rx="7.75" fill="#004445"/>
<path d="M166.74 53.76V52.776H169.008C169.32 52.776 169.596 52.712 169.836 52.584C170.084 52.456 170.276 52.276 170.412 52.044C170.556 51.812 170.628 51.536 170.628 51.216C170.628 50.896 170.556 50.62 170.412 50.388C170.276 50.156 170.084 49.976 169.836 49.848C169.596 49.72 169.32 49.656 169.008 49.656H166.74V48.672H169.08C169.592 48.672 170.048 48.776 170.448 48.984C170.856 49.192 171.176 49.488 171.408 49.872C171.648 50.248 171.768 50.696 171.768 51.216C171.768 51.728 171.648 52.176 171.408 52.56C171.176 52.936 170.856 53.232 170.448 53.448C170.048 53.656 169.592 53.76 169.08 53.76H166.74ZM165.984 57V48.672H167.112V57H165.984ZM175.165 57.12C174.645 57.12 174.173 56.992 173.749 56.736C173.325 56.472 172.989 56.116 172.741 55.668C172.501 55.22 172.381 54.716 172.381 54.156C172.381 53.596 172.501 53.092 172.741 52.644C172.989 52.196 173.321 51.84 173.737 51.576C174.161 51.312 174.637 51.18 175.165 51.18C175.597 51.18 175.981 51.272 176.317 51.456C176.661 51.632 176.937 51.88 177.145 52.2C177.353 52.512 177.469 52.876 177.493 53.292V55.008C177.469 55.416 177.353 55.78 177.145 56.1C176.945 56.42 176.673 56.672 176.329 56.856C175.993 57.032 175.605 57.12 175.165 57.12ZM175.345 56.1C175.881 56.1 176.313 55.92 176.641 55.56C176.969 55.192 177.133 54.724 177.133 54.156C177.133 53.764 177.057 53.424 176.905 53.136C176.761 52.84 176.553 52.612 176.281 52.452C176.009 52.284 175.693 52.2 175.333 52.2C174.973 52.2 174.653 52.284 174.373 52.452C174.101 52.62 173.885 52.852 173.725 53.148C173.573 53.436 173.497 53.768 173.497 54.144C173.497 54.528 173.573 54.868 173.725 55.164C173.885 55.452 174.105 55.68 174.385 55.848C174.665 56.016 174.985 56.1 175.345 56.1ZM177.061 57V55.464L177.265 54.072L177.061 52.692V51.3H178.153V57H177.061ZM179.738 57V51.3H180.818V57H179.738ZM180.278 50.16C180.078 50.16 179.914 50.096 179.786 49.968C179.658 49.832 179.594 49.664 179.594 49.464C179.594 49.272 179.658 49.112 179.786 48.984C179.914 48.848 180.078 48.78 180.278 48.78C180.478 48.78 180.642 48.848 180.77 48.984C180.898 49.112 180.962 49.272 180.962 49.464C180.962 49.664 180.898 49.832 180.77 49.968C180.642 50.096 180.478 50.16 180.278 50.16ZM184.821 57.12C184.293 57.12 183.821 56.992 183.405 56.736C182.989 56.472 182.657 56.116 182.409 55.668C182.169 55.22 182.049 54.716 182.049 54.156C182.049 53.596 182.169 53.092 182.409 52.644C182.657 52.196 182.989 51.84 183.405 51.576C183.821 51.312 184.293 51.18 184.821 51.18C185.245 51.18 185.629 51.272 185.973 51.456C186.317 51.632 186.593 51.88 186.801 52.2C187.017 52.512 187.137 52.876 187.161 53.292V55.008C187.137 55.416 187.021 55.78 186.813 56.1C186.605 56.42 186.329 56.672 185.985 56.856C185.641 57.032 185.253 57.12 184.821 57.12ZM185.001 56.1C185.361 56.1 185.673 56.016 185.937 55.848C186.209 55.68 186.421 55.452 186.573 55.164C186.725 54.868 186.801 54.532 186.801 54.156C186.801 53.764 186.721 53.424 186.561 53.136C186.409 52.848 186.197 52.62 185.925 52.452C185.661 52.284 185.349 52.2 184.989 52.2C184.629 52.2 184.313 52.284 184.041 52.452C183.769 52.62 183.553 52.852 183.393 53.148C183.241 53.436 183.165 53.768 183.165 54.144C183.165 54.528 183.241 54.868 183.393 55.164C183.553 55.452 183.769 55.68 184.041 55.848C184.321 56.016 184.641 56.1 185.001 56.1ZM187.821 57H186.729V55.464L186.933 54.072L186.729 52.692V48.432H187.821V57Z" fill="white"/>
<rect x="155.25" y="38.25" width="43.5" height="29.5" rx="7.75" stroke="#A4A3A3" stroke-width="0.5"/>
</svg>
