<svg width="264" height="110" viewBox="0 0 264 110" fill="none" xmlns="http://www.w3.org/2000/svg">
<path d="M17.7037 16.7565L14.6425 13.6703C15.784 12.38 16.4931 10.6713 16.4931 8.80565C16.4931 4.77795 13.2417 1.5 9.24657 1.5C5.25144 1.5 2 4.77795 2 8.80565C2 12.8333 5.25144 16.1113 9.24657 16.1113C10.6648 16.1113 11.9792 15.6928 13.086 14.9954L16.2683 18.2036C16.4586 18.3954 16.7179 18.5 16.9774 18.5C17.2368 18.5 17.4963 18.3954 17.6865 18.2036C18.1016 17.8026 18.1016 17.1574 17.7038 16.7564L17.7037 16.7565ZM4.02347 8.80568C4.02347 5.91129 6.35835 3.54003 9.24654 3.54003C12.1347 3.54003 14.4523 5.91132 14.4523 8.80568C14.4523 11.7001 12.1174 14.0713 9.24654 14.0713C6.37564 14.0713 4.02347 11.7174 4.02347 8.80568Z" fill="url(#paint0_linear_416_3292)"/>
<g clip-path="url(#clip0_416_3292)">
<path d="M49.8333 1.66667H49V0.833333C49 0.61232 48.9122 0.400358 48.7559 0.244078C48.5996 0.0877974 48.3877 0 48.1667 0C47.9457 0 47.7337 0.0877974 47.5774 0.244078C47.4211 0.400358 47.3333 0.61232 47.3333 0.833333V1.66667H40.6667V0.833333C40.6667 0.61232 40.5789 0.400358 40.4226 0.244078C40.2663 0.0877974 40.0543 0 39.8333 0C39.6123 0 39.4004 0.0877974 39.2441 0.244078C39.0878 0.400358 39 0.61232 39 0.833333V1.66667H38.1667C37.062 1.66799 36.003 2.1074 35.2218 2.88852C34.4407 3.66963 34.0013 4.72867 34 5.83333V15.8333C34.0013 16.938 34.4407 17.997 35.2218 18.7782C36.003 19.5593 37.062 19.9987 38.1667 20H49.8333C50.938 19.9987 51.997 19.5593 52.7782 18.7782C53.5593 17.997 53.9987 16.938 54 15.8333V5.83333C53.9987 4.72867 53.5593 3.66963 52.7782 2.88852C51.997 2.1074 50.938 1.66799 49.8333 1.66667ZM35.6667 5.83333C35.6667 5.17029 35.9301 4.53441 36.3989 4.06557C36.8677 3.59673 37.5036 3.33333 38.1667 3.33333H49.8333C50.4964 3.33333 51.1323 3.59673 51.6011 4.06557C52.0699 4.53441 52.3333 5.17029 52.3333 5.83333V6.66667H35.6667V5.83333ZM49.8333 18.3333H38.1667C37.5036 18.3333 36.8677 18.0699 36.3989 17.6011C35.9301 17.1323 35.6667 16.4964 35.6667 15.8333V8.33333H52.3333V15.8333C52.3333 16.4964 52.0699 17.1323 51.6011 17.6011C51.1323 18.0699 50.4964 18.3333 49.8333 18.3333Z" fill="url(#paint1_linear_416_3292)"/>
<path d="M44 13.75C44.6904 13.75 45.25 13.1904 45.25 12.5C45.25 11.8096 44.6904 11.25 44 11.25C43.3096 11.25 42.75 11.8096 42.75 12.5C42.75 13.1904 43.3096 13.75 44 13.75Z" fill="url(#paint2_linear_416_3292)"/>
<path d="M39.833 13.75C40.5234 13.75 41.083 13.1904 41.083 12.5C41.083 11.8096 40.5234 11.25 39.833 11.25C39.1427 11.25 38.583 11.8096 38.583 12.5C38.583 13.1904 39.1427 13.75 39.833 13.75Z" fill="url(#paint3_linear_416_3292)"/>
<path d="M48.167 13.75C48.8573 13.75 49.417 13.1904 49.417 12.5C49.417 11.8096 48.8573 11.25 48.167 11.25C47.4766 11.25 46.917 11.8096 46.917 12.5C46.917 13.1904 47.4766 13.75 48.167 13.75Z" fill="url(#paint4_linear_416_3292)"/>
</g>
<path d="M78.0002 1.66666C80.7585 1.66666 83.0002 3.88332 83.0002 6.62499C83.0002 10.3417 78.0002 15.8333 78.0002 15.8333C78.0002 15.8333 73.0002 10.3417 73.0002 6.62499C73.0002 3.88332 75.2418 1.66666 78.0002 1.66666ZM78.0002 4.99999C77.5581 4.99999 77.1342 5.17558 76.8217 5.48815C76.5091 5.80071 76.3335 6.22463 76.3335 6.66666C76.3335 7.10868 76.5091 7.53261 76.8217 7.84517C77.1342 8.15773 77.5581 8.33332 78.0002 8.33332C78.4422 8.33332 78.8661 8.15773 79.1787 7.84517C79.4912 7.53261 79.6668 7.10868 79.6668 6.66666C79.6668 6.22463 79.4912 5.80071 79.1787 5.48815C78.8661 5.17558 78.4422 4.99999 78.0002 4.99999ZM84.6668 15.8333C84.6668 17.675 81.6835 19.1667 78.0002 19.1667C74.3168 19.1667 71.3335 17.675 71.3335 15.8333C71.3335 14.7583 72.3502 13.8 73.9252 13.1917L74.4585 13.95C73.5585 14.325 73.0002 14.8417 73.0002 15.4167C73.0002 16.5667 75.2418 17.5 78.0002 17.5C80.7585 17.5 83.0002 16.5667 83.0002 15.4167C83.0002 14.8417 82.4418 14.325 81.5418 13.95L82.0752 13.1917C83.6502 13.8 84.6668 14.7583 84.6668 15.8333Z" fill="url(#paint5_linear_416_3292)"/>
<g clip-path="url(#clip1_416_3292)">
<path d="M112 0C106.487 0 102 4.48657 102 10C102 15.5134 106.487 20 112 20C117.513 20 122 15.5134 122 10C122 4.48657 117.513 0 112 0ZM112 1.59986C116.649 1.59986 120.4 5.35128 120.4 9.99986C120.4 14.6483 116.649 18.3999 112 18.3999C107.351 18.3999 103.6 14.6484 103.6 9.99986C103.6 5.35128 107.351 1.59986 112 1.59986ZM112 3.59986C111.558 3.59986 111.2 3.95811 111.2 4.39979V9.99964C111.2 10.2954 111.361 10.5487 111.6 10.6871C111.629 10.7039 111.657 10.724 111.688 10.7371L115.763 13.0869C116.145 13.3079 116.63 13.1821 116.851 12.7996C117.072 12.417 116.946 11.9329 116.563 11.7119L112.8 9.53727V4.39999C112.8 3.95802 112.442 3.60006 112 3.60006L112 3.59986Z" fill="url(#paint6_linear_416_3292)"/>
</g>
<path d="M151.112 9.16666C151.596 13.6458 153.5 15 153.5 15H138.5C138.5 15 141 13.2225 141 6.99999C141 5.58582 141.527 4.22916 142.464 3.22916C143.402 2.22916 144.675 1.66666 146 1.66666C146.281 1.66666 146.56 1.69166 146.833 1.74166M147.442 17.5C147.295 17.7528 147.085 17.9626 146.832 18.1085C146.579 18.2544 146.292 18.3312 146 18.3312C145.708 18.3312 145.421 18.2544 145.168 18.1085C144.915 17.9626 144.705 17.7528 144.558 17.5M151.833 6.66666C152.496 6.66666 153.132 6.40326 153.601 5.93442C154.07 5.46558 154.333 4.8297 154.333 4.16666C154.333 3.50362 154.07 2.86773 153.601 2.39889C153.132 1.93005 152.496 1.66666 151.833 1.66666C151.17 1.66666 150.534 1.93005 150.066 2.39889C149.597 2.86773 149.333 3.50362 149.333 4.16666C149.333 4.8297 149.597 5.46558 150.066 5.93442C150.534 6.40326 151.17 6.66666 151.833 6.66666Z" stroke="url(#paint7_linear_416_3292)" strokeWidth="1.2" strokeLinecap="round" strokeLinejoin="round"/>
<path d="M155.167 4.16668C155.167 6.00763 153.674 7.50001 151.833 7.50001C149.992 7.50001 148.5 6.00763 148.5 4.16668C148.5 2.32573 149.992 0.833344 151.833 0.833344C153.674 0.833344 155.167 2.32573 155.167 4.16668ZM149.822 4.16668C149.822 5.27751 150.723 6.17801 151.833 6.17801C152.944 6.17801 153.845 5.27751 153.845 4.16668C153.845 3.05585 152.944 2.15534 151.833 2.15534C150.723 2.15534 149.822 3.05585 149.822 4.16668Z" fill="url(#paint8_linear_416_3292)"/>
<g clip-path="url(#clip2_416_3292)">
<path d="M185.556 16.6667H173.333V4.44445H180.678L181.789 3.33334H173.333C173.039 3.33334 172.756 3.45041 172.548 3.65878C172.339 3.86715 172.222 4.14977 172.222 4.44445V16.6667C172.222 16.9614 172.339 17.244 172.548 17.4524C172.756 17.6607 173.039 17.7778 173.333 17.7778H185.556C185.85 17.7778 186.133 17.6607 186.341 17.4524C186.55 17.244 186.667 16.9614 186.667 16.6667V8.33334L185.556 9.44446V16.6667Z" fill="url(#paint9_linear_416_3292)"/>
<path d="M188.628 3.24444L186.756 1.37222C186.673 1.2889 186.574 1.2228 186.465 1.1777C186.356 1.13259 186.24 1.10937 186.122 1.10938C186.005 1.10938 185.888 1.13259 185.779 1.1777C185.671 1.2228 185.572 1.2889 185.489 1.37222L177.872 9.03333L177.256 11.7056C177.229 11.8351 177.232 11.9688 177.264 12.0972C177.295 12.2255 177.355 12.3452 177.438 12.4478C177.522 12.5503 177.627 12.6331 177.746 12.6901C177.865 12.7472 177.996 12.7771 178.128 12.7778C178.196 12.7853 178.265 12.7853 178.333 12.7778L181.028 12.1833L188.628 4.51111C188.711 4.42802 188.777 4.32931 188.822 4.22063C188.867 4.11195 188.891 3.99544 188.891 3.87777C188.891 3.76011 188.867 3.6436 188.822 3.53492C188.777 3.42624 188.711 3.32753 188.628 3.24444ZM180.45 11.1556L178.417 11.6056L178.889 9.58889L184.622 3.81666L186.189 5.38333L180.45 11.1556ZM186.817 4.75555L185.25 3.18889L186.111 2.31111L187.689 3.88889L186.817 4.75555Z" fill="url(#paint10_linear_416_3292)"/>
</g>
<path d="M211.5 14.1667H216.5M206.5 12.1667V10.1085C206.5 9.1512 206.5 8.67257 206.623 8.23179C206.733 7.84134 206.912 7.47411 207.153 7.14813C207.426 6.78013 207.803 6.48628 208.559 5.89858L210.726 4.21339C211.897 3.30255 212.482 2.84713 213.129 2.67206C213.699 2.5176 214.301 2.5176 214.871 2.67206C215.518 2.84713 216.103 3.30255 217.274 4.21339L219.441 5.89858C220.197 6.48628 220.574 6.78013 220.847 7.14813C221.088 7.47411 221.267 7.84134 221.377 8.23179C221.5 8.67257 221.5 9.1512 221.5 10.1085V12.1667C221.5 14.0335 221.5 14.9669 221.137 15.68C220.817 16.3072 220.307 16.8171 219.68 17.1367C218.967 17.5 218.034 17.5 216.167 17.5H211.833C209.966 17.5 209.033 17.5 208.32 17.1367C207.693 16.8171 207.183 16.3072 206.863 15.68C206.5 14.9669 206.5 14.0335 206.5 12.1667Z" stroke="url(#paint11_linear_416_3292)" strokeLinecap="round" strokeLinejoin="round"/>
<g clip-path="url(#clip3_416_3292)">
<path d="M246.307 0.833344C245.011 0.833241 243.737 1.1704 242.613 1.81135C241.488 2.45231 240.551 3.37478 239.896 4.48725C239.24 5.59971 238.888 6.86349 238.874 8.15318C238.861 9.44287 239.187 10.7136 239.819 11.8394L238.909 14.2086C238.833 14.4055 238.814 14.6195 238.853 14.8267C238.893 15.0338 238.989 15.226 239.132 15.3818C239.275 15.5376 239.458 15.6508 239.662 15.7089C239.866 15.767 240.082 15.7676 240.286 15.7106L243.129 14.9175C244.137 15.3912 245.238 15.6334 246.352 15.6263C247.466 15.6192 248.564 15.3629 249.565 14.8764C250.566 14.39 251.445 13.6857 252.136 12.8158C252.826 11.9459 253.312 10.9326 253.556 9.85084C253.8 8.76907 253.797 7.64651 253.546 6.56619C253.295 5.48587 252.804 4.47544 252.108 3.60963C251.412 2.74382 250.53 2.04479 249.526 1.56423C248.522 1.08367 247.422 0.833882 246.308 0.833344H246.307ZM240.018 8.22989C240.019 6.866 240.467 5.53961 241.294 4.45252C242.122 3.36544 243.284 2.57718 244.603 2.20766C245.922 1.83815 247.327 1.90763 248.602 2.40551C249.878 2.90339 250.956 3.80243 251.671 4.96584C252.386 6.12924 252.7 7.49333 252.565 8.85055C252.429 10.2078 251.852 11.4838 250.921 12.4845C249.99 13.4853 248.756 14.1559 247.406 14.3944C246.057 14.6329 244.666 14.4262 243.446 13.8057L243.247 13.7033L239.977 14.6148L241.085 11.729L240.938 11.4901C240.335 10.5088 240.016 9.38037 240.018 8.22989ZM249.695 19.0402C248.625 19.0414 247.567 18.8122 246.595 18.3683C245.623 17.9243 244.758 17.2763 244.061 16.4685C244.718 16.6456 245.393 16.7437 246.074 16.761C247.132 17.5052 248.397 17.904 249.694 17.9023C250.725 17.9023 251.697 17.6554 252.554 17.2195L252.753 17.1171L256.023 18.0286L254.916 15.1428L255.062 14.9039C255.645 13.9548 255.982 12.8396 255.982 11.6437C255.984 10.3801 255.6 9.1458 254.88 8.10472C254.871 7.42776 254.78 6.75432 254.611 6.09855C255.402 6.79182 256.036 7.64501 256.47 8.60121C256.903 9.55741 257.127 10.5946 257.126 11.6437C257.126 12.9534 256.783 14.1847 256.182 15.2532L257.091 17.6224C257.167 17.8193 257.186 18.0333 257.147 18.2405C257.107 18.4476 257.011 18.6398 256.868 18.7956C256.725 18.9514 256.542 19.0646 256.338 19.1227C256.135 19.1807 255.919 19.1813 255.715 19.1244L252.871 18.3313C251.907 18.7865 250.829 19.0402 249.692 19.0402H249.695Z" fill="url(#paint12_linear_416_3292)"/>
</g>
<path d="M4.99984 47.5H3.33317C2.4127 47.5 1.6665 46.7538 1.6665 45.8333V38.3333M1.6665 38.3333H5.83317M1.6665 38.3333V35C1.6665 34.0795 2.4127 33.3333 3.33317 33.3333H4.99984M18.3332 35.4167V35C18.3332 34.0795 17.587 33.3333 16.6665 33.3333H14.9998M14.9998 33.3333V31.6667M14.9998 33.3333H9.99984M4.99984 33.3333H9.99984M4.99984 33.3333V31.6667M9.99984 33.3333V31.6667M10.8332 43.3768L12.5474 45L15.8332 41.6667M19.1665 43.3333C19.1665 46.555 16.5548 49.1667 13.3332 49.1667C10.1115 49.1667 7.49984 46.555 7.49984 43.3333C7.49984 40.1117 10.1115 37.5 13.3332 37.5C16.5548 37.5 19.1665 40.1117 19.1665 43.3333Z" stroke="url(#paint13_linear_416_3292)" strokeLinecap="round" strokeLinejoin="round"/>
<path d="M40.6668 33.3334H39.0002C38.0797 33.3334 37.3335 34.0795 37.3335 35V46.6667C37.3335 47.5872 38.0797 48.3333 39.0002 48.3333H49.0002C49.9207 48.3333 50.6668 47.5872 50.6668 46.6667V35C50.6668 34.0796 49.9207 33.3334 49.0002 33.3334H47.3335M40.6668 33.3334V34.1667C40.6668 35.0872 41.413 35.8334 42.3335 35.8334H45.6668C46.5873 35.8334 47.3335 35.0872 47.3335 34.1667V33.3334M40.6668 33.3334C40.6668 32.643 41.2265 32.0834 41.9168 32.0834H42.3076C42.3244 32.0834 42.3407 32.0779 42.3542 32.0678L42.5596 31.9138C43.3927 31.289 44.5542 31.3527 45.3138 32.0649C45.3265 32.0768 45.3432 32.0834 45.3604 32.0834H45.9002C46.6918 32.0834 47.3335 32.5418 47.3335 33.3334M40.6668 41.6667H42.1483L43.0742 39.1667L44.8335 44.1667L45.9446 41.6667H47.3335" stroke="url(#paint14_linear_416_3292)" strokeLinecap="round" strokeLinejoin="round"/>
<g clip-path="url(#clip4_416_3292)">
<path d="M78 41.6667C79.3833 41.6667 80.5 40.55 80.5 39.1667V34.1667C80.5 32.7833 79.3833 31.6667 78 31.6667C76.6167 31.6667 75.5 32.7833 75.5 34.1667V39.1667C75.5 40.55 76.6167 41.6667 78 41.6667Z" fill="url(#paint15_linear_416_3292)"/>
<path d="M82.1665 39.1667C82.1665 41.4667 80.2998 43.3333 77.9998 43.3333C75.6998 43.3333 73.8332 41.4667 73.8332 39.1667H72.1665C72.1665 42.1083 74.3415 44.525 77.1665 44.9333V47.5H78.8332V44.9333C81.6582 44.525 83.8332 42.1083 83.8332 39.1667H82.1665Z" fill="url(#paint16_linear_416_3292)"/>
</g>
<path d="M113.194 32.8292H114.396" stroke="url(#paint17_linear_416_3292)" strokeLinecap="round" strokeLinejoin="round"/>
<path d="M103.604 32.8292H110.796" stroke="url(#paint18_linear_416_3292)" strokeLinecap="round" strokeLinejoin="round"/>
<path d="M111.998 34.0192C112.662 34.0192 113.2 33.4864 113.2 32.8292C113.2 32.1719 112.662 31.6392 111.998 31.6392C111.334 31.6392 110.796 32.1719 110.796 32.8292C110.796 33.4864 111.334 34.0192 111.998 34.0192Z" stroke="url(#paint19_linear_416_3292)" strokeLinecap="round" strokeLinejoin="round"/>
<path d="M113.194 41.1708H114.396" stroke="url(#paint20_linear_416_3292)" strokeLinecap="round" strokeLinejoin="round"/>
<path d="M103.604 41.1708H110.796" stroke="url(#paint21_linear_416_3292)" strokeLinecap="round" strokeLinejoin="round"/>
<path d="M111.998 42.3608C112.662 42.3608 113.2 41.8281 113.2 41.1708C113.2 40.5136 112.662 39.9808 111.998 39.9808C111.334 39.9808 110.796 40.5136 110.796 41.1708C110.796 41.8281 111.334 42.3608 111.998 42.3608Z" stroke="url(#paint22_linear_416_3292)" strokeLinecap="round" strokeLinejoin="round"/>
<path d="M107.203 37H114.396" stroke="url(#paint23_linear_416_3292)" strokeLinecap="round" strokeLinejoin="round"/>
<path d="M103.604 37H104.806" stroke="url(#paint24_linear_416_3292)" strokeLinecap="round" strokeLinejoin="round"/>
<path d="M106.001 38.19C106.665 38.19 107.203 37.6572 107.203 37C107.203 36.3428 106.665 35.81 106.001 35.81C105.338 35.81 104.8 36.3428 104.8 37C104.8 37.6572 105.338 38.19 106.001 38.19Z" stroke="url(#paint25_linear_416_3292)" strokeLinecap="round" strokeLinejoin="round"/>
<path d="M149.594 37.8125C149.594 35.8281 147.984 34.2188 146 34.2188C144.016 34.2188 142.406 35.8281 142.406 37.8125C142.406 39.7969 144.016 41.4062 146 41.4062C147.984 41.4062 149.594 39.7969 149.594 37.8125ZM143.344 37.8125C143.344 36.3438 144.531 35.1562 146 35.1562C147.469 35.1562 148.656 36.3438 148.656 37.8125C148.656 39.2812 147.469 40.4688 146 40.4688C144.531 40.4688 143.344 39.2812 143.344 37.8125Z" fill="url(#paint26_linear_416_3292)"/>
<path d="M139.984 46.9062C140.063 46.9531 140.141 46.9688 140.219 46.9688C140.375 46.9688 140.547 46.8906 140.625 46.7344C141.719 44.7969 143.781 43.5938 146 43.5938C148.219 43.5938 150.281 44.7969 151.391 46.7344C151.516 46.9531 151.813 47.0312 152.031 46.9062C152.25 46.7812 152.328 46.4844 152.203 46.2656C150.938 44.0469 148.563 42.6562 146 42.6562C143.438 42.6562 141.063 44.0469 139.797 46.2656C139.672 46.4844 139.75 46.7812 139.984 46.9062Z" fill="url(#paint27_linear_416_3292)"/>
<g clip-path="url(#clip5_416_3292)">
<path d="M182.5 36.6667V43.3333H174.167V36.6667H182.5ZM183.333 35H173.333C172.875 35 172.5 35.375 172.5 35.8333V44.1667C172.5 44.625 172.875 45 173.333 45H183.333C183.792 45 184.167 44.625 184.167 44.1667V41.25L187.5 44.5833V35.4167L184.167 38.75V35.8333C184.167 35.375 183.792 35 183.333 35Z" fill="url(#paint28_linear_416_3292)"/>
</g>
<g clip-path="url(#clip6_416_3292)">
<path d="M208.433 38.9286L204 43.2143L208.433 47.5V44.2857H216.222V42.1429H208.433V38.9286ZM224 36.7857L219.567 32.5V35.7143H211.778V37.8571H219.567V41.0714L224 36.7857Z" fill="url(#paint29_linear_416_3292)"/>
</g>
<path d="M256.438 37.1875C256.438 39.5781 255.055 42.0312 252.328 44.4844C251.09 45.5974 249.742 46.5816 248.305 47.4219C248.211 47.4732 248.107 47.5001 248 47.5001C247.893 47.5001 247.789 47.4732 247.695 47.4219C247.445 47.2812 242.977 44.7422 240.773 41.1016C240.744 41.0542 240.728 41 240.727 40.9444C240.726 40.8888 240.739 40.8339 240.766 40.7854C240.794 40.7368 240.833 40.6963 240.881 40.6681C240.929 40.64 240.983 40.6251 241.039 40.625H243.625C243.729 40.626 243.831 40.6007 243.923 40.5515C244.014 40.5024 244.092 40.4309 244.148 40.3437L244.875 39.25L246.852 42.2188C246.928 42.3327 247.04 42.4188 247.169 42.4639C247.299 42.509 247.44 42.5107 247.57 42.4688C247.707 42.4203 247.824 42.3301 247.906 42.2109L248.961 40.625H250.477C250.639 40.6276 250.796 40.5685 250.916 40.4598C251.037 40.351 251.111 40.2007 251.125 40.0391C251.13 39.9538 251.118 39.8683 251.089 39.7879C251.06 39.7075 251.015 39.6339 250.956 39.5716C250.898 39.5094 250.827 39.4598 250.749 39.426C250.67 39.3922 250.585 39.3748 250.5 39.375H248.625C248.521 39.374 248.419 39.3993 248.327 39.4485C248.236 39.4976 248.158 39.5691 248.102 39.6562L247.375 40.75L245.398 37.7812C245.322 37.6673 245.21 37.5812 245.081 37.5361C244.951 37.491 244.81 37.4893 244.68 37.5312C244.543 37.5797 244.426 37.6699 244.344 37.7891L243.289 39.375H240.172C240.106 39.3747 240.041 39.3534 239.988 39.3141C239.934 39.2748 239.895 39.2195 239.875 39.1562C239.674 38.5191 239.568 37.8556 239.562 37.1875C239.562 36.2037 239.872 35.2448 240.447 34.4467C241.023 33.6486 241.834 33.0517 242.768 32.7405C243.701 32.4294 244.709 32.4199 245.648 32.7132C246.587 33.0066 247.41 33.5879 248 34.375C248.59 33.5879 249.413 33.0066 250.352 32.7132C251.291 32.4199 252.299 32.4294 253.232 32.7405C254.166 33.0517 254.977 33.6486 255.553 34.4467C256.128 35.2448 256.438 36.2037 256.438 37.1875Z" fill="url(#paint30_linear_416_3292)"/>
<path fill-rule="evenodd" clip-rule="evenodd" d="M17.4492 63.1337C17.4754 63.1818 17.4918 63.2346 17.4976 63.289C17.5035 63.3434 17.4985 63.3985 17.483 63.451C17.4675 63.5035 17.4418 63.5524 17.4074 63.595C17.373 63.6376 17.3306 63.673 17.2825 63.6992L14.9908 64.9492C14.9274 64.9837 14.856 65.0011 14.7838 64.9998C14.7116 64.9984 14.641 64.9783 14.5789 64.9414C14.5168 64.9045 14.4653 64.8521 14.4296 64.7893C14.3938 64.7266 14.375 64.6556 14.375 64.5833V64.0354L12.6996 64.9492C12.6026 65.0021 12.4885 65.0143 12.3824 64.9831C12.2764 64.952 12.1871 64.8799 12.1342 64.7829C12.0812 64.6859 12.069 64.5718 12.1002 64.4658C12.1314 64.3597 12.2034 64.2704 12.3004 64.2175L14.5921 62.9675C14.6555 62.9329 14.7269 62.9153 14.7992 62.9167C14.8715 62.918 14.9422 62.9381 15.0044 62.975C15.0665 63.0119 15.118 63.0643 15.1538 63.1271C15.1895 63.19 15.2083 63.261 15.2083 63.3333V63.8812L16.8837 62.9675C16.9318 62.9413 16.9846 62.9248 17.039 62.919C17.0934 62.9132 17.1485 62.9182 17.201 62.9337C17.2535 62.9491 17.3024 62.9748 17.345 63.0092C17.3876 63.0436 17.423 63.0861 17.4492 63.1342V63.1337ZM12.54 73.9888C12.5872 73.8889 12.6721 73.8118 12.7761 73.7746C12.8801 73.7373 12.9947 73.7428 13.0946 73.79L15.3225 74.8425C15.388 74.8734 15.4444 74.9209 15.486 74.9802C15.5275 75.0396 15.5529 75.1087 15.5596 75.1809C15.5663 75.253 15.5541 75.3257 15.5241 75.3917C15.4941 75.4576 15.4475 75.5146 15.3887 75.5571L14.8379 75.9554L16.4279 76.7067C16.5254 76.7553 16.6 76.8402 16.6357 76.9432C16.6713 77.0461 16.6653 77.159 16.6187 77.2575C16.5722 77.356 16.4889 77.4324 16.3867 77.4703C16.2845 77.5081 16.1716 77.5044 16.0721 77.46L13.8442 76.4075C13.7786 76.3766 13.7223 76.3291 13.6807 76.2698C13.6391 76.2104 13.6137 76.1413 13.607 76.0691C13.6004 75.997 13.6126 75.9243 13.6426 75.8583C13.6725 75.7924 13.7192 75.7354 13.7779 75.6929L14.3287 75.2946L12.7387 74.5433C12.6389 74.4961 12.5618 74.4112 12.5246 74.3072C12.4873 74.2032 12.4928 74.0887 12.54 73.9888ZM15.6321 68.8396C15.6923 68.8872 15.7383 68.9505 15.7648 69.0226C15.7914 69.0946 15.7975 69.1726 15.7825 69.2479L15.6104 70.1137L16.9092 69.5167C16.9589 69.4938 17.0126 69.4809 17.0673 69.4788C17.122 69.4767 17.1765 69.4854 17.2278 69.5044C17.2792 69.5234 17.3263 69.5523 17.3664 69.5894C17.4066 69.6266 17.439 69.6713 17.4619 69.721C17.4847 69.7708 17.4976 69.8245 17.4997 69.8792C17.5018 69.9338 17.4931 69.9884 17.4742 70.0397C17.4552 70.091 17.4263 70.1381 17.3891 70.1783C17.3519 70.2184 17.3072 70.2509 17.2575 70.2737L15.2167 71.2125C15.1469 71.2446 15.0695 71.2569 14.9932 71.2478C14.9169 71.2387 14.8446 71.2087 14.7842 71.1611C14.7239 71.1135 14.6779 71.0502 14.6514 70.978C14.6248 70.9059 14.6187 70.8279 14.6337 70.7525L14.8058 69.8862L13.5067 70.4829C13.4068 70.5255 13.2943 70.5274 13.193 70.4883C13.0918 70.4492 13.0098 70.3721 12.9645 70.2735C12.9192 70.1748 12.9143 70.0624 12.9506 69.9601C12.987 69.8578 13.0618 69.7738 13.1592 69.7258L15.1996 68.7883C15.2694 68.7563 15.3467 68.7442 15.4229 68.7533C15.4992 68.7624 15.5714 68.7924 15.6317 68.84L15.6321 68.8396ZM9.25 62.5V64.8079C9.25 65.4637 8.85625 65.8962 8.49583 66.1121C8.20125 66.2887 7.88208 66.3579 7.69375 66.3925C7.49333 66.43 7.27208 66.455 7.09 66.4762L7.06292 66.4796C6.85875 66.5033 6.67792 66.5246 6.5025 66.5546C6.12625 66.6192 5.94917 66.6983 5.8775 66.7529C5.87143 66.7575 5.86585 66.7626 5.86083 66.7683C5.86083 66.7683 5.85958 66.7696 5.85833 66.7725C5.85081 66.7904 5.84562 66.8091 5.84292 66.8283C5.85958 66.835 5.87833 66.8421 5.89958 66.8492C6.25583 66.9712 6.76292 67.0242 7.49542 67.1L7.62958 67.1142C8.32 67.1862 9.25375 67.2871 10.0133 67.625C10.4175 67.8046 10.8458 68.0813 11.1713 68.5212C11.5079 68.9767 11.6667 69.5163 11.6667 70.0963C11.6667 70.7171 11.4683 71.295 11.04 71.7496C10.6408 72.1729 10.1375 72.3871 9.705 72.5054C8.91542 72.7217 7.93917 72.72 7.18 72.7183H7.08167C6.18833 72.7171 5.54958 72.7267 5.125 72.8446C5.08265 72.8559 5.04105 72.8698 5.00042 72.8862C5.00458 73.0258 5.03333 73.0733 5.03375 73.0746C5.03583 73.0779 5.03792 73.0813 5.04458 73.0871C5.06118 73.1021 5.0795 73.1151 5.09917 73.1258C5.265 73.2204 5.59292 73.2983 6.1475 73.3271C6.39917 73.3396 6.65458 73.3417 6.92583 73.3438H6.94875C7.2125 73.3458 7.51292 73.3479 7.78292 73.3687C8.02458 73.3871 8.39958 73.4288 8.74458 73.5896C8.9325 73.6771 9.17208 73.8275 9.36542 74.0858C9.57167 74.3621 9.66667 74.6833 9.66667 75V77.5H7.16667V75.8458C7.0882 75.8449 7.00972 75.8442 6.93125 75.8438H6.89125C6.63292 75.8417 6.3275 75.8396 6.01917 75.8238C5.40708 75.7921 4.56833 75.7017 3.85917 75.2967C3.48042 75.08 3.12292 74.7658 2.86708 74.3217C2.61208 73.8779 2.5 73.3779 2.5 72.8521C2.5 72.2312 2.69708 71.6529 3.12333 71.1971C3.52167 70.7712 4.02417 70.555 4.45833 70.4346C5.2525 70.215 6.23375 70.2167 6.99583 70.2179H7.085C7.97917 70.2192 8.61875 70.2104 9.045 70.0938C9.09708 70.0796 9.13667 70.0658 9.16542 70.0546C9.16458 70.0377 9.16207 70.021 9.15792 70.0046C9.14625 69.9925 9.10375 69.9562 8.99708 69.9088C8.66292 69.76 8.13833 69.6804 7.37042 69.6004C7.30213 69.5931 7.23379 69.5861 7.16542 69.5796C6.53542 69.5154 5.73375 69.4346 5.09 69.2142C4.71208 69.0846 4.26792 68.8708 3.91333 68.485C3.52917 68.0667 3.33333 67.5363 3.33333 66.9546C3.33333 66.0133 3.70875 65.2654 4.35667 64.7687C4.92583 64.3321 5.60292 64.1717 6.08083 64.09C6.30302 64.0534 6.52615 64.0228 6.75 63.9983V62.5H9.25ZM9.15417 69.9958C9.15417 69.9958 9.15583 69.9971 9.15708 70.0021L9.15417 69.9954V69.9958Z" fill="url(#paint31_linear_416_3292)"/>
<path d="M49.7101 64.29C49.6782 63.6054 49.3931 62.9571 48.9101 62.4708C48.6527 62.2106 48.3464 62.0038 48.0088 61.8623C47.6712 61.7208 47.3089 61.6475 46.9429 61.6465C46.5768 61.6455 46.2142 61.7169 45.8758 61.8566C45.5374 61.9962 45.23 62.2014 44.9712 62.4602C44.7124 62.7191 44.5073 63.0266 44.3677 63.365C44.2281 63.7034 44.1568 64.066 44.1579 64.4321C44.1589 64.7981 44.2324 65.1604 44.3739 65.4979C44.5154 65.8355 44.7223 66.1418 44.9826 66.3992L40.4001 70.9825C40.1428 70.7222 39.8365 70.5153 39.4989 70.3738C39.1613 70.2322 38.7991 70.1588 38.433 70.1578C38.067 70.1567 37.7043 70.228 37.3659 70.3676C37.0275 70.5072 36.72 70.7123 36.4612 70.9711C36.2023 71.2299 35.9972 71.5373 35.8575 71.8757C35.7179 72.214 35.6465 72.5767 35.6475 72.9427C35.6485 73.3088 35.7218 73.671 35.8633 74.0087C36.0047 74.3463 36.2115 74.6526 36.4718 74.91C36.9768 75.415 37.6301 75.675 38.2909 75.71C38.3259 76.3708 38.5859 77.0233 39.0909 77.5292C39.3484 77.7894 39.6547 77.9962 39.9923 78.1377C40.3299 78.2792 40.6922 78.3525 41.0582 78.3535C41.4243 78.3545 41.7869 78.2831 42.1253 78.1434C42.4636 78.0038 42.7711 77.7986 43.0299 77.5398C43.2887 77.2809 43.4938 76.9734 43.6334 76.635C43.7729 76.2966 43.8442 75.934 43.8432 75.5679C43.8421 75.2019 43.7687 74.8396 43.6272 74.5021C43.4856 74.1645 43.2788 73.8582 43.0184 73.6008L47.6009 69.0183C47.8583 69.2786 48.1646 69.4855 48.5022 69.6271C48.8398 69.7686 49.202 69.842 49.568 69.8431C49.9341 69.8441 50.2967 69.7728 50.6351 69.6332C50.9735 69.4937 51.281 69.2886 51.5399 69.0298C51.7987 68.771 52.0039 68.4635 52.1435 68.1252C52.2832 67.7868 52.3546 67.4242 52.3536 67.0581C52.3526 66.692 52.2793 66.3298 52.1378 65.9922C51.9963 65.6546 51.7895 65.3483 51.5293 65.0908C51.0433 64.6073 50.3949 64.3218 49.7101 64.29Z" fill="url(#paint32_linear_416_3292)"/>
<path d="M78 61.7152C78 61.7152 72.375 67.8988 72.375 72.2738C72.375 75.7254 74.5484 77.8988 78 77.8988C81.4516 77.8988 83.625 75.7254 83.625 72.2738C83.625 67.8988 78 61.7152 78 61.7152ZM78.625 75.8676V74.9301C79.2464 74.9294 79.8421 74.6822 80.2815 74.2428C80.7209 73.8034 80.968 73.2077 80.9688 72.5863H81.9062C81.9053 73.4563 81.5593 74.2903 80.9442 74.9055C80.329 75.5207 79.495 75.8667 78.625 75.8676Z" fill="url(#paint33_linear_416_3292)"/>
<g clip-path="url(#clip7_416_3292)">
<path d="M117.492 68.7667C118.367 69.1917 119.192 69.725 119.958 70.3583L119.067 71.25C118.583 70.8583 118.058 70.5083 117.5 70.1917V68.7667H117.492ZM106.5 68.7667V70.1833C105.958 70.4917 105.433 70.8417 104.942 71.2417L104.05 70.35C104.808 69.725 105.633 69.2 106.5 68.7667ZM112 65.8333C108.217 65.8333 104.783 67.3167 102.242 69.725C102.092 69.875 102 70.0833 102 70.3167C102 70.55 102.092 70.7583 102.242 70.9L104.308 72.9667C104.458 73.1167 104.667 73.2083 104.9 73.2083C105.125 73.2083 105.333 73.125 105.483 72.975C106.142 72.3667 106.883 71.8417 107.7 71.4333C107.975 71.3 108.167 71.0083 108.167 70.6833V68.1C109.375 67.7083 110.667 67.5 112 67.5C113.333 67.5 114.625 67.7083 115.825 68.1083V70.6917C115.825 71.025 116.017 71.3083 116.292 71.4417C117.108 71.85 117.858 72.3667 118.517 72.9833C118.667 73.125 118.875 73.2167 119.1 73.2167C119.333 73.2167 119.542 73.125 119.692 72.975L121.758 70.9083C121.908 70.7583 122 70.55 122 70.3167C122 70.0833 121.908 69.875 121.758 69.725C119.217 67.3167 115.783 65.8333 112 65.8333Z" fill="url(#paint34_linear_416_3292)"/>
</g>
<g clip-path="url(#clip8_416_3292)">
<path d="M141.833 61.6667C139.333 61.6667 137.667 64.1667 137.667 66.6667C137.667 68.425 138.5 70.8333 139.333 71.6667C140.167 72.5 141 78.3333 142.667 78.3333C146.45 78.3333 144.333 72.5 146 72.5C147.667 72.5 145.55 78.3333 149.333 78.3333C151 78.3333 151.833 72.5 152.667 71.6667C153.5 70.8333 154.333 68.425 154.333 66.6667C154.333 64.1667 152.667 61.6667 150.167 61.6667C147.667 61.6667 147.667 62.5 146 62.5C144.333 62.5 144.333 61.6667 141.833 61.6667Z" fill="url(#paint35_linear_416_3292)"/>
</g>
<path d="M183.125 73.3285C183.93 73.3285 184.583 73.9629 184.583 74.7445V76.3645L184.577 76.4519C184.318 78.173 182.727 79 180.056 79C177.395 79 175.777 78.1827 175.428 76.4818L175.417 76.3629V74.7445C175.417 73.9629 176.07 73.3285 176.875 73.3285H183.125ZM183.537 68.4734H188.542C189.347 68.4734 190 69.1078 190 69.8895V71.5094L189.993 71.5968C189.735 73.318 188.143 74.1449 185.472 74.1449L185.332 74.1433C185.204 73.6998 184.937 73.306 184.568 73.016C184.2 72.726 183.748 72.5542 183.274 72.5242L183.125 72.5193H182.357C182.792 72.1784 183.143 71.747 183.384 71.2568C183.626 70.7667 183.75 70.2304 183.75 69.6872C183.75 69.2616 183.675 68.8537 183.537 68.4734ZM171.458 68.4734H176.463C176.325 68.8537 176.25 69.2616 176.25 69.6872C176.25 70.7634 176.732 71.732 177.497 72.3979L177.643 72.5193H176.875C175.823 72.5193 174.937 73.2071 174.667 74.1457L174.639 74.1449C171.978 74.1449 170.361 73.3277 170.012 71.6268L170 71.5078V69.8895C170 69.1078 170.653 68.4734 171.458 68.4734ZM180 66.8551C180.774 66.8551 181.515 67.1534 182.062 67.6846C182.609 68.2157 182.917 68.9361 182.917 69.6872C182.917 70.4383 182.609 71.1587 182.062 71.6898C181.515 72.2209 180.774 72.5193 180 72.5193C179.226 72.5193 178.485 72.2209 177.938 71.6898C177.391 71.1587 177.083 70.4383 177.083 69.6872C177.083 68.9361 177.391 68.2157 177.938 67.6846C178.485 67.1534 179.226 66.8551 180 66.8551ZM185.417 62C186.19 62 186.932 62.2984 187.479 62.8295C188.026 63.3606 188.333 64.081 188.333 64.8321C188.333 65.5832 188.026 66.3036 187.479 66.8347C186.932 67.3659 186.19 67.6642 185.417 67.6642C184.643 67.6642 183.901 67.3659 183.354 66.8347C182.807 66.3036 182.5 65.5832 182.5 64.8321C182.5 64.081 182.807 63.3606 183.354 62.8295C183.901 62.2984 184.643 62 185.417 62ZM174.583 62C175.357 62 176.099 62.2984 176.646 62.8295C177.193 63.3606 177.5 64.081 177.5 64.8321C177.5 65.5832 177.193 66.3036 176.646 66.8347C176.099 67.3659 175.357 67.6642 174.583 67.6642C173.81 67.6642 173.068 67.3659 172.521 66.8347C171.974 66.3036 171.667 65.5832 171.667 64.8321C171.667 64.081 171.974 63.3606 172.521 62.8295C173.068 62.2984 173.81 62 174.583 62Z" fill="url(#paint36_linear_416_3292)"/>
<path d="M215.106 79.9911C214.389 79.3559 213.58 78.6951 212.723 77.9921H212.712C209.697 75.5267 206.28 72.737 204.771 69.3943C204.275 68.3301 204.012 67.1722 204 65.9982C203.997 64.3873 204.643 62.8431 205.792 61.7146C206.942 60.586 208.498 59.9684 210.108 60.0012C211.419 60.0033 212.702 60.3823 213.804 61.0929C214.288 61.4072 214.726 61.7873 215.106 62.2223C215.487 61.789 215.925 61.4091 216.408 61.0929C217.51 60.3821 218.792 60.0032 220.103 60.0012C221.714 59.9684 223.269 60.586 224.419 61.7146C225.568 62.8431 226.214 64.3873 226.211 65.9982C226.2 67.1741 225.937 68.3339 225.44 69.3998C223.931 72.7426 220.515 75.5312 217.5 77.9921L217.489 78.001C216.631 78.6995 215.823 79.3603 215.107 80L215.106 79.9911ZM210.108 62.2223C209.074 62.2094 208.076 62.6053 207.332 63.324C206.615 64.0283 206.214 64.9932 206.221 65.9982C206.234 66.8539 206.427 67.6972 206.79 68.4725C207.502 69.9148 208.463 71.2201 209.629 72.3283C210.73 73.4389 211.996 74.5139 213.091 75.4179C213.394 75.6678 213.703 75.9198 214.012 76.1719L214.206 76.3308C214.502 76.5729 214.809 76.8238 215.106 77.0704L215.12 77.057L215.127 77.0515H215.133L215.143 77.0437H215.149H215.154L215.174 77.0271L215.22 76.9904L215.228 76.9838L215.24 76.9749H215.247L215.257 76.966L215.994 76.3607L216.187 76.2019C216.499 75.9476 216.808 75.6955 217.111 75.4456C218.206 74.5417 219.473 73.4678 220.574 72.3517C221.74 71.2439 222.701 69.939 223.414 68.4969C223.782 67.7149 223.979 66.8628 223.99 65.9982C223.995 64.9963 223.594 64.0351 222.879 63.3329C222.137 62.6109 221.139 62.2118 220.103 62.2223C218.839 62.2116 217.631 62.7414 216.782 63.6783L215.106 65.6106L213.429 63.6783C212.58 62.7414 211.372 62.2116 210.108 62.2223Z" fill="url(#paint37_linear_416_3292)"/>
<path d="M250.836 78.125H249.586C249.255 78.125 248.937 77.9933 248.702 77.7589C248.468 77.5245 248.336 77.2065 248.336 76.875L248.338 73.5227C248.338 73.4952 248.331 73.4682 248.317 73.4445C248.304 73.4207 248.284 73.4009 248.26 73.3872C248.236 73.3734 248.209 73.3662 248.182 73.3662C248.154 73.3662 248.127 73.3734 248.104 73.3871L245.2 75.0691C244.917 75.2322 244.582 75.2764 244.267 75.192C243.952 75.1076 243.683 74.9015 243.52 74.6191L242.876 73.5004L242.873 73.4965C242.715 73.2142 242.673 72.8809 242.757 72.5683C242.842 72.2556 243.046 71.9886 243.325 71.8246L246.239 70.1352C246.263 70.1214 246.283 70.1017 246.296 70.078C246.31 70.0543 246.317 70.0274 246.317 70C246.317 69.9726 246.31 69.9457 246.296 69.922C246.283 69.8983 246.263 69.8786 246.239 69.8648L243.328 68.177C243.187 68.0966 243.064 67.9893 242.966 67.8612C242.867 67.7332 242.795 67.5869 242.753 67.4309C242.711 67.2748 242.7 67.112 242.722 66.9517C242.743 66.7915 242.795 66.6371 242.876 66.4973L243.519 65.382C243.6 65.241 243.708 65.1175 243.837 65.0187C243.966 64.9199 244.114 64.8477 244.271 64.8063C244.427 64.7645 244.589 64.7541 244.749 64.7755C244.908 64.797 245.062 64.8499 245.201 64.9312L248.104 66.6109C248.127 66.6247 248.154 66.6319 248.182 66.6319C248.209 66.6319 248.236 66.6246 248.26 66.6109C248.284 66.5971 248.304 66.5774 248.317 66.5536C248.331 66.5298 248.338 66.5028 248.338 66.4754L248.336 63.125C248.336 62.7935 248.468 62.4755 248.702 62.2411C248.937 62.0067 249.255 61.875 249.586 61.875H250.836C251.168 61.875 251.486 62.0067 251.72 62.2411C251.954 62.4755 252.086 62.7935 252.086 63.125V66.4734C252.086 66.5009 252.093 66.5279 252.107 66.5516C252.121 66.5754 252.14 66.5952 252.164 66.6089C252.188 66.6227 252.215 66.6299 252.242 66.6299C252.27 66.6299 252.297 66.6227 252.321 66.609L255.224 64.927C255.507 64.7642 255.842 64.7202 256.157 64.8046C256.472 64.8889 256.741 65.0948 256.904 65.377L257.548 66.4957L257.551 66.4992C257.711 66.7818 257.753 67.1164 257.668 67.43C257.583 67.7436 257.377 68.0109 257.096 68.1734L254.185 69.8609C254.161 69.8747 254.141 69.8944 254.128 69.9181C254.114 69.9418 254.107 69.9687 254.107 69.9961C254.107 70.0235 254.114 70.0504 254.128 70.0741C254.141 70.0978 254.161 70.1175 254.185 70.1312L257.096 71.8188C257.236 71.8991 257.359 72.0064 257.458 72.1345C257.556 72.2625 257.629 72.4087 257.671 72.5648C257.713 72.7209 257.723 72.8837 257.702 73.0439C257.681 73.2041 257.628 73.3586 257.547 73.4984L256.905 74.6137C256.824 74.7547 256.716 74.8782 256.587 74.977C256.457 75.0758 256.31 75.148 256.153 75.1895C255.997 75.2312 255.835 75.2416 255.675 75.2202C255.516 75.1987 255.362 75.1458 255.223 75.0645L252.32 73.3848C252.296 73.3711 252.269 73.3638 252.242 73.3638C252.215 73.3638 252.188 73.371 252.164 73.3847C252.14 73.3984 252.12 73.4181 252.107 73.4419C252.093 73.4656 252.086 73.4925 252.086 73.5199L252.086 76.875C252.086 77.2065 251.954 77.5245 251.72 77.7589C251.486 77.9933 251.168 78.125 250.836 78.125Z" fill="url(#paint38_linear_416_3292)"/>
<path d="M0 108.77V106.926C0 100.995 4.26767 96.1123 10.0544 95.2802V91.2296L20 98.8246L10.0544 106.42V102.55C5.35268 102.984 1.302 107.36 1.26604 107.396L0 108.77ZM11.501 94.1591V96.5822L10.85 96.6184C6.18431 97.0162 2.42297 100.597 1.62771 105.045C3.47221 103.454 6.94401 101.067 10.8141 101.067H11.5374V103.454L17.6498 98.7884L11.501 94.1591Z" fill="url(#paint39_linear_416_3292)"/>
<g clip-path="url(#clip9_416_3292)">
<path d="M52.7185 93.3824L50.5855 91.2697C50.4021 91.0966 50.1585 91 49.9052 91C49.6519 91 49.4083 91.0966 49.2249 91.2697L47.3282 93.154H37.153C36.8472 93.154 36.5539 93.2743 36.3377 93.4885C36.1215 93.7027 36 93.9931 36 94.296V106.858C36 107.161 36.1215 107.451 36.3377 107.666C36.5539 107.88 36.8472 108 37.153 108H49.836C50.1418 108 50.4351 107.88 50.6513 107.666C50.8675 107.451 50.989 107.161 50.989 106.858V96.443L52.7185 94.73C52.8988 94.5512 53 94.3089 53 94.0562C53 93.8035 52.8988 93.5612 52.7185 93.3824ZM44.5495 101.222L42.134 101.753L42.7105 99.3836L48.216 93.9192L50.0781 95.7635L44.5495 101.222ZM50.7008 95.1126L48.8387 93.2682L49.9052 92.2119L51.7673 94.0562L50.7008 95.1126Z" fill="url(#paint40_linear_416_3292)"/>
</g>
<path d="M78 104.663L83.562 108L82.086 101.71L87 97.4779L80.529 96.9321L78 91L75.471 96.9321L69 97.4779L73.914 101.71L72.438 108L78 104.663Z" fill="url(#paint41_linear_416_3292)"/>
<path d="M112 100C114.761 100 117 97.7614 117 95C117 92.2386 114.761 90 112 90C109.239 90 107 92.2386 107 95C107 97.7614 109.239 100 112 100Z" fill="url(#paint42_linear_416_3292)"/>
<path d="M112 101.666C107.86 101.671 104.505 105.026 104.5 109.166C104.5 109.626 104.873 109.999 105.333 109.999H118.667C119.127 109.999 119.5 109.626 119.5 109.166C119.495 105.026 116.14 101.67 112 101.666Z" fill="url(#paint43_linear_416_3292)"/>
<g clip-path="url(#clip10_416_3292)">
<path d="M141.45 94.1667C141.5 94.9083 141.625 95.6333 141.825 96.325L140.825 97.325C140.483 96.325 140.267 95.2667 140.192 94.1667H141.45ZM149.667 104.183C150.375 104.383 151.1 104.508 151.833 104.558V105.8C150.733 105.725 149.675 105.508 148.667 105.175L149.667 104.183ZM142.25 92.5H139.333C138.875 92.5 138.5 92.875 138.5 93.3333C138.5 101.158 144.842 107.5 152.667 107.5C153.125 107.5 153.5 107.125 153.5 106.667V103.758C153.5 103.3 153.125 102.925 152.667 102.925C151.633 102.925 150.625 102.758 149.692 102.45C149.608 102.417 149.517 102.408 149.433 102.408C149.217 102.408 149.008 102.492 148.842 102.65L147.008 104.483C144.65 103.275 142.717 101.35 141.517 98.9917L143.35 97.1583C143.583 96.925 143.65 96.6 143.558 96.3083C143.25 95.375 143.083 94.375 143.083 93.3333C143.083 92.875 142.708 92.5 142.25 92.5Z" fill="url(#paint44_linear_416_3292)"/>
</g>
<defs>
<linearGradient id="paint0_linear_416_3292" x1="-24.5542" y1="10" x2="17.1481" y2="10" gradientUnits="userSpaceOnUse">
<stop offset="0.398958" stop-color="white" stop-opacity="0"/>
<stop offset="1" stop-color="white" stop-opacity="0.34"/>
</linearGradient>
<linearGradient id="paint1_linear_416_3292" x1="0.807292" y1="10" x2="52.9351" y2="10" gradientUnits="userSpaceOnUse">
<stop offset="0.398958" stop-color="white" stop-opacity="0"/>
<stop offset="1" stop-color="white" stop-opacity="0.34"/>
</linearGradient>
<linearGradient id="paint2_linear_416_3292" x1="38.6009" y1="12.5" x2="45.1169" y2="12.5" gradientUnits="userSpaceOnUse">
<stop offset="0.398958" stop-color="white" stop-opacity="0"/>
<stop offset="1" stop-color="white" stop-opacity="0.34"/>
</linearGradient>
<linearGradient id="paint3_linear_416_3292" x1="34.4339" y1="12.5" x2="40.9499" y2="12.5" gradientUnits="userSpaceOnUse">
<stop offset="0.398958" stop-color="white" stop-opacity="0"/>
<stop offset="1" stop-color="white" stop-opacity="0.34"/>
</linearGradient>
<linearGradient id="paint4_linear_416_3292" x1="42.7679" y1="12.5" x2="49.2839" y2="12.5" gradientUnits="userSpaceOnUse">
<stop offset="0.398958" stop-color="white" stop-opacity="0"/>
<stop offset="1" stop-color="white" stop-opacity="0.34"/>
</linearGradient>
<linearGradient id="paint5_linear_416_3292" x1="49.205" y1="10.4167" x2="83.9569" y2="10.4167" gradientUnits="userSpaceOnUse">
<stop offset="0.398958" stop-color="white" stop-opacity="0"/>
<stop offset="1" stop-color="white" stop-opacity="0.34"/>
</linearGradient>
<linearGradient id="paint6_linear_416_3292" x1="68.8073" y1="10" x2="120.935" y2="10" gradientUnits="userSpaceOnUse">
<stop offset="0.398958" stop-color="white" stop-opacity="0"/>
<stop offset="1" stop-color="white" stop-opacity="0.34"/>
</linearGradient>
<linearGradient id="paint7_linear_416_3292" x1="112.222" y1="9.99893" x2="153.49" y2="9.99893" gradientUnits="userSpaceOnUse">
<stop offset="0.398958" stop-color="white" stop-opacity="0"/>
<stop offset="1" stop-color="white" stop-opacity="0.34"/>
</linearGradient>
<linearGradient id="paint8_linear_416_3292" x1="137.436" y1="4.16668" x2="154.812" y2="4.16668" gradientUnits="userSpaceOnUse">
<stop offset="0.398958" stop-color="white" stop-opacity="0"/>
<stop offset="1" stop-color="white" stop-opacity="0.34"/>
</linearGradient>
<linearGradient id="paint9_linear_416_3292" x1="148.25" y1="10.5556" x2="185.898" y2="10.5556" gradientUnits="userSpaceOnUse">
<stop offset="0.398958" stop-color="white" stop-opacity="0"/>
<stop offset="1" stop-color="white" stop-opacity="0.34"/>
</linearGradient>
<linearGradient id="paint10_linear_416_3292" x1="157.898" y1="6.9464" x2="188.27" y2="6.9464" gradientUnits="userSpaceOnUse">
<stop offset="0.398958" stop-color="white" stop-opacity="0"/>
<stop offset="1" stop-color="white" stop-opacity="0.34"/>
</linearGradient>
<linearGradient id="paint11_linear_416_3292" x1="181.605" y1="10.0281" x2="220.701" y2="10.0281" gradientUnits="userSpaceOnUse">
<stop offset="0.398958" stop-color="white" stop-opacity="0"/>
<stop offset="1" stop-color="white" stop-opacity="0.34"/>
</linearGradient>
<linearGradient id="paint12_linear_416_3292" x1="208.407" y1="10" x2="256.191" y2="10" gradientUnits="userSpaceOnUse">
<stop offset="0.398958" stop-color="white" stop-opacity="0"/>
<stop offset="1" stop-color="white" stop-opacity="0.34"/>
</linearGradient>
<linearGradient id="paint13_linear_416_3292" x1="-27.3771" y1="40.4167" x2="18.2347" y2="40.4167" gradientUnits="userSpaceOnUse">
<stop offset="0.398958" stop-color="white" stop-opacity="0"/>
<stop offset="1" stop-color="white" stop-opacity="0.34"/>
</linearGradient>
<linearGradient id="paint14_linear_416_3292" x1="15.205" y1="39.909" x2="49.9569" y2="39.909" gradientUnits="userSpaceOnUse">
<stop offset="0.398958" stop-color="white" stop-opacity="0"/>
<stop offset="1" stop-color="white" stop-opacity="0.34"/>
</linearGradient>
<linearGradient id="paint15_linear_416_3292" x1="67.2018" y1="36.6667" x2="80.2338" y2="36.6667" gradientUnits="userSpaceOnUse">
<stop offset="0.398958" stop-color="white" stop-opacity="0"/>
<stop offset="1" stop-color="white" stop-opacity="0.34"/>
</linearGradient>
<linearGradient id="paint16_linear_416_3292" x1="52.8041" y1="43.3333" x2="83.212" y2="43.3333" gradientUnits="userSpaceOnUse">
<stop offset="0.398958" stop-color="white" stop-opacity="0"/>
<stop offset="1" stop-color="white" stop-opacity="0.34"/>
</linearGradient>
<linearGradient id="paint17_linear_416_3292" x1="111.2" y1="33.3292" x2="114.332" y2="33.3292" gradientUnits="userSpaceOnUse">
<stop offset="0.398958" stop-color="white" stop-opacity="0"/>
<stop offset="1" stop-color="white" stop-opacity="0.34"/>
</linearGradient>
<linearGradient id="paint18_linear_416_3292" x1="91.6671" y1="33.3292" x2="110.414" y2="33.3292" gradientUnits="userSpaceOnUse">
<stop offset="0.398958" stop-color="white" stop-opacity="0"/>
<stop offset="1" stop-color="white" stop-opacity="0.34"/>
</linearGradient>
<linearGradient id="paint19_linear_416_3292" x1="106.808" y1="32.8292" x2="113.072" y2="32.8292" gradientUnits="userSpaceOnUse">
<stop offset="0.398958" stop-color="white" stop-opacity="0"/>
<stop offset="1" stop-color="white" stop-opacity="0.34"/>
</linearGradient>
<linearGradient id="paint20_linear_416_3292" x1="111.2" y1="41.6708" x2="114.332" y2="41.6708" gradientUnits="userSpaceOnUse">
<stop offset="0.398958" stop-color="white" stop-opacity="0"/>
<stop offset="1" stop-color="white" stop-opacity="0.34"/>
</linearGradient>
<linearGradient id="paint21_linear_416_3292" x1="91.6671" y1="41.6708" x2="110.414" y2="41.6708" gradientUnits="userSpaceOnUse">
<stop offset="0.398958" stop-color="white" stop-opacity="0"/>
<stop offset="1" stop-color="white" stop-opacity="0.34"/>
</linearGradient>
<linearGradient id="paint22_linear_416_3292" x1="106.808" y1="41.1708" x2="113.072" y2="41.1708" gradientUnits="userSpaceOnUse">
<stop offset="0.398958" stop-color="white" stop-opacity="0"/>
<stop offset="1" stop-color="white" stop-opacity="0.34"/>
</linearGradient>
<linearGradient id="paint23_linear_416_3292" x1="95.2662" y1="37.5" x2="114.013" y2="37.5" gradientUnits="userSpaceOnUse">
<stop offset="0.398958" stop-color="white" stop-opacity="0"/>
<stop offset="1" stop-color="white" stop-opacity="0.34"/>
</linearGradient>
<linearGradient id="paint24_linear_416_3292" x1="101.61" y1="37.5" x2="104.742" y2="37.5" gradientUnits="userSpaceOnUse">
<stop offset="0.398958" stop-color="white" stop-opacity="0"/>
<stop offset="1" stop-color="white" stop-opacity="0.34"/>
</linearGradient>
<linearGradient id="paint25_linear_416_3292" x1="100.811" y1="37" x2="107.075" y2="37" gradientUnits="userSpaceOnUse">
<stop offset="0.398958" stop-color="white" stop-opacity="0"/>
<stop offset="1" stop-color="white" stop-opacity="0.34"/>
</linearGradient>
<linearGradient id="paint26_linear_416_3292" x1="130.478" y1="37.8125" x2="149.211" y2="37.8125" gradientUnits="userSpaceOnUse">
<stop offset="0.398958" stop-color="white" stop-opacity="0"/>
<stop offset="1" stop-color="white" stop-opacity="0.34"/>
</linearGradient>
<linearGradient id="paint27_linear_416_3292" x1="118.951" y1="44.8125" x2="151.596" y2="44.8125" gradientUnits="userSpaceOnUse">
<stop offset="0.398958" stop-color="white" stop-opacity="0"/>
<stop offset="1" stop-color="white" stop-opacity="0.34"/>
</linearGradient>
<linearGradient id="paint28_linear_416_3292" x1="147.605" y1="40" x2="186.701" y2="40" gradientUnits="userSpaceOnUse">
<stop offset="0.398958" stop-color="white" stop-opacity="0"/>
<stop offset="1" stop-color="white" stop-opacity="0.34"/>
</linearGradient>
<linearGradient id="paint29_linear_416_3292" x1="170.807" y1="40" x2="222.935" y2="40" gradientUnits="userSpaceOnUse">
<stop offset="0.398958" stop-color="white" stop-opacity="0"/>
<stop offset="1" stop-color="white" stop-opacity="0.34"/>
</linearGradient>
<linearGradient id="paint30_linear_416_3292" x1="211.556" y1="40" x2="255.539" y2="40" gradientUnits="userSpaceOnUse">
<stop offset="0.398958" stop-color="white" stop-opacity="0"/>
<stop offset="1" stop-color="white" stop-opacity="0.34"/>
</linearGradient>
<linearGradient id="paint31_linear_416_3292" x1="-22.3946" y1="70" x2="16.7014" y2="70" gradientUnits="userSpaceOnUse">
<stop offset="0.398958" stop-color="white" stop-opacity="0"/>
<stop offset="1" stop-color="white" stop-opacity="0.34"/>
</linearGradient>
<linearGradient id="paint32_linear_416_3292" x1="7.92136" y1="70" x2="51.4641" y2="70" gradientUnits="userSpaceOnUse">
<stop offset="0.398958" stop-color="white" stop-opacity="0"/>
<stop offset="1" stop-color="white" stop-opacity="0.34"/>
</linearGradient>
<linearGradient id="paint33_linear_416_3292" x1="53.7041" y1="69.807" x2="83.026" y2="69.807" gradientUnits="userSpaceOnUse">
<stop offset="0.398958" stop-color="white" stop-opacity="0"/>
<stop offset="1" stop-color="white" stop-opacity="0.34"/>
</linearGradient>
<linearGradient id="paint34_linear_416_3292" x1="68.8073" y1="69.525" x2="120.935" y2="69.525" gradientUnits="userSpaceOnUse">
<stop offset="0.398958" stop-color="white" stop-opacity="0"/>
<stop offset="1" stop-color="white" stop-opacity="0.34"/>
</linearGradient>
<linearGradient id="paint35_linear_416_3292" x1="110.006" y1="70" x2="153.446" y2="70" gradientUnits="userSpaceOnUse">
<stop offset="0.398958" stop-color="white" stop-opacity="0"/>
<stop offset="1" stop-color="white" stop-opacity="0.34"/>
</linearGradient>
<linearGradient id="paint36_linear_416_3292" x1="136.807" y1="70.5" x2="188.935" y2="70.5" gradientUnits="userSpaceOnUse">
<stop offset="0.398958" stop-color="white" stop-opacity="0"/>
<stop offset="1" stop-color="white" stop-opacity="0.34"/>
</linearGradient>
<linearGradient id="paint37_linear_416_3292" x1="167.138" y1="70" x2="225.028" y2="70" gradientUnits="userSpaceOnUse">
<stop offset="0.398958" stop-color="white" stop-opacity="0"/>
<stop offset="1" stop-color="white" stop-opacity="0.34"/>
</linearGradient>
<linearGradient id="paint38_linear_416_3292" x1="217.814" y1="70" x2="256.914" y2="70" gradientUnits="userSpaceOnUse">
<stop offset="0.398958" stop-color="white" stop-opacity="0"/>
<stop offset="1" stop-color="white" stop-opacity="0.34"/>
</linearGradient>
<linearGradient id="paint39_linear_416_3292" x1="-33.1927" y1="100" x2="18.9351" y2="100" gradientUnits="userSpaceOnUse">
<stop offset="0.398958" stop-color="white" stop-opacity="0"/>
<stop offset="1" stop-color="white" stop-opacity="0.34"/>
</linearGradient>
<linearGradient id="paint40_linear_416_3292" x1="7.7862" y1="99.5" x2="52.0949" y2="99.5" gradientUnits="userSpaceOnUse">
<stop offset="0.398958" stop-color="white" stop-opacity="0"/>
<stop offset="1" stop-color="white" stop-opacity="0.34"/>
</linearGradient>
<linearGradient id="paint41_linear_416_3292" x1="39.1266" y1="99.5" x2="86.0416" y2="99.5" gradientUnits="userSpaceOnUse">
<stop offset="0.398958" stop-color="white" stop-opacity="0"/>
<stop offset="1" stop-color="white" stop-opacity="0.34"/>
</linearGradient>
<linearGradient id="paint42_linear_416_3292" x1="90.4036" y1="95" x2="116.468" y2="95" gradientUnits="userSpaceOnUse">
<stop offset="0.398958" stop-color="white" stop-opacity="0"/>
<stop offset="1" stop-color="white" stop-opacity="0.34"/>
</linearGradient>
<linearGradient id="paint43_linear_416_3292" x1="79.6055" y1="105.833" x2="118.701" y2="105.833" gradientUnits="userSpaceOnUse">
<stop offset="0.398958" stop-color="white" stop-opacity="0"/>
<stop offset="1" stop-color="white" stop-opacity="0.34"/>
</linearGradient>
<linearGradient id="paint44_linear_416_3292" x1="113.605" y1="100" x2="152.701" y2="100" gradientUnits="userSpaceOnUse">
<stop offset="0.398958" stop-color="white" stop-opacity="0"/>
<stop offset="1" stop-color="white" stop-opacity="0.34"/>
</linearGradient>
<clipPath id="clip0_416_3292">
<rect width="20" height="20" fill="white" transform="translate(34)"/>
</clipPath>
<clipPath id="clip1_416_3292">
<rect width="20" height="20" fill="white" transform="translate(102)"/>
</clipPath>
<clipPath id="clip2_416_3292">
<rect width="20" height="20" fill="white" transform="translate(170)"/>
</clipPath>
<clipPath id="clip3_416_3292">
<rect width="20" height="20" fill="white" transform="translate(238)"/>
</clipPath>
<clipPath id="clip4_416_3292">
<rect width="20" height="20" fill="white" transform="translate(68 30)"/>
</clipPath>
<clipPath id="clip5_416_3292">
<rect width="20" height="20" fill="white" transform="translate(170 30)"/>
</clipPath>
<clipPath id="clip6_416_3292">
<rect width="20" height="20" fill="white" transform="translate(204 30)"/>
</clipPath>
<clipPath id="clip7_416_3292">
<rect width="20" height="20" fill="white" transform="translate(102 60)"/>
</clipPath>
<clipPath id="clip8_416_3292">
<rect width="20" height="20" fill="white" transform="translate(136 60)"/>
</clipPath>
<clipPath id="clip9_416_3292">
<rect width="20" height="20" fill="white" transform="translate(34 90)"/>
</clipPath>
<clipPath id="clip10_416_3292">
<rect width="20" height="20" fill="white" transform="translate(136 90)"/>
</clipPath>
</defs>
</svg>
