<svg width="264" height="122" viewBox="0 0 264 122" fill="none" xmlns="http://www.w3.org/2000/svg">
<g clip-path="url(#clip0_416_8056)">
<path d="M15.8333 0H4.16667C3.062 0.00132321 2.00296 0.440735 1.22185 1.22185C0.440735 2.00296 0.00132321 3.062 0 4.16667L0 8.33333C0.00198452 9.87982 0.617203 11.3624 1.71074 12.4559C2.80427 13.5495 4.28685 14.1647 5.83333 14.1667H7.5V17.5C7.5 18.163 7.76339 18.7989 8.23223 19.2678C8.70107 19.7366 9.33696 20 10 20C10.663 20 11.2989 19.7366 11.7678 19.2678C12.2366 18.7989 12.5 18.163 12.5 17.5V14.1667H14.1667C15.7132 14.1647 17.1957 13.5495 18.2893 12.4559C19.3828 11.3624 19.998 9.87982 20 8.33333V4.16667C19.9987 3.062 19.5593 2.00296 18.7782 1.22185C17.997 0.440735 16.938 0.00132321 15.8333 0V0ZM1.66667 4.16667C1.66667 3.50363 1.93006 2.86774 2.3989 2.3989C2.86774 1.93006 3.50363 1.66667 4.16667 1.66667H8.33333V2.5C8.33333 2.72101 8.42113 2.93298 8.57741 3.08926C8.73369 3.24554 8.94565 3.33333 9.16667 3.33333C9.38768 3.33333 9.59964 3.24554 9.75592 3.08926C9.9122 2.93298 10 2.72101 10 2.5V1.66667H11.6667V4.16667C11.6667 4.38768 11.7545 4.59964 11.9107 4.75592C12.067 4.9122 12.279 5 12.5 5C12.721 5 12.933 4.9122 13.0893 4.75592C13.2455 4.59964 13.3333 4.38768 13.3333 4.16667V1.66667H15V5.83333C15 6.05435 15.0878 6.26631 15.2441 6.42259C15.4004 6.57887 15.6123 6.66667 15.8333 6.66667C16.0543 6.66667 16.2663 6.57887 16.4226 6.42259C16.5789 6.26631 16.6667 6.05435 16.6667 5.83333V1.82C17.1524 1.99174 17.5733 2.30936 17.8716 2.72942C18.1699 3.14948 18.3312 3.65145 18.3333 4.16667V8.33333H1.66667V4.16667ZM14.1667 12.5H11.6667C11.4457 12.5 11.2337 12.5878 11.0774 12.7441C10.9211 12.9004 10.8333 13.1123 10.8333 13.3333V17.5C10.8333 17.721 10.7455 17.933 10.5893 18.0893C10.433 18.2455 10.221 18.3333 10 18.3333C9.77899 18.3333 9.56702 18.2455 9.41074 18.0893C9.25446 17.933 9.16667 17.721 9.16667 17.5V13.3333C9.16667 13.1123 9.07887 12.9004 8.92259 12.7441C8.76631 12.5878 8.55435 12.5 8.33333 12.5H5.83333C5.02353 12.4989 4.23158 12.2619 3.55434 11.8179C2.8771 11.3739 2.34392 10.7422 2.02 10H17.98C17.6561 10.7422 17.1229 11.3739 16.4457 11.8179C15.7684 12.2619 14.9765 12.4989 14.1667 12.5Z" fill="url(#paint0_linear_416_8056)"/>
</g>
<g clip-path="url(#clip1_416_8056)">
<path d="M52.5 1.80248C52.0315 1.41075 51.4826 1.12697 50.8921 0.971281C50.3016 0.815593 49.684 0.791818 49.0833 0.901644L45.8983 1.47998C45.163 1.61501 44.4944 1.99333 44 2.55414C43.5043 1.99236 42.8338 1.61396 42.0967 1.47998L38.9167 0.901644C38.316 0.791722 37.6984 0.815185 37.1078 0.970373C36.5172 1.12556 35.9679 1.40868 35.4988 1.79969C35.0297 2.1907 34.6523 2.68004 34.3933 3.23307C34.1343 3.7861 34 4.3893 34 4.99998V13.9941C34 14.9698 34.3425 15.9145 34.9676 16.6636C35.5927 17.4127 36.4609 17.9187 37.4208 18.0933L42.6592 19.0458C43.5458 19.2069 44.4542 19.2069 45.3408 19.0458L50.5833 18.0933C51.5425 17.9178 52.4097 17.4115 53.034 16.6625C53.6583 15.9134 54.0001 14.9692 54 13.9941V4.99998C54.0004 4.38951 53.8662 3.78648 53.6069 3.2338C53.3476 2.68113 52.9697 2.19242 52.5 1.80248ZM43.1667 17.44C43.0967 17.43 43.0267 17.4183 42.9567 17.4058L37.7192 16.4541C37.1431 16.3493 36.6222 16.0457 36.2471 15.5961C35.872 15.1466 35.6666 14.5796 35.6667 13.9941V4.99998C35.6667 4.33694 35.9301 3.70105 36.3989 3.23221C36.8677 2.76337 37.5036 2.49998 38.1667 2.49998C38.3176 2.50034 38.4682 2.514 38.6167 2.54081L41.8 3.12414C42.183 3.19423 42.5294 3.3962 42.779 3.69501C43.0287 3.99382 43.1658 4.37061 43.1667 4.75998V17.44ZM52.3333 13.9941C52.3334 14.5796 52.128 15.1466 51.7529 15.5961C51.3778 16.0457 50.8569 16.3493 50.2808 16.4541L45.0433 17.4058C44.9733 17.4183 44.9033 17.43 44.8333 17.44V4.75998C44.8333 4.36965 44.9702 3.99169 45.2203 3.69198C45.4703 3.39228 45.8176 3.18984 46.2017 3.11998L49.3858 2.53664C49.7464 2.47104 50.117 2.48552 50.4714 2.57907C50.8258 2.67262 51.1553 2.84294 51.4365 3.07798C51.7178 3.31302 51.9439 3.60702 52.0988 3.93916C52.2538 4.2713 52.3339 4.63346 52.3333 4.99998V13.9941Z" fill="url(#paint1_linear_416_8056)"/>
</g>
<g clip-path="url(#clip2_416_8056)">
<path d="M84.7809 20C84.4726 19.9992 84.1675 19.9372 83.8833 19.8178C83.5991 19.6984 83.3414 19.5238 83.125 19.3042L78 14.2092L72.875 19.3075C72.5459 19.6414 72.1238 19.8685 71.6637 19.959C71.2036 20.0495 70.727 19.9993 70.2959 19.815C69.8605 19.6399 69.488 19.3375 69.2271 18.9474C68.9662 18.5573 68.829 18.0976 68.8334 17.6283V4.16667C68.8334 3.0616 69.2723 2.00179 70.0537 1.22039C70.8351 0.438987 71.895 0 73 0L83 0C83.5472 0 84.089 0.107774 84.5945 0.317169C85.1001 0.526563 85.5594 0.833478 85.9463 1.22039C86.3332 1.6073 86.6401 2.06663 86.8495 2.57215C87.0589 3.07768 87.1667 3.61949 87.1667 4.16667V17.6283C87.1714 18.0972 87.0346 18.5567 86.7744 18.9467C86.5141 19.3368 86.1423 19.6393 85.7075 19.815C85.414 19.9377 85.099 20.0006 84.7809 20ZM73 1.66667C72.337 1.66667 71.7011 1.93006 71.2323 2.3989C70.7634 2.86774 70.5 3.50363 70.5 4.16667V17.6283C70.4997 17.7672 70.5406 17.903 70.6174 18.0187C70.6943 18.1343 70.8037 18.2246 70.9318 18.2781C71.06 18.3316 71.2011 18.3459 71.3374 18.3193C71.4737 18.2926 71.599 18.2262 71.6975 18.1283L77.4167 12.4442C77.5728 12.289 77.784 12.2018 78.0042 12.2018C78.2243 12.2018 78.4356 12.289 78.5917 12.4442L84.3042 18.1267C84.4027 18.2245 84.528 18.291 84.6643 18.3176C84.8006 18.3443 84.9417 18.33 85.0699 18.2765C85.198 18.2229 85.3074 18.1327 85.3843 18.017C85.4611 17.9014 85.502 17.7655 85.5017 17.6267V4.16667C85.5017 3.50363 85.2383 2.86774 84.7695 2.3989C84.3006 1.93006 83.6647 1.66667 83.0017 1.66667H73Z" fill="url(#paint2_linear_416_8056)"/>
</g>
<g clip-path="url(#clip3_416_8056)">
<path d="M121.044 0.956659C120.478 0.390989 119.71 0.0732727 118.909 0.0732727C118.109 0.0732727 117.341 0.390989 116.774 0.956659L103.221 14.51C102.833 14.8959 102.525 15.355 102.315 15.8607C102.106 16.3663 101.999 16.9085 102 17.4558V19.1667C102 19.3877 102.088 19.5996 102.244 19.7559C102.4 19.9122 102.612 20 102.833 20H104.544C105.091 20.0015 105.634 19.8945 106.139 19.6851C106.645 19.4757 107.104 19.168 107.49 18.78L121.044 5.22583C121.61 4.65932 121.927 3.89163 121.927 3.09124C121.927 2.29085 121.61 1.52316 121.044 0.956659ZM106.312 17.6017C105.842 18.0685 105.207 18.3314 104.544 18.3333H103.667V17.4558C103.666 17.1274 103.73 16.8021 103.856 16.4987C103.982 16.1953 104.166 15.9199 104.399 15.6883L114.685 5.40249L116.602 7.31916L106.312 17.6017ZM119.865 4.04749L117.777 6.13666L115.86 4.22416L117.949 2.13499C118.075 2.00942 118.224 1.90986 118.389 1.842C118.553 1.77414 118.729 1.73932 118.907 1.73951C119.085 1.7397 119.261 1.77491 119.425 1.84313C119.589 1.91134 119.738 2.01122 119.864 2.13708C119.989 2.26293 120.089 2.41228 120.157 2.5766C120.225 2.74093 120.259 2.91701 120.259 3.0948C120.259 3.27258 120.224 3.44859 120.156 3.61277C120.087 3.77695 119.988 3.92608 119.862 4.05166L119.865 4.04749Z" fill="url(#paint3_linear_416_8056)"/>
</g>
<g clip-path="url(#clip4_416_8056)">
<path d="M148.393 10.3301C148.393 10.5511 148.481 10.763 148.637 10.9193C148.794 11.0756 149.006 11.1634 149.227 11.1634L151.727 11.1634C152.39 11.1634 153.026 11.4268 153.494 11.8956C153.963 12.3645 154.227 13.0004 154.227 13.6634L154.227 15.7267C154.227 16.3898 153.963 17.0257 153.494 17.4945C153.026 17.9633 152.39 18.2267 151.727 18.2267L140.06 18.2267C139.397 18.2267 138.761 17.9633 138.292 17.4945C137.823 17.0257 137.56 16.3898 137.56 15.7267L137.56 13.6634C137.56 13.0004 137.823 12.3645 138.292 11.8956C138.761 11.4268 139.397 11.1634 140.06 11.1634L142.56 11.1634C142.781 11.1634 142.993 11.0756 143.149 10.9193C143.306 10.763 143.393 10.5511 143.393 10.3301C143.393 10.1091 143.306 9.89709 143.149 9.74081C142.993 9.58453 142.781 9.49674 142.56 9.49674L140.06 9.49674C138.955 9.49806 137.896 9.93747 137.115 10.7186C136.334 11.4997 135.895 12.5587 135.893 13.6634L135.893 15.7267C135.895 16.8314 136.334 17.8904 137.115 18.6716C137.896 19.4527 138.955 19.8921 140.06 19.8934L151.727 19.8934C152.831 19.8921 153.89 19.4527 154.671 18.6716C155.453 17.8904 155.892 16.8314 155.893 15.7267L155.893 13.6634C155.892 12.5587 155.453 11.4997 154.671 10.7186C153.89 9.93747 152.831 9.49806 151.727 9.49673L149.227 9.49673C149.006 9.49673 148.794 9.58453 148.637 9.74081C148.481 9.89709 148.393 10.1091 148.393 10.3301Z" fill="url(#paint4_linear_416_8056)"/>
<path d="M144.126 0.837547L140.304 4.65921C140.225 4.73609 140.161 4.82804 140.118 4.92971C140.074 5.03138 140.051 5.14073 140.05 5.25138C140.049 5.36203 140.07 5.47176 140.112 5.57418C140.154 5.67659 140.216 5.76963 140.294 5.84788C140.372 5.92612 140.465 5.988 140.568 6.0299C140.67 6.0718 140.78 6.09288 140.891 6.09192C141.001 6.09096 141.111 6.06797 141.212 6.0243C141.314 5.98063 141.406 5.91714 141.483 5.83755L145.035 2.28588L145.06 14.8934C145.06 15.1144 145.148 15.3264 145.304 15.4826C145.461 15.6389 145.673 15.7267 145.894 15.7267C146.115 15.7267 146.327 15.6389 146.483 15.4826C146.639 15.3264 146.727 15.1144 146.727 14.8934L146.701 2.23671L150.304 5.83921C150.381 5.91881 150.473 5.98229 150.575 6.02597C150.677 6.06964 150.786 6.09263 150.897 6.09359C151.007 6.09455 151.117 6.07347 151.219 6.03157C151.322 5.98966 151.415 5.92779 151.493 5.84954C151.571 5.7713 151.633 5.67826 151.675 5.57584C151.717 5.47343 151.738 5.3637 151.737 5.25305C151.736 5.1424 151.713 5.03305 151.67 4.93138C151.626 4.82971 151.562 4.73775 151.483 4.66088L147.661 0.839214C147.193 0.370315 146.557 0.106726 145.894 0.106415C145.231 0.106102 144.595 0.36909 144.126 0.837547Z" fill="url(#paint5_linear_416_8056)"/>
</g>
<path d="M176.167 4.62725C176.09 4.49809 175.981 4.39112 175.85 4.31683C175.719 4.24255 175.572 4.20349 175.421 4.20349C175.271 4.20349 175.123 4.24255 174.993 4.31683C174.862 4.39112 174.753 4.49809 174.676 4.62725L170.093 13.7939C170.043 13.8919 170.013 13.9988 170.004 14.1085C169.996 14.2181 170.009 14.3284 170.044 14.4328C170.078 14.5373 170.133 14.6339 170.205 14.7171C170.276 14.8003 170.364 14.8685 170.463 14.9177C170.561 14.9668 170.668 14.996 170.778 15.0036C170.887 15.0111 170.998 14.9969 171.102 14.9617C171.206 14.9265 171.302 14.871 171.385 14.7984C171.468 14.7259 171.535 14.6377 171.583 14.5389L173.016 11.6664H177.819L179.256 14.5389C179.304 14.6377 179.372 14.7259 179.454 14.7984C179.537 14.871 179.633 14.9265 179.737 14.9617C179.842 14.9969 179.952 15.0111 180.061 15.0036C180.171 14.996 180.278 14.9668 180.377 14.9177C180.475 14.8685 180.563 14.8003 180.635 14.7171C180.707 14.6339 180.761 14.5373 180.796 14.4328C180.83 14.3284 180.843 14.2181 180.835 14.1085C180.827 13.9988 180.797 13.8919 180.747 13.7939L176.167 4.62725ZM173.849 9.99975L175.417 6.86308L176.986 9.99975H173.849Z" fill="url(#paint6_linear_416_8056)"/>
<path d="M189.166 6.66641C188.945 6.66641 188.734 6.75421 188.577 6.91049C188.421 7.06677 188.333 7.27873 188.333 7.49975V7.52141C187.616 6.96991 186.738 6.66948 185.833 6.66641C184.728 6.66641 183.668 7.1054 182.887 7.8868C182.105 8.6682 181.667 9.72801 181.667 10.8331C181.667 11.9381 182.105 12.998 182.887 13.7794C183.668 14.5608 184.728 14.9997 185.833 14.9997C186.738 14.9967 187.616 14.6963 188.333 14.1447V14.1664C188.333 14.3874 188.421 14.5994 188.577 14.7557C188.734 14.9119 188.945 14.9997 189.166 14.9997C189.387 14.9997 189.599 14.9119 189.756 14.7557C189.912 14.5994 190 14.3874 190 14.1664V7.49975C190 7.27873 189.912 7.06677 189.756 6.91049C189.599 6.75421 189.387 6.66641 189.166 6.66641ZM185.833 13.3331C185.339 13.3331 184.855 13.1865 184.444 12.9118C184.033 12.637 183.713 12.2466 183.523 11.7898C183.334 11.333 183.285 10.8303 183.381 10.3454C183.478 9.8604 183.716 9.41494 184.065 9.06531C184.415 8.71568 184.86 8.47758 185.345 8.38112C185.83 8.28465 186.333 8.33416 186.79 8.52338C187.247 8.7126 187.637 9.03303 187.912 9.44415C188.187 9.85528 188.333 10.3386 188.333 10.8331C188.333 11.4961 188.07 12.132 187.601 12.6008C187.132 13.0697 186.496 13.3331 185.833 13.3331Z" fill="url(#paint7_linear_416_8056)"/>
<g clip-path="url(#clip5_416_8056)">
<path d="M212.323 12.5C211.66 12.5 211.024 12.7634 210.555 13.2322C210.087 13.7011 209.823 14.337 209.823 15V17.5C209.823 18.163 210.087 18.7989 210.555 19.2678C211.024 19.7366 211.66 20 212.323 20C212.986 20 213.622 19.7366 214.091 19.2678C214.56 18.7989 214.823 18.163 214.823 17.5V15C214.823 14.337 214.56 13.7011 214.091 13.2322C213.622 12.7634 212.986 12.5 212.323 12.5ZM213.157 17.5C213.157 17.721 213.069 17.933 212.912 18.0893C212.756 18.2455 212.544 18.3333 212.323 18.3333C212.102 18.3333 211.89 18.2455 211.734 18.0893C211.578 17.933 211.49 17.721 211.49 17.5V15C211.49 14.779 211.578 14.567 211.734 14.4107C211.89 14.2545 212.102 14.1667 212.323 14.1667C212.544 14.1667 212.756 14.2545 212.912 14.4107C213.069 14.567 213.157 14.779 213.157 15V17.5Z" fill="url(#paint8_linear_416_8056)"/>
<path d="M213.167 10V5.83333C213.167 5.61232 213.255 5.40036 213.411 5.24408C213.567 5.0878 213.779 5 214 5C214.221 5 214.433 5.0878 214.589 5.24408C214.746 5.40036 214.833 5.61232 214.833 5.83333V9.16667H217.333C217.554 9.16667 217.766 9.25446 217.923 9.41074C218.079 9.56703 218.167 9.77899 218.167 10C218.167 10.221 218.079 10.433 217.923 10.5893C217.766 10.7455 217.554 10.8333 217.333 10.8333H214C213.779 10.8333 213.567 10.7455 213.411 10.5893C213.255 10.433 213.167 10.221 213.167 10Z" fill="url(#paint9_linear_416_8056)"/>
<path d="M204.833 1.66687C205.054 1.66687 205.266 1.75467 205.422 1.91095C205.579 2.06723 205.666 2.27919 205.666 2.5002V4.47854C206.535 3.16818 207.7 2.08097 209.067 1.30512C210.434 0.529274 211.965 0.0866403 213.535 0.0131369C215.105 -0.0603665 216.67 0.237331 218.104 0.882073C219.538 1.52682 220.799 2.50044 221.786 3.72396C222.773 4.94747 223.457 6.3864 223.784 7.924C224.111 9.46161 224.07 11.0546 223.666 12.5736C223.262 14.0927 222.505 15.4951 221.458 16.667C220.41 17.8389 219.101 18.7473 217.636 19.3185C217.54 19.3559 217.437 19.3751 217.333 19.3752C217.139 19.3755 216.95 19.3078 216.8 19.1838C216.651 19.0598 216.549 18.8873 216.513 18.6962C216.477 18.5051 216.509 18.3074 216.603 18.1374C216.698 17.9673 216.849 17.8357 217.03 17.7652C218.273 17.2844 219.383 16.5124 220.266 15.514C221.149 14.5155 221.78 13.3197 222.106 12.027C222.431 10.7343 222.441 9.38244 222.136 8.08482C221.831 6.7872 221.219 5.58173 220.352 4.5696C219.484 3.55747 218.386 2.76822 217.151 2.2681C215.915 1.76798 214.577 1.57159 213.25 1.69541C211.923 1.81923 210.645 2.25965 209.523 2.9797C208.401 3.69975 207.468 4.67841 206.803 5.83354H209C209.221 5.83354 209.433 5.92133 209.589 6.07761C209.745 6.23389 209.833 6.44586 209.833 6.66687C209.833 6.88788 209.745 7.09984 209.589 7.25613C209.433 7.41241 209.221 7.5002 209 7.5002H206.5C205.837 7.5002 205.201 7.23681 204.732 6.76797C204.263 6.29913 204 5.66324 204 5.0002V2.5002C204 2.27919 204.088 2.06723 204.244 1.91095C204.4 1.75467 204.612 1.66687 204.833 1.66687Z" fill="url(#paint10_linear_416_8056)"/>
<path d="M207.642 12.5629C207.49 12.4998 207.322 12.4833 207.161 12.5155C206.999 12.5477 206.85 12.6271 206.734 12.7437L204.234 15.2438C204.082 15.4009 203.998 15.6114 204 15.8299C204.002 16.0484 204.09 16.2574 204.244 16.4119C204.399 16.5664 204.608 16.6541 204.826 16.656C205.045 16.6579 205.255 16.5739 205.412 16.4221L206.49 15.3446V19.1663C206.49 19.3873 206.578 19.5992 206.734 19.7555C206.89 19.9118 207.102 19.9996 207.323 19.9996C207.544 19.9996 207.756 19.9118 207.912 19.7555C208.069 19.5992 208.156 19.3873 208.156 19.1663V13.3329C208.156 13.1681 208.108 13.007 208.016 12.8699C207.925 12.7329 207.794 12.626 207.642 12.5629Z" fill="url(#paint11_linear_416_8056)"/>
</g>
<g clip-path="url(#clip6_416_8056)">
<path d="M253.833 0H247.167C246.062 0.00132321 245.003 0.440735 244.222 1.22185C243.441 2.00296 243.001 3.062 243 4.16667V9.16667H242.167C241.062 9.16799 240.003 9.6074 239.222 10.3885C238.441 11.1696 238.001 12.2287 238 13.3333V15.8333C238.001 16.938 238.441 17.997 239.222 18.7782C240.003 19.5593 241.062 19.9987 242.167 20H244.667C245.771 19.9987 246.83 19.5593 247.611 18.7782C248.393 17.997 248.832 16.938 248.833 15.8333V15H253.833C254.938 14.9987 255.997 14.5593 256.778 13.7782C257.559 12.997 257.999 11.938 258 10.8333V4.16667C257.999 3.062 257.559 2.00296 256.778 1.22185C255.997 0.440735 254.938 0.00132321 253.833 0V0ZM247.167 13.3333C246.504 13.3333 245.868 13.0699 245.399 12.6011C244.93 12.1323 244.667 11.4964 244.667 10.8333C245.33 10.8333 245.966 11.0967 246.434 11.5656C246.903 12.0344 247.167 12.6703 247.167 13.3333ZM247.167 15.8333C247.167 16.4964 246.903 17.1323 246.434 17.6011C245.966 18.0699 245.33 18.3333 244.667 18.3333H242.167C241.504 18.3333 240.868 18.0699 240.399 17.6011C239.93 17.1323 239.667 16.4964 239.667 15.8333V13.3333C239.667 12.6703 239.93 12.0344 240.399 11.5656C240.868 11.0967 241.504 10.8333 242.167 10.8333H243C243.001 11.938 243.441 12.997 244.222 13.7782C245.003 14.5593 246.062 14.9987 247.167 15V15.8333ZM256.333 10.8333C256.333 11.4964 256.07 12.1323 255.601 12.6011C255.132 13.0699 254.496 13.3333 253.833 13.3333H248.833C248.833 12.5169 248.592 11.7187 248.139 11.0392L253 6.17833V8.33333C253 8.55435 253.088 8.76631 253.244 8.92259C253.4 9.07887 253.612 9.16667 253.833 9.16667C254.054 9.16667 254.266 9.07887 254.423 8.92259C254.579 8.76631 254.667 8.55435 254.667 8.33333V5.83333C254.667 5.17029 254.403 4.53441 253.934 4.06557C253.466 3.59673 252.83 3.33333 252.167 3.33333H249.667C249.446 3.33333 249.234 3.42113 249.077 3.57741C248.921 3.73369 248.833 3.94565 248.833 4.16667C248.833 4.38768 248.921 4.59964 249.077 4.75592C249.234 4.9122 249.446 5 249.667 5H251.822L246.961 9.86083C246.281 9.40834 245.483 9.16683 244.667 9.16667V4.16667C244.667 3.50363 244.93 2.86774 245.399 2.3989C245.868 1.93006 246.504 1.66667 247.167 1.66667H253.833C254.496 1.66667 255.132 1.93006 255.601 2.3989C256.07 2.86774 256.333 3.50363 256.333 4.16667V10.8333Z" fill="url(#paint12_linear_416_8056)"/>
</g>
<g clip-path="url(#clip7_416_8056)">
<path d="M0.833333 39H19.1667C19.3877 39 19.5996 38.9122 19.7559 38.7559C19.9122 38.5996 20 38.3877 20 38.1667C20 37.9457 19.9122 37.7337 19.7559 37.5774C19.5996 37.4211 19.3877 37.3333 19.1667 37.3333H0.833333C0.61232 37.3333 0.400358 37.4211 0.244078 37.5774C0.0877974 37.7337 0 37.9457 0 38.1667C0 38.3877 0.0877974 38.5996 0.244078 38.7559C0.400358 38.9122 0.61232 39 0.833333 39Z" fill="url(#paint13_linear_416_8056)"/>
<path d="M0.833333 43.1667H12.5C12.721 43.1667 12.933 43.0789 13.0893 42.9226C13.2455 42.7663 13.3333 42.5543 13.3333 42.3333C13.3333 42.1123 13.2455 41.9004 13.0893 41.7441C12.933 41.5878 12.721 41.5 12.5 41.5H0.833333C0.61232 41.5 0.400358 41.5878 0.244078 41.7441C0.0877974 41.9004 0 42.1123 0 42.3333C0 42.5543 0.0877974 42.7663 0.244078 42.9226C0.400358 43.0789 0.61232 43.1667 0.833333 43.1667Z" fill="url(#paint14_linear_416_8056)"/>
<path d="M12.5 49.8333H0.833333C0.61232 49.8333 0.400358 49.9211 0.244078 50.0774C0.0877974 50.2337 0 50.4456 0 50.6667C0 50.8877 0.0877974 51.0996 0.244078 51.2559C0.400358 51.4122 0.61232 51.5 0.833333 51.5H12.5C12.721 51.5 12.933 51.4122 13.0893 51.2559C13.2455 51.0996 13.3333 50.8877 13.3333 50.6667C13.3333 50.4456 13.2455 50.2337 13.0893 50.0774C12.933 49.9211 12.721 49.8333 12.5 49.8333Z" fill="url(#paint15_linear_416_8056)"/>
<path d="M19.1667 45.6667H0.833333C0.61232 45.6667 0.400358 45.7545 0.244078 45.9108C0.0877974 46.067 0 46.279 0 46.5C0 46.721 0.0877974 46.933 0.244078 47.0893C0.400358 47.2456 0.61232 47.3334 0.833333 47.3334H19.1667C19.3877 47.3334 19.5996 47.2456 19.7559 47.0893C19.9122 46.933 20 46.721 20 46.5C20 46.279 19.9122 46.067 19.7559 45.9108C19.5996 45.7545 19.3877 45.6667 19.1667 45.6667Z" fill="url(#paint16_linear_416_8056)"/>
</g>
<g clip-path="url(#clip8_416_8056)">
<path d="M44 34C42.0222 34 40.0888 34.5865 38.4443 35.6853C36.7998 36.7841 35.5181 38.3459 34.7612 40.1732C34.0043 42.0004 33.8063 44.0111 34.1922 45.9509C34.578 47.8907 35.5304 49.6725 36.9289 51.0711C38.3275 52.4696 40.1093 53.422 42.0491 53.8079C43.9889 54.1937 45.9996 53.9957 47.8268 53.2388C49.6541 52.4819 51.2159 51.2002 52.3147 49.5557C53.4135 47.9112 54 45.9778 54 44C53.9971 41.3487 52.9426 38.8068 51.0679 36.9321C49.1932 35.0574 46.6513 34.0029 44 34V34ZM44 52.3333C42.3518 52.3333 40.7407 51.8446 39.3703 50.9289C37.9998 50.0132 36.9317 48.7117 36.301 47.189C35.6703 45.6663 35.5053 43.9908 35.8268 42.3742C36.1483 40.7577 36.942 39.2729 38.1074 38.1074C39.2729 36.942 40.7577 36.1483 42.3743 35.8268C43.9908 35.5052 45.6663 35.6703 47.189 36.301C48.7118 36.9317 50.0132 37.9998 50.9289 39.3702C51.8446 40.7407 52.3333 42.3518 52.3333 44C52.3309 46.2094 51.4522 48.3276 49.8899 49.8899C48.3276 51.4522 46.2094 52.3309 44 52.3333ZM45.6667 44C45.668 44.2929 45.5921 44.5809 45.4467 44.8351C45.3012 45.0894 45.0914 45.3008 44.8382 45.4481C44.5851 45.5954 44.2976 45.6734 44.0047 45.6742C43.7119 45.675 43.4239 45.5987 43.17 45.4528C42.916 45.3069 42.7049 45.0967 42.5581 44.8433C42.4112 44.5899 42.3337 44.3023 42.3334 44.0094C42.333 43.7166 42.4099 43.4288 42.5562 43.175C42.7025 42.9213 42.913 42.7106 43.1667 42.5642V39.8333C43.1667 39.6123 43.2545 39.4004 43.4107 39.2441C43.567 39.0878 43.779 39 44 39C44.221 39 44.433 39.0878 44.5893 39.2441C44.7455 39.4004 44.8333 39.6123 44.8333 39.8333V42.5642C45.0859 42.7094 45.2959 42.9185 45.4422 43.1706C45.5884 43.4226 45.6659 43.7086 45.6667 44Z" fill="url(#paint17_linear_416_8056)"/>
</g>
<g clip-path="url(#clip9_416_8056)">
<path d="M87.2678 41.5574L80.9469 35.2358C80.1646 34.4557 79.105 34.0177 78.0003 34.0177C76.8955 34.0177 75.8359 34.4557 75.0536 35.2358L68.7328 41.5574C68.4998 41.7889 68.3151 42.0643 68.1893 42.3677C68.0636 42.6711 67.9993 42.9965 68.0003 43.3249V51.5058C68.0003 52.1688 68.2636 52.8047 68.7325 53.2735C69.2013 53.7424 69.8372 54.0058 70.5003 54.0058H85.5003C86.1633 54.0058 86.7992 53.7424 87.268 53.2735C87.7369 52.8047 88.0003 52.1688 88.0003 51.5058V43.3249C88.0012 42.9965 87.9369 42.6711 87.8112 42.3677C87.6854 42.0643 87.5007 41.7889 87.2678 41.5574ZM80.5003 52.3391H75.5003V49.0608C75.5003 48.3977 75.7636 47.7618 76.2325 47.293C76.7013 46.8241 77.3372 46.5608 78.0003 46.5608C78.6633 46.5608 79.2992 46.8241 79.768 47.293C80.2369 47.7618 80.5003 48.3977 80.5003 49.0608V52.3391ZM86.3336 51.5058C86.3336 51.7268 86.2458 51.9387 86.0895 52.095C85.9332 52.2513 85.7213 52.3391 85.5003 52.3391H82.1669V49.0608C82.1669 47.9557 81.7279 46.8959 80.9465 46.1145C80.1651 45.3331 79.1053 44.8941 78.0003 44.8941C76.8952 44.8941 75.8354 45.3331 75.054 46.1145C74.2726 46.8959 73.8336 47.9557 73.8336 49.0608V52.3391H70.5003C70.2792 52.3391 70.0673 52.2513 69.911 52.095C69.7547 51.9387 69.6669 51.7268 69.6669 51.5058V43.3249C69.6677 43.1041 69.7554 42.8924 69.9111 42.7358L76.2319 36.4166C76.7017 35.949 77.3375 35.6865 78.0003 35.6865C78.663 35.6865 79.2988 35.949 79.7686 36.4166L86.0894 42.7383C86.2445 42.8943 86.3322 43.1049 86.3336 43.3249V51.5058Z" fill="url(#paint18_linear_416_8056)"/>
</g>
<g clip-path="url(#clip10_416_8056)">
<path d="M102.833 39H121.167C121.388 39 121.6 38.9122 121.756 38.7559C121.912 38.5996 122 38.3877 122 38.1667C122 37.9457 121.912 37.7337 121.756 37.5774C121.6 37.4211 121.388 37.3333 121.167 37.3333H102.833C102.612 37.3333 102.4 37.4211 102.244 37.5774C102.088 37.7337 102 37.9457 102 38.1667C102 38.3877 102.088 38.5996 102.244 38.7559C102.4 38.9122 102.612 39 102.833 39Z" fill="url(#paint19_linear_416_8056)"/>
<path d="M121.167 41.5H109.5C109.279 41.5 109.067 41.5878 108.911 41.7441C108.755 41.9004 108.667 42.1123 108.667 42.3333C108.667 42.5543 108.755 42.7663 108.911 42.9226C109.067 43.0789 109.279 43.1667 109.5 43.1667H121.167C121.388 43.1667 121.6 43.0789 121.756 42.9226C121.912 42.7663 122 42.5543 122 42.3333C122 42.1123 121.912 41.9004 121.756 41.7441C121.6 41.5878 121.388 41.5 121.167 41.5Z" fill="url(#paint20_linear_416_8056)"/>
<path d="M121.167 49.8333H109.5C109.279 49.8333 109.067 49.9211 108.911 50.0774C108.755 50.2337 108.667 50.4456 108.667 50.6667C108.667 50.8877 108.755 51.0996 108.911 51.2559C109.067 51.4122 109.279 51.5 109.5 51.5H121.167C121.388 51.5 121.6 51.4122 121.756 51.2559C121.912 51.0996 122 50.8877 122 50.6667C122 50.4456 121.912 50.2337 121.756 50.0774C121.6 49.9211 121.388 49.8333 121.167 49.8333Z" fill="url(#paint21_linear_416_8056)"/>
<path d="M121.167 45.6667H102.833C102.612 45.6667 102.4 45.7545 102.244 45.9108C102.088 46.067 102 46.279 102 46.5C102 46.721 102.088 46.933 102.244 47.0893C102.4 47.2456 102.612 47.3334 102.833 47.3334H121.167C121.388 47.3334 121.6 47.2456 121.756 47.0893C121.912 46.933 122 46.721 122 46.5C122 46.279 121.912 46.067 121.756 45.9108C121.6 45.7545 121.388 45.6667 121.167 45.6667Z" fill="url(#paint22_linear_416_8056)"/>
</g>
<g clip-path="url(#clip11_416_8056)">
<path d="M149.858 36.4168C149.203 35.8609 148.515 35.2768 147.815 34.6401C147.278 34.1517 146.553 33.9254 145.833 34.0218C145.136 34.1139 144.516 34.5107 144.14 35.1051C143.147 36.7651 142.444 38.5826 142.063 40.4793C141.914 40.2634 141.781 40.0364 141.667 39.8001C141.272 38.9685 140.278 38.6143 139.446 39.009C139.245 39.1046 139.065 39.2395 138.917 39.4059C137.519 40.8343 136.744 42.7583 136.762 44.7567C136.722 48.9572 139.547 52.6451 143.613 53.7001C144.37 53.8904 145.147 53.9889 145.927 53.9934C145.952 53.9934 146.217 53.9909 146.325 53.9834C151.3 53.8223 155.248 49.7393 155.242 44.7617C155.238 40.9868 152.745 38.8701 149.858 36.4168ZM145.906 52.3209C145.286 52.2737 144.673 52.0225 144.21 51.6492C143.485 51.1365 143.006 50.3846 142.892 49.5184C142.75 48.1667 143.583 46.3992 145.286 44.4026C145.464 44.1941 145.726 44.0746 146 44.0759C146.271 44.0739 146.529 44.1931 146.703 44.4009C148.263 46.2526 149.119 47.9609 149.119 49.2117C149.114 50.8551 147.83 52.1551 146.194 52.3134C146.122 52.3204 146 52.3309 145.906 52.3209ZM150.647 50.7359C150.598 50.7742 150.543 50.8051 150.493 50.8417C150.686 50.3191 150.785 49.7669 150.786 49.21C150.786 47.1042 149.257 44.8475 147.975 43.325C147.485 42.7443 146.763 42.409 146.003 42.4084H146C145.238 42.407 144.515 42.74 144.02 43.3192C141.983 45.7059 141.047 47.85 141.238 49.6925C141.284 50.1202 141.393 50.5388 141.563 50.9342C139.584 49.5004 138.418 47.2003 138.431 44.7567C138.415 43.1692 139.041 41.6426 140.167 40.5234C140.359 40.923 140.59 41.3028 140.856 41.6575C141.221 42.1517 141.846 42.381 142.444 42.2409C143.054 42.1059 143.528 41.6247 143.653 41.0125C143.988 39.2429 144.628 37.5448 145.544 35.9942C145.657 35.817 145.843 35.6995 146.052 35.6742C146.285 35.6429 146.52 35.7164 146.693 35.875C147.408 36.525 148.11 37.125 148.777 37.6892C151.558 40.0517 153.569 41.7584 153.569 44.7617C153.576 47.0989 152.497 49.307 150.649 50.7375L150.647 50.7359Z" fill="url(#paint23_linear_416_8056)"/>
</g>
<g clip-path="url(#clip12_416_8056)">
<path d="M185.833 35.6667H185V34.8333C185 34.6123 184.912 34.4004 184.756 34.2441C184.6 34.0878 184.388 34 184.167 34C183.946 34 183.734 34.0878 183.577 34.2441C183.421 34.4004 183.333 34.6123 183.333 34.8333V35.6667H176.667V34.8333C176.667 34.6123 176.579 34.4004 176.423 34.2441C176.266 34.0878 176.054 34 175.833 34C175.612 34 175.4 34.0878 175.244 34.2441C175.088 34.4004 175 34.6123 175 34.8333V35.6667H174.167C173.062 35.668 172.003 36.1074 171.222 36.8885C170.441 37.6696 170.001 38.7287 170 39.8333V49.8333C170.001 50.938 170.441 51.997 171.222 52.7782C172.003 53.5593 173.062 53.9987 174.167 54H185.833C186.938 53.9987 187.997 53.5593 188.778 52.7782C189.559 51.997 189.999 50.938 190 49.8333V39.8333C189.999 38.7287 189.559 37.6696 188.778 36.8885C187.997 36.1074 186.938 35.668 185.833 35.6667ZM171.667 39.8333C171.667 39.1703 171.93 38.5344 172.399 38.0656C172.868 37.5967 173.504 37.3333 174.167 37.3333H185.833C186.496 37.3333 187.132 37.5967 187.601 38.0656C188.07 38.5344 188.333 39.1703 188.333 39.8333V40.6667H171.667V39.8333ZM185.833 52.3333H174.167C173.504 52.3333 172.868 52.0699 172.399 51.6011C171.93 51.1323 171.667 50.4964 171.667 49.8333V42.3333H188.333V49.8333C188.333 50.4964 188.07 51.1323 187.601 51.6011C187.132 52.0699 186.496 52.3333 185.833 52.3333Z" fill="url(#paint24_linear_416_8056)"/>
<path d="M180 47.75C180.69 47.75 181.25 47.1904 181.25 46.5C181.25 45.8096 180.69 45.25 180 45.25C179.31 45.25 178.75 45.8096 178.75 46.5C178.75 47.1904 179.31 47.75 180 47.75Z" fill="url(#paint25_linear_416_8056)"/>
<path d="M175.833 47.75C176.524 47.75 177.083 47.1904 177.083 46.5C177.083 45.8096 176.524 45.25 175.833 45.25C175.143 45.25 174.583 45.8096 174.583 46.5C174.583 47.1904 175.143 47.75 175.833 47.75Z" fill="url(#paint26_linear_416_8056)"/>
<path d="M184.167 47.75C184.857 47.75 185.417 47.1904 185.417 46.5C185.417 45.8096 184.857 45.25 184.167 45.25C183.476 45.25 182.917 45.8096 182.917 46.5C182.917 47.1904 183.476 47.75 184.167 47.75Z" fill="url(#paint27_linear_416_8056)"/>
</g>
<g clip-path="url(#clip13_416_8056)">
<path d="M220.667 40.6667C220.669 39.5874 220.409 38.5237 219.91 37.5669C219.411 36.6102 218.686 35.789 217.799 35.1739C216.912 34.5588 215.889 34.1683 214.818 34.0358C213.747 33.9034 212.66 34.033 211.65 34.4134C210.64 34.7939 209.737 35.4139 209.02 36.2202C208.302 37.0265 207.791 37.9949 207.531 39.0422C207.27 40.0896 207.268 41.1845 207.524 42.233C207.78 43.2815 208.286 44.2522 209 45.0617V51.9167C209 52.3091 209.111 52.6936 209.32 53.0258C209.529 53.358 209.827 53.6245 210.181 53.7945C210.535 53.9645 210.929 54.0311 211.319 53.9866C211.709 53.9422 212.079 53.7886 212.385 53.5433L213.74 52.46C213.814 52.4011 213.906 52.3689 214 52.3689C214.095 52.3689 214.186 52.4011 214.26 52.46L215.615 53.5433C215.922 53.7886 216.291 53.9422 216.681 53.9866C217.071 54.0311 217.465 53.9645 217.819 53.7945C218.173 53.6245 218.471 53.358 218.68 53.0258C218.889 52.6936 219 52.3091 219 51.9167V45.0617C220.074 43.8493 220.667 42.286 220.667 40.6667ZM214 35.6667C214.989 35.6667 215.956 35.9599 216.778 36.5093C217.6 37.0587 218.241 37.8396 218.62 38.7533C218.998 39.6669 219.097 40.6722 218.904 41.6421C218.711 42.612 218.235 43.5029 217.536 44.2022C216.836 44.9015 215.946 45.3777 214.976 45.5706C214.006 45.7635 213 45.6645 212.087 45.2861C211.173 44.9076 210.392 44.2668 209.843 43.4445C209.293 42.6223 209 41.6556 209 40.6667C209.001 39.341 209.529 38.07 210.466 37.1326C211.403 36.1952 212.674 35.668 214 35.6667ZM217.098 52.29C217.027 52.3249 216.948 52.3388 216.87 52.3299C216.792 52.3211 216.718 52.2899 216.657 52.24L215.302 51.1567C214.933 50.8596 214.474 50.6976 214 50.6976C213.527 50.6976 213.067 50.8596 212.698 51.1567L211.344 52.24C211.283 52.2891 211.209 52.3199 211.132 52.329C211.054 52.338 210.975 52.3249 210.904 52.2911C210.833 52.2574 210.773 52.2043 210.731 52.1381C210.69 52.0718 210.667 51.9951 210.667 51.9167V46.4317C211.678 47.0222 212.829 47.3333 214 47.3333C215.172 47.3333 216.322 47.0222 217.333 46.4317V51.9167C217.334 51.995 217.313 52.072 217.271 52.1382C217.229 52.2045 217.169 52.2572 217.098 52.29Z" fill="url(#paint28_linear_416_8056)"/>
</g>
<g clip-path="url(#clip14_416_8056)">
<path d="M254.667 34H243.833C243.612 34 243.4 34.0878 243.244 34.2441C243.088 34.4004 243 34.6123 243 34.8333C243 35.0543 243.088 35.2663 243.244 35.4226C243.4 35.5789 243.612 35.6667 243.833 35.6667H248.295L246.022 52.3333H241.333C241.112 52.3333 240.9 52.4211 240.744 52.5774C240.588 52.7337 240.5 52.9457 240.5 53.1667C240.5 53.3877 240.588 53.5996 240.744 53.7559C240.9 53.9122 241.112 54 241.333 54H252.167C252.388 54 252.6 53.9122 252.756 53.7559C252.912 53.5996 253 53.3877 253 53.1667C253 52.9457 252.912 52.7337 252.756 52.5774C252.6 52.4211 252.388 52.3333 252.167 52.3333H247.705L249.977 35.6667H254.667C254.888 35.6667 255.1 35.5789 255.256 35.4226C255.412 35.2663 255.5 35.0543 255.5 34.8333C255.5 34.6123 255.412 34.4004 255.256 34.2441C255.1 34.0878 254.888 34 254.667 34V34Z" fill="url(#paint29_linear_416_8056)"/>
</g>
<g clip-path="url(#clip15_416_8056)">
<path d="M10 68C8.02219 68 6.08879 68.5865 4.4443 69.6853C2.79981 70.7841 1.51809 72.3459 0.761209 74.1732C0.00433286 76.0004 -0.193701 78.0111 0.192152 79.9509C0.578004 81.8907 1.53041 83.6725 2.92894 85.0711C4.32746 86.4696 6.10929 87.422 8.0491 87.8079C9.98891 88.1937 11.9996 87.9957 13.8268 87.2388C15.6541 86.4819 17.2159 85.2002 18.3147 83.5557C19.4135 81.9112 20 79.9778 20 78C19.9971 75.3487 18.9426 72.8068 17.0679 70.9321C15.1932 69.0574 12.6513 68.0029 10 68V68ZM18.3333 78C18.3343 79.6331 17.8525 81.23 16.9483 82.59L15.955 81.5958C15.8771 81.5177 15.8334 81.412 15.8333 81.3017V80.5C15.8333 79.837 15.5699 79.2011 15.1011 78.7322C14.6323 78.2634 13.9964 78 13.3333 78H10.8333C10.6123 78 10.4004 77.9122 10.2441 77.7559C10.0878 77.5996 10 77.3877 10 77.1667V76.75C10 76.6395 10.0439 76.5335 10.122 76.4554C10.2002 76.3772 10.3062 76.3333 10.4167 76.3333C10.9692 76.3333 11.4991 76.1138 11.8898 75.7231C12.2805 75.3324 12.5 74.8025 12.5 74.25V73.4167C12.5 73.3062 12.5439 73.2002 12.622 73.122C12.7002 73.0439 12.8062 73 12.9167 73H14.0658C14.6178 72.9984 15.1469 72.7792 15.5383 72.39L15.8525 72.0758C16.6385 72.8492 17.2626 73.7714 17.6886 74.7885C18.1145 75.8056 18.3337 76.8973 18.3333 78ZM1.7075 78.8025L4.33917 81.4342C4.57076 81.6672 4.84632 81.852 5.14988 81.9778C5.45343 82.1035 5.77894 82.1677 6.1075 82.1667H8.33334C8.55435 82.1667 8.76631 82.2545 8.92259 82.4107C9.07887 82.567 9.16667 82.779 9.16667 83V86.2908C7.25017 86.0952 5.46033 85.2426 4.10078 83.8778C2.74122 82.5129 1.89565 80.7198 1.7075 78.8025ZM10.8333 86.2908V83C10.8333 82.337 10.5699 81.7011 10.1011 81.2322C9.63226 80.7634 8.99638 80.5 8.33334 80.5H6.1075C5.99794 80.5001 5.88943 80.4786 5.78819 80.4367C5.68695 80.3948 5.59497 80.3333 5.5175 80.2558L1.8025 76.5408C2.04098 75.1852 2.61229 73.9099 3.46515 72.8295C4.31802 71.7491 5.42576 70.8973 6.689 70.3505C7.95224 69.8038 9.33145 69.5792 10.7029 69.6969C12.0743 69.8146 13.3951 70.271 14.5467 71.025L14.36 71.2117C14.2816 71.289 14.176 71.3327 14.0658 71.3333H12.9167C12.3641 71.3333 11.8342 71.5528 11.4435 71.9435C11.0528 72.3342 10.8333 72.8641 10.8333 73.4167V74.25C10.8333 74.3605 10.7894 74.4665 10.7113 74.5446C10.6332 74.6228 10.5272 74.6667 10.4167 74.6667C9.86414 74.6667 9.33423 74.8862 8.94353 75.2769C8.55283 75.6676 8.33334 76.1975 8.33334 76.75V77.1667C8.33334 77.8297 8.59673 78.4656 9.06557 78.9344C9.53441 79.4033 10.1703 79.6667 10.8333 79.6667H13.3333C13.5544 79.6667 13.7663 79.7545 13.9226 79.9107C14.0789 80.067 14.1667 80.279 14.1667 80.5V81.3017C14.1682 81.8537 14.3874 82.3828 14.7767 82.7742L15.8908 83.8883C14.5337 85.2502 12.7463 86.0992 10.8333 86.2908Z" fill="url(#paint30_linear_416_8056)"/>
</g>
<g clip-path="url(#clip16_416_8056)">
<path d="M48.1667 68H39.8334C38.7288 68.0013 37.6697 68.4407 36.8886 69.2218C36.1075 70.003 35.6681 71.062 35.6667 72.1667V84.6667C35.6667 85.5507 36.0179 86.3986 36.6431 87.0237C37.2682 87.6488 38.116 88 39.0001 88H48.1667C49.2714 87.9987 50.3305 87.5593 51.1116 86.7782C51.8927 85.997 52.3321 84.938 52.3334 83.8333V72.1667C52.3321 71.062 51.8927 70.003 51.1116 69.2218C50.3305 68.4407 49.2714 68.0013 48.1667 68V68ZM50.6667 72.1667V81.3333H40.6667V69.6667H48.1667C48.8298 69.6667 49.4657 69.9301 49.9345 70.3989C50.4034 70.8677 50.6667 71.5036 50.6667 72.1667ZM39.0001 69.81V81.3333C38.4148 81.3328 37.8398 81.4872 37.3334 81.7808V72.1667C37.3335 71.6497 37.4938 71.1455 37.7923 70.7235C38.0908 70.3015 38.5127 69.9823 39.0001 69.81ZM48.1667 86.3333H39.0001C38.5581 86.3333 38.1341 86.1577 37.8216 85.8452C37.509 85.5326 37.3334 85.1087 37.3334 84.6667C37.3334 84.2246 37.509 83.8007 37.8216 83.4882C38.1341 83.1756 38.5581 83 39.0001 83H50.6667V83.8333C50.6667 84.4964 50.4034 85.1323 49.9345 85.6011C49.4657 86.0699 48.8298 86.3333 48.1667 86.3333Z" fill="url(#paint31_linear_416_8056)"/>
</g>
<g clip-path="url(#clip17_416_8056)">
<path d="M81.3334 81.3333C81.3334 81.5543 81.2456 81.7663 81.0893 81.9226C80.9331 82.0789 80.7211 82.1667 80.5001 82.1667H78.8334V83.8333C78.8334 84.0543 78.7456 84.2663 78.5893 84.4226C78.4331 84.5789 78.2211 84.6667 78.0001 84.6667C77.7791 84.6667 77.5671 84.5789 77.4108 84.4226C77.2545 84.2663 77.1667 84.0543 77.1667 83.8333V82.1667H75.5001C75.2791 82.1667 75.0671 82.0789 74.9108 81.9226C74.7545 81.7663 74.6667 81.5543 74.6667 81.3333C74.6667 81.1123 74.7545 80.9003 74.9108 80.7441C75.0671 80.5878 75.2791 80.5 75.5001 80.5H77.1667V78.8333C77.1667 78.6123 77.2545 78.4003 77.4108 78.2441C77.5671 78.0878 77.7791 78 78.0001 78C78.2211 78 78.4331 78.0878 78.5893 78.2441C78.7456 78.4003 78.8334 78.6123 78.8334 78.8333V80.5H80.5001C80.7211 80.5 80.9331 80.5878 81.0893 80.7441C81.2456 80.9003 81.3334 81.1123 81.3334 81.3333ZM86.3334 76.7375V83.8333C86.3321 84.938 85.8927 85.997 85.1116 86.7781C84.3305 87.5593 83.2714 87.9987 82.1667 88H73.8334C72.7288 87.9987 71.6697 87.5593 70.8886 86.7781C70.1075 85.997 69.6681 84.938 69.6667 83.8333V72.1667C69.6681 71.062 70.1075 70.003 70.8886 69.2218C71.6697 68.4407 72.7288 68.0013 73.8334 68H77.5959C78.3623 67.998 79.1214 68.148 79.8294 68.4412C80.5375 68.7344 81.1804 69.1651 81.7209 69.7083L84.6242 72.6133C85.1678 73.1535 85.5987 73.7962 85.8921 74.5041C86.1855 75.2121 86.3355 75.9712 86.3334 76.7375ZM80.5426 70.8867C80.2803 70.6326 79.9859 70.4141 79.6667 70.2367V73.8333C79.6667 74.0543 79.7545 74.2663 79.9108 74.4226C80.0671 74.5789 80.2791 74.6667 80.5001 74.6667H84.0967C83.9192 74.3476 83.7004 74.0534 83.4459 73.7917L80.5426 70.8867ZM84.6667 76.7375C84.6667 76.6 84.6401 76.4683 84.6276 76.3333H80.5001C79.837 76.3333 79.2012 76.0699 78.7323 75.6011C78.2635 75.1322 78.0001 74.4964 78.0001 73.8333V69.7058C77.8651 69.6933 77.7326 69.6667 77.5959 69.6667H73.8334C73.1704 69.6667 72.5345 69.93 72.0656 70.3989C71.5968 70.8677 71.3334 71.5036 71.3334 72.1667V83.8333C71.3334 84.4964 71.5968 85.1322 72.0656 85.6011C72.5345 86.0699 73.1704 86.3333 73.8334 86.3333H82.1667C82.8298 86.3333 83.4657 86.0699 83.9345 85.6011C84.4034 85.1322 84.6667 84.4964 84.6667 83.8333V76.7375Z" fill="url(#paint32_linear_416_8056)"/>
</g>
<g clip-path="url(#clip18_416_8056)">
<path d="M120.333 82.1667L120.333 83.8333C120.333 84.4964 120.07 85.1323 119.601 85.6011C119.132 86.0699 118.496 86.3333 117.833 86.3333L106.167 86.3333C105.504 86.3333 104.868 86.0699 104.399 85.6011C103.93 85.1323 103.667 84.4964 103.667 83.8333L103.667 82.1667C103.667 81.9457 103.579 81.7337 103.423 81.5774C103.266 81.4211 103.054 81.3333 102.833 81.3333C102.612 81.3333 102.4 81.4211 102.244 81.5774C102.088 81.7337 102 81.9457 102 82.1667L102 83.8333C102.001 84.938 102.441 85.997 103.222 86.7782C104.003 87.5593 105.062 87.9987 106.167 88L117.833 88C118.938 87.9987 119.997 87.5593 120.778 86.7781C121.559 85.997 121.999 84.938 122 83.8333L122 82.1667C122 81.9457 121.912 81.7337 121.756 81.5774C121.6 81.4211 121.388 81.3333 121.167 81.3333C120.946 81.3333 120.734 81.4211 120.577 81.5774C120.421 81.7337 120.333 81.9457 120.333 82.1667Z" fill="url(#paint33_linear_416_8056)"/>
<path d="M111.167 68.8334L111.193 81.9809C111.058 81.9079 110.933 81.8164 110.822 81.7093L107.589 78.4768C107.512 78.3972 107.42 78.3337 107.319 78.29C107.217 78.2464 107.108 78.2234 106.997 78.2224C106.886 78.2214 106.777 78.2425 106.674 78.2844C106.572 78.3263 106.479 78.3882 106.401 78.4664C106.322 78.5447 106.26 78.6377 106.219 78.7402C106.177 78.8426 106.156 78.9523 106.157 79.0629C106.157 79.1736 106.18 79.2829 106.224 79.3846C106.268 79.4863 106.331 79.5782 106.411 79.6551L109.643 82.8893C110.268 83.5142 111.116 83.8652 112 83.8652C112.884 83.8652 113.732 83.5142 114.357 82.8893L117.589 79.6568C117.669 79.5799 117.732 79.488 117.776 79.3863C117.82 79.2846 117.843 79.1753 117.844 79.0646C117.845 78.954 117.823 78.8442 117.782 78.7418C117.74 78.6394 117.678 78.5464 117.6 78.4681C117.521 78.3899 117.428 78.328 117.326 78.2861C117.223 78.2442 117.114 78.2231 117.003 78.2241C116.892 78.225 116.783 78.248 116.681 78.2917C116.58 78.3354 116.488 78.3989 116.411 78.4784L113.178 81.7109C113.082 81.8042 112.975 81.8856 112.86 81.9534L112.833 68.8334C112.833 68.6124 112.746 68.4005 112.589 68.2442C112.433 68.0879 112.221 68.0001 112 68.0001C111.779 68.0001 111.567 68.0879 111.411 68.2442C111.255 68.4005 111.167 68.6124 111.167 68.8334Z" fill="url(#paint34_linear_416_8056)"/>
</g>
<g clip-path="url(#clip19_416_8056)">
<path d="M146 84.6667C147.768 84.6647 149.462 83.9617 150.712 82.7119C151.962 81.462 152.665 79.7675 152.667 78V68.8333C152.667 68.6123 152.579 68.4004 152.423 68.2441C152.266 68.0878 152.055 68 151.833 68C151.612 68 151.401 68.0878 151.244 68.2441C151.088 68.4004 151 68.6123 151 68.8333V78C151 79.3261 150.473 80.5979 149.536 81.5355C148.598 82.4732 147.326 83 146 83C144.674 83 143.402 82.4732 142.465 81.5355C141.527 80.5979 141 79.3261 141 78V68.8333C141 68.6123 140.912 68.4004 140.756 68.2441C140.6 68.0878 140.388 68 140.167 68C139.946 68 139.734 68.0878 139.578 68.2441C139.421 68.4004 139.333 68.6123 139.333 68.8333V78C139.335 79.7675 140.038 81.462 141.288 82.7119C142.538 83.9617 144.233 84.6647 146 84.6667Z" fill="url(#paint35_linear_416_8056)"/>
<path d="M155.167 86.3328H136.833C136.612 86.3328 136.4 86.4206 136.244 86.5769C136.088 86.7332 136 86.9451 136 87.1662C136 87.3872 136.088 87.5991 136.244 87.7554C136.4 87.9117 136.612 87.9995 136.833 87.9995H155.167C155.388 87.9995 155.6 87.9117 155.756 87.7554C155.912 87.5991 156 87.3872 156 87.1662C156 86.9451 155.912 86.7332 155.756 86.5769C155.6 86.4206 155.388 86.3328 155.167 86.3328Z" fill="url(#paint36_linear_416_8056)"/>
</g>
<g clip-path="url(#clip20_416_8056)">
<path d="M180 74.6672C179.341 74.6672 178.696 74.8627 178.148 75.2289C177.6 75.5952 177.173 76.1158 176.92 76.7249C176.668 77.334 176.602 78.0042 176.731 78.6508C176.859 79.2974 177.177 79.8914 177.643 80.3575C178.109 80.8237 178.703 81.1412 179.35 81.2698C179.996 81.3984 180.667 81.3324 181.276 81.0801C181.885 80.8278 182.405 80.4006 182.772 79.8524C183.138 79.3042 183.333 78.6598 183.333 78.0005C183.333 77.1165 182.982 76.2686 182.357 75.6435C181.732 75.0184 180.884 74.6672 180 74.6672ZM180 79.6672C179.67 79.6672 179.348 79.5694 179.074 79.3863C178.8 79.2032 178.586 78.9429 178.46 78.6383C178.334 78.3338 178.301 77.9987 178.365 77.6754C178.43 77.3521 178.588 77.0551 178.822 76.822C179.055 76.5889 179.352 76.4302 179.675 76.3659C179.998 76.3016 180.333 76.3346 180.638 76.4607C180.942 76.5869 181.203 76.8005 181.386 77.0746C181.569 77.3486 181.667 77.6709 181.667 78.0005C181.667 78.4425 181.491 78.8665 181.179 79.179C180.866 79.4916 180.442 79.6672 180 79.6672Z" fill="url(#paint37_linear_416_8056)"/>
<path d="M187.745 79.5833L187.375 79.37C187.542 78.4637 187.542 77.5346 187.375 76.6283L187.745 76.415C188.03 76.2508 188.279 76.0323 188.479 75.7717C188.679 75.5112 188.826 75.2138 188.911 74.8965C188.996 74.5792 189.018 74.2483 188.975 73.9226C188.932 73.5969 188.826 73.2829 188.662 72.9983C188.498 72.7138 188.279 72.4644 188.019 72.2643C187.758 72.0643 187.461 71.9175 187.143 71.8324C186.826 71.7473 186.495 71.7255 186.169 71.7682C185.844 71.811 185.53 71.9175 185.245 72.0817L184.874 72.2958C184.174 71.6974 183.369 71.2335 182.5 70.9275V70.5C182.5 69.837 182.237 69.2011 181.768 68.7322C181.299 68.2634 180.663 68 180 68C179.337 68 178.701 68.2634 178.232 68.7322C177.764 69.2011 177.5 69.837 177.5 70.5V70.9275C176.631 71.2346 175.827 71.6997 175.127 72.2992L174.754 72.0833C174.18 71.7518 173.497 71.6621 172.856 71.8341C172.215 72.006 171.669 72.4254 171.338 73C171.006 73.5746 170.916 74.2574 171.088 74.8982C171.26 75.5389 171.68 76.0851 172.254 76.4167L172.624 76.63C172.458 77.5363 172.458 78.4654 172.624 79.3717L172.254 79.585C171.68 79.9165 171.26 80.4627 171.088 81.1035C170.916 81.7442 171.006 82.427 171.338 83.0017C171.669 83.5763 172.215 83.9957 172.856 84.1676C173.497 84.3395 174.18 84.2499 174.754 83.9183L175.125 83.7042C175.826 84.3027 176.631 84.7666 177.5 85.0725V85.5C177.5 86.163 177.764 86.7989 178.232 87.2678C178.701 87.7366 179.337 88 180 88C180.663 88 181.299 87.7366 181.768 87.2678C182.237 86.7989 182.5 86.163 182.5 85.5V85.0725C183.369 84.7654 184.174 84.3003 184.873 83.7008L185.246 83.9158C185.821 84.2474 186.503 84.337 187.144 84.1651C187.785 83.9932 188.331 83.5738 188.663 82.9992C188.994 82.4245 189.084 81.7417 188.912 81.101C188.74 80.4602 188.321 79.914 187.746 79.5825L187.745 79.5833ZM185.622 76.4367C185.904 77.4592 185.904 78.5391 185.622 79.5617C185.573 79.7396 185.584 79.9289 185.654 80.0998C185.724 80.2707 185.849 80.4135 186.008 80.5058L186.912 81.0275C187.103 81.138 187.243 81.3201 187.3 81.5336C187.358 81.7472 187.328 81.9747 187.217 82.1663C187.107 82.3578 186.925 82.4975 186.711 82.5548C186.498 82.6121 186.27 82.5822 186.078 82.4717L185.173 81.9483C185.013 81.8556 184.827 81.8188 184.644 81.8437C184.46 81.8686 184.291 81.9538 184.161 82.0858C183.419 82.843 182.485 83.3833 181.458 83.6483C181.279 83.6944 181.121 83.7987 181.007 83.9449C180.894 84.0911 180.833 84.2709 180.833 84.4558V85.5C180.833 85.721 180.745 85.933 180.589 86.0893C180.432 86.2455 180.22 86.3333 179.999 86.3333C179.778 86.3333 179.566 86.2455 179.41 86.0893C179.254 85.933 179.166 85.721 179.166 85.5V84.4567C179.166 84.2717 179.105 84.092 178.991 83.9458C178.878 83.7996 178.719 83.6952 178.54 83.6492C177.514 83.3831 176.58 82.8416 175.838 82.0833C175.709 81.9513 175.539 81.8661 175.356 81.8412C175.172 81.8163 174.986 81.8531 174.826 81.9458L173.923 82.4683C173.828 82.5239 173.723 82.5602 173.614 82.5751C173.505 82.59 173.394 82.5832 173.288 82.5551C173.182 82.527 173.082 82.4782 172.995 82.4114C172.908 82.3446 172.834 82.2613 172.78 82.1661C172.725 82.0709 172.689 81.9658 172.675 81.8568C172.661 81.7479 172.668 81.6372 172.697 81.5311C172.726 81.425 172.775 81.3257 172.843 81.2389C172.91 81.152 172.994 81.0793 173.089 81.025L173.993 80.5033C174.153 80.411 174.277 80.2682 174.347 80.0973C174.417 79.9264 174.429 79.7371 174.379 79.5592C174.097 78.5366 174.097 77.4567 174.379 76.4342C174.428 76.2566 174.416 76.0679 174.346 75.8977C174.276 75.7275 174.151 75.5853 173.992 75.4933L173.088 74.9717C172.897 74.8612 172.757 74.6791 172.7 74.4655C172.643 74.252 172.673 74.0244 172.783 73.8329C172.894 73.6414 173.076 73.5016 173.289 73.4444C173.503 73.3871 173.73 73.417 173.922 73.5275L174.827 74.0508C174.986 74.1438 175.172 74.181 175.356 74.1567C175.539 74.1324 175.709 74.048 175.838 73.9167C176.58 73.1595 177.515 72.6192 178.541 72.3542C178.721 72.308 178.88 72.2031 178.993 72.0563C179.107 71.9094 179.168 71.7289 179.167 71.5433V70.5C179.167 70.279 179.255 70.067 179.411 69.9107C179.567 69.7545 179.779 69.6667 180 69.6667C180.221 69.6667 180.433 69.7545 180.589 69.9107C180.746 70.067 180.833 70.279 180.833 70.5V71.5433C180.833 71.7283 180.895 71.908 181.008 72.0542C181.121 72.2004 181.28 72.3048 181.459 72.3508C182.486 72.6168 183.42 73.1582 184.162 73.9167C184.291 74.0487 184.461 74.1339 184.645 74.1588C184.828 74.1837 185.014 74.1469 185.174 74.0542L186.078 73.5317C186.172 73.4761 186.277 73.4398 186.386 73.4249C186.495 73.41 186.606 73.4168 186.712 73.4449C186.818 73.473 186.918 73.5218 187.005 73.5886C187.093 73.6554 187.166 73.7387 187.221 73.8339C187.276 73.9291 187.311 74.0342 187.325 74.1432C187.34 74.2521 187.332 74.3628 187.303 74.4689C187.275 74.575 187.225 74.6743 187.158 74.7611C187.09 74.848 187.007 74.9207 186.911 74.975L186.008 75.4967C185.849 75.5889 185.724 75.7312 185.655 75.9014C185.585 76.0716 185.573 76.2601 185.622 76.4375V76.4367Z" fill="url(#paint38_linear_416_8056)"/>
</g>
<g clip-path="url(#clip21_416_8056)">
<path d="M215.667 88C215.486 88 215.311 87.9415 215.167 87.8333L211.833 85.3333C211.73 85.2557 211.646 85.1551 211.588 85.0393C211.53 84.9236 211.5 84.796 211.5 84.6667V79.9833L205.653 73.4058C205.238 72.9374 204.967 72.359 204.873 71.7402C204.778 71.1214 204.865 70.4885 205.121 69.9175C205.378 69.3466 205.794 68.8619 206.319 68.5217C206.845 68.1816 207.457 68.0004 208.083 68H219.917C220.543 68.0007 221.155 68.1822 221.68 68.5226C222.206 68.863 222.621 69.3478 222.878 69.9188C223.134 70.4898 223.22 71.1227 223.126 71.7415C223.031 72.3602 222.76 72.9384 222.344 73.4067L216.5 79.9833V87.1667C216.5 87.3877 216.412 87.5996 216.256 87.7559C216.1 87.9122 215.888 88 215.667 88ZM213.167 84.25L214.833 85.5V79.6667C214.834 79.4626 214.909 79.2657 215.044 79.1133L221.101 72.2992C221.303 72.0709 221.435 71.7892 221.48 71.4879C221.526 71.1866 221.484 70.8784 221.359 70.6005C221.234 70.3225 221.031 70.0865 220.776 69.9209C220.52 69.7553 220.222 69.667 219.917 69.6667H208.083C207.779 69.6671 207.481 69.7555 207.225 69.9211C206.969 70.0867 206.767 70.3225 206.642 70.6003C206.517 70.8781 206.475 71.186 206.52 71.4872C206.566 71.7884 206.698 72.07 206.899 72.2983L212.957 79.1133C213.092 79.2659 213.167 79.4627 213.167 79.6667V84.25Z" fill="url(#paint39_linear_416_8056)"/>
</g>
<g clip-path="url(#clip22_416_8056)">
<path d="M248 77.9999C248.989 77.9999 249.956 77.7067 250.778 77.1573C251.6 76.6079 252.241 75.827 252.619 74.9134C252.998 73.9997 253.097 72.9944 252.904 72.0245C252.711 71.0546 252.235 70.1637 251.536 69.4644C250.836 68.7651 249.945 68.2889 248.975 68.096C248.006 67.9031 247 68.0021 246.087 68.3805C245.173 68.759 244.392 69.3998 243.843 70.2221C243.293 71.0443 243 72.011 243 72.9999C243.001 74.3256 243.529 75.5966 244.466 76.534C245.403 77.4714 246.674 77.9986 248 77.9999ZM248 69.6666C248.659 69.6666 249.304 69.8621 249.852 70.2284C250.4 70.5946 250.827 71.1152 251.08 71.7243C251.332 72.3334 251.398 73.0036 251.269 73.6502C251.141 74.2968 250.823 74.8908 250.357 75.357C249.891 75.8231 249.297 76.1406 248.65 76.2692C248.004 76.3978 247.333 76.3318 246.724 76.0795C246.115 75.8272 245.595 75.4 245.228 74.8518C244.862 74.3037 244.667 73.6592 244.667 72.9999C244.667 72.1159 245.018 71.268 245.643 70.6429C246.268 70.0178 247.116 69.6666 248 69.6666Z" fill="url(#paint40_linear_416_8056)"/>
<path d="M248 79.6672C246.012 79.6694 244.105 80.4603 242.699 81.8663C241.293 83.2724 240.502 85.1787 240.5 87.1672C240.5 87.3882 240.588 87.6002 240.744 87.7564C240.9 87.9127 241.112 88.0005 241.333 88.0005C241.554 88.0005 241.766 87.9127 241.923 87.7564C242.079 87.6002 242.167 87.3882 242.167 87.1672C242.167 85.6201 242.781 84.1363 243.875 83.0424C244.969 81.9484 246.453 81.3338 248 81.3338C249.547 81.3338 251.031 81.9484 252.125 83.0424C253.219 84.1363 253.833 85.6201 253.833 87.1672C253.833 87.3882 253.921 87.6002 254.077 87.7564C254.234 87.9127 254.446 88.0005 254.667 88.0005C254.888 88.0005 255.1 87.9127 255.256 87.7564C255.412 87.6002 255.5 87.3882 255.5 87.1672C255.498 85.1787 254.707 83.2724 253.301 81.8663C251.895 80.4603 249.988 79.6694 248 79.6672Z" fill="url(#paint41_linear_416_8056)"/>
</g>
<g clip-path="url(#clip23_416_8056)">
<path d="M18.599 105.693L7.08319 117.208C7.00577 117.285 6.91375 117.347 6.81244 117.389C6.71112 117.431 6.60248 117.453 6.49277 117.453C6.38306 117.453 6.27443 117.431 6.17311 117.389C6.07179 117.347 5.97978 117.285 5.90236 117.208L1.44902 112.75C1.3716 112.672 1.27959 112.611 1.17827 112.569C1.07695 112.526 0.968318 112.505 0.858607 112.505C0.748895 112.505 0.640264 112.526 0.538945 112.569C0.437626 112.611 0.345615 112.672 0.26819 112.75C0.19046 112.827 0.128782 112.92 0.0866978 113.021C0.0446131 113.122 0.0229492 113.231 0.0229492 113.34C0.0229492 113.45 0.0446131 113.559 0.0866978 113.66C0.128782 113.761 0.19046 113.853 0.26819 113.931L4.72319 118.385C5.19315 118.854 5.83002 119.118 6.49402 119.118C7.15803 119.118 7.7949 118.854 8.26486 118.385L19.7799 106.873C19.8575 106.795 19.919 106.703 19.961 106.602C20.0031 106.501 20.0247 106.392 20.0247 106.283C20.0247 106.173 20.0031 106.064 19.961 105.963C19.919 105.862 19.8575 105.77 19.7799 105.693C19.7024 105.615 19.6104 105.553 19.5091 105.511C19.4078 105.469 19.2992 105.447 19.1894 105.447C19.0797 105.447 18.9711 105.469 18.8698 105.511C18.7685 105.553 18.6764 105.615 18.599 105.693Z" fill="url(#paint42_linear_416_8056)"/>
</g>
<g clip-path="url(#clip24_416_8056)">
<path d="M47.3333 102H40.6667C39.562 102.001 38.503 102.441 37.7218 103.222C36.9407 104.003 36.5013 105.062 36.5 106.167V117.833C36.5013 118.938 36.9407 119.997 37.7218 120.778C38.503 121.559 39.562 121.999 40.6667 122H47.3333C48.438 121.999 49.497 121.559 50.2782 120.778C51.0593 119.997 51.4987 118.938 51.5 117.833V106.167C51.4987 105.062 51.0593 104.003 50.2782 103.222C49.497 102.441 48.438 102.001 47.3333 102V102ZM49.8333 117.833C49.8333 118.496 49.5699 119.132 49.1011 119.601C48.6323 120.07 47.9964 120.333 47.3333 120.333H40.6667C40.0036 120.333 39.3677 120.07 38.8989 119.601C38.4301 119.132 38.1667 118.496 38.1667 117.833V106.167C38.1667 105.504 38.4301 104.868 38.8989 104.399C39.3677 103.93 40.0036 103.667 40.6667 103.667H47.3333C47.9964 103.667 48.6323 103.93 49.1011 104.399C49.5699 104.868 49.8333 105.504 49.8333 106.167V117.833Z" fill="url(#paint43_linear_416_8056)"/>
<path d="M44 108.25C44.6904 108.25 45.25 107.69 45.25 107C45.25 106.31 44.6904 105.75 44 105.75C43.3096 105.75 42.75 106.31 42.75 107C42.75 107.69 43.3096 108.25 44 108.25Z" fill="url(#paint44_linear_416_8056)"/>
<path d="M43.9999 110.333C43.1758 110.333 42.3702 110.577 41.685 111.035C40.9998 111.493 40.4658 112.144 40.1504 112.905C39.8351 113.666 39.7525 114.504 39.9133 115.312C40.0741 116.121 40.4709 116.863 41.0536 117.446C41.6364 118.028 42.3788 118.425 43.187 118.586C43.9953 118.747 44.8331 118.664 45.5944 118.349C46.3558 118.034 47.0065 117.5 47.4644 116.814C47.9222 116.129 48.1666 115.324 48.1666 114.499C48.1653 113.395 47.7259 112.336 46.9447 111.555C46.1636 110.774 45.1046 110.334 43.9999 110.333ZM43.9999 116.999C43.5055 116.999 43.0221 116.853 42.611 116.578C42.1999 116.303 41.8794 115.913 41.6902 115.456C41.501 114.999 41.4515 114.497 41.548 114.012C41.6444 113.527 41.8825 113.081 42.2322 112.732C42.5818 112.382 43.0272 112.144 43.5122 112.048C43.9971 111.951 44.4998 112.001 44.9566 112.19C45.4134 112.379 45.8039 112.699 46.0786 113.111C46.3533 113.522 46.4999 114.005 46.4999 114.499C46.4999 115.163 46.2365 115.798 45.7677 116.267C45.2988 116.736 44.663 116.999 43.9999 116.999Z" fill="url(#paint45_linear_416_8056)"/>
<path d="M44.0001 115.334C44.4603 115.334 44.8334 114.961 44.8334 114.501C44.8334 114.04 44.4603 113.667 44.0001 113.667C43.5398 113.667 43.1667 114.04 43.1667 114.501C43.1667 114.961 43.5398 115.334 44.0001 115.334Z" fill="url(#paint46_linear_416_8056)"/>
</g>
<g clip-path="url(#clip25_416_8056)">
<path d="M86.7958 113.385L85.2125 107.688C84.7484 106.019 83.7398 104.554 82.3469 103.524C80.9541 102.494 79.257 101.959 77.5254 102.005C75.7938 102.05 74.127 102.673 72.79 103.774C71.4531 104.876 70.5227 106.392 70.1467 108.083L68.9208 113.596C68.7854 114.205 68.7885 114.837 68.93 115.444C69.0714 116.052 69.3475 116.62 69.738 117.107C70.1284 117.594 70.6232 117.987 71.1857 118.257C71.7483 118.527 72.3643 118.667 72.9883 118.667H73.9167C74.1079 119.609 74.6189 120.455 75.3631 121.064C76.1073 121.672 77.0389 122.004 78 122.004C78.9611 122.004 79.8927 121.672 80.6369 121.064C81.381 120.455 81.8921 119.609 82.0833 118.667H82.7817C83.424 118.667 84.0576 118.518 84.6331 118.233C85.2086 117.947 85.7103 117.533 86.099 117.021C86.4877 116.51 86.753 115.916 86.874 115.285C86.995 114.654 86.9685 114.004 86.7966 113.385H86.7958ZM78 120.333C77.4848 120.331 76.9828 120.17 76.5627 119.872C76.1427 119.573 75.8251 119.152 75.6533 118.667H80.3467C80.1749 119.152 79.8573 119.573 79.4372 119.872C79.0172 120.17 78.5152 120.331 78 120.333ZM84.7717 116.012C84.5394 116.321 84.2386 116.57 83.893 116.742C83.5474 116.913 83.1666 117.001 82.7808 117H72.9883C72.614 117 72.2444 116.916 71.9069 116.754C71.5695 116.592 71.2727 116.356 71.0385 116.064C70.8042 115.772 70.6386 115.431 70.5538 115.066C70.469 114.702 70.4671 114.323 70.5483 113.957L71.7733 108.444C72.0686 107.116 72.7994 105.925 73.8495 105.059C74.8997 104.194 76.2088 103.705 77.569 103.669C78.9291 103.634 80.2621 104.054 81.3561 104.863C82.4501 105.672 83.2422 106.823 83.6067 108.134L85.19 113.831C85.2946 114.202 85.3113 114.592 85.2386 114.971C85.166 115.35 85.0061 115.706 84.7717 116.012Z" fill="url(#paint47_linear_416_8056)"/>
<g filter="url(#filter0_d_416_8056)">
<circle cx="83" cy="105" r="3" fill="url(#paint48_linear_416_8056)" shape-rendering="crispEdges"/>
</g>
</g>
<g clip-path="url(#clip26_416_8056)">
<path d="M121.289 109.893L120.633 109C120.179 108.382 119.586 107.878 118.901 107.531C118.217 107.184 117.461 107.002 116.693 107H107.319C106.567 107.002 105.826 107.176 105.153 107.51C104.479 107.844 103.891 108.327 103.434 108.924L102.75 109.819C102.194 110.552 101.933 111.466 102.018 112.382C102.102 113.297 102.526 114.148 103.207 114.767L109.865 121.189C110.45 121.711 111.206 121.998 111.99 121.997C112.79 121.995 113.562 121.698 114.157 121.163L120.77 114.803C121.454 114.197 121.887 113.357 121.983 112.448C122.079 111.54 121.831 110.628 121.289 109.893ZM119.289 109.982L119.945 110.877C120.011 110.968 120.069 111.065 120.118 111.167H116.126C116.065 110.768 115.961 110.376 115.816 110L115.282 108.667H116.693C117.199 108.668 117.697 108.787 118.147 109.015C118.598 109.244 118.989 109.575 119.289 109.982ZM111.992 118.74L109.684 113.515C109.601 113.294 109.538 113.066 109.496 112.833H114.456C114.421 113.017 114.372 113.197 114.309 113.373L111.992 118.74ZM109.583 111.167C109.618 111.017 109.662 110.87 109.714 110.726L110.534 108.667H113.487L114.268 110.619C114.337 110.797 114.392 110.98 114.435 111.167H109.583ZM104.759 109.934C105.06 109.541 105.448 109.222 105.892 109.003C106.335 108.783 106.824 108.668 107.319 108.667H108.736L108.167 110.108C108.029 110.449 107.927 110.804 107.861 111.167H103.871C103.928 111.049 103.997 110.937 104.077 110.833L104.759 109.934ZM104.342 113.545C104.125 113.348 103.954 113.105 103.842 112.833H107.819C107.874 113.282 107.983 113.723 108.142 114.147L110.497 119.48L104.342 113.545ZM113.476 119.512L115.854 114C115.992 113.623 116.088 113.232 116.141 112.833H120.167C120.049 113.119 119.868 113.376 119.639 113.583L113.476 119.512Z" fill="url(#paint49_linear_416_8056)"/>
<path d="M112 105.333C112.221 105.333 112.433 105.246 112.589 105.089C112.745 104.933 112.833 104.721 112.833 104.5V102.833C112.833 102.612 112.745 102.4 112.589 102.244C112.433 102.088 112.221 102 112 102C111.779 102 111.567 102.088 111.411 102.244C111.254 102.4 111.167 102.612 111.167 102.833V104.5C111.167 104.721 111.254 104.933 111.411 105.089C111.567 105.246 111.779 105.333 112 105.333Z" fill="url(#paint50_linear_416_8056)"/>
<path d="M115.794 105.25C115.893 105.299 116 105.329 116.11 105.337C116.219 105.344 116.33 105.33 116.434 105.295C116.538 105.26 116.635 105.205 116.718 105.132C116.801 105.06 116.868 104.971 116.917 104.872L117.75 103.206C117.849 103.008 117.865 102.779 117.795 102.569C117.725 102.36 117.574 102.186 117.377 102.087C117.179 101.989 116.95 101.972 116.74 102.042C116.53 102.112 116.357 102.263 116.258 102.461L115.425 104.127C115.375 104.225 115.345 104.332 115.337 104.442C115.329 104.551 115.342 104.661 115.376 104.765C115.41 104.87 115.465 104.966 115.537 105.049C115.609 105.132 115.696 105.201 115.794 105.25Z" fill="url(#paint51_linear_416_8056)"/>
<path d="M107.087 104.872C107.186 105.071 107.36 105.222 107.57 105.292C107.78 105.363 108.009 105.347 108.208 105.248C108.406 105.149 108.557 104.975 108.628 104.765C108.698 104.555 108.682 104.326 108.583 104.127L107.75 102.461C107.701 102.363 107.633 102.275 107.551 102.204C107.468 102.132 107.372 102.077 107.268 102.042C107.058 101.972 106.829 101.989 106.632 102.087C106.434 102.186 106.283 102.36 106.213 102.569C106.143 102.779 106.159 103.008 106.258 103.206L107.087 104.872Z" fill="url(#paint52_linear_416_8056)"/>
</g>
<defs>
<filter id="filter0_d_416_8056" x="78" y="101" width="10" height="10" filterUnits="userSpaceOnUse" color-interpolation-filters="sRGB">
<feFlood flood-opacity="0" result="BackgroundImageFix"/>
<feColorMatrix in="SourceAlpha" type="matrix" values="0 0 0 0 0 0 0 0 0 0 0 0 0 0 0 0 0 0 127 0" result="hardAlpha"/>
<feOffset dy="1"/>
<feGaussianBlur stdDeviation="1"/>
<feComposite in2="hardAlpha" operator="out"/>
<feColorMatrix type="matrix" values="0 0 0 0 0 0 0 0 0 0 0 0 0 0 0 0 0 0 0.35 0"/>
<feBlend mode="normal" in2="BackgroundImageFix" result="effect1_dropShadow_416_8056"/>
<feBlend mode="normal" in="SourceGraphic" in2="effect1_dropShadow_416_8056" result="shape"/>
</filter>
<linearGradient id="paint0_linear_416_8056" x1="-33.1927" y1="10" x2="18.9351" y2="10" gradientUnits="userSpaceOnUse">
<stop offset="0.62" stop-color="white" stop-opacity="0"/>
<stop offset="1" stop-color="white" stop-opacity="0.6"/>
</linearGradient>
<linearGradient id="paint1_linear_416_8056" x1="0.807289" y1="10.0001" x2="52.9351" y2="10.0001" gradientUnits="userSpaceOnUse">
<stop offset="0.62" stop-color="white" stop-opacity="0"/>
<stop offset="1" stop-color="white" stop-opacity="0.6"/>
</linearGradient>
<linearGradient id="paint2_linear_416_8056" x1="38.4062" y1="10.0014" x2="86.1907" y2="10.0014" gradientUnits="userSpaceOnUse">
<stop offset="0.62" stop-color="white" stop-opacity="0"/>
<stop offset="1" stop-color="white" stop-opacity="0.6"/>
</linearGradient>
<linearGradient id="paint3_linear_416_8056" x1="68.9282" y1="10.0366" x2="120.866" y2="10.0366" gradientUnits="userSpaceOnUse">
<stop offset="0.62" stop-color="white" stop-opacity="0"/>
<stop offset="1" stop-color="white" stop-opacity="0.6"/>
</linearGradient>
<linearGradient id="paint4_linear_416_8056" x1="145.893" y1="37.1481" x2="145.893" y2="10.0503" gradientUnits="userSpaceOnUse">
<stop offset="0.62" stop-color="white" stop-opacity="0"/>
<stop offset="1" stop-color="white" stop-opacity="0.6"/>
</linearGradient>
<linearGradient id="paint5_linear_416_8056" x1="145.894" y1="41.6507" x2="145.894" y2="0.938089" gradientUnits="userSpaceOnUse">
<stop offset="0.62" stop-color="white" stop-opacity="0"/>
<stop offset="1" stop-color="white" stop-opacity="0.6"/>
</linearGradient>
<linearGradient id="paint6_linear_416_8056" x1="152.018" y1="9.60452" x2="180.261" y2="9.60452" gradientUnits="userSpaceOnUse">
<stop offset="0.62" stop-color="white" stop-opacity="0"/>
<stop offset="1" stop-color="white" stop-opacity="0.6"/>
</linearGradient>
<linearGradient id="paint7_linear_416_8056" x1="167.836" y1="10.8331" x2="189.556" y2="10.8331" gradientUnits="userSpaceOnUse">
<stop offset="0.62" stop-color="white" stop-opacity="0"/>
<stop offset="1" stop-color="white" stop-opacity="0.6"/>
</linearGradient>
<linearGradient id="paint8_linear_416_8056" x1="201.525" y1="16.25" x2="214.557" y2="16.25" gradientUnits="userSpaceOnUse">
<stop offset="0.62" stop-color="white" stop-opacity="0"/>
<stop offset="1" stop-color="white" stop-opacity="0.6"/>
</linearGradient>
<linearGradient id="paint9_linear_416_8056" x1="226.465" y1="7.91667" x2="213.433" y2="7.91667" gradientUnits="userSpaceOnUse">
<stop offset="0.62" stop-color="white" stop-opacity="0"/>
<stop offset="1" stop-color="white" stop-opacity="0.6"/>
</linearGradient>
<linearGradient id="paint10_linear_416_8056" x1="257.2" y1="9.6887" x2="205.065" y2="9.6887" gradientUnits="userSpaceOnUse">
<stop offset="0.62" stop-color="white" stop-opacity="0"/>
<stop offset="1" stop-color="white" stop-opacity="0.6"/>
</linearGradient>
<linearGradient id="paint11_linear_416_8056" x1="197.102" y1="16.2495" x2="207.935" y2="16.2495" gradientUnits="userSpaceOnUse">
<stop offset="0.62" stop-color="white" stop-opacity="0"/>
<stop offset="1" stop-color="white" stop-opacity="0.6"/>
</linearGradient>
<linearGradient id="paint12_linear_416_8056" x1="204.807" y1="10" x2="256.935" y2="10" gradientUnits="userSpaceOnUse">
<stop offset="0.62" stop-color="white" stop-opacity="0"/>
<stop offset="1" stop-color="white" stop-opacity="0.6"/>
</linearGradient>
<linearGradient id="paint13_linear_416_8056" x1="-33.1927" y1="38.1667" x2="18.9351" y2="38.1667" gradientUnits="userSpaceOnUse">
<stop offset="0.62" stop-color="white" stop-opacity="0"/>
<stop offset="1" stop-color="white" stop-opacity="0.6"/>
</linearGradient>
<linearGradient id="paint14_linear_416_8056" x1="-22.1285" y1="42.3333" x2="12.6234" y2="42.3333" gradientUnits="userSpaceOnUse">
<stop offset="0.62" stop-color="white" stop-opacity="0"/>
<stop offset="1" stop-color="white" stop-opacity="0.6"/>
</linearGradient>
<linearGradient id="paint15_linear_416_8056" x1="-22.1285" y1="50.6667" x2="12.6234" y2="50.6667" gradientUnits="userSpaceOnUse">
<stop offset="0.62" stop-color="white" stop-opacity="0"/>
<stop offset="1" stop-color="white" stop-opacity="0.6"/>
</linearGradient>
<linearGradient id="paint16_linear_416_8056" x1="-33.1927" y1="46.5" x2="18.9351" y2="46.5" gradientUnits="userSpaceOnUse">
<stop offset="0.62" stop-color="white" stop-opacity="0"/>
<stop offset="1" stop-color="white" stop-opacity="0.6"/>
</linearGradient>
<linearGradient id="paint17_linear_416_8056" x1="0.807286" y1="44" x2="52.9351" y2="44" gradientUnits="userSpaceOnUse">
<stop offset="0.62" stop-color="white" stop-opacity="0"/>
<stop offset="1" stop-color="white" stop-opacity="0.6"/>
</linearGradient>
<linearGradient id="paint18_linear_416_8056" x1="34.8075" y1="44.0117" x2="86.9354" y2="44.0117" gradientUnits="userSpaceOnUse">
<stop offset="0.62" stop-color="white" stop-opacity="0"/>
<stop offset="1" stop-color="white" stop-opacity="0.6"/>
</linearGradient>
<linearGradient id="paint19_linear_416_8056" x1="68.8073" y1="38.1667" x2="120.935" y2="38.1667" gradientUnits="userSpaceOnUse">
<stop offset="0.62" stop-color="white" stop-opacity="0"/>
<stop offset="1" stop-color="white" stop-opacity="0.6"/>
</linearGradient>
<linearGradient id="paint20_linear_416_8056" x1="86.5383" y1="42.3333" x2="121.29" y2="42.3333" gradientUnits="userSpaceOnUse">
<stop offset="0.62" stop-color="white" stop-opacity="0"/>
<stop offset="1" stop-color="white" stop-opacity="0.6"/>
</linearGradient>
<linearGradient id="paint21_linear_416_8056" x1="86.5383" y1="50.6667" x2="121.29" y2="50.6667" gradientUnits="userSpaceOnUse">
<stop offset="0.62" stop-color="white" stop-opacity="0"/>
<stop offset="1" stop-color="white" stop-opacity="0.6"/>
</linearGradient>
<linearGradient id="paint22_linear_416_8056" x1="68.8073" y1="46.5" x2="120.935" y2="46.5" gradientUnits="userSpaceOnUse">
<stop offset="0.62" stop-color="white" stop-opacity="0"/>
<stop offset="1" stop-color="white" stop-opacity="0.6"/>
</linearGradient>
<linearGradient id="paint23_linear_416_8056" x1="106.09" y1="43.9967" x2="154.258" y2="43.9967" gradientUnits="userSpaceOnUse">
<stop offset="0.62" stop-color="white" stop-opacity="0"/>
<stop offset="1" stop-color="white" stop-opacity="0.6"/>
</linearGradient>
<linearGradient id="paint24_linear_416_8056" x1="136.807" y1="44" x2="188.935" y2="44" gradientUnits="userSpaceOnUse">
<stop offset="0.62" stop-color="white" stop-opacity="0"/>
<stop offset="1" stop-color="white" stop-opacity="0.6"/>
</linearGradient>
<linearGradient id="paint25_linear_416_8056" x1="174.601" y1="46.5" x2="181.117" y2="46.5" gradientUnits="userSpaceOnUse">
<stop offset="0.62" stop-color="white" stop-opacity="0"/>
<stop offset="1" stop-color="white" stop-opacity="0.6"/>
</linearGradient>
<linearGradient id="paint26_linear_416_8056" x1="170.434" y1="46.5" x2="176.95" y2="46.5" gradientUnits="userSpaceOnUse">
<stop offset="0.62" stop-color="white" stop-opacity="0"/>
<stop offset="1" stop-color="white" stop-opacity="0.6"/>
</linearGradient>
<linearGradient id="paint27_linear_416_8056" x1="178.768" y1="46.5" x2="185.284" y2="46.5" gradientUnits="userSpaceOnUse">
<stop offset="0.62" stop-color="white" stop-opacity="0"/>
<stop offset="1" stop-color="white" stop-opacity="0.6"/>
</linearGradient>
<linearGradient id="paint28_linear_416_8056" x1="185.205" y1="43.9927" x2="219.957" y2="43.9927" gradientUnits="userSpaceOnUse">
<stop offset="0.62" stop-color="white" stop-opacity="0"/>
<stop offset="1" stop-color="white" stop-opacity="0.6"/>
</linearGradient>
<linearGradient id="paint29_linear_416_8056" x1="215.605" y1="44" x2="254.701" y2="44" gradientUnits="userSpaceOnUse">
<stop offset="0.62" stop-color="white" stop-opacity="0"/>
<stop offset="1" stop-color="white" stop-opacity="0.6"/>
</linearGradient>
<linearGradient id="paint30_linear_416_8056" x1="-33.1927" y1="78" x2="18.9351" y2="78" gradientUnits="userSpaceOnUse">
<stop offset="0.62" stop-color="white" stop-opacity="0"/>
<stop offset="1" stop-color="white" stop-opacity="0.6"/>
</linearGradient>
<linearGradient id="paint31_linear_416_8056" x1="8.00616" y1="78" x2="51.446" y2="78" gradientUnits="userSpaceOnUse">
<stop offset="0.62" stop-color="white" stop-opacity="0"/>
<stop offset="1" stop-color="white" stop-opacity="0.6"/>
</linearGradient>
<linearGradient id="paint32_linear_416_8056" x1="42.0061" y1="78" x2="85.446" y2="78" gradientUnits="userSpaceOnUse">
<stop offset="0.62" stop-color="white" stop-opacity="0"/>
<stop offset="1" stop-color="white" stop-opacity="0.6"/>
</linearGradient>
<linearGradient id="paint33_linear_416_8056" x1="112" y1="99.0642" x2="112" y2="81.6883" gradientUnits="userSpaceOnUse">
<stop offset="0.62" stop-color="white" stop-opacity="0"/>
<stop offset="1" stop-color="white" stop-opacity="0.6"/>
</linearGradient>
<linearGradient id="paint34_linear_416_8056" x1="112" y1="110.196" x2="112" y2="68.8448" gradientUnits="userSpaceOnUse">
<stop offset="0.62" stop-color="white" stop-opacity="0"/>
<stop offset="1" stop-color="white" stop-opacity="0.6"/>
</linearGradient>
<linearGradient id="paint35_linear_416_8056" x1="117.205" y1="76.3333" x2="151.957" y2="76.3333" gradientUnits="userSpaceOnUse">
<stop offset="0.62" stop-color="white" stop-opacity="0"/>
<stop offset="1" stop-color="white" stop-opacity="0.6"/>
</linearGradient>
<linearGradient id="paint36_linear_416_8056" x1="102.807" y1="87.1662" x2="154.935" y2="87.1662" gradientUnits="userSpaceOnUse">
<stop offset="0.62" stop-color="white" stop-opacity="0"/>
<stop offset="1" stop-color="white" stop-opacity="0.6"/>
</linearGradient>
<linearGradient id="paint37_linear_416_8056" x1="165.603" y1="78.0005" x2="182.978" y2="78.0005" gradientUnits="userSpaceOnUse">
<stop offset="0.62" stop-color="white" stop-opacity="0"/>
<stop offset="1" stop-color="white" stop-opacity="0.6"/>
</linearGradient>
<linearGradient id="paint38_linear_416_8056" x1="141.139" y1="78" x2="188.039" y2="78" gradientUnits="userSpaceOnUse">
<stop offset="0.62" stop-color="white" stop-opacity="0"/>
<stop offset="1" stop-color="white" stop-opacity="0.6"/>
</linearGradient>
<linearGradient id="paint39_linear_416_8056" x1="174.419" y1="78" x2="222.187" y2="78" gradientUnits="userSpaceOnUse">
<stop offset="0.62" stop-color="white" stop-opacity="0"/>
<stop offset="1" stop-color="white" stop-opacity="0.6"/>
</linearGradient>
<linearGradient id="paint40_linear_416_8056" x1="226.404" y1="72.9999" x2="252.468" y2="72.9999" gradientUnits="userSpaceOnUse">
<stop offset="0.62" stop-color="white" stop-opacity="0"/>
<stop offset="1" stop-color="white" stop-opacity="0.6"/>
</linearGradient>
<linearGradient id="paint41_linear_416_8056" x1="215.605" y1="83.8338" x2="254.701" y2="83.8338" gradientUnits="userSpaceOnUse">
<stop offset="0.62" stop-color="white" stop-opacity="0"/>
<stop offset="1" stop-color="white" stop-opacity="0.6"/>
</linearGradient>
<linearGradient id="paint42_linear_416_8056" x1="-33.1726" y1="112.282" x2="18.9597" y2="112.282" gradientUnits="userSpaceOnUse">
<stop offset="0.62" stop-color="white" stop-opacity="0"/>
<stop offset="1" stop-color="white" stop-opacity="0.6"/>
</linearGradient>
<linearGradient id="paint43_linear_416_8056" x1="11.6055" y1="112" x2="50.7014" y2="112" gradientUnits="userSpaceOnUse">
<stop offset="0.62" stop-color="white" stop-opacity="0"/>
<stop offset="1" stop-color="white" stop-opacity="0.6"/>
</linearGradient>
<linearGradient id="paint44_linear_416_8056" x1="38.6009" y1="107" x2="45.1169" y2="107" gradientUnits="userSpaceOnUse">
<stop offset="0.62" stop-color="white" stop-opacity="0"/>
<stop offset="1" stop-color="white" stop-opacity="0.6"/>
</linearGradient>
<linearGradient id="paint45_linear_416_8056" x1="26.003" y1="114.499" x2="47.7229" y2="114.499" gradientUnits="userSpaceOnUse">
<stop offset="0.62" stop-color="white" stop-opacity="0"/>
<stop offset="1" stop-color="white" stop-opacity="0.6"/>
</linearGradient>
<linearGradient id="paint46_linear_416_8056" x1="40.4007" y1="114.501" x2="44.7447" y2="114.501" gradientUnits="userSpaceOnUse">
<stop offset="0.62" stop-color="white" stop-opacity="0"/>
<stop offset="1" stop-color="white" stop-opacity="0.6"/>
</linearGradient>
<linearGradient id="paint47_linear_416_8056" x1="38.7372" y1="112.003" x2="85.9835" y2="112.003" gradientUnits="userSpaceOnUse">
<stop offset="0.62" stop-color="white" stop-opacity="0"/>
<stop offset="1" stop-color="white" stop-opacity="0.6"/>
</linearGradient>
<linearGradient id="paint48_linear_416_8056" x1="70.0422" y1="105" x2="85.6805" y2="105" gradientUnits="userSpaceOnUse">
<stop offset="0.62" stop-color="white" stop-opacity="0"/>
<stop offset="1" stop-color="white" stop-opacity="0.6"/>
</linearGradient>
<linearGradient id="paint49_linear_416_8056" x1="68.8083" y1="114.498" x2="120.938" y2="114.498" gradientUnits="userSpaceOnUse">
<stop offset="0.62" stop-color="white" stop-opacity="0"/>
<stop offset="1" stop-color="white" stop-opacity="0.6"/>
</linearGradient>
<linearGradient id="paint50_linear_416_8056" x1="108.4" y1="103.667" x2="112.744" y2="103.667" gradientUnits="userSpaceOnUse">
<stop offset="0.62" stop-color="white" stop-opacity="0"/>
<stop offset="1" stop-color="white" stop-opacity="0.6"/>
</linearGradient>
<linearGradient id="paint51_linear_416_8056" x1="111.18" y1="103.669" x2="117.705" y2="103.669" gradientUnits="userSpaceOnUse">
<stop offset="0.62" stop-color="white" stop-opacity="0"/>
<stop offset="1" stop-color="white" stop-opacity="0.6"/>
</linearGradient>
<linearGradient id="paint52_linear_416_8056" x1="102.021" y1="103.667" x2="108.538" y2="103.667" gradientUnits="userSpaceOnUse">
<stop offset="0.62" stop-color="white" stop-opacity="0"/>
<stop offset="1" stop-color="white" stop-opacity="0.6"/>
</linearGradient>
<clipPath id="clip0_416_8056">
<rect width="20" height="20" fill="white"/>
</clipPath>
<clipPath id="clip1_416_8056">
<rect width="20" height="20" fill="white" transform="translate(34)"/>
</clipPath>
<clipPath id="clip2_416_8056">
<rect width="20" height="20" fill="white" transform="translate(68)"/>
</clipPath>
<clipPath id="clip3_416_8056">
<rect width="20" height="20" fill="white" transform="translate(102)"/>
</clipPath>
<clipPath id="clip4_416_8056">
<rect width="20" height="20" fill="white" transform="translate(136)"/>
</clipPath>
<clipPath id="clip5_416_8056">
<rect width="20" height="20" fill="white" transform="matrix(-1 0 0 1 224 0)"/>
</clipPath>
<clipPath id="clip6_416_8056">
<rect width="20" height="20" fill="white" transform="translate(238)"/>
</clipPath>
<clipPath id="clip7_416_8056">
<rect width="20" height="20" fill="white" transform="translate(0 34)"/>
</clipPath>
<clipPath id="clip8_416_8056">
<rect width="20" height="20" fill="white" transform="translate(34 34)"/>
</clipPath>
<clipPath id="clip9_416_8056">
<rect width="20" height="20" fill="white" transform="translate(68 34)"/>
</clipPath>
<clipPath id="clip10_416_8056">
<rect width="20" height="20" fill="white" transform="translate(102 34)"/>
</clipPath>
<clipPath id="clip11_416_8056">
<rect width="20" height="20" fill="white" transform="translate(136 34)"/>
</clipPath>
<clipPath id="clip12_416_8056">
<rect width="20" height="20" fill="white" transform="translate(170 34)"/>
</clipPath>
<clipPath id="clip13_416_8056">
<rect width="20" height="20" fill="white" transform="translate(204 34)"/>
</clipPath>
<clipPath id="clip14_416_8056">
<rect width="20" height="20" fill="white" transform="translate(238 34)"/>
</clipPath>
<clipPath id="clip15_416_8056">
<rect width="20" height="20" fill="white" transform="translate(0 68)"/>
</clipPath>
<clipPath id="clip16_416_8056">
<rect width="20" height="20" fill="white" transform="translate(34 68)"/>
</clipPath>
<clipPath id="clip17_416_8056">
<rect width="20" height="20" fill="white" transform="translate(68 68)"/>
</clipPath>
<clipPath id="clip18_416_8056">
<rect width="20" height="20" fill="white" transform="translate(102 88) rotate(-90)"/>
</clipPath>
<clipPath id="clip19_416_8056">
<rect width="20" height="20" fill="white" transform="translate(136 68)"/>
</clipPath>
<clipPath id="clip20_416_8056">
<rect width="20" height="20" fill="white" transform="translate(170 68)"/>
</clipPath>
<clipPath id="clip21_416_8056">
<rect width="20" height="20" fill="white" transform="translate(204 68)"/>
</clipPath>
<clipPath id="clip22_416_8056">
<rect width="20" height="20" fill="white" transform="translate(238 68)"/>
</clipPath>
<clipPath id="clip23_416_8056">
<rect width="20" height="20" fill="white" transform="translate(0 102)"/>
</clipPath>
<clipPath id="clip24_416_8056">
<rect width="20" height="20" fill="white" transform="translate(34 102)"/>
</clipPath>
<clipPath id="clip25_416_8056">
<rect width="20" height="20" fill="white" transform="translate(68 102)"/>
</clipPath>
<clipPath id="clip26_416_8056">
<rect width="20" height="20" fill="white" transform="translate(102 102)"/>
</clipPath>
</defs>
</svg>
