<svg width="254" height="68" viewBox="0 0 254 68" fill="none" xmlns="http://www.w3.org/2000/svg">
<rect x="0.25" y="0.25" width="66.5" height="29.5" rx="7.75" fill="#00A38F"/>
<path d="M10.984 19V10.672H12.112V19H10.984ZM11.752 19V17.968H16.216V19H11.752ZM19.771 19.12C19.211 19.12 18.707 18.988 18.259 18.724C17.811 18.46 17.455 18.104 17.191 17.656C16.927 17.2 16.795 16.692 16.795 16.132C16.795 15.58 16.927 15.084 17.191 14.644C17.455 14.196 17.811 13.84 18.259 13.576C18.707 13.312 19.211 13.18 19.771 13.18C20.323 13.18 20.823 13.312 21.271 13.576C21.727 13.832 22.087 14.184 22.351 14.632C22.615 15.08 22.747 15.58 22.747 16.132C22.747 16.692 22.615 17.2 22.351 17.656C22.087 18.104 21.727 18.46 21.271 18.724C20.823 18.988 20.323 19.12 19.771 19.12ZM19.771 18.076C20.131 18.076 20.451 17.992 20.731 17.824C21.011 17.656 21.231 17.428 21.391 17.14C21.551 16.844 21.631 16.508 21.631 16.132C21.631 15.764 21.547 15.436 21.379 15.148C21.219 14.86 20.999 14.636 20.719 14.476C20.447 14.308 20.131 14.224 19.771 14.224C19.411 14.224 19.091 14.308 18.811 14.476C18.531 14.636 18.311 14.86 18.151 15.148C17.991 15.436 17.911 15.764 17.911 16.132C17.911 16.508 17.991 16.844 18.151 17.14C18.311 17.428 18.531 17.656 18.811 17.824C19.091 17.992 19.411 18.076 19.771 18.076ZM26.5679 19.12C26.0079 19.12 25.4999 18.988 25.0439 18.724C24.5959 18.46 24.2399 18.104 23.9759 17.656C23.7199 17.2 23.5919 16.696 23.5919 16.144C23.5919 15.584 23.7199 15.08 23.9759 14.632C24.2399 14.184 24.5959 13.832 25.0439 13.576C25.4999 13.312 26.0079 13.18 26.5679 13.18C27.0079 13.18 27.4159 13.264 27.7919 13.432C28.1679 13.592 28.4919 13.828 28.7639 14.14L28.0439 14.86C27.8679 14.652 27.6519 14.496 27.3959 14.392C27.1479 14.28 26.8719 14.224 26.5679 14.224C26.2079 14.224 25.8879 14.308 25.6079 14.476C25.3279 14.636 25.1079 14.86 24.9479 15.148C24.7879 15.436 24.7079 15.768 24.7079 16.144C24.7079 16.52 24.7879 16.852 24.9479 17.14C25.1079 17.428 25.3279 17.656 25.6079 17.824C25.8879 17.992 26.2079 18.076 26.5679 18.076C26.8719 18.076 27.1479 18.024 27.3959 17.92C27.6519 17.808 27.8719 17.648 28.0559 17.44L28.7639 18.16C28.4999 18.464 28.1759 18.7 27.7919 18.868C27.4159 19.036 27.0079 19.12 26.5679 19.12ZM32.1418 19.12C31.6218 19.12 31.1498 18.992 30.7258 18.736C30.3018 18.472 29.9658 18.116 29.7178 17.668C29.4778 17.22 29.3578 16.716 29.3578 16.156C29.3578 15.596 29.4778 15.092 29.7178 14.644C29.9658 14.196 30.2978 13.84 30.7138 13.576C31.1378 13.312 31.6138 13.18 32.1418 13.18C32.5738 13.18 32.9578 13.272 33.2938 13.456C33.6378 13.632 33.9138 13.88 34.1218 14.2C34.3298 14.512 34.4458 14.876 34.4698 15.292V17.008C34.4458 17.416 34.3298 17.78 34.1218 18.1C33.9218 18.42 33.6498 18.672 33.3058 18.856C32.9698 19.032 32.5818 19.12 32.1418 19.12ZM32.3218 18.1C32.8578 18.1 33.2898 17.92 33.6178 17.56C33.9458 17.192 34.1098 16.724 34.1098 16.156C34.1098 15.764 34.0338 15.424 33.8818 15.136C33.7378 14.84 33.5298 14.612 33.2578 14.452C32.9858 14.284 32.6698 14.2 32.3098 14.2C31.9498 14.2 31.6298 14.284 31.3498 14.452C31.0778 14.62 30.8618 14.852 30.7018 15.148C30.5498 15.436 30.4738 15.768 30.4738 16.144C30.4738 16.528 30.5498 16.868 30.7018 17.164C30.8618 17.452 31.0818 17.68 31.3618 17.848C31.6418 18.016 31.9618 18.1 32.3218 18.1ZM34.0378 19V17.464L34.2418 16.072L34.0378 14.692V13.3H35.1298V19H34.0378ZM37.5547 19V10.912H38.6347V19H37.5547ZM36.1507 14.284V13.3H40.0387V14.284H36.1507ZM41.1087 19V13.3H42.1887V19H41.1087ZM41.6487 12.16C41.4487 12.16 41.2847 12.096 41.1567 11.968C41.0287 11.832 40.9647 11.664 40.9647 11.464C40.9647 11.272 41.0287 11.112 41.1567 10.984C41.2847 10.848 41.4487 10.78 41.6487 10.78C41.8487 10.78 42.0127 10.848 42.1407 10.984C42.2687 11.112 42.3327 11.272 42.3327 11.464C42.3327 11.664 42.2687 11.832 42.1407 11.968C42.0127 12.096 41.8487 12.16 41.6487 12.16ZM46.3843 19.12C45.8243 19.12 45.3203 18.988 44.8723 18.724C44.4243 18.46 44.0683 18.104 43.8043 17.656C43.5403 17.2 43.4083 16.692 43.4083 16.132C43.4083 15.58 43.5403 15.084 43.8043 14.644C44.0683 14.196 44.4243 13.84 44.8723 13.576C45.3203 13.312 45.8243 13.18 46.3843 13.18C46.9363 13.18 47.4363 13.312 47.8843 13.576C48.3403 13.832 48.7003 14.184 48.9643 14.632C49.2283 15.08 49.3603 15.58 49.3603 16.132C49.3603 16.692 49.2283 17.2 48.9643 17.656C48.7003 18.104 48.3403 18.46 47.8843 18.724C47.4363 18.988 46.9363 19.12 46.3843 19.12ZM46.3843 18.076C46.7443 18.076 47.0643 17.992 47.3443 17.824C47.6243 17.656 47.8443 17.428 48.0043 17.14C48.1643 16.844 48.2443 16.508 48.2443 16.132C48.2443 15.764 48.1603 15.436 47.9923 15.148C47.8323 14.86 47.6123 14.636 47.3323 14.476C47.0603 14.308 46.7443 14.224 46.3843 14.224C46.0243 14.224 45.7043 14.308 45.4243 14.476C45.1443 14.636 44.9243 14.86 44.7643 15.148C44.6043 15.436 44.5243 15.764 44.5243 16.132C44.5243 16.508 44.6043 16.844 44.7643 17.14C44.9243 17.428 45.1443 17.656 45.4243 17.824C45.7043 17.992 46.0243 18.076 46.3843 18.076ZM54.6092 19V15.676C54.6092 15.244 54.4732 14.888 54.2012 14.608C53.9292 14.328 53.5772 14.188 53.1452 14.188C52.8572 14.188 52.6012 14.252 52.3772 14.38C52.1532 14.508 51.9772 14.684 51.8492 14.908C51.7212 15.132 51.6572 15.388 51.6572 15.676L51.2132 15.424C51.2132 14.992 51.3092 14.608 51.5012 14.272C51.6932 13.936 51.9612 13.672 52.3052 13.48C52.6492 13.28 53.0372 13.18 53.4692 13.18C53.9012 13.18 54.2812 13.288 54.6092 13.504C54.9452 13.72 55.2092 14.004 55.4012 14.356C55.5932 14.7 55.6892 15.068 55.6892 15.46V19H54.6092ZM50.5772 19V13.3H51.6572V19H50.5772Z" fill="white"/>
<rect x="0.25" y="0.25" width="66.5" height="29.5" rx="7.75" stroke="#A4A3A3" stroke-width="0.5"/>
<rect x="75.25" y="0.25" width="55.5" height="29.5" rx="7.75" fill="#00A38F"/>
<path d="M85.984 19V10.672H87.112V19H85.984ZM91.36 19V10.672H92.488V19H91.36ZM86.752 15.208V14.176H91.636V15.208H86.752ZM96.8687 19.12C96.3087 19.12 95.8047 18.988 95.3567 18.724C94.9087 18.46 94.5527 18.104 94.2887 17.656C94.0247 17.2 93.8927 16.692 93.8927 16.132C93.8927 15.58 94.0247 15.084 94.2887 14.644C94.5527 14.196 94.9087 13.84 95.3567 13.576C95.8047 13.312 96.3087 13.18 96.8687 13.18C97.4207 13.18 97.9207 13.312 98.3687 13.576C98.8247 13.832 99.1847 14.184 99.4487 14.632C99.7127 15.08 99.8447 15.58 99.8447 16.132C99.8447 16.692 99.7127 17.2 99.4487 17.656C99.1847 18.104 98.8247 18.46 98.3687 18.724C97.9207 18.988 97.4207 19.12 96.8687 19.12ZM96.8687 18.076C97.2287 18.076 97.5487 17.992 97.8287 17.824C98.1087 17.656 98.3287 17.428 98.4887 17.14C98.6487 16.844 98.7287 16.508 98.7287 16.132C98.7287 15.764 98.6447 15.436 98.4767 15.148C98.3167 14.86 98.0967 14.636 97.8167 14.476C97.5447 14.308 97.2287 14.224 96.8687 14.224C96.5087 14.224 96.1887 14.308 95.9087 14.476C95.6287 14.636 95.4087 14.86 95.2487 15.148C95.0887 15.436 95.0087 15.764 95.0087 16.132C95.0087 16.508 95.0887 16.844 95.2487 17.14C95.4087 17.428 95.6287 17.656 95.9087 17.824C96.1887 17.992 96.5087 18.076 96.8687 18.076ZM104.062 19.12C103.63 19.12 103.238 19.032 102.886 18.856C102.542 18.672 102.266 18.42 102.058 18.1C101.85 17.78 101.734 17.416 101.71 17.008V15.292C101.734 14.876 101.85 14.512 102.058 14.2C102.274 13.88 102.554 13.632 102.898 13.456C103.25 13.272 103.638 13.18 104.062 13.18C104.582 13.18 105.05 13.312 105.466 13.576C105.89 13.84 106.222 14.196 106.462 14.644C106.702 15.092 106.822 15.596 106.822 16.156C106.822 16.716 106.702 17.22 106.462 17.668C106.222 18.116 105.89 18.472 105.466 18.736C105.05 18.992 104.582 19.12 104.062 19.12ZM103.882 18.1C104.242 18.1 104.558 18.016 104.83 17.848C105.102 17.68 105.318 17.452 105.478 17.164C105.638 16.868 105.718 16.528 105.718 16.144C105.718 15.768 105.638 15.432 105.478 15.136C105.318 14.84 105.102 14.612 104.83 14.452C104.558 14.284 104.246 14.2 103.894 14.2C103.534 14.2 103.218 14.284 102.946 14.452C102.674 14.612 102.462 14.84 102.31 15.136C102.158 15.432 102.082 15.772 102.082 16.156C102.082 16.532 102.154 16.868 102.298 17.164C102.45 17.452 102.662 17.68 102.934 17.848C103.214 18.016 103.53 18.1 103.882 18.1ZM101.062 19V10.432H102.142V14.692L101.938 16.072L102.142 17.464V19H101.062ZM111.046 19.12C110.614 19.12 110.222 19.032 109.87 18.856C109.526 18.672 109.25 18.42 109.042 18.1C108.834 17.78 108.718 17.416 108.694 17.008V15.292C108.718 14.876 108.834 14.512 109.042 14.2C109.258 13.88 109.538 13.632 109.882 13.456C110.234 13.272 110.622 13.18 111.046 13.18C111.566 13.18 112.034 13.312 112.45 13.576C112.874 13.84 113.206 14.196 113.446 14.644C113.686 15.092 113.806 15.596 113.806 16.156C113.806 16.716 113.686 17.22 113.446 17.668C113.206 18.116 112.874 18.472 112.45 18.736C112.034 18.992 111.566 19.12 111.046 19.12ZM110.866 18.1C111.226 18.1 111.542 18.016 111.814 17.848C112.086 17.68 112.302 17.452 112.462 17.164C112.622 16.868 112.702 16.528 112.702 16.144C112.702 15.768 112.622 15.432 112.462 15.136C112.302 14.84 112.086 14.612 111.814 14.452C111.542 14.284 111.23 14.2 110.878 14.2C110.518 14.2 110.202 14.284 109.93 14.452C109.658 14.612 109.446 14.84 109.294 15.136C109.142 15.432 109.066 15.772 109.066 16.156C109.066 16.532 109.138 16.868 109.282 17.164C109.434 17.452 109.646 17.68 109.918 17.848C110.198 18.016 110.514 18.1 110.866 18.1ZM108.046 19V10.432H109.126V14.692L108.922 16.072L109.126 17.464V19H108.046ZM116.68 19.048L114.208 13.3H115.408L117.244 17.8H116.86L118.792 13.3H119.992L117.328 19.048H116.68ZM115.048 21.388L116.728 17.944L117.328 19.048L116.248 21.388H115.048Z" fill="white"/>
<rect x="75.25" y="0.25" width="55.5" height="29.5" rx="7.75" stroke="#A4A3A3" stroke-width="0.5"/>
<rect x="139.25" y="0.25" width="81.5" height="29.5" rx="7.75" fill="#00A38F"/>
<path d="M150.74 15.376V14.428H152.996C153.484 14.428 153.86 14.304 154.124 14.056C154.388 13.808 154.52 13.472 154.52 13.048C154.52 12.648 154.388 12.316 154.124 12.052C153.868 11.788 153.496 11.656 153.008 11.656H150.74V10.672H153.044C153.572 10.672 154.032 10.776 154.424 10.984C154.816 11.184 155.116 11.46 155.324 11.812C155.54 12.164 155.648 12.568 155.648 13.024C155.648 13.496 155.54 13.908 155.324 14.26C155.116 14.612 154.816 14.888 154.424 15.088C154.032 15.28 153.572 15.376 153.044 15.376H150.74ZM149.984 19V10.672H151.112V19H149.984ZM154.784 19L151.76 15.268L152.828 14.896L156.212 19H154.784ZM159.423 19.12C158.903 19.12 158.431 18.992 158.007 18.736C157.583 18.472 157.247 18.116 156.999 17.668C156.759 17.22 156.639 16.716 156.639 16.156C156.639 15.596 156.759 15.092 156.999 14.644C157.247 14.196 157.579 13.84 157.995 13.576C158.419 13.312 158.895 13.18 159.423 13.18C159.855 13.18 160.239 13.272 160.575 13.456C160.919 13.632 161.195 13.88 161.403 14.2C161.611 14.512 161.727 14.876 161.751 15.292V17.008C161.727 17.416 161.611 17.78 161.403 18.1C161.203 18.42 160.931 18.672 160.587 18.856C160.251 19.032 159.863 19.12 159.423 19.12ZM159.603 18.1C160.139 18.1 160.571 17.92 160.899 17.56C161.227 17.192 161.391 16.724 161.391 16.156C161.391 15.764 161.315 15.424 161.163 15.136C161.019 14.84 160.811 14.612 160.539 14.452C160.267 14.284 159.951 14.2 159.591 14.2C159.231 14.2 158.911 14.284 158.631 14.452C158.359 14.62 158.143 14.852 157.983 15.148C157.831 15.436 157.755 15.768 157.755 16.144C157.755 16.528 157.831 16.868 157.983 17.164C158.143 17.452 158.363 17.68 158.643 17.848C158.923 18.016 159.243 18.1 159.603 18.1ZM161.319 19V17.464L161.523 16.072L161.319 14.692V13.3H162.411V19H161.319ZM164.836 19V10.912H165.916V19H164.836ZM163.432 14.284V13.3H167.32V14.284H163.432ZM168.39 19V13.3H169.47V19H168.39ZM168.93 12.16C168.73 12.16 168.566 12.096 168.438 11.968C168.31 11.832 168.246 11.664 168.246 11.464C168.246 11.272 168.31 11.112 168.438 10.984C168.566 10.848 168.73 10.78 168.93 10.78C169.13 10.78 169.294 10.848 169.422 10.984C169.55 11.112 169.614 11.272 169.614 11.464C169.614 11.664 169.55 11.832 169.422 11.968C169.294 12.096 169.13 12.16 168.93 12.16ZM175.094 19V15.676C175.094 15.244 174.958 14.888 174.686 14.608C174.414 14.328 174.062 14.188 173.63 14.188C173.342 14.188 173.086 14.252 172.862 14.38C172.638 14.508 172.462 14.684 172.334 14.908C172.206 15.132 172.142 15.388 172.142 15.676L171.698 15.424C171.698 14.992 171.794 14.608 171.986 14.272C172.178 13.936 172.446 13.672 172.79 13.48C173.134 13.28 173.522 13.18 173.954 13.18C174.386 13.18 174.766 13.288 175.094 13.504C175.43 13.72 175.694 14.004 175.886 14.356C176.078 14.7 176.174 15.068 176.174 15.46V19H175.094ZM171.062 19V13.3H172.142V19H171.062ZM180 21.508C179.416 21.508 178.896 21.4 178.44 21.184C177.992 20.968 177.632 20.664 177.36 20.272L178.056 19.564C178.288 19.86 178.564 20.084 178.884 20.236C179.204 20.396 179.584 20.476 180.024 20.476C180.608 20.476 181.068 20.32 181.404 20.008C181.748 19.704 181.92 19.292 181.92 18.772V17.356L182.112 16.072L181.92 14.8V13.3H183V18.772C183 19.316 182.872 19.792 182.616 20.2C182.368 20.608 182.016 20.928 181.56 21.16C181.112 21.392 180.592 21.508 180 21.508ZM180 18.904C179.48 18.904 179.012 18.78 178.596 18.532C178.188 18.284 177.864 17.944 177.624 17.512C177.384 17.072 177.264 16.58 177.264 16.036C177.264 15.492 177.384 15.008 177.624 14.584C177.864 14.152 178.188 13.812 178.596 13.564C179.012 13.308 179.48 13.18 180 13.18C180.448 13.18 180.844 13.268 181.188 13.444C181.532 13.62 181.804 13.868 182.004 14.188C182.212 14.5 182.324 14.868 182.34 15.292V16.804C182.316 17.22 182.2 17.588 181.992 17.908C181.792 18.22 181.52 18.464 181.176 18.64C180.832 18.816 180.44 18.904 180 18.904ZM180.216 17.884C180.568 17.884 180.876 17.808 181.14 17.656C181.412 17.504 181.62 17.292 181.764 17.02C181.908 16.74 181.98 16.416 181.98 16.048C181.98 15.68 181.904 15.36 181.752 15.088C181.608 14.808 181.404 14.592 181.14 14.44C180.876 14.28 180.564 14.2 180.204 14.2C179.844 14.2 179.528 14.28 179.256 14.44C178.984 14.592 178.768 14.808 178.608 15.088C178.456 15.36 178.38 15.676 178.38 16.036C178.38 16.396 178.456 16.716 178.608 16.996C178.768 17.276 178.984 17.496 179.256 17.656C179.536 17.808 179.856 17.884 180.216 17.884ZM186.685 16.132L189.721 10.672H190.993L187.897 16.132H186.685ZM186.685 16.828V16.132L187.165 15.82H193.069V16.828H186.685ZM190.753 19V13.492H191.869V19H190.753ZM194.709 19.12C194.485 19.12 194.297 19.044 194.145 18.892C194.001 18.732 193.929 18.544 193.929 18.328C193.929 18.104 194.001 17.92 194.145 17.776C194.297 17.624 194.485 17.548 194.709 17.548C194.933 17.548 195.117 17.624 195.261 17.776C195.413 17.92 195.489 18.104 195.489 18.328C195.489 18.544 195.413 18.732 195.261 18.892C195.117 19.044 194.933 19.12 194.709 19.12ZM200.081 19.12C199.457 19.12 198.885 18.944 198.365 18.592C197.853 18.24 197.445 17.744 197.141 17.104C196.837 16.456 196.685 15.696 196.685 14.824C196.685 13.952 196.833 13.196 197.129 12.556C197.433 11.916 197.841 11.424 198.353 11.08C198.865 10.728 199.429 10.552 200.045 10.552C200.677 10.552 201.249 10.728 201.761 11.08C202.273 11.424 202.677 11.916 202.973 12.556C203.277 13.196 203.429 13.956 203.429 14.836C203.429 15.708 203.277 16.468 202.973 17.116C202.677 17.756 202.273 18.252 201.761 18.604C201.257 18.948 200.697 19.12 200.081 19.12ZM200.057 18.052C200.497 18.052 200.881 17.932 201.209 17.692C201.545 17.444 201.809 17.08 202.001 16.6C202.193 16.12 202.289 15.528 202.289 14.824C202.289 14.12 202.193 13.532 202.001 13.06C201.809 12.58 201.545 12.22 201.209 11.98C200.873 11.732 200.485 11.608 200.045 11.608C199.613 11.608 199.229 11.732 198.893 11.98C198.557 12.22 198.293 12.58 198.101 13.06C197.917 13.532 197.825 14.12 197.825 14.824C197.825 15.528 197.917 16.12 198.101 16.6C198.293 17.08 198.557 17.444 198.893 17.692C199.229 17.932 199.617 18.052 200.057 18.052ZM204.704 15.472V14.5H209.792V15.472H204.704ZM206.756 12.316H207.752V17.656H206.756V12.316Z" fill="white"/>
<rect x="139.25" y="0.25" width="81.5" height="29.5" rx="7.75" stroke="#A4A3A3" stroke-width="0.5"/>
<rect x="0.25" y="38.25" width="66.5" height="29.5" rx="7.75" fill="#00A38F"/>
<path d="M11.728 57V55.968H14.044C14.66 55.968 15.2 55.836 15.664 55.572C16.128 55.3 16.488 54.928 16.744 54.456C17.008 53.984 17.14 53.44 17.14 52.824C17.14 52.216 17.008 51.676 16.744 51.204C16.48 50.732 16.116 50.364 15.652 50.1C15.188 49.836 14.652 49.704 14.044 49.704H11.74V48.672H14.068C14.676 48.672 15.236 48.776 15.748 48.984C16.268 49.192 16.716 49.484 17.092 49.86C17.476 50.236 17.772 50.676 17.98 51.18C18.196 51.684 18.304 52.236 18.304 52.836C18.304 53.428 18.196 53.98 17.98 54.492C17.772 54.996 17.48 55.436 17.104 55.812C16.728 56.188 16.28 56.48 15.76 56.688C15.248 56.896 14.692 57 14.092 57H11.728ZM10.984 57V48.672H12.112V57H10.984ZM19.6868 57V51.3H20.7668V57H19.6868ZM20.2268 50.16C20.0268 50.16 19.8628 50.096 19.7348 49.968C19.6068 49.832 19.5428 49.664 19.5428 49.464C19.5428 49.272 19.6068 49.112 19.7348 48.984C19.8628 48.848 20.0268 48.78 20.2268 48.78C20.4268 48.78 20.5908 48.848 20.7188 48.984C20.8468 49.112 20.9108 49.272 20.9108 49.464C20.9108 49.664 20.8468 49.832 20.7188 49.968C20.5908 50.096 20.4268 50.16 20.2268 50.16ZM24.1704 57.12C23.8504 57.12 23.5464 57.08 23.2584 57C22.9784 56.912 22.7184 56.792 22.4784 56.64C22.2384 56.48 22.0304 56.292 21.8544 56.076L22.5504 55.38C22.7584 55.636 22.9984 55.828 23.2704 55.956C23.5424 56.076 23.8464 56.136 24.1824 56.136C24.5184 56.136 24.7784 56.08 24.9624 55.968C25.1464 55.848 25.2384 55.684 25.2384 55.476C25.2384 55.268 25.1624 55.108 25.0104 54.996C24.8664 54.876 24.6784 54.78 24.4464 54.708C24.2144 54.628 23.9664 54.552 23.7024 54.48C23.4464 54.4 23.2024 54.3 22.9704 54.18C22.7384 54.06 22.5464 53.896 22.3944 53.688C22.2504 53.48 22.1784 53.204 22.1784 52.86C22.1784 52.516 22.2624 52.22 22.4304 51.972C22.5984 51.716 22.8304 51.52 23.1264 51.384C23.4304 51.248 23.7944 51.18 24.2184 51.18C24.6664 51.18 25.0624 51.26 25.4064 51.42C25.7584 51.572 26.0464 51.804 26.2704 52.116L25.5744 52.812C25.4144 52.604 25.2144 52.444 24.9744 52.332C24.7424 52.22 24.4784 52.164 24.1824 52.164C23.8704 52.164 23.6304 52.22 23.4624 52.332C23.3024 52.436 23.2224 52.584 23.2224 52.776C23.2224 52.968 23.2944 53.116 23.4384 53.22C23.5824 53.324 23.7704 53.412 24.0024 53.484C24.2424 53.556 24.4904 53.632 24.7464 53.712C25.0024 53.784 25.2464 53.884 25.4784 54.012C25.7104 54.14 25.8984 54.312 26.0424 54.528C26.1944 54.744 26.2704 55.028 26.2704 55.38C26.2704 55.916 26.0784 56.34 25.6944 56.652C25.3184 56.964 24.8104 57.12 24.1704 57.12ZM28.3555 57V48.912H29.4355V57H28.3555ZM26.9515 52.284V51.3H30.8395V52.284H26.9515ZM34.1457 57.12C33.6257 57.12 33.1537 56.992 32.7297 56.736C32.3057 56.472 31.9697 56.116 31.7217 55.668C31.4817 55.22 31.3617 54.716 31.3617 54.156C31.3617 53.596 31.4817 53.092 31.7217 52.644C31.9697 52.196 32.3017 51.84 32.7177 51.576C33.1417 51.312 33.6177 51.18 34.1457 51.18C34.5777 51.18 34.9617 51.272 35.2977 51.456C35.6417 51.632 35.9177 51.88 36.1257 52.2C36.3337 52.512 36.4497 52.876 36.4737 53.292V55.008C36.4497 55.416 36.3337 55.78 36.1257 56.1C35.9257 56.42 35.6537 56.672 35.3097 56.856C34.9737 57.032 34.5857 57.12 34.1457 57.12ZM34.3257 56.1C34.8617 56.1 35.2937 55.92 35.6217 55.56C35.9497 55.192 36.1137 54.724 36.1137 54.156C36.1137 53.764 36.0377 53.424 35.8857 53.136C35.7417 52.84 35.5337 52.612 35.2617 52.452C34.9897 52.284 34.6737 52.2 34.3137 52.2C33.9537 52.2 33.6337 52.284 33.3537 52.452C33.0817 52.62 32.8657 52.852 32.7057 53.148C32.5537 53.436 32.4777 53.768 32.4777 54.144C32.4777 54.528 32.5537 54.868 32.7057 55.164C32.8657 55.452 33.0857 55.68 33.3657 55.848C33.6457 56.016 33.9657 56.1 34.3257 56.1ZM36.0417 57V55.464L36.2457 54.072L36.0417 52.692V51.3H37.1337V57H36.0417ZM42.7381 57V53.676C42.7381 53.244 42.6021 52.888 42.3301 52.608C42.0581 52.328 41.7061 52.188 41.2741 52.188C40.9861 52.188 40.7301 52.252 40.5061 52.38C40.2821 52.508 40.1061 52.684 39.9781 52.908C39.8501 53.132 39.7861 53.388 39.7861 53.676L39.3421 53.424C39.3421 52.992 39.4381 52.608 39.6301 52.272C39.8221 51.936 40.0901 51.672 40.4341 51.48C40.7781 51.28 41.1661 51.18 41.5981 51.18C42.0301 51.18 42.4101 51.288 42.7381 51.504C43.0741 51.72 43.3381 52.004 43.5301 52.356C43.7221 52.7 43.8181 53.068 43.8181 53.46V57H42.7381ZM38.7061 57V51.3H39.7861V57H38.7061ZM47.8843 57.12C47.3243 57.12 46.8163 56.988 46.3603 56.724C45.9123 56.46 45.5563 56.104 45.2923 55.656C45.0363 55.2 44.9083 54.696 44.9083 54.144C44.9083 53.584 45.0363 53.08 45.2923 52.632C45.5563 52.184 45.9123 51.832 46.3603 51.576C46.8163 51.312 47.3243 51.18 47.8843 51.18C48.3243 51.18 48.7323 51.264 49.1083 51.432C49.4843 51.592 49.8083 51.828 50.0803 52.14L49.3603 52.86C49.1843 52.652 48.9683 52.496 48.7123 52.392C48.4643 52.28 48.1883 52.224 47.8843 52.224C47.5243 52.224 47.2043 52.308 46.9243 52.476C46.6443 52.636 46.4243 52.86 46.2643 53.148C46.1043 53.436 46.0243 53.768 46.0243 54.144C46.0243 54.52 46.1043 54.852 46.2643 55.14C46.4243 55.428 46.6443 55.656 46.9243 55.824C47.2043 55.992 47.5243 56.076 47.8843 56.076C48.1883 56.076 48.4643 56.024 48.7123 55.92C48.9683 55.808 49.1883 55.648 49.3723 55.44L50.0803 56.16C49.8163 56.464 49.4923 56.7 49.1083 56.868C48.7323 57.036 48.3243 57.12 47.8843 57.12ZM53.6742 57.12C53.1062 57.12 52.5942 56.992 52.1382 56.736C51.6822 56.472 51.3222 56.116 51.0582 55.668C50.7942 55.22 50.6622 54.712 50.6622 54.144C50.6622 53.584 50.7902 53.08 51.0462 52.632C51.3102 52.184 51.6622 51.832 52.1022 51.576C52.5502 51.312 53.0502 51.18 53.6022 51.18C54.1302 51.18 54.5942 51.3 54.9942 51.54C55.4022 51.78 55.7182 52.112 55.9422 52.536C56.1742 52.96 56.2902 53.44 56.2902 53.976C56.2902 54.056 56.2862 54.144 56.2782 54.24C56.2702 54.328 56.2542 54.432 56.2302 54.552H51.4182V53.652H55.6542L55.2582 54C55.2582 53.616 55.1902 53.292 55.0542 53.028C54.9182 52.756 54.7262 52.548 54.4782 52.404C54.2302 52.252 53.9302 52.176 53.5782 52.176C53.2102 52.176 52.8862 52.256 52.6062 52.416C52.3262 52.576 52.1102 52.8 51.9582 53.088C51.8062 53.376 51.7302 53.716 51.7302 54.108C51.7302 54.508 51.8102 54.86 51.9702 55.164C52.1302 55.46 52.3582 55.692 52.6542 55.86C52.9502 56.02 53.2902 56.1 53.6742 56.1C53.9942 56.1 54.2862 56.044 54.5502 55.932C54.8222 55.82 55.0542 55.652 55.2462 55.428L55.9422 56.136C55.6702 56.456 55.3342 56.7 54.9342 56.868C54.5422 57.036 54.1222 57.12 53.6742 57.12Z" fill="white"/>
<rect x="0.25" y="38.25" width="66.5" height="29.5" rx="7.75" stroke="#A4A3A3" stroke-width="0.5"/>
<rect x="75.25" y="38.25" width="79.5" height="29.5" rx="7.75" fill="#00A38F"/>
<path d="M85.984 57V48.672H87.112V57H85.984ZM86.752 57V55.968H91.528V57H86.752ZM86.752 53.232V52.248H91.132V53.232H86.752ZM86.752 49.704V48.672H91.468V49.704H86.752ZM96.6141 57L94.8381 54.504L94.6341 54.312L92.3901 51.3H93.6981L95.3181 53.52L95.5221 53.688L97.9221 57H96.6141ZM92.2821 57L94.6341 53.832L95.2461 54.624L93.5541 57H92.2821ZM95.6061 54.3L94.9821 53.532L96.5541 51.3H97.8141L95.6061 54.3ZM101.917 57.12C101.485 57.12 101.093 57.032 100.741 56.856C100.397 56.672 100.121 56.42 99.913 56.1C99.705 55.78 99.589 55.416 99.565 55.008V53.292C99.589 52.876 99.705 52.512 99.913 52.2C100.129 51.88 100.409 51.632 100.753 51.456C101.105 51.272 101.493 51.18 101.917 51.18C102.437 51.18 102.905 51.312 103.321 51.576C103.745 51.84 104.077 52.196 104.317 52.644C104.557 53.092 104.677 53.596 104.677 54.156C104.677 54.716 104.557 55.22 104.317 55.668C104.077 56.116 103.745 56.472 103.321 56.736C102.905 56.992 102.437 57.12 101.917 57.12ZM101.737 56.1C102.097 56.1 102.413 56.016 102.685 55.848C102.957 55.68 103.173 55.452 103.333 55.164C103.493 54.868 103.573 54.528 103.573 54.144C103.573 53.768 103.493 53.432 103.333 53.136C103.173 52.84 102.957 52.612 102.685 52.452C102.413 52.284 102.101 52.2 101.749 52.2C101.389 52.2 101.073 52.284 100.801 52.452C100.529 52.612 100.317 52.84 100.165 53.136C100.013 53.432 99.937 53.772 99.937 54.156C99.937 54.532 100.009 54.868 100.153 55.164C100.305 55.452 100.517 55.68 100.789 55.848C101.069 56.016 101.385 56.1 101.737 56.1ZM98.917 59.388V51.3H99.997V52.8L99.793 54.18L99.997 55.572V59.388H98.917ZM108.541 57.12C107.973 57.12 107.461 56.992 107.005 56.736C106.549 56.472 106.189 56.116 105.925 55.668C105.661 55.22 105.529 54.712 105.529 54.144C105.529 53.584 105.657 53.08 105.913 52.632C106.177 52.184 106.529 51.832 106.969 51.576C107.417 51.312 107.917 51.18 108.469 51.18C108.997 51.18 109.461 51.3 109.861 51.54C110.269 51.78 110.585 52.112 110.809 52.536C111.041 52.96 111.157 53.44 111.157 53.976C111.157 54.056 111.153 54.144 111.145 54.24C111.137 54.328 111.121 54.432 111.097 54.552H106.285V53.652H110.521L110.125 54C110.125 53.616 110.057 53.292 109.921 53.028C109.785 52.756 109.593 52.548 109.345 52.404C109.097 52.252 108.797 52.176 108.445 52.176C108.077 52.176 107.753 52.256 107.473 52.416C107.193 52.576 106.977 52.8 106.825 53.088C106.673 53.376 106.597 53.716 106.597 54.108C106.597 54.508 106.677 54.86 106.837 55.164C106.997 55.46 107.225 55.692 107.521 55.86C107.817 56.02 108.157 56.1 108.541 56.1C108.861 56.1 109.153 56.044 109.417 55.932C109.689 55.82 109.921 55.652 110.113 55.428L110.809 56.136C110.537 56.456 110.201 56.7 109.801 56.868C109.409 57.036 108.989 57.12 108.541 57.12ZM112.335 57V51.3H113.415V57H112.335ZM113.415 53.748L113.007 53.568C113.007 52.84 113.175 52.26 113.511 51.828C113.847 51.396 114.331 51.18 114.963 51.18C115.251 51.18 115.511 51.232 115.743 51.336C115.975 51.432 116.191 51.596 116.391 51.828L115.683 52.56C115.563 52.432 115.431 52.34 115.287 52.284C115.143 52.228 114.975 52.2 114.783 52.2C114.383 52.2 114.055 52.328 113.799 52.584C113.543 52.84 113.415 53.228 113.415 53.748ZM117.163 57V51.3H118.243V57H117.163ZM117.703 50.16C117.503 50.16 117.339 50.096 117.211 49.968C117.083 49.832 117.019 49.664 117.019 49.464C117.019 49.272 117.083 49.112 117.211 48.984C117.339 48.848 117.503 48.78 117.703 48.78C117.903 48.78 118.067 48.848 118.195 48.984C118.323 49.112 118.387 49.272 118.387 49.464C118.387 49.664 118.323 49.832 118.195 49.968C118.067 50.096 117.903 50.16 117.703 50.16ZM122.475 57.12C121.907 57.12 121.395 56.992 120.939 56.736C120.483 56.472 120.123 56.116 119.859 55.668C119.595 55.22 119.463 54.712 119.463 54.144C119.463 53.584 119.591 53.08 119.847 52.632C120.111 52.184 120.463 51.832 120.903 51.576C121.351 51.312 121.851 51.18 122.403 51.18C122.931 51.18 123.395 51.3 123.795 51.54C124.203 51.78 124.519 52.112 124.743 52.536C124.975 52.96 125.091 53.44 125.091 53.976C125.091 54.056 125.087 54.144 125.079 54.24C125.071 54.328 125.055 54.432 125.031 54.552H120.219V53.652H124.455L124.059 54C124.059 53.616 123.991 53.292 123.855 53.028C123.719 52.756 123.527 52.548 123.279 52.404C123.031 52.252 122.731 52.176 122.379 52.176C122.011 52.176 121.687 52.256 121.407 52.416C121.127 52.576 120.911 52.8 120.759 53.088C120.607 53.376 120.531 53.716 120.531 54.108C120.531 54.508 120.611 54.86 120.771 55.164C120.931 55.46 121.159 55.692 121.455 55.86C121.751 56.02 122.091 56.1 122.475 56.1C122.795 56.1 123.087 56.044 123.351 55.932C123.623 55.82 123.855 55.652 124.047 55.428L124.743 56.136C124.471 56.456 124.135 56.7 123.735 56.868C123.343 57.036 122.923 57.12 122.475 57.12ZM130.301 57V53.676C130.301 53.244 130.165 52.888 129.893 52.608C129.621 52.328 129.269 52.188 128.837 52.188C128.549 52.188 128.293 52.252 128.069 52.38C127.845 52.508 127.669 52.684 127.541 52.908C127.413 53.132 127.349 53.388 127.349 53.676L126.905 53.424C126.905 52.992 127.001 52.608 127.193 52.272C127.385 51.936 127.653 51.672 127.997 51.48C128.341 51.28 128.729 51.18 129.161 51.18C129.593 51.18 129.973 51.288 130.301 51.504C130.637 51.72 130.901 52.004 131.093 52.356C131.285 52.7 131.381 53.068 131.381 53.46V57H130.301ZM126.269 57V51.3H127.349V57H126.269ZM135.447 57.12C134.887 57.12 134.379 56.988 133.923 56.724C133.475 56.46 133.119 56.104 132.855 55.656C132.599 55.2 132.471 54.696 132.471 54.144C132.471 53.584 132.599 53.08 132.855 52.632C133.119 52.184 133.475 51.832 133.923 51.576C134.379 51.312 134.887 51.18 135.447 51.18C135.887 51.18 136.295 51.264 136.671 51.432C137.047 51.592 137.371 51.828 137.643 52.14L136.923 52.86C136.747 52.652 136.531 52.496 136.275 52.392C136.027 52.28 135.751 52.224 135.447 52.224C135.087 52.224 134.767 52.308 134.487 52.476C134.207 52.636 133.987 52.86 133.827 53.148C133.667 53.436 133.587 53.768 133.587 54.144C133.587 54.52 133.667 54.852 133.827 55.14C133.987 55.428 134.207 55.656 134.487 55.824C134.767 55.992 135.087 56.076 135.447 56.076C135.751 56.076 136.027 56.024 136.275 55.92C136.531 55.808 136.751 55.648 136.935 55.44L137.643 56.16C137.379 56.464 137.055 56.7 136.671 56.868C136.295 57.036 135.887 57.12 135.447 57.12ZM141.237 57.12C140.669 57.12 140.157 56.992 139.701 56.736C139.245 56.472 138.885 56.116 138.621 55.668C138.357 55.22 138.225 54.712 138.225 54.144C138.225 53.584 138.353 53.08 138.609 52.632C138.873 52.184 139.225 51.832 139.665 51.576C140.113 51.312 140.613 51.18 141.165 51.18C141.693 51.18 142.157 51.3 142.557 51.54C142.965 51.78 143.281 52.112 143.505 52.536C143.737 52.96 143.853 53.44 143.853 53.976C143.853 54.056 143.849 54.144 143.841 54.24C143.833 54.328 143.817 54.432 143.793 54.552H138.981V53.652H143.217L142.821 54C142.821 53.616 142.753 53.292 142.617 53.028C142.481 52.756 142.289 52.548 142.041 52.404C141.793 52.252 141.493 52.176 141.141 52.176C140.773 52.176 140.449 52.256 140.169 52.416C139.889 52.576 139.673 52.8 139.521 53.088C139.369 53.376 139.293 53.716 139.293 54.108C139.293 54.508 139.373 54.86 139.533 55.164C139.693 55.46 139.921 55.692 140.217 55.86C140.513 56.02 140.853 56.1 141.237 56.1C141.557 56.1 141.849 56.044 142.113 55.932C142.385 55.82 142.617 55.652 142.809 55.428L143.505 56.136C143.233 56.456 142.897 56.7 142.497 56.868C142.105 57.036 141.685 57.12 141.237 57.12Z" fill="white"/>
<rect x="75.25" y="38.25" width="79.5" height="29.5" rx="7.75" stroke="#A4A3A3" stroke-width="0.5"/>
<rect x="163.25" y="38.25" width="67.5" height="29.5" rx="7.75" fill="#00A38F"/>
<path d="M176.3 57.12C175.644 57.12 175.084 57 174.62 56.76C174.156 56.52 173.744 56.172 173.384 55.716L174.152 54.948C174.416 55.316 174.72 55.596 175.064 55.788C175.408 55.972 175.832 56.064 176.336 56.064C176.832 56.064 177.228 55.956 177.524 55.74C177.828 55.524 177.98 55.228 177.98 54.852C177.98 54.54 177.908 54.288 177.764 54.096C177.62 53.904 177.424 53.748 177.176 53.628C176.936 53.5 176.672 53.388 176.384 53.292C176.096 53.188 175.808 53.08 175.52 52.968C175.232 52.848 174.968 52.704 174.728 52.536C174.488 52.36 174.292 52.132 174.14 51.852C173.996 51.572 173.924 51.22 173.924 50.796C173.924 50.324 174.036 49.924 174.26 49.596C174.492 49.26 174.804 49.004 175.196 48.828C175.596 48.644 176.044 48.552 176.54 48.552C177.084 48.552 177.572 48.66 178.004 48.876C178.436 49.084 178.788 49.36 179.06 49.704L178.292 50.472C178.044 50.184 177.776 49.968 177.488 49.824C177.208 49.68 176.884 49.608 176.516 49.608C176.068 49.608 175.712 49.708 175.448 49.908C175.184 50.1 175.052 50.372 175.052 50.724C175.052 51.004 175.124 51.232 175.268 51.408C175.42 51.576 175.616 51.72 175.856 51.84C176.096 51.96 176.36 52.072 176.648 52.176C176.944 52.272 177.236 52.38 177.524 52.5C177.812 52.62 178.076 52.772 178.316 52.956C178.556 53.14 178.748 53.38 178.892 53.676C179.044 53.964 179.12 54.328 179.12 54.768C179.12 55.504 178.864 56.08 178.352 56.496C177.848 56.912 177.164 57.12 176.3 57.12ZM182.97 57.12C182.41 57.12 181.902 56.988 181.446 56.724C180.998 56.46 180.642 56.104 180.378 55.656C180.122 55.2 179.994 54.696 179.994 54.144C179.994 53.584 180.122 53.08 180.378 52.632C180.642 52.184 180.998 51.832 181.446 51.576C181.902 51.312 182.41 51.18 182.97 51.18C183.41 51.18 183.818 51.264 184.194 51.432C184.57 51.592 184.894 51.828 185.166 52.14L184.446 52.86C184.27 52.652 184.054 52.496 183.798 52.392C183.55 52.28 183.274 52.224 182.97 52.224C182.61 52.224 182.29 52.308 182.01 52.476C181.73 52.636 181.51 52.86 181.35 53.148C181.19 53.436 181.11 53.768 181.11 54.144C181.11 54.52 181.19 54.852 181.35 55.14C181.51 55.428 181.73 55.656 182.01 55.824C182.29 55.992 182.61 56.076 182.97 56.076C183.274 56.076 183.55 56.024 183.798 55.92C184.054 55.808 184.274 55.648 184.458 55.44L185.166 56.16C184.902 56.464 184.578 56.7 184.194 56.868C183.818 57.036 183.41 57.12 182.97 57.12ZM190.269 57V53.676C190.269 53.244 190.133 52.888 189.861 52.608C189.589 52.328 189.237 52.188 188.805 52.188C188.517 52.188 188.261 52.252 188.037 52.38C187.813 52.508 187.637 52.684 187.509 52.908C187.381 53.132 187.317 53.388 187.317 53.676L186.873 53.424C186.873 52.992 186.969 52.608 187.161 52.272C187.353 51.936 187.621 51.672 187.965 51.48C188.309 51.28 188.697 51.18 189.129 51.18C189.561 51.18 189.941 51.276 190.269 51.468C190.605 51.66 190.869 51.928 191.061 52.272C191.253 52.616 191.349 53.012 191.349 53.46V57H190.269ZM186.237 57V48.432H187.317V57H186.237ZM195.452 57.12C194.884 57.12 194.372 56.992 193.916 56.736C193.46 56.472 193.1 56.116 192.836 55.668C192.572 55.22 192.44 54.712 192.44 54.144C192.44 53.584 192.568 53.08 192.824 52.632C193.088 52.184 193.44 51.832 193.88 51.576C194.328 51.312 194.828 51.18 195.38 51.18C195.908 51.18 196.372 51.3 196.772 51.54C197.18 51.78 197.496 52.112 197.72 52.536C197.952 52.96 198.068 53.44 198.068 53.976C198.068 54.056 198.064 54.144 198.056 54.24C198.048 54.328 198.032 54.432 198.008 54.552H193.196V53.652H197.432L197.036 54C197.036 53.616 196.968 53.292 196.832 53.028C196.696 52.756 196.504 52.548 196.256 52.404C196.008 52.252 195.708 52.176 195.356 52.176C194.988 52.176 194.664 52.256 194.384 52.416C194.104 52.576 193.888 52.8 193.736 53.088C193.584 53.376 193.508 53.716 193.508 54.108C193.508 54.508 193.588 54.86 193.748 55.164C193.908 55.46 194.136 55.692 194.432 55.86C194.728 56.02 195.068 56.1 195.452 56.1C195.772 56.1 196.064 56.044 196.328 55.932C196.6 55.82 196.832 55.652 197.024 55.428L197.72 56.136C197.448 56.456 197.112 56.7 196.712 56.868C196.32 57.036 195.9 57.12 195.452 57.12ZM201.657 57.12C201.129 57.12 200.657 56.992 200.241 56.736C199.825 56.472 199.493 56.116 199.245 55.668C199.005 55.22 198.885 54.716 198.885 54.156C198.885 53.596 199.005 53.092 199.245 52.644C199.493 52.196 199.825 51.84 200.241 51.576C200.657 51.312 201.129 51.18 201.657 51.18C202.081 51.18 202.465 51.272 202.809 51.456C203.153 51.632 203.429 51.88 203.637 52.2C203.853 52.512 203.973 52.876 203.997 53.292V55.008C203.973 55.416 203.857 55.78 203.649 56.1C203.441 56.42 203.165 56.672 202.821 56.856C202.477 57.032 202.089 57.12 201.657 57.12ZM201.837 56.1C202.197 56.1 202.509 56.016 202.773 55.848C203.045 55.68 203.257 55.452 203.409 55.164C203.561 54.868 203.637 54.532 203.637 54.156C203.637 53.764 203.557 53.424 203.397 53.136C203.245 52.848 203.033 52.62 202.761 52.452C202.497 52.284 202.185 52.2 201.825 52.2C201.465 52.2 201.149 52.284 200.877 52.452C200.605 52.62 200.389 52.852 200.229 53.148C200.077 53.436 200.001 53.768 200.001 54.144C200.001 54.528 200.077 54.868 200.229 55.164C200.389 55.452 200.605 55.68 200.877 55.848C201.157 56.016 201.477 56.1 201.837 56.1ZM204.657 57H203.565V55.464L203.769 54.072L203.565 52.692V48.432H204.657V57ZM208.521 57.12C208.058 57.12 207.638 57.016 207.262 56.808C206.894 56.592 206.606 56.296 206.398 55.92C206.19 55.544 206.086 55.108 206.086 54.612V51.3H207.166V54.564C207.166 54.876 207.218 55.148 207.322 55.38C207.434 55.604 207.594 55.776 207.802 55.896C208.01 56.016 208.254 56.076 208.534 56.076C208.958 56.076 209.29 55.944 209.53 55.68C209.77 55.408 209.89 55.036 209.89 54.564V51.3H210.97V54.612C210.97 55.108 210.866 55.544 210.658 55.92C210.45 56.296 210.162 56.592 209.794 56.808C209.434 57.016 209.01 57.12 208.521 57.12ZM212.417 57V48.432H213.497V57H212.417ZM217.717 57.12C217.149 57.12 216.637 56.992 216.181 56.736C215.725 56.472 215.365 56.116 215.101 55.668C214.837 55.22 214.705 54.712 214.705 54.144C214.705 53.584 214.833 53.08 215.089 52.632C215.353 52.184 215.705 51.832 216.145 51.576C216.593 51.312 217.093 51.18 217.645 51.18C218.173 51.18 218.637 51.3 219.037 51.54C219.445 51.78 219.761 52.112 219.985 52.536C220.217 52.96 220.333 53.44 220.333 53.976C220.333 54.056 220.329 54.144 220.321 54.24C220.313 54.328 220.297 54.432 220.273 54.552H215.461V53.652H219.697L219.301 54C219.301 53.616 219.233 53.292 219.097 53.028C218.961 52.756 218.769 52.548 218.521 52.404C218.273 52.252 217.973 52.176 217.621 52.176C217.253 52.176 216.929 52.256 216.649 52.416C216.369 52.576 216.153 52.8 216.001 53.088C215.849 53.376 215.773 53.716 215.773 54.108C215.773 54.508 215.853 54.86 216.013 55.164C216.173 55.46 216.401 55.692 216.697 55.86C216.993 56.02 217.333 56.1 217.717 56.1C218.037 56.1 218.329 56.044 218.593 55.932C218.865 55.82 219.097 55.652 219.289 55.428L219.985 56.136C219.713 56.456 219.377 56.7 218.977 56.868C218.585 57.036 218.165 57.12 217.717 57.12Z" fill="white"/>
<rect x="163.25" y="38.25" width="67.5" height="29.5" rx="7.75" stroke="#A4A3A3" stroke-width="0.5"/>
</svg>
