<svg width="194" height="120" viewBox="0 0 194 120" fill="none" xmlns="http://www.w3.org/2000/svg">
<rect x="20.25" y="20.25" width="77.5" height="29.5" rx="7.75" fill="#FBFBFB"/>
<path d="M41.1938 30.8292H42.3955" stroke="#4D4D4D" stroke-linecap="round" stroke-linejoin="round"/>
<path d="M31.604 30.8292H38.7965" stroke="#4D4D4D" stroke-linecap="round" stroke-linejoin="round"/>
<path d="M39.9981 32.0192C40.6617 32.0192 41.1997 31.4864 41.1997 30.8292C41.1997 30.1719 40.6617 29.6392 39.9981 29.6392C39.3344 29.6392 38.7964 30.1719 38.7964 30.8292C38.7964 31.4864 39.3344 32.0192 39.9981 32.0192Z" stroke="#4D4D4D" stroke-linecap="round" stroke-linejoin="round"/>
<path d="M41.1938 39.1708H42.3955" stroke="#4D4D4D" stroke-linecap="round" stroke-linejoin="round"/>
<path d="M31.604 39.1708H38.7965" stroke="#4D4D4D" stroke-linecap="round" stroke-linejoin="round"/>
<path d="M39.9981 40.3608C40.6617 40.3608 41.1997 39.8281 41.1997 39.1708C41.1997 38.5136 40.6617 37.9808 39.9981 37.9808C39.3344 37.9808 38.7964 38.5136 38.7964 39.1708C38.7964 39.8281 39.3344 40.3608 39.9981 40.3608Z" stroke="#4D4D4D" stroke-linecap="round" stroke-linejoin="round"/>
<path d="M35.2031 35H42.3956" stroke="#4D4D4D" stroke-linecap="round" stroke-linejoin="round"/>
<path d="M31.604 35H32.8057" stroke="#4D4D4D" stroke-linecap="round" stroke-linejoin="round"/>
<path d="M34.0015 36.19C34.6651 36.19 35.2032 35.6572 35.2032 35C35.2032 34.3428 34.6651 33.81 34.0015 33.81C33.3378 33.81 32.7998 34.3428 32.7998 35C32.7998 35.6572 33.3378 36.19 34.0015 36.19Z" stroke="#4D4D4D" stroke-linecap="round" stroke-linejoin="round"/>
<path d="M53.3 39.12C52.644 39.12 52.084 39 51.62 38.76C51.156 38.52 50.744 38.172 50.384 37.716L51.152 36.948C51.416 37.316 51.72 37.596 52.064 37.788C52.408 37.972 52.832 38.064 53.336 38.064C53.832 38.064 54.228 37.956 54.524 37.74C54.828 37.524 54.98 37.228 54.98 36.852C54.98 36.54 54.908 36.288 54.764 36.096C54.62 35.904 54.424 35.748 54.176 35.628C53.936 35.5 53.672 35.388 53.384 35.292C53.096 35.188 52.808 35.08 52.52 34.968C52.232 34.848 51.968 34.704 51.728 34.536C51.488 34.36 51.292 34.132 51.14 33.852C50.996 33.572 50.924 33.22 50.924 32.796C50.924 32.324 51.036 31.924 51.26 31.596C51.492 31.26 51.804 31.004 52.196 30.828C52.596 30.644 53.044 30.552 53.54 30.552C54.084 30.552 54.572 30.66 55.004 30.876C55.436 31.084 55.788 31.36 56.06 31.704L55.292 32.472C55.044 32.184 54.776 31.968 54.488 31.824C54.208 31.68 53.884 31.608 53.516 31.608C53.068 31.608 52.712 31.708 52.448 31.908C52.184 32.1 52.052 32.372 52.052 32.724C52.052 33.004 52.124 33.232 52.268 33.408C52.42 33.576 52.616 33.72 52.856 33.84C53.096 33.96 53.36 34.072 53.648 34.176C53.944 34.272 54.236 34.38 54.524 34.5C54.812 34.62 55.076 34.772 55.316 34.956C55.556 35.14 55.748 35.38 55.892 35.676C56.044 35.964 56.12 36.328 56.12 36.768C56.12 37.504 55.864 38.08 55.352 38.496C54.848 38.912 54.164 39.12 53.3 39.12ZM59.9702 39.12C59.4102 39.12 58.9062 38.988 58.4582 38.724C58.0102 38.46 57.6542 38.104 57.3902 37.656C57.1262 37.2 56.9942 36.692 56.9942 36.132C56.9942 35.58 57.1262 35.084 57.3902 34.644C57.6542 34.196 58.0102 33.84 58.4582 33.576C58.9062 33.312 59.4102 33.18 59.9702 33.18C60.5222 33.18 61.0222 33.312 61.4702 33.576C61.9262 33.832 62.2862 34.184 62.5502 34.632C62.8142 35.08 62.9462 35.58 62.9462 36.132C62.9462 36.692 62.8142 37.2 62.5502 37.656C62.2862 38.104 61.9262 38.46 61.4702 38.724C61.0222 38.988 60.5222 39.12 59.9702 39.12ZM59.9702 38.076C60.3302 38.076 60.6502 37.992 60.9302 37.824C61.2102 37.656 61.4302 37.428 61.5902 37.14C61.7502 36.844 61.8302 36.508 61.8302 36.132C61.8302 35.764 61.7462 35.436 61.5782 35.148C61.4182 34.86 61.1982 34.636 60.9182 34.476C60.6462 34.308 60.3302 34.224 59.9702 34.224C59.6102 34.224 59.2902 34.308 59.0102 34.476C58.7302 34.636 58.5102 34.86 58.3502 35.148C58.1902 35.436 58.1102 35.764 58.1102 36.132C58.1102 36.508 58.1902 36.844 58.3502 37.14C58.5102 37.428 58.7302 37.656 59.0102 37.824C59.2902 37.992 59.6102 38.076 59.9702 38.076ZM64.1631 39V33.3H65.2431V39H64.1631ZM65.2431 35.748L64.8351 35.568C64.8351 34.84 65.0031 34.26 65.3391 33.828C65.6751 33.396 66.1591 33.18 66.7911 33.18C67.0791 33.18 67.3391 33.232 67.5711 33.336C67.8031 33.432 68.0191 33.596 68.2191 33.828L67.5111 34.56C67.3911 34.432 67.2591 34.34 67.1151 34.284C66.9711 34.228 66.8031 34.2 66.6111 34.2C66.2111 34.2 65.8831 34.328 65.6271 34.584C65.3711 34.84 65.2431 35.228 65.2431 35.748ZM69.8438 39V30.912H70.9238V39H69.8438ZM68.4398 34.284V33.3H72.3278V34.284H68.4398Z" fill="#4D4D4D"/>
<path d="M84.5 34L82 36L79.5 34" stroke="#4D4D4D" stroke-width="1.2" stroke-linecap="round" stroke-linejoin="round"/>
<rect x="20.25" y="20.25" width="77.5" height="29.5" rx="7.75" stroke="#D3D3D3" stroke-width="0.5"/>
<rect x="20.25" y="70.25" width="77.5" height="29.5" rx="7.75" fill="white" fill-opacity="0.04"/>
<path d="M41.1938 80.8292H42.3955" stroke="white" stroke-linecap="round" stroke-linejoin="round"/>
<path d="M31.604 80.8292H38.7965" stroke="white" stroke-linecap="round" stroke-linejoin="round"/>
<path d="M39.9981 82.0192C40.6617 82.0192 41.1997 81.4864 41.1997 80.8292C41.1997 80.1719 40.6617 79.6392 39.9981 79.6392C39.3344 79.6392 38.7964 80.1719 38.7964 80.8292C38.7964 81.4864 39.3344 82.0192 39.9981 82.0192Z" stroke="white" stroke-linecap="round" stroke-linejoin="round"/>
<path d="M41.1938 89.1708H42.3955" stroke="white" stroke-linecap="round" stroke-linejoin="round"/>
<path d="M31.604 89.1708H38.7965" stroke="white" stroke-linecap="round" stroke-linejoin="round"/>
<path d="M39.9981 90.3608C40.6617 90.3608 41.1997 89.8281 41.1997 89.1708C41.1997 88.5136 40.6617 87.9808 39.9981 87.9808C39.3344 87.9808 38.7964 88.5136 38.7964 89.1708C38.7964 89.8281 39.3344 90.3608 39.9981 90.3608Z" stroke="white" stroke-linecap="round" stroke-linejoin="round"/>
<path d="M35.2031 85H42.3956" stroke="white" stroke-linecap="round" stroke-linejoin="round"/>
<path d="M31.604 85H32.8057" stroke="white" stroke-linecap="round" stroke-linejoin="round"/>
<path d="M34.0015 86.19C34.6651 86.19 35.2032 85.6572 35.2032 85C35.2032 84.3428 34.6651 83.81 34.0015 83.81C33.3378 83.81 32.7998 84.3428 32.7998 85C32.7998 85.6572 33.3378 86.19 34.0015 86.19Z" stroke="white" stroke-linecap="round" stroke-linejoin="round"/>
<path d="M53.3 89.12C52.644 89.12 52.084 89 51.62 88.76C51.156 88.52 50.744 88.172 50.384 87.716L51.152 86.948C51.416 87.316 51.72 87.596 52.064 87.788C52.408 87.972 52.832 88.064 53.336 88.064C53.832 88.064 54.228 87.956 54.524 87.74C54.828 87.524 54.98 87.228 54.98 86.852C54.98 86.54 54.908 86.288 54.764 86.096C54.62 85.904 54.424 85.748 54.176 85.628C53.936 85.5 53.672 85.388 53.384 85.292C53.096 85.188 52.808 85.08 52.52 84.968C52.232 84.848 51.968 84.704 51.728 84.536C51.488 84.36 51.292 84.132 51.14 83.852C50.996 83.572 50.924 83.22 50.924 82.796C50.924 82.324 51.036 81.924 51.26 81.596C51.492 81.26 51.804 81.004 52.196 80.828C52.596 80.644 53.044 80.552 53.54 80.552C54.084 80.552 54.572 80.66 55.004 80.876C55.436 81.084 55.788 81.36 56.06 81.704L55.292 82.472C55.044 82.184 54.776 81.968 54.488 81.824C54.208 81.68 53.884 81.608 53.516 81.608C53.068 81.608 52.712 81.708 52.448 81.908C52.184 82.1 52.052 82.372 52.052 82.724C52.052 83.004 52.124 83.232 52.268 83.408C52.42 83.576 52.616 83.72 52.856 83.84C53.096 83.96 53.36 84.072 53.648 84.176C53.944 84.272 54.236 84.38 54.524 84.5C54.812 84.62 55.076 84.772 55.316 84.956C55.556 85.14 55.748 85.38 55.892 85.676C56.044 85.964 56.12 86.328 56.12 86.768C56.12 87.504 55.864 88.08 55.352 88.496C54.848 88.912 54.164 89.12 53.3 89.12ZM59.9702 89.12C59.4102 89.12 58.9062 88.988 58.4582 88.724C58.0102 88.46 57.6542 88.104 57.3902 87.656C57.1262 87.2 56.9942 86.692 56.9942 86.132C56.9942 85.58 57.1262 85.084 57.3902 84.644C57.6542 84.196 58.0102 83.84 58.4582 83.576C58.9062 83.312 59.4102 83.18 59.9702 83.18C60.5222 83.18 61.0222 83.312 61.4702 83.576C61.9262 83.832 62.2862 84.184 62.5502 84.632C62.8142 85.08 62.9462 85.58 62.9462 86.132C62.9462 86.692 62.8142 87.2 62.5502 87.656C62.2862 88.104 61.9262 88.46 61.4702 88.724C61.0222 88.988 60.5222 89.12 59.9702 89.12ZM59.9702 88.076C60.3302 88.076 60.6502 87.992 60.9302 87.824C61.2102 87.656 61.4302 87.428 61.5902 87.14C61.7502 86.844 61.8302 86.508 61.8302 86.132C61.8302 85.764 61.7462 85.436 61.5782 85.148C61.4182 84.86 61.1982 84.636 60.9182 84.476C60.6462 84.308 60.3302 84.224 59.9702 84.224C59.6102 84.224 59.2902 84.308 59.0102 84.476C58.7302 84.636 58.5102 84.86 58.3502 85.148C58.1902 85.436 58.1102 85.764 58.1102 86.132C58.1102 86.508 58.1902 86.844 58.3502 87.14C58.5102 87.428 58.7302 87.656 59.0102 87.824C59.2902 87.992 59.6102 88.076 59.9702 88.076ZM64.1631 89V83.3H65.2431V89H64.1631ZM65.2431 85.748L64.8351 85.568C64.8351 84.84 65.0031 84.26 65.3391 83.828C65.6751 83.396 66.1591 83.18 66.7911 83.18C67.0791 83.18 67.3391 83.232 67.5711 83.336C67.8031 83.432 68.0191 83.596 68.2191 83.828L67.5111 84.56C67.3911 84.432 67.2591 84.34 67.1151 84.284C66.9711 84.228 66.8031 84.2 66.6111 84.2C66.2111 84.2 65.8831 84.328 65.6271 84.584C65.3711 84.84 65.2431 85.228 65.2431 85.748ZM69.8321 89V80.912H70.9121V89H69.8321ZM68.4281 84.284V83.3H72.3161V84.284H68.4281Z" fill="white"/>
<path d="M84.5 84L82 86L79.5 84" stroke="white" stroke-width="1.2" stroke-linecap="round" stroke-linejoin="round"/>
<rect x="20.25" y="70.25" width="77.5" height="29.5" rx="7.75" stroke="#D90866" stroke-width="0.5"/>
<rect x="0.5" y="0.5" width="117" height="119" rx="4.5" stroke="#9747FF" stroke-dasharray="10 5"/>
<rect x="150" y="20" width="24" height="24" rx="4" fill="#303837" fill-opacity="0.2"/>
<path d="M162 39.7113C161.447 39.221 160.822 38.711 160.162 38.1685H160.153C157.826 36.2656 155.188 34.1125 154.024 31.5325C153.641 30.7111 153.438 29.8175 153.429 28.9114C153.426 27.6681 153.925 26.4762 154.812 25.6052C155.699 24.7341 156.9 24.2574 158.143 24.2828C159.155 24.2844 160.145 24.5769 160.996 25.1254C161.369 25.3679 161.707 25.6613 162 25.9971C162.295 25.6626 162.633 25.3694 163.006 25.1254C163.856 24.5768 164.846 24.2843 165.857 24.2828C167.1 24.2574 168.301 24.7341 169.188 25.6052C170.075 26.4762 170.574 27.6681 170.572 28.9114C170.563 29.8189 170.36 30.7141 169.977 31.5368C168.812 34.1168 166.175 36.269 163.848 38.1685L163.84 38.1753C163.178 38.7145 162.554 39.2245 162.001 39.7182L162 39.7113ZM158.143 25.9971C157.345 25.9871 156.574 26.2927 156 26.8474C155.447 27.3909 155.137 28.1357 155.143 28.9114C155.153 29.5718 155.302 30.2227 155.582 30.8211C156.132 31.9342 156.874 32.9417 157.774 33.7971C158.623 34.6542 159.6 35.4839 160.445 36.1816C160.679 36.3745 160.918 36.569 161.156 36.7636L161.306 36.8862C161.535 37.073 161.771 37.2668 162 37.457L162.011 37.4468L162.016 37.4425H162.022L162.029 37.4365H162.034H162.038L162.053 37.4236L162.088 37.3953L162.094 37.3902L162.104 37.3833H162.109L162.117 37.3765L162.686 36.9093L162.835 36.7868C163.076 36.5905 163.314 36.3959 163.548 36.203C164.393 35.5053 165.371 34.6765 166.221 33.8151C167.121 32.9601 167.863 31.9529 168.412 30.8399C168.697 30.2363 168.849 29.5786 168.857 28.9114C168.861 28.1381 168.552 27.3962 168 26.8542C167.427 26.297 166.657 25.9889 165.857 25.9971C164.882 25.9888 163.949 26.3977 163.294 27.1208L162 28.6122L160.706 27.1208C160.051 26.3977 159.118 25.9888 158.143 25.9971Z" fill="white"/>
<rect x="150" y="74" width="24" height="24" rx="4" fill="#FBFBFB"/>
<path d="M162 93.7113C161.447 93.221 160.822 92.711 160.162 92.1685H160.153C157.826 90.2656 155.188 88.1125 154.024 85.5325C153.641 84.7111 153.438 83.8175 153.429 82.9114C153.426 81.6681 153.925 80.4762 154.812 79.6052C155.699 78.7341 156.9 78.2574 158.143 78.2828C159.155 78.2844 160.145 78.5769 160.996 79.1254C161.369 79.3679 161.707 79.6613 162 79.9971C162.295 79.6626 162.633 79.3694 163.006 79.1254C163.856 78.5768 164.846 78.2843 165.857 78.2828C167.1 78.2574 168.301 78.7341 169.188 79.6052C170.075 80.4762 170.574 81.6681 170.572 82.9114C170.563 83.8189 170.36 84.7141 169.977 85.5368C168.812 88.1168 166.175 90.269 163.848 92.1685L163.84 92.1753C163.178 92.7145 162.554 93.2245 162.001 93.7182L162 93.7113ZM158.143 79.9971C157.345 79.9871 156.574 80.2927 156 80.8474C155.447 81.3909 155.137 82.1357 155.143 82.9114C155.153 83.5718 155.302 84.2227 155.582 84.8211C156.132 85.9342 156.874 86.9417 157.774 87.7971C158.623 88.6542 159.6 89.4839 160.445 90.1816C160.679 90.3745 160.918 90.569 161.156 90.7636L161.306 90.8862C161.535 91.073 161.771 91.2668 162 91.457L162.011 91.4468L162.016 91.4425H162.022L162.029 91.4365H162.034H162.038L162.053 91.4236L162.088 91.3953L162.094 91.3902L162.104 91.3833H162.109L162.117 91.3765L162.686 90.9093L162.835 90.7868C163.076 90.5905 163.314 90.3959 163.548 90.203C164.393 89.5053 165.371 88.6765 166.221 87.8151C167.121 86.9601 167.863 85.9529 168.412 84.8399C168.697 84.2363 168.849 83.5786 168.857 82.9114C168.861 82.1381 168.552 81.3962 168 80.8542C167.427 80.297 166.657 79.9889 165.857 79.9971C164.882 79.9888 163.949 80.3977 163.294 81.1208L162 82.6122L160.706 81.1208C160.051 80.3977 159.118 79.9888 158.143 79.9971Z" fill="#D90866"/>
<rect x="130.5" y="0.5" width="63" height="119" rx="4.5" stroke="#9747FF" stroke-dasharray="10 5"/>
</svg>
